<svg width="242" height="336" viewBox="0 0 242 336" fill="none" xmlns="http://www.w3.org/2000/svg">
<path d="M7.52 133.01C6.89333 114.21 9.08667 96.82 14.1 80.84C19.1133 64.5467 26.6333 50.4467 36.66 38.54C46.6867 26.32 59.22 16.92 74.26 10.34C89.6133 3.44667 107.16 0 126.9 0C141.94 0 156.197 2.35 169.67 7.04999C183.457 11.75 195.52 18.4867 205.86 27.26C216.2 36.0333 224.347 46.8433 230.3 59.69C236.567 72.5367 239.7 86.95 239.7 102.93C239.7 119.537 237.037 133.793 231.71 145.7C226.383 157.607 219.333 168.26 210.56 177.66C201.787 186.747 191.76 195.05 180.48 202.57C169.513 210.09 158.39 217.61 147.11 225.13C135.83 232.337 124.863 240.17 114.21 248.63C103.557 257.09 94.1567 266.96 86.01 278.24H241.58V335.58H0C0 316.467 2.66333 299.86 7.99 285.76C13.63 271.66 21.15 259.127 30.55 248.16C39.95 236.88 50.9167 226.54 63.45 217.14C76.2967 207.74 89.77 198.183 103.87 188.47C111.077 183.457 118.753 178.443 126.9 173.43C135.047 168.103 142.41 162.307 148.99 156.04C155.883 149.773 161.523 142.723 165.91 134.89C170.61 127.057 172.96 118.127 172.96 108.1C172.96 92.12 168.26 79.7433 158.86 70.97C149.773 61.8833 138.023 57.34 123.61 57.34C113.897 57.34 105.593 59.69 98.7 64.39C92.12 68.7767 86.7933 74.73 82.72 82.25C78.6467 89.4567 75.67 97.6033 73.79 106.69C72.2233 115.463 71.44 124.237 71.44 133.01H7.52Z" fill="#EADBFF"/>
</svg>
