<svg width="245" height="342" viewBox="0 0 245 342" fill="none" xmlns="http://www.w3.org/2000/svg">
<path d="M98.7247 139.59C105.931 140.217 113.608 140.217 121.755 139.59C129.901 138.963 137.421 137.24 144.315 134.42C151.521 131.287 157.318 126.9 161.705 121.26C166.405 115.62 168.755 108.1 168.755 98.7C168.755 84.6 164.055 73.79 154.655 66.27C145.255 58.75 134.445 54.99 122.225 54.99C105.305 54.99 92.4581 60.63 83.6847 71.91C75.2247 82.8767 71.1514 96.82 71.4647 113.74H8.01474C8.6414 96.82 11.6181 81.4667 16.9447 67.68C22.5847 53.58 30.2614 41.5167 39.9747 31.49C50.0014 21.4633 61.9081 13.7867 75.6947 8.46C89.4814 2.82 104.835 0 121.755 0C134.915 0 148.075 2.03667 161.235 6.11001C174.395 9.87001 186.145 15.6667 196.485 23.5C207.138 31.3333 215.755 40.89 222.335 52.17C228.915 63.45 232.205 76.4533 232.205 91.18C232.205 107.16 228.288 121.26 220.455 133.48C212.935 145.7 201.498 154.003 186.145 158.39V159.33C204.318 163.403 218.575 172.177 228.915 185.65C239.255 199.123 244.425 215.26 244.425 234.06C244.425 251.293 240.978 266.647 234.085 280.12C227.505 293.593 218.575 304.873 207.295 313.96C196.015 323.047 183.011 329.94 168.285 334.64C153.558 339.34 138.205 341.69 122.225 341.69C103.738 341.69 86.8181 339.027 71.4647 333.7C56.4247 328.373 43.5781 320.697 32.9247 310.67C22.2714 300.33 13.9681 287.797 8.01474 273.07C2.37474 258.343 -0.288597 241.423 0.0247369 222.31H63.4747C63.7881 231.083 65.1981 239.543 67.7047 247.69C70.2114 255.523 73.8147 262.417 78.5147 268.37C83.2147 274.01 89.0114 278.553 95.9047 282C103.111 285.447 111.571 287.17 121.285 287.17C136.325 287.17 149.015 282.627 159.355 273.54C169.695 264.14 174.865 251.45 174.865 235.47C174.865 222.937 172.358 213.38 167.345 206.8C162.645 200.22 156.535 195.52 149.015 192.7C141.495 189.567 133.191 187.843 124.105 187.53C115.331 186.903 106.871 186.59 98.7247 186.59V139.59Z" fill="#BBF1D4"/>
</svg>
