<svg width="140" height="120" viewBox="0 0 140 120" fill="none" xmlns="http://www.w3.org/2000/svg">
<path d="M72.3861 23.433C71.4591 23.039 70.1522 21.8601 69.023 22.395C67.8119 22.9686 66.347 23.3552 65.2861 24.1803C62.7855 26.1253 59.8989 27.7455 58.4768 30.699C55.8605 36.1329 55.5841 43.7411 56.5046 49.6323C56.8859 52.0729 57.3929 54.4649 57.8125 56.8776C58.2055 59.1372 58.8021 62.0869 59.7639 64.1644C61.6681 68.2773 62.9676 71.5616 66.2203 74.8143C68.9495 77.5434 70.9958 80.3562 75.0019 81.0631C81.754 82.2547 91.0702 79.4772 91.0702 71.0775C91.0702 67.5809 91.8176 64.1012 91.8176 60.5521C91.8176 56.9259 91.3537 52.9693 90.5097 49.4247C89.2815 44.2662 87.8443 38.3698 84.51 34.0829C81.9938 30.8478 80.4186 27.0502 76.7042 24.9277C75.543 24.2641 74.7632 23.06 73.5072 22.395C71.6987 21.4376 71.0353 21.8663 69.3966 22.6856" stroke="black" stroke-width="2.5" stroke-linecap="round" stroke-linejoin="round"/>
<path d="M82.8481 58.5594C77.2615 57.4693 70.5166 61.8533 70.5166 67.9014C70.5166 69.509 71.7402 73.9329 74.2534 72.6762C76.0295 71.7882 76.7873 70.7014 77.5335 69.0225C78.4199 67.0281 78.2495 64.5398 79.8587 62.8359C80.8658 61.7695 82.1555 60.6829 83.3048 59.7634C85.122 58.3097 80.6246 59.7609 79.9417 59.971C77.8951 60.6008 75.3994 61.8082 73.8797 63.4172C72.4823 64.8969 70.5166 67.6647 70.5166 69.7698C70.5166 70.5239 70.937 71.2438 71.6376 71.5552C72.6282 71.9954 72.9933 70.3286 73.2154 69.6868C74.0107 67.3892 74.852 64.3112 76.4955 62.4623C77.215 61.6528 75.0519 65.815 74.6271 66.4897C74.0882 67.3457 73.0086 69.047 73.5891 70.1435C74.3106 71.5063 75.3042 69.4356 75.4575 68.8564C75.9161 67.1238 76.9409 65.7278 77.5335 64.0816C77.6935 63.6371 78.4366 61.6422 77.2429 62.8359C76.0002 64.0786 74.8728 66.542 74.0458 68.109C73.8144 68.5476 72.5303 70.937 72.6757 70.8078C73.5169 70.0601 74.005 68.498 74.5441 67.5277C75.1005 66.5261 74.4462 68.3596 74.2534 68.6488" stroke="black" stroke-width="2.5" stroke-linecap="round" stroke-linejoin="round"/>
<path d="M61.5439 44.3593C61.6024 41.9616 62.4913 41.0038 64.0767 39.4184C64.5748 38.9203 66.3161 37.921 66.7755 38.3804" stroke="black" stroke-width="2.5" stroke-linecap="round" stroke-linejoin="round"/>
<path d="M73.877 36.8857C75.5255 36.926 78.7096 37.102 80.1465 38.0068C80.6473 38.3221 82.4523 40.2392 80.9769 39.5015" stroke="black" stroke-width="2.5" stroke-linecap="round" stroke-linejoin="round"/>
<path d="M67.1523 46.9746C67.1524 46.9746 67.1524 46.9746 67.1524 46.9746" stroke="black" stroke-width="2.5" stroke-linecap="round" stroke-linejoin="round"/>
<path d="M78.3611 45.1064C75.84 47.1395 78.457 46.524 77.9043 45.4801C77.65 44.9997 77.1346 45.0994 77.2608 45.667C77.3318 45.9866 77.9613 46.549 77.6137 45.8538" stroke="black" stroke-width="2.5" stroke-linecap="round" stroke-linejoin="round"/>
<path d="M68.2748 47.3486C66.9019 48.4212 66.6898 49.4233 67.8181 48.013C68.1526 47.5947 67.1538 46.9457 67.1538 48.4697" stroke="black" stroke-width="2.5" stroke-linecap="round" stroke-linejoin="round"/>
<path d="M58.1836 60.0537C58.1836 60.0537 58.1837 60.0537 58.1837 60.0537" stroke="black" stroke-width="2.5" stroke-linecap="round" stroke-linejoin="round"/>
<path d="M57.8076 60.0538C56.6446 59.1452 55.513 56.6377 53.8632 56.3377C52.1245 56.0216 49.2372 56.4266 47.6974 57.2927C42.2754 60.3426 42.9419 68.3921 41.9469 73.6517C40.6887 80.3023 41.7393 87.1136 41.7393 93.8306C41.7393 97.9196 40.6728 85.7162 39.8709 81.7066C38.559 75.1472 36.1202 69.0201 34.0995 62.6696C33.545 60.9266 32.8103 59.0169 32.418 57.2512C32.158 56.0813 33.5133 54.7885 34.0995 53.8673C35.3898 51.8397 36.0678 49.6048 36.6946 47.3486C36.994 46.2706 36.9959 43.2602 35.9472 42.6776C34.9222 42.1081 33.0456 45.1359 32.5841 45.8539C30.9981 48.3209 29.7177 50.1593 27.3525 51.9989C26.6576 52.5393 25.708 50.6799 25.2142 50.3381C22.1749 48.2339 19.8918 45.9963 17.8236 42.8644C15.6476 39.5693 14.3232 36.2018 12.509 32.775C12.4827 32.7252 11.288 35.9672 11.1803 36.7609C10.3454 42.9186 9.17397 51.5318 13.4224 56.6907C15.194 58.8418 17.5296 60.5226 20.1487 61.4655C20.7258 61.6733 23.7834 62.718 23.8025 63.0433C23.9414 65.4036 25.1372 68.1267 25.8785 70.3508C27.385 74.8702 27.8499 79.6548 29.4908 84.1356C32.4819 92.3036 32.9632 101.156 36.051 109.297C37.1052 112.076 38.8711 113.572 41.2826 114.985C43.3166 116.178 46.0543 114.084 47.4276 112.66C49.7998 110.2 51.1511 106.431 51.8287 103.193C52.2658 101.105 53.403 98.3684 52.5761 96.301" stroke="black" stroke-width="2.5" stroke-linecap="round" stroke-linejoin="round"/>
<path d="M92.1904 54.4488C98.2858 50.8807 102.295 56.9359 104.335 62.1508C105.944 66.2633 106.794 70.47 107.594 74.7937C108.203 78.0794 109.368 81.4412 109.754 84.717C110.265 89.0606 110.955 76.0446 111.227 71.6797C111.502 67.289 111.911 62.299 112.93 58.0195C113.398 56.0536 112.743 53.7062 112.743 51.6461C112.743 50.3517 112.833 49.4731 111.622 48.7605C110.583 48.1494 109.14 45.8668 109.006 44.733C108.818 43.1375 108.282 41.3591 108.653 39.6883C109.14 37.4985 110.341 39.0152 111.435 39.5014C113.946 40.6174 113.559 46.79 117.601 44.65C118.928 43.9473 119.953 41.5595 120.59 40.2488C122.168 37.0062 123.174 33.2765 126.196 30.9898C127.356 30.1117 130.737 26.8298 132.361 27.1907C134.03 27.5615 134.79 31.6894 134.79 32.9828C134.79 38.286 133.542 42.9406 129.932 46.9751C128.268 48.8355 126.132 50.5281 124.888 52.7672C124.11 54.1667 124.175 56.0745 123.767 57.6251C123.081 60.2296 123.773 63.195 123.559 65.8668C123.307 69.0151 122.92 71.9959 122.832 75.1674C122.749 78.186 122.435 82.2482 121.628 85.1738C120.264 90.1197 117.327 95.5877 113.137 98.7301C110.259 100.889 107.617 98.4465 105.56 96.2182C104.114 94.6513 102.383 92.7366 100.702 91.4433C100.402 91.2128 98.9415 89.5456 99.2904 90.1562C99.6562 90.7964 100.371 91.6535 100.038 90.3223" stroke="black" stroke-width="2.5" stroke-linecap="round" stroke-linejoin="round"/>
<path d="M97.7959 73.5059C97.7959 75.864 98.5433 78.0688 98.5433 80.419C98.5433 82.9016 98.6992 85.8306 99.2076 88.2456C99.9901 91.9625 99.4561 97.1335 98.5433 100.785" stroke="black" stroke-width="2.5" stroke-linecap="round" stroke-linejoin="round"/>
<path d="M97.4227 105.27C97.0613 107.167 97.2814 109.089 96.5093 110.854C95.973 112.08 96.0391 111.289 96.3017 110.501" stroke="black" stroke-width="2.5" stroke-linecap="round" stroke-linejoin="round"/>
<path d="M51.459 85.8379C52.5365 88.599 52.9537 91.8478 52.9537 94.8063C52.9537 98.316 53.6451 101.713 53.7011 105.186C53.7409 107.652 53.5438 109.656 52.9537 112.016C52.7781 112.719 51.7452 115.776 52.58 115.359" stroke="black" stroke-width="2.5" stroke-linecap="round" stroke-linejoin="round"/>
<path d="M131.426 73.1328C131.426 73.1328 131.426 73.1328 131.426 73.1328" stroke="#699BF7" stroke-width="2.5" stroke-linecap="round" stroke-linejoin="round"/>
</svg>
