<svg width="92" height="92" viewBox="0 0 92 92" fill="none" xmlns="http://www.w3.org/2000/svg">
<g clip-path="url(#clip0_1_986)">
<path d="M77.0747 64.3428V74.6773C77.0747 76.942 75.4065 79.0714 72.4501 80.9431C72.0296 81.2008 71.5821 81.472 71.0939 81.7162C71.0939 81.7162 71.0803 81.7162 71.0803 81.7297C70.6599 81.9604 70.2124 82.1774 69.7377 82.4079C68.151 83.1538 66.32 83.8456 64.3128 84.4558C63.8652 84.5915 63.4175 84.7269 62.9566 84.8626H62.943C62.5091 84.9846 62.0615 85.1066 61.6004 85.2288C59.8917 85.6628 58.0878 86.0559 56.1755 86.3817C55.7279 86.463 55.2804 86.5443 54.8193 86.6123H54.8057C54.3582 86.6801 53.9242 86.7612 53.4632 86.8156C51.7137 87.0732 49.9098 87.2769 48.0382 87.4394C47.5906 87.48 47.1429 87.5209 46.682 87.548H46.6684C46.2209 87.5887 45.7869 87.616 45.3259 87.6431C43.5628 87.7514 41.7454 87.8193 39.9009 87.8329C39.4533 87.8464 39.0058 87.8464 38.5447 87.8464H38.5311C38.0701 87.8464 37.6361 87.8464 37.1886 87.8329C35.344 87.8193 33.5268 87.7514 31.7636 87.6431C31.3025 87.616 30.8549 87.5889 30.4074 87.548H30.3939C29.9328 87.5209 29.4988 87.48 29.0513 87.4394C27.1796 87.2767 25.3759 87.0732 23.6263 86.8156C23.1652 86.7614 22.7176 86.6801 22.2701 86.6123H22.2566C21.7955 86.5443 21.3615 86.463 20.914 86.3817C19.0016 86.0559 17.198 85.6628 15.489 85.2288C15.0279 85.1066 14.5668 84.9846 14.1328 84.8626H14.1193C13.6582 84.7269 13.2242 84.5915 12.7767 84.4558C10.7694 83.8456 8.93845 83.1538 7.35166 82.4079C6.87702 82.191 6.42949 81.9604 5.99551 81.7162C5.99551 81.7162 5.98196 81.7162 5.98196 81.7026C5.50731 81.4722 5.05978 81.2146 4.63936 80.9433C1.68168 79.085 0 76.942 0 74.6773V64.3428H77.0747Z" fill="#F6C358"/>
<path d="M77.0747 64.343C77.0747 66.608 75.4065 68.7372 72.4501 70.5817C72.0161 70.8664 71.5685 71.1377 71.0801 71.3821C70.6597 71.6261 70.2122 71.843 69.7375 72.0736C68.1508 72.8196 66.3198 73.4978 64.3126 74.1215C63.865 74.2571 63.4173 74.3928 62.9564 74.5282H62.9428C62.5089 74.6504 62.0613 74.7726 61.6003 74.8944C59.8915 75.3286 58.0876 75.7219 56.1753 76.0474C55.7277 76.1289 55.2802 76.2101 54.8191 76.2779H54.8055C54.358 76.3458 53.924 76.4272 53.463 76.4814C51.7135 76.7391 49.9096 76.9425 48.038 77.1053C47.5904 77.146 47.1427 77.1867 46.6818 77.2138H46.6683C46.2207 77.2542 45.7867 77.2816 45.3257 77.3087C43.5626 77.4173 41.7452 77.4851 39.9007 77.4986C39.4531 77.5122 39.0056 77.5122 38.5445 77.5122H38.531C38.0699 77.5122 37.6359 77.5122 37.1884 77.4986C35.3438 77.4853 33.5266 77.4173 31.7634 77.3087C31.3023 77.2816 30.8547 77.2544 30.4072 77.2138H30.3937C29.9326 77.1867 29.4986 77.146 29.0511 77.1053C27.1794 76.9425 25.3757 76.7391 23.6261 76.4814C23.165 76.4272 22.7174 76.3458 22.2699 76.2779H22.2564C21.7953 76.2101 21.3613 76.1289 20.9138 76.0474C19.0014 75.7219 17.1978 75.3286 15.4888 74.8944C15.0277 74.7726 14.5666 74.6504 14.1326 74.5282H14.1191C13.658 74.3928 13.224 74.2571 12.7765 74.1215C10.7692 73.5111 8.93826 72.8196 7.35147 72.0736C6.87682 71.8566 6.42929 71.6261 5.99531 71.3821C5.99531 71.3821 5.98176 71.3821 5.98176 71.3686C5.50712 71.1377 5.05958 70.8802 4.63916 70.609C1.68168 68.7507 0 66.608 0 64.343C0 57.0737 17.2647 51.1738 38.5441 51.1738C59.8235 51.1738 77.0747 57.0737 77.0747 64.343Z" fill="#FCD462"/>
<path d="M38.4255 73.8324C38.0416 73.8324 37.6768 73.8318 37.3006 73.8204C35.5258 73.8066 33.7678 73.7449 31.9883 73.6359C31.5547 73.6102 31.1449 73.5856 30.7353 73.5491L30.5713 73.5341H30.5072C30.1442 73.5108 29.798 73.4783 29.4434 73.4461C27.4902 73.276 25.7867 73.0801 24.1612 72.8412C23.787 72.7956 23.5269 72.7526 23.2687 72.7106L22.5373 72.598C22.2648 72.5536 21.5723 72.4267 21.5723 72.4267C19.824 72.1297 18.1433 71.7727 16.3925 71.3283C15.987 71.2204 15.545 71.1037 15.1281 70.9863L13.8409 70.5992C12.3183 70.1362 10.915 69.6266 9.66027 69.0802V69.0688L7.61848 68.0734L6.95838 67.7021H6.93146C6.83264 67.6427 6.73265 67.5811 6.63324 67.517C4.44352 66.14 3.67969 64.9505 3.67969 64.3432C3.67969 60.9981 16.9161 54.8545 38.5437 54.8545C60.1626 54.8545 73.3941 60.9979 73.3941 64.3432C73.3941 64.9487 72.6363 66.1281 70.5016 67.4596C70.0517 67.7537 69.735 67.94 69.4325 68.0915L69.2307 68.2005C68.896 68.3952 68.5378 68.5653 68.161 68.7486C66.8182 69.3798 65.1519 70.0069 63.2197 70.6077L61.9457 70.9863C61.5288 71.1032 61.0993 71.2204 60.6567 71.3379C58.9436 71.7721 57.2637 72.1291 55.5578 72.4196C55.1948 72.4854 54.8594 72.5465 54.5229 72.6006L53.7777 72.7155C53.5333 72.7556 53.2895 72.797 53.0351 72.8269C51.2994 73.0803 49.5959 73.2762 47.7181 73.4396C47.3294 73.475 46.9522 73.5092 46.5669 73.5343L46.3386 73.5493C45.9296 73.5858 45.5318 73.6104 45.1102 73.6349C43.3198 73.7451 41.5619 73.8068 39.8736 73.8188C39.4143 73.832 39.029 73.8326 38.6398 73.8326C38.6082 73.8324 38.4603 73.8324 38.4255 73.8324Z" fill="#F6C358"/>
<path d="M7.35097 72.072V82.4065C6.87633 82.1896 6.4288 81.959 5.99482 81.7148C5.99482 81.7148 5.98127 81.7148 5.98127 81.7012C5.50662 81.4708 5.05909 81.2132 4.63867 80.9419V70.6074C5.05909 70.8785 5.50662 71.1363 5.98127 71.3669C5.98127 71.3805 5.99482 71.3805 5.99482 71.3805C6.4288 71.6247 6.87633 71.8551 7.35097 72.072Z" fill="#DC8744"/>
<path d="M15.4887 74.894V85.2286C15.0276 85.1064 14.5665 84.9845 14.1325 84.8624H14.119C13.6579 84.7267 13.2239 84.5913 12.7764 84.4556V74.1211C13.2239 74.2566 13.6579 74.3924 14.119 74.5278H14.1325C14.5665 74.65 15.0276 74.7722 15.4887 74.894Z" fill="#DC8744"/>
<path d="M23.6254 76.4808V86.8153C23.1643 86.7611 22.7168 86.6798 22.2692 86.612H22.2557C21.7946 86.544 21.3606 86.4627 20.9131 86.3814V76.0469C21.3606 76.1284 21.7946 76.2095 22.2557 76.2773H22.2692C22.7168 76.3451 23.1643 76.4266 23.6254 76.4808Z" fill="#DC8744"/>
<path d="M31.7631 77.3078V87.6425C31.302 87.6154 30.8545 87.5883 30.4069 87.5474H30.3934C29.9323 87.5203 29.4983 87.4794 29.0508 87.4388V77.1045C29.4983 77.1452 29.9323 77.1858 30.3934 77.2129H30.4069C30.8545 77.2534 31.3018 77.2805 31.7631 77.3078Z" fill="#DC8744"/>
<path d="M39.9008 77.498V87.8325C39.4532 87.8461 39.0057 87.8461 38.5446 87.8461H38.5311C38.07 87.8461 37.636 87.8461 37.1885 87.8325V77.498C37.636 77.5116 38.07 77.5116 38.5311 77.5116H38.5446C39.0057 77.5116 39.4532 77.5116 39.9008 77.498Z" fill="#DC8744"/>
<path d="M48.0375 77.1045V87.4388C47.59 87.4794 47.1422 87.5203 46.6813 87.5474H46.6678C46.2203 87.5881 45.7863 87.6154 45.3252 87.6425V77.3078C45.7863 77.2807 46.2203 77.2536 46.6678 77.2129H46.6813C47.1422 77.1856 47.5898 77.1452 48.0375 77.1045Z" fill="#DC8744"/>
<path d="M56.1752 76.0469V86.3814C55.7277 86.4627 55.2801 86.544 54.819 86.612H54.8055C54.358 86.6798 53.924 86.7609 53.4629 86.8153V76.4808C53.924 76.4266 54.358 76.3453 54.8055 76.2773H54.819C55.2801 76.2095 55.7277 76.1282 56.1752 76.0469Z" fill="#DC8744"/>
<path d="M64.3119 74.1211V84.4556C63.8644 84.5913 63.4167 84.7267 62.9558 84.8624H62.9422C62.5082 84.9845 62.0607 85.1064 61.5996 85.2286V74.894C62.0607 74.7722 62.5082 74.65 62.9422 74.5278H62.9558C63.4167 74.3924 63.8642 74.2566 64.3119 74.1211Z" fill="#DC8744"/>
<path d="M72.4496 70.5811V80.9427C72.0292 81.2004 71.5817 81.4715 71.0935 81.7157C71.0935 81.7157 71.0799 81.7157 71.0799 81.7293C70.6595 81.9599 70.2119 82.177 69.7373 82.4074V72.073C70.2119 71.8423 70.6595 71.6254 71.0799 71.3814C71.5681 71.137 72.0156 70.8657 72.4496 70.5811Z" fill="#DC8744"/>
<path d="M92.0005 48.6699V59.0044C92.0005 61.2692 90.3323 63.3986 87.3758 65.2702C86.9554 65.528 86.5079 65.7991 86.0197 66.0433C86.0197 66.0433 86.0061 66.0433 86.0061 66.0569C85.5857 66.2875 85.1382 66.5046 84.6635 66.735C83.0767 67.481 81.2458 68.1727 79.2385 68.7829C78.791 68.9187 78.3435 69.054 77.8824 69.1898H77.8688C77.4348 69.3118 76.9873 69.4338 76.5262 69.556C74.8174 69.99 73.0136 70.3831 71.1012 70.7088C70.6537 70.7901 70.2062 70.8715 69.7451 70.9394H69.7315C69.284 71.0072 68.85 71.0884 68.3889 71.1428C66.6395 71.4003 64.8356 71.6041 62.9639 71.7665C62.5164 71.8072 62.0689 71.8481 61.6078 71.8752H61.5942C61.1467 71.9158 60.7127 71.9431 60.2516 71.9703C58.4886 72.0785 56.6712 72.1465 54.8266 72.16C54.3791 72.1736 53.9316 72.1736 53.4705 72.1736H53.4569C52.9958 72.1736 52.5619 72.1736 52.1143 72.16C50.2698 72.1465 48.4525 72.0785 46.6893 71.9703C46.2282 71.9431 45.7807 71.916 45.3332 71.8752H45.3196C44.8585 71.8481 44.4246 71.8072 43.977 71.7665C42.1054 71.6039 40.3017 71.4003 38.552 71.1428C38.091 71.0886 37.6434 71.0072 37.1959 70.9394H37.1823C36.7212 70.8715 36.2873 70.7901 35.8397 70.7088C33.9274 70.3831 32.1237 69.99 30.4147 69.556C29.9537 69.4338 29.4926 69.3118 29.0586 69.1898H29.045C28.5839 69.054 28.15 68.9187 27.7024 68.7829C25.6952 68.1727 23.8642 67.481 22.2774 66.735C21.8028 66.5181 21.3553 66.2875 20.9213 66.0433C20.9213 66.0433 20.9077 66.0433 20.9077 66.0298C20.4331 65.7993 19.9856 65.5418 19.5651 65.2704C16.6086 63.4123 14.9268 61.2694 14.9268 59.0046V48.6701H92.0005V48.6699Z" fill="#F6C358"/>
<path d="M91.9997 48.67C91.9997 50.9349 90.3315 53.0641 87.375 54.9087C86.9411 55.1934 86.4935 55.4647 86.0051 55.7091C85.5847 55.9531 85.1372 56.1699 84.6626 56.4006C83.0758 57.1465 81.2448 57.8247 79.2376 58.4485C78.79 58.584 78.3425 58.7198 77.8814 58.8553H77.8678C77.4339 58.9775 76.9863 59.0997 76.5252 59.2215C74.8165 59.6557 73.0126 60.049 71.1003 60.3745C70.6527 60.4561 70.2052 60.5372 69.7441 60.605H69.7305C69.283 60.673 68.849 60.7543 68.388 60.8085C66.6385 61.0663 64.8346 61.2696 62.963 61.4325C62.5154 61.4731 62.0679 61.5138 61.6068 61.5409H61.5932C61.1457 61.5814 60.7117 61.6087 60.2507 61.6358C58.4876 61.7445 56.6702 61.8122 54.8257 61.8258C54.3781 61.8393 53.9306 61.8393 53.4695 61.8393H53.456C52.9949 61.8393 52.5609 61.8393 52.1134 61.8258C50.2688 61.8124 48.4516 61.7445 46.6884 61.6358C46.2273 61.6087 45.7797 61.5816 45.3322 61.5409H45.3187C44.8576 61.5138 44.4236 61.4731 43.9761 61.4325C42.1044 61.2696 40.3007 61.0663 38.5511 60.8085C38.09 60.7543 37.6424 60.673 37.1949 60.605H37.1814C36.7203 60.5372 36.2863 60.4561 35.8388 60.3745C33.9264 60.049 32.1227 59.6557 30.4138 59.2215C29.9527 59.0997 29.4916 58.9775 29.0576 58.8553H29.0441C28.583 58.72 28.149 58.5842 27.7015 58.4485C25.6942 57.8381 23.8633 57.1465 22.2765 56.4006C21.8018 56.1835 21.3543 55.9531 20.9203 55.7091C20.9203 55.7091 20.9068 55.7091 20.9068 55.6955C20.4321 55.4647 19.9846 55.2071 19.5642 54.936C16.6077 53.0779 14.9258 50.9351 14.9258 48.6702C14.9258 41.4008 32.1905 35.501 53.4699 35.501C74.7493 35.501 91.9997 41.4004 91.9997 48.67Z" fill="#FCD462"/>
<path d="M53.3489 58.1587C52.9662 58.1587 52.6014 58.1581 52.2265 58.1467C50.4405 58.133 48.683 58.0713 46.9155 57.9623C46.4825 57.9365 46.0739 57.9126 45.666 57.8754L45.4994 57.8605H45.431C45.0825 57.8383 44.7493 57.8073 44.4093 57.7766C42.407 57.6018 40.7035 57.4059 39.0882 57.1674C38.7126 57.1218 38.4527 57.0788 38.1939 57.0368L37.4625 56.9242C37.1816 56.8786 36.4963 56.7535 36.4963 56.7535C34.7408 56.4541 33.0607 56.0971 31.3195 55.6543C30.9128 55.5464 30.4708 55.4297 30.055 55.3122L28.769 54.9266C27.2406 54.4618 25.8371 53.9516 24.5859 53.4064V53.3921L22.5338 52.3948L21.8834 52.0288H21.8576C21.7582 51.9695 21.6582 51.9072 21.5576 51.8426C19.3691 50.4674 18.6055 49.2778 18.6055 48.67C18.6055 45.3249 31.8418 39.1807 53.4695 39.1807C75.0884 39.1807 88.3198 45.3247 88.3198 48.67C88.3198 49.2749 87.5621 50.4542 85.4274 51.7858C84.9745 52.0817 84.6577 52.2679 84.3583 52.4184L84.1594 52.5257C83.8241 52.7204 83.4652 52.8911 83.0874 53.0744C81.7426 53.707 80.0776 54.3341 78.146 54.9341C77.7932 55.0407 76.8714 55.3126 76.8714 55.3126C76.4545 55.4295 76.0251 55.5468 75.5825 55.6643C73.8778 56.0973 72.1977 56.4542 70.4824 56.7466C70.1213 56.8124 69.787 56.8729 69.451 56.9263L68.7005 57.0424C68.4573 57.0825 68.2141 57.1234 67.9609 57.1532C66.234 57.4061 64.5313 57.602 62.6439 57.766C62.2528 57.802 61.8779 57.8361 61.4945 57.8607L61.2597 57.8756C60.8518 57.9128 60.456 57.9367 60.0359 57.9613C58.2564 58.0715 56.4991 58.1332 54.7994 58.1452C54.34 58.1583 53.9548 58.1589 53.5656 58.1589C53.534 58.1587 53.3841 58.1587 53.3489 58.1587Z" fill="#F6C358"/>
<path d="M22.2768 56.3992V66.7337C21.8021 66.5168 21.3546 66.2861 20.9206 66.0419C20.9206 66.0419 20.907 66.0419 20.907 66.0284C20.4324 65.7979 19.9849 65.5404 19.5645 65.2691V54.9346C19.9849 55.2057 20.4324 55.4634 20.907 55.6941C20.907 55.7076 20.9206 55.7076 20.9206 55.7076C21.3546 55.9516 21.8021 56.1821 22.2768 56.3992Z" fill="#DC8744"/>
<path d="M30.4145 59.2211V69.5558C29.9534 69.4336 29.4923 69.3116 29.0583 69.1896H29.0447C28.5837 69.0538 28.1497 68.9185 27.7021 68.7827V58.4482C28.1497 58.5838 28.5837 58.7195 29.0447 58.8551H29.0583C29.4923 58.9769 29.9534 59.0991 30.4145 59.2211Z" fill="#DC8744"/>
<path d="M38.5512 60.808V71.1425C38.0901 71.0883 37.6425 71.0069 37.195 70.9391H37.1815C36.7204 70.8712 36.2864 70.7898 35.8389 70.7085V60.374C36.2864 60.4556 36.7204 60.5367 37.1815 60.6045H37.195C37.6425 60.6724 38.0901 60.7538 38.5512 60.808Z" fill="#DC8744"/>
<path d="M46.6889 61.635V71.9697C46.2278 71.9425 45.7802 71.9154 45.3327 71.8746H45.3192C44.8581 71.8475 44.4241 71.8066 43.9766 71.7659V61.4316C44.4241 61.4723 44.8581 61.513 45.3192 61.5401H45.3327C45.7802 61.5806 46.2278 61.6079 46.6889 61.635Z" fill="#DC8744"/>
<path d="M54.8266 61.8252V72.1597C54.379 72.1732 53.9315 72.1732 53.4704 72.1732H53.4569C52.9958 72.1732 52.5618 72.1732 52.1143 72.1597V61.8252C52.5618 61.8388 52.9958 61.8388 53.4569 61.8388H53.4704C53.9315 61.8388 54.379 61.8388 54.8266 61.8252Z" fill="#DC8744"/>
<path d="M62.9643 61.4316V71.7659C62.5167 71.8066 62.0692 71.8475 61.6081 71.8746H61.5946C61.147 71.9152 60.713 71.9425 60.252 71.9697V61.635C60.713 61.6079 61.147 61.5807 61.5946 61.5401H61.6081C62.069 61.513 62.5167 61.4723 62.9643 61.4316Z" fill="#DC8744"/>
<path d="M71.102 60.374V70.7085C70.6544 70.7898 70.2069 70.8712 69.7458 70.9391H69.7322C69.2847 71.0069 68.8507 71.0881 68.3896 71.1425V60.808C68.8507 60.7538 69.2847 60.6724 69.7322 60.6045H69.7458C70.2069 60.5367 70.6544 60.4556 71.102 60.374Z" fill="#DC8744"/>
<path d="M79.2387 58.4482V68.7827C78.7911 68.9185 78.3436 69.0538 77.8825 69.1896H77.869C77.435 69.3116 76.9875 69.4336 76.5264 69.5558V59.2211C76.9875 59.0993 77.435 58.9771 77.869 58.8549H77.8825C78.3434 58.7196 78.7909 58.5838 79.2387 58.4482Z" fill="#DC8744"/>
<path d="M87.3754 54.9082V65.2698C86.955 65.5276 86.5074 65.7987 86.0192 66.0429C86.0192 66.0429 86.0057 66.0429 86.0057 66.0564C85.5853 66.2871 85.1377 66.5041 84.6631 66.7346V56.4001C85.1377 56.1695 85.5853 55.9526 86.0057 55.7086C86.4939 55.4642 86.9414 55.1931 87.3754 54.9082Z" fill="#DC8744"/>
<path d="M77.0747 32.9961V43.3306C77.0747 45.5954 75.4065 47.7248 72.4501 49.5964C72.0296 49.8542 71.5821 50.1253 71.0939 50.3695C71.0939 50.3695 71.0803 50.3695 71.0803 50.383C70.6599 50.6137 70.2124 50.8308 69.7377 51.0612C68.151 51.8072 66.32 52.4989 64.3128 53.1091C63.8652 53.2448 63.4175 53.3802 62.9566 53.516H62.943C62.5091 53.638 62.0615 53.76 61.6004 53.8822C59.8917 54.3161 58.0878 54.7092 56.1755 55.035C55.7279 55.1163 55.2804 55.1976 54.8193 55.2656H54.8057C54.3582 55.3334 53.9242 55.4145 53.4632 55.4689C51.7137 55.7265 49.9098 55.9302 48.0382 56.0927C47.5906 56.1334 47.1429 56.1742 46.682 56.2013H46.6684C46.2209 56.242 45.7869 56.2693 45.3259 56.2964C43.5628 56.4047 41.7454 56.4727 39.9009 56.4862C39.4533 56.4998 39.0058 56.4998 38.5447 56.4998H38.5311C38.0701 56.4998 37.6361 56.4998 37.1886 56.4862C35.344 56.4727 33.5268 56.4047 31.7636 56.2964C31.3025 56.2693 30.8549 56.2422 30.4074 56.2013H30.3939C29.9328 56.1742 29.4988 56.1334 29.0513 56.0927C27.1796 55.93 25.3759 55.7265 23.6263 55.4689C23.1652 55.4147 22.7176 55.3334 22.2701 55.2656H22.2566C21.7955 55.1978 21.3615 55.1163 20.914 55.035C19.0016 54.7092 17.198 54.3161 15.489 53.8822C15.0279 53.76 14.5668 53.638 14.1328 53.516H14.1193C13.6582 53.3802 13.2242 53.2448 12.7767 53.1091C10.7694 52.4989 8.93845 51.8072 7.35166 51.0612C6.87702 50.8443 6.42949 50.6137 5.99551 50.3695C5.99551 50.3695 5.98196 50.3695 5.98196 50.3559C5.50731 50.1255 5.05978 49.8679 4.63936 49.5966C1.68168 47.7383 0 45.5954 0 43.3306V32.9961H77.0747Z" fill="#F6C358"/>
<path d="M77.0747 32.9963C77.0747 35.2613 75.4065 37.3905 72.4501 39.2351C72.0161 39.5197 71.5685 39.791 71.0801 40.0354C70.6597 40.2794 70.2122 40.4963 69.7375 40.727C68.1508 41.4729 66.3198 42.1511 64.3126 42.7748C63.865 42.9104 63.4173 43.0462 62.9564 43.1815H62.9428C62.5089 43.3037 62.0613 43.4259 61.6003 43.5477C59.8915 43.9819 58.0876 44.3752 56.1753 44.7007C55.7277 44.7823 55.2802 44.8634 54.8191 44.9312H54.8055C54.358 44.9991 53.924 45.0805 53.463 45.1347C51.7135 45.3925 49.9096 45.5958 48.038 45.7587C47.5904 45.7993 47.1427 45.84 46.6818 45.8671H46.6683C46.2207 45.9076 45.7867 45.9349 45.3257 45.962C43.5626 46.0706 41.7452 46.1384 39.9007 46.152C39.4531 46.1655 39.0056 46.1655 38.5445 46.1655H38.531C38.0699 46.1655 37.6359 46.1655 37.1884 46.152C35.3438 46.1386 33.5266 46.0706 31.7634 45.962C31.3023 45.9349 30.8547 45.9078 30.4072 45.8671H30.3937C29.9326 45.84 29.4986 45.7993 29.0511 45.7587C27.1794 45.5958 25.3757 45.3925 23.6261 45.1347C23.165 45.0805 22.7174 44.9991 22.2699 44.9312H22.2564C21.7953 44.8634 21.3613 44.7823 20.9138 44.7007C19.0014 44.3752 17.1978 43.9819 15.4888 43.5477C15.0277 43.4259 14.5666 43.3037 14.1326 43.1815H14.1191C13.658 43.0462 13.224 42.9104 12.7765 42.7748C10.7692 42.1644 8.93826 41.4729 7.35147 40.727C6.87682 40.5099 6.42929 40.2794 5.99531 40.0354C5.99531 40.0354 5.98176 40.0354 5.98176 40.0219C5.50712 39.791 5.05958 39.5335 4.63916 39.2624C1.68168 37.4041 0 35.2613 0 32.9963C0 25.727 17.2647 19.8271 38.5441 19.8271C59.8235 19.8271 77.0747 25.727 77.0747 32.9963Z" fill="#FCD462"/>
<path d="M38.4276 42.4847C38.0414 42.4847 37.6742 42.4841 37.2957 42.4733C35.5155 42.459 33.7576 42.3973 31.9883 42.2888C31.5595 42.2631 31.1498 42.2391 30.74 42.2014L30.5734 42.1865H30.5051C30.1566 42.1643 29.8234 42.1332 29.4833 42.1026C27.481 41.9277 25.7775 41.7319 24.1622 41.4934C23.7903 41.4478 23.5339 41.4059 23.2787 41.3647L22.5373 41.2509C22.2648 41.2065 21.5723 41.0796 21.5723 41.0796C19.8215 40.782 18.1416 40.425 16.3937 39.9804C15.9846 39.8726 15.5438 39.7559 15.1281 39.639L13.8452 39.2528C12.3168 38.7879 10.9127 38.2783 9.66027 37.7326V37.7182L7.60649 36.7198L6.95661 36.355H6.93205C6.83264 36.2957 6.73324 36.234 6.63324 36.1699C4.44352 34.793 3.67969 33.6034 3.67969 32.9962C3.67969 29.6511 16.9161 23.5068 38.5438 23.5068C60.1626 23.5068 73.3941 29.6509 73.3941 32.9962C73.3941 33.6011 72.6363 34.7804 70.5016 36.1132C70.0494 36.4079 69.7313 36.5947 69.4325 36.7444L69.2337 36.8517C68.8983 37.0463 68.5394 37.2171 68.1616 37.4004C66.8168 38.033 65.1518 38.66 63.2203 39.26L61.9457 39.6392C61.5299 39.7561 61.1023 39.8728 60.6614 39.9889C58.9459 40.425 57.2658 40.782 55.5576 41.0724C55.1869 41.1394 54.8443 41.2024 54.5011 41.2568L53.7685 41.3694C53.527 41.4089 53.2858 41.4498 53.0347 41.479C51.3078 41.7319 49.6051 41.9277 47.7178 42.0918C47.3296 42.1271 46.9529 42.1619 46.5689 42.1865L46.3335 42.2014C45.9245 42.2385 45.5267 42.2631 45.1051 42.2882C43.3297 42.3973 41.5718 42.459 39.872 42.4715C39.4162 42.4841 39.0286 42.4847 38.6375 42.4847C38.6068 42.4847 38.4618 42.4847 38.4276 42.4847Z" fill="#F6C358"/>
<path d="M7.35097 40.7263V51.0608C6.87633 50.8439 6.4288 50.6133 5.99482 50.3691C5.99482 50.3691 5.98127 50.3691 5.98127 50.3555C5.50662 50.1251 5.05909 49.8675 4.63867 49.5962V39.2617C5.05909 39.5328 5.50662 39.7906 5.98127 40.0212C5.98127 40.0348 5.99482 40.0348 5.99482 40.0348C6.4288 40.2788 6.87633 40.5092 7.35097 40.7263Z" fill="#DC8744"/>
<path d="M15.4887 43.5473V53.882C15.0276 53.7598 14.5665 53.6378 14.1325 53.5158H14.119C13.6579 53.38 13.2239 53.2447 12.7764 53.1089V42.7744C13.2239 42.91 13.6579 43.0457 14.119 43.1811H14.1325C14.5665 43.3033 15.0276 43.4255 15.4887 43.5473Z" fill="#DC8744"/>
<path d="M23.6254 45.1342V55.4687C23.1643 55.4144 22.7168 55.3331 22.2692 55.2653H22.2557C21.7946 55.1975 21.3606 55.116 20.9131 55.0347V44.7002C21.3606 44.7817 21.7946 44.8629 22.2557 44.9306H22.2692C22.7168 44.9986 23.1643 45.0801 23.6254 45.1342Z" fill="#DC8744"/>
<path d="M31.7631 45.9611V56.2958C31.302 56.2687 30.8545 56.2416 30.4069 56.2007H30.3934C29.9323 56.1736 29.4983 56.1328 29.0508 56.0921V45.7578C29.4983 45.7985 29.9323 45.8391 30.3934 45.8663H30.4069C30.8545 45.9069 31.3018 45.934 31.7631 45.9611Z" fill="#DC8744"/>
<path d="M39.9008 46.1514V56.4859C39.4532 56.4994 39.0057 56.4994 38.5446 56.4994H38.5311C38.07 56.4994 37.636 56.4994 37.1885 56.4859V46.1514C37.636 46.1649 38.07 46.1649 38.5311 46.1649H38.5446C39.0057 46.1649 39.4532 46.1649 39.9008 46.1514Z" fill="#DC8744"/>
<path d="M48.0375 45.7578V56.0921C47.59 56.1328 47.1422 56.1736 46.6813 56.2007H46.6678C46.2203 56.2414 45.7863 56.2687 45.3252 56.2958V45.9611C45.7863 45.934 46.2203 45.9069 46.6678 45.8663H46.6813C47.1422 45.8391 47.5898 45.7987 48.0375 45.7578Z" fill="#DC8744"/>
<path d="M56.1752 44.7002V55.0347C55.7277 55.116 55.2801 55.1973 54.819 55.2653H54.8055C54.358 55.3331 53.924 55.4142 53.4629 55.4687V45.1342C53.924 45.0799 54.358 44.9986 54.8055 44.9306H54.819C55.2801 44.8631 55.7277 44.7817 56.1752 44.7002Z" fill="#DC8744"/>
<path d="M64.3119 42.7744V53.1089C63.8644 53.2447 63.4167 53.38 62.9558 53.5158H62.9422C62.5082 53.6378 62.0607 53.7598 61.5996 53.882V43.5473C62.0607 43.4255 62.5082 43.3033 62.9422 43.1811H62.9558C63.4167 43.0457 63.8642 42.91 64.3119 42.7744Z" fill="#DC8744"/>
<path d="M72.4496 39.2344V49.596C72.0292 49.8537 71.5817 50.1248 71.0935 50.369C71.0935 50.369 71.0799 50.369 71.0799 50.3826C70.6595 50.6132 70.2119 50.8303 69.7373 51.0608V40.7263C70.2119 40.4956 70.6595 40.2787 71.0799 40.0347C71.5681 39.7903 72.0156 39.5192 72.4496 39.2344Z" fill="#DC8744"/>
<path d="M92.0005 17.3223V27.6568C92.0005 29.9215 90.3323 32.0509 87.3758 33.9226C86.9554 34.1803 86.5079 34.4515 86.0197 34.6957C86.0197 34.6957 86.0061 34.6957 86.0061 34.7092C85.5857 34.9399 85.1382 35.1569 84.6635 35.3874C83.0767 36.1333 81.2458 36.8251 79.2385 37.4353C78.791 37.571 78.3435 37.7064 77.8824 37.8421H77.8688C77.4348 37.9641 76.9873 38.0861 76.5262 38.2083C74.8174 38.6423 73.0136 39.0354 71.1012 39.3611C70.6537 39.4425 70.2062 39.5238 69.7451 39.5918H69.7315C69.284 39.6596 68.85 39.7407 68.3889 39.7951C66.6395 40.0527 64.8356 40.2564 62.9639 40.4189C62.5164 40.4595 62.0689 40.5004 61.6078 40.5275H61.5942C61.1467 40.5682 60.7127 40.5955 60.2516 40.6226C58.4886 40.7308 56.6712 40.7988 54.8266 40.8124C54.3791 40.8259 53.9316 40.8259 53.4705 40.8259H53.4569C52.9958 40.8259 52.5619 40.8259 52.1143 40.8124C50.2698 40.7988 48.4525 40.7308 46.6893 40.6226C46.2282 40.5955 45.7807 40.5684 45.3332 40.5275H45.3196C44.8585 40.5004 44.4246 40.4595 43.977 40.4189C42.1054 40.2562 40.3017 40.0527 38.552 39.7951C38.091 39.7409 37.6434 39.6596 37.1959 39.5918H37.1823C36.7212 39.524 36.2873 39.4425 35.8397 39.3611C33.9274 39.0354 32.1237 38.6423 30.4147 38.2083C29.9537 38.0861 29.4926 37.9641 29.0586 37.8421H29.045C28.5839 37.7064 28.15 37.571 27.7024 37.4353C25.6952 36.8251 23.8642 36.1333 22.2774 35.3874C21.8028 35.1705 21.3553 34.9399 20.9213 34.6957C20.9213 34.6957 20.9077 34.6957 20.9077 34.6821C20.4331 34.4517 19.9856 34.1941 19.5651 33.9228C16.6086 32.0647 14.9268 29.9217 14.9268 27.6569V17.3223H92.0005Z" fill="#F6C358"/>
<path d="M91.9997 17.3233C91.9997 19.5883 90.3315 21.7175 87.375 23.562C86.9411 23.8467 86.4935 24.118 86.0051 24.3624C85.5847 24.6064 85.1372 24.8233 84.6626 25.0539C83.0758 25.7999 81.2448 26.478 79.2376 27.1018C78.79 27.2374 78.3425 27.3731 77.8814 27.5087H77.8678C77.4339 27.6309 76.9863 27.7531 76.5252 27.8749C74.8165 28.309 73.0126 28.7023 71.1003 29.0279C70.6527 29.1094 70.2052 29.1905 69.7441 29.2583H69.7305C69.283 29.3263 68.849 29.4076 68.388 29.4618C66.6385 29.7196 64.8346 29.9229 62.963 30.0858C62.5154 30.1265 62.0679 30.1671 61.6068 30.1942H61.5932C61.1457 30.2347 60.7117 30.262 60.2507 30.2891C58.4876 30.3978 56.6702 30.4655 54.8257 30.4791C54.3781 30.4927 53.9306 30.4927 53.4695 30.4927H53.456C52.9949 30.4927 52.5609 30.4927 52.1134 30.4791C50.2688 30.4657 48.4516 30.3978 46.6884 30.2891C46.2273 30.262 45.7797 30.2349 45.3322 30.1942H45.3187C44.8576 30.1671 44.4236 30.1265 43.9761 30.0858C42.1044 29.9229 40.3007 29.7196 38.5511 29.4618C38.09 29.4076 37.6424 29.3263 37.1949 29.2583H37.1814C36.7203 29.1905 36.2863 29.1094 35.8388 29.0279C33.9264 28.7023 32.1227 28.309 30.4138 27.8749C29.9527 27.7531 29.4916 27.6309 29.0576 27.5087H29.0441C28.583 27.3733 28.149 27.2375 27.7015 27.1018C25.6942 26.4914 23.8633 25.7999 22.2765 25.0539C21.8018 24.8368 21.3543 24.6064 20.9203 24.3624C20.9203 24.3624 20.9068 24.3624 20.9068 24.3488C20.4321 24.118 19.9846 23.8604 19.5642 23.5893C16.6077 21.7312 14.9258 19.5884 14.9258 17.3235C14.9258 10.0541 32.1905 4.1543 53.4699 4.1543C74.7493 4.1543 91.9997 10.0539 91.9997 17.3233Z" fill="#FCD462"/>
<path d="M53.3487 26.8119C52.966 26.8119 52.6012 26.8113 52.2263 26.7999C50.4415 26.7855 48.6834 26.7238 46.9141 26.6154C46.4823 26.5897 46.0739 26.5651 45.6658 26.528L45.4992 26.513H45.4309C45.0823 26.4908 44.7491 26.4598 44.4091 26.4292C42.4091 26.2543 40.7056 26.0584 39.0868 25.8205C38.7214 25.7755 38.4656 25.7331 38.2112 25.6924L37.4631 25.5775C37.1924 25.5337 36.4963 25.4062 36.4963 25.4062C34.7469 25.1086 33.0668 24.7516 31.3195 24.307C30.9104 24.1992 30.4696 24.0825 30.0551 23.9656L28.7649 23.5785C27.2424 23.1155 25.8396 22.6053 24.586 22.0595V22.0446L22.534 21.0474L21.8836 20.6814H21.8572C21.7584 20.6226 21.6596 20.5609 21.5614 20.4975C19.3691 19.1199 18.6055 17.9304 18.6055 17.3223C18.6055 13.9772 31.8418 7.83301 53.4695 7.83301C75.0884 7.83301 88.3198 13.977 88.3198 17.3223C88.3198 17.9272 87.5621 19.1066 85.4274 20.4393C84.9751 20.734 84.6571 20.9209 84.3583 21.0706L84.1594 21.1778C83.818 21.3761 83.452 21.5497 83.0669 21.7373C81.7438 22.3591 80.0776 22.9862 78.1453 23.587L76.8712 23.9656C76.4555 24.0825 76.0278 24.1992 75.587 24.3153C73.8715 24.7514 72.1914 25.1084 70.4832 25.3987C70.1076 25.4671 69.7663 25.5294 69.4243 25.5832L68.6852 25.697C68.445 25.7364 68.2055 25.7765 67.9558 25.806C66.232 26.0588 64.528 26.2539 62.6435 26.4182C62.2524 26.4541 61.8775 26.4883 61.4941 26.5128L61.2593 26.5278C60.8514 26.5649 60.4556 26.5895 60.0356 26.614C58.2554 26.7236 56.4975 26.7853 54.7976 26.7979C54.3394 26.8111 53.9542 26.8117 53.565 26.8117C53.5338 26.8119 53.3839 26.8119 53.3487 26.8119Z" fill="#F6C358"/>
<path d="M22.2758 25.0525V35.387C21.8011 35.1701 21.3536 34.9394 20.9196 34.6952C20.9196 34.6952 20.9061 34.6952 20.9061 34.6817C20.4314 34.4512 19.9839 34.1937 19.5635 33.9224V23.5879C19.9839 23.859 20.4314 24.1168 20.9061 24.3474C20.9061 24.361 20.9196 24.361 20.9196 24.361C21.3536 24.605 21.8011 24.8356 22.2758 25.0525Z" fill="#DC8744"/>
<path d="M30.4135 27.8744V38.2091C29.9524 38.0869 29.4913 37.9649 29.0573 37.8429H29.0438C28.5827 37.7072 28.1487 37.5718 27.7012 37.436V27.1016C28.1487 27.2371 28.5827 27.3729 29.0438 27.5084H29.0573C29.4913 27.6304 29.9524 27.7526 30.4135 27.8744Z" fill="#DC8744"/>
<path d="M38.5502 29.4613V39.7958C38.0891 39.7416 37.6416 39.6603 37.194 39.5925H37.1805C36.7194 39.5247 36.2854 39.4432 35.8379 39.3618V29.0273C36.2854 29.1089 36.7194 29.19 37.1805 29.2578H37.194C37.6416 29.3258 38.0891 29.4073 38.5502 29.4613Z" fill="#DC8744"/>
<path d="M46.6879 30.2883V40.623C46.2268 40.5959 45.7793 40.5688 45.3317 40.5279H45.3182C44.8571 40.5008 44.4231 40.4599 43.9756 40.4193V30.085C44.4231 30.1256 44.8571 30.1663 45.3182 30.1934H45.3317C45.7793 30.2341 46.2268 30.2612 46.6879 30.2883Z" fill="#DC8744"/>
<path d="M54.8256 30.4785V40.813C54.3781 40.8266 53.9305 40.8266 53.4694 40.8266H53.4559C52.9948 40.8266 52.5608 40.8266 52.1133 40.813V30.4785C52.5608 30.4921 52.9948 30.4921 53.4559 30.4921H53.4694C53.9305 30.4921 54.3781 30.4921 54.8256 30.4785Z" fill="#DC8744"/>
<path d="M62.9633 30.085V40.4193C62.5157 40.4599 62.0682 40.5008 61.6071 40.5279H61.5936C61.146 40.5686 60.7121 40.5959 60.251 40.623V30.2883C60.7121 30.2612 61.146 30.2341 61.5936 30.1934H61.6071C62.068 30.1661 62.5157 30.1256 62.9633 30.085Z" fill="#DC8744"/>
<path d="M71.101 29.0273V39.3618C70.6534 39.4432 70.2059 39.5245 69.7448 39.5925H69.7313C69.2837 39.6603 68.8498 39.7414 68.3887 39.7958V29.4611C68.8498 29.4069 69.2837 29.3256 69.7313 29.2576H69.7448C70.2059 29.19 70.6534 29.1087 71.101 29.0273Z" fill="#DC8744"/>
<path d="M79.2377 27.1016V37.436C78.7902 37.5718 78.3426 37.7072 77.8815 37.8429H77.868C77.434 37.9649 76.9865 38.0869 76.5254 38.2091V27.8744C76.9865 27.7526 77.434 27.6304 77.868 27.5082H77.8815C78.3424 27.3729 78.79 27.2371 79.2377 27.1016Z" fill="#DC8744"/>
<path d="M87.3754 23.5615V33.9231C86.955 34.1809 86.5074 34.452 86.0192 34.6962C86.0192 34.6962 86.0057 34.6962 86.0057 34.7097C85.5853 34.9404 85.1377 35.1575 84.6631 35.3879V25.0534C85.1377 24.8228 85.5853 24.6059 86.0057 24.3619C86.4939 24.1173 86.9414 23.8462 87.3754 23.5615Z" fill="#DC8744"/>
</g>
<defs>
<clipPath id="clip0_1_986">
<rect width="92" height="92" fill="white"/>
</clipPath>
</defs>
</svg>
