<svg width="1288" height="335" viewBox="0 0 1288 335" fill="none" xmlns="http://www.w3.org/2000/svg">
<g filter="url(#filter0_d_1_4580)">
<rect width="1200" height="247" transform="translate(44 25)" fill="white"/>
<path d="M223.968 86.408C223.824 87.656 223.384 88.72 222.648 89.6C221.912 90.48 220.912 91.152 219.648 91.616C218.384 92.08 216.88 92.312 215.136 92.312C213.68 92.312 212.344 92.144 211.128 91.808C209.928 91.472 208.888 90.968 208.008 90.296C207.144 89.624 206.472 88.792 205.992 87.8C205.512 86.792 205.272 85.616 205.272 84.272C205.272 82.928 205.512 81.752 205.992 80.744C206.472 79.736 207.144 78.896 208.008 78.224C208.888 77.536 209.928 77.024 211.128 76.688C212.344 76.336 213.68 76.16 215.136 76.16C216.88 76.16 218.384 76.4 219.648 76.88C220.928 77.36 221.936 78.048 222.672 78.944C223.408 79.824 223.84 80.896 223.968 82.16H220.8C220.592 81.488 220.24 80.912 219.744 80.432C219.264 79.936 218.64 79.56 217.872 79.304C217.104 79.048 216.192 78.92 215.136 78.92C213.824 78.92 212.672 79.128 211.68 79.544C210.688 79.944 209.92 80.544 209.376 81.344C208.832 82.128 208.56 83.104 208.56 84.272C208.56 85.424 208.832 86.392 209.376 87.176C209.92 87.96 210.688 88.56 211.68 88.976C212.672 89.376 213.824 89.576 215.136 89.576C216.192 89.576 217.096 89.448 217.848 89.192C218.616 88.936 219.24 88.568 219.72 88.088C220.216 87.608 220.576 87.048 220.8 86.408H223.968ZM233.706 92.288C232.202 92.288 230.874 92.048 229.722 91.568C228.586 91.088 227.698 90.392 227.058 89.48C226.418 88.552 226.098 87.416 226.098 86.072C226.098 84.728 226.418 83.592 227.058 82.664C227.698 81.72 228.586 81.008 229.722 80.528C230.874 80.048 232.202 79.808 233.706 79.808C235.21 79.808 236.522 80.048 237.642 80.528C238.778 81.008 239.666 81.72 240.306 82.664C240.946 83.592 241.266 84.728 241.266 86.072C241.266 87.416 240.946 88.552 240.306 89.48C239.666 90.392 238.778 91.088 237.642 91.568C236.522 92.048 235.21 92.288 233.706 92.288ZM233.706 89.888C234.538 89.888 235.282 89.744 235.938 89.456C236.61 89.152 237.138 88.72 237.522 88.16C237.906 87.584 238.098 86.888 238.098 86.072C238.098 85.256 237.906 84.56 237.522 83.984C237.138 83.392 236.618 82.944 235.962 82.64C235.306 82.336 234.554 82.184 233.706 82.184C232.874 82.184 232.122 82.336 231.45 82.64C230.778 82.944 230.242 83.384 229.842 83.96C229.458 84.536 229.266 85.24 229.266 86.072C229.266 86.888 229.458 87.584 229.842 88.16C230.226 88.72 230.754 89.152 231.426 89.456C232.098 89.744 232.858 89.888 233.706 89.888ZM243.813 75.272H246.933V92H243.813V75.272ZM257.12 92.288C255.616 92.288 254.288 92.048 253.136 91.568C252 91.088 251.112 90.392 250.472 89.48C249.832 88.552 249.512 87.416 249.512 86.072C249.512 84.728 249.832 83.592 250.472 82.664C251.112 81.72 252 81.008 253.136 80.528C254.288 80.048 255.616 79.808 257.12 79.808C258.624 79.808 259.936 80.048 261.056 80.528C262.192 81.008 263.08 81.72 263.72 82.664C264.36 83.592 264.68 84.728 264.68 86.072C264.68 87.416 264.36 88.552 263.72 89.48C263.08 90.392 262.192 91.088 261.056 91.568C259.936 92.048 258.624 92.288 257.12 92.288ZM257.12 89.888C257.952 89.888 258.696 89.744 259.352 89.456C260.024 89.152 260.552 88.72 260.936 88.16C261.32 87.584 261.512 86.888 261.512 86.072C261.512 85.256 261.32 84.56 260.936 83.984C260.552 83.392 260.032 82.944 259.376 82.64C258.72 82.336 257.968 82.184 257.12 82.184C256.288 82.184 255.536 82.336 254.864 82.64C254.192 82.944 253.656 83.384 253.256 83.96C252.872 84.536 252.68 85.24 252.68 86.072C252.68 86.888 252.872 87.584 253.256 88.16C253.64 88.72 254.168 89.152 254.84 89.456C255.512 89.744 256.272 89.888 257.12 89.888ZM280.787 92H277.667V80.072H280.787V92ZM277.835 86.264L277.859 87.08C277.827 87.304 277.747 87.632 277.619 88.064C277.491 88.48 277.291 88.928 277.019 89.408C276.763 89.888 276.427 90.352 276.011 90.8C275.595 91.232 275.083 91.592 274.475 91.88C273.867 92.152 273.147 92.288 272.315 92.288C271.659 92.288 271.011 92.208 270.371 92.048C269.747 91.888 269.179 91.624 268.667 91.256C268.155 90.872 267.747 90.36 267.443 89.72C267.139 89.08 266.987 88.272 266.987 87.296V80.072H270.107V86.768C270.107 87.536 270.227 88.144 270.467 88.592C270.723 89.024 271.091 89.328 271.571 89.504C272.051 89.68 272.619 89.768 273.275 89.768C274.139 89.768 274.883 89.584 275.507 89.216C276.131 88.832 276.635 88.368 277.019 87.824C277.419 87.28 277.691 86.76 277.835 86.264ZM283.628 80.072H286.748V92H283.628V80.072ZM291.332 82.64C290.436 82.64 289.66 82.816 289.004 83.168C288.348 83.504 287.82 83.92 287.42 84.416C287.02 84.912 286.74 85.392 286.58 85.856L286.556 84.536C286.572 84.344 286.636 84.064 286.748 83.696C286.86 83.312 287.028 82.904 287.252 82.472C287.476 82.024 287.772 81.6 288.14 81.2C288.508 80.784 288.956 80.448 289.484 80.192C290.012 79.936 290.628 79.808 291.332 79.808V82.64ZM292.78 88.04H295.66C295.836 88.584 296.196 89.032 296.74 89.384C297.3 89.72 298.028 89.888 298.924 89.888C299.532 89.888 300.004 89.832 300.34 89.72C300.676 89.608 300.908 89.448 301.036 89.24C301.164 89.016 301.228 88.768 301.228 88.496C301.228 88.16 301.124 87.904 300.916 87.728C300.708 87.536 300.388 87.384 299.956 87.272C299.524 87.16 298.972 87.056 298.3 86.96C297.628 86.848 296.98 86.712 296.356 86.552C295.732 86.392 295.18 86.184 294.7 85.928C294.22 85.656 293.836 85.32 293.548 84.92C293.276 84.504 293.14 84 293.14 83.408C293.14 82.832 293.276 82.32 293.548 81.872C293.836 81.424 294.228 81.048 294.724 80.744C295.236 80.44 295.828 80.208 296.5 80.048C297.188 79.888 297.924 79.808 298.708 79.808C299.892 79.808 300.876 79.984 301.66 80.336C302.444 80.672 303.028 81.152 303.412 81.776C303.812 82.384 304.012 83.088 304.012 83.888H301.252C301.124 83.296 300.868 82.872 300.484 82.616C300.1 82.344 299.508 82.208 298.708 82.208C297.924 82.208 297.332 82.328 296.932 82.568C296.532 82.808 296.332 83.136 296.332 83.552C296.332 83.888 296.452 84.152 296.692 84.344C296.948 84.52 297.316 84.664 297.796 84.776C298.292 84.888 298.908 85.008 299.644 85.136C300.268 85.264 300.86 85.408 301.42 85.568C301.996 85.728 302.508 85.936 302.956 86.192C303.404 86.432 303.756 86.76 304.012 87.176C304.284 87.576 304.42 88.088 304.42 88.712C304.42 89.48 304.196 90.128 303.748 90.656C303.316 91.184 302.692 91.592 301.876 91.88C301.06 92.152 300.084 92.288 298.948 92.288C297.94 92.288 297.068 92.184 296.332 91.976C295.612 91.752 295.012 91.472 294.532 91.136C294.052 90.784 293.676 90.416 293.404 90.032C293.148 89.632 292.972 89.256 292.876 88.904C292.78 88.552 292.748 88.264 292.78 88.04Z" fill="#080C0C"/>
<rect x="234.909" y="120" width="39.9906" height="39.924" fill="#1FA3AB"/>
<rect x="274.899" y="120" width="39.9906" height="39.924" fill="#23B3BC"/>
<rect x="314.89" y="120" width="39.9906" height="39.924" fill="#26C5CF"/>
<rect x="354.881" y="120" width="39.9906" height="39.924" fill="#2AD8E4"/>
<rect x="204.268" y="120" width="39.9906" height="39.924" fill="#1D949C"/>
<rect x="244.258" y="120" width="39.9906" height="39.924" fill="#1FA3AB"/>
<rect x="284.249" y="120" width="39.9906" height="39.924" fill="#23B3BC"/>
<rect x="324.239" y="120" width="39.9906" height="39.924" fill="#26C5CF"/>
<rect x="364.23" y="120" width="39.9906" height="39.924" fill="#2AD8E4"/>
<rect x="404.221" y="120" width="39.9906" height="39.924" fill="#2EEEFB"/>
<rect x="444.211" y="120" width="39.9906" height="39.924" fill="#C4C4C4"/>
<rect x="204.653" y="185.076" width="39.9906" height="39.924" fill="#F4A42D"/>
<rect x="244.644" y="185.076" width="39.9906" height="39.924" fill="#F6B451"/>
<rect x="284.635" y="185.076" width="39.9906" height="39.924" fill="#F7BC64"/>
<rect x="324.625" y="185.076" width="39.9906" height="39.924" fill="#F8C477"/>
<rect x="364.616" y="185.076" width="39.9906" height="39.924" fill="#F9CD8B"/>
<rect x="404.606" y="185.076" width="39.9906" height="39.924" fill="#FAD59E"/>
<rect x="444.597" y="185.076" width="39.9906" height="39.924" fill="#FBDEB1"/>
<rect x="484.588" y="185.076" width="39.9906" height="39.924" fill="#FCE6C5"/>
<rect x="524.578" y="185.076" width="39.9906" height="39.924" fill="#FDEED8"/>
<rect x="564.569" y="185.076" width="39.9906" height="39.924" fill="#FEF7EC"/>
<rect x="204.268" y="120" width="39.9906" height="39.924" fill="#0B393C"/>
<rect x="244.258" y="120" width="39.9906" height="39.924" fill="#0B393C"/>
<rect x="284.249" y="120" width="39.9906" height="39.924" fill="#0B393C"/>
<rect x="324.239" y="120" width="39.9906" height="39.924" fill="#0B393C"/>
<rect x="364.23" y="120" width="39.9906" height="39.924" fill="#0B393C"/>
<rect x="404.221" y="120" width="39.9906" height="39.924" fill="#0B393C"/>
<rect x="444.211" y="120" width="39.9906" height="39.924" fill="#0B393C"/>
<rect x="484.202" y="120" width="39.9906" height="39.924" fill="#0B393C"/>
<rect x="524.192" y="120" width="39.9906" height="39.924" fill="#0B393C"/>
<rect x="564.183" y="120" width="39.9906" height="39.924" fill="#0B393C"/>
<rect x="204.633" y="120" width="39.9906" height="39.924" fill="#0B393C"/>
<rect x="244.623" y="120" width="39.9906" height="39.924" fill="#105156"/>
<rect x="284.613" y="120" width="39.9906" height="39.924" fill="#136267"/>
<rect x="324.604" y="120" width="39.9906" height="39.924" fill="#167279"/>
<rect x="364.595" y="120" width="39.9906" height="39.924" fill="#19828A"/>
<rect x="404.585" y="120" width="39.9906" height="39.924" fill="#1C939B"/>
<rect x="444.576" y="120" width="39.9906" height="39.924" fill="#20A3AC"/>
<rect x="484.566" y="120" width="39.9906" height="39.924" fill="#23B3BE"/>
<rect x="524.558" y="120" width="39.9906" height="39.924" fill="#26C4CF"/>
<rect x="564.548" y="120" width="39.9906" height="39.924" fill="#30CED9"/>
<rect x="604.538" y="120" width="39.9906" height="39.924" fill="#41D2DC"/>
<rect x="644.529" y="120" width="39.9906" height="39.924" fill="#53D6DF"/>
<rect x="684.519" y="120" width="39.9906" height="39.924" fill="#64DAE3"/>
<rect x="724.51" y="120" width="39.9906" height="39.924" fill="#75DEE6"/>
<rect x="764.5" y="120" width="39.9906" height="39.924" fill="#86E2E9"/>
<rect x="804.49" y="120" width="39.9906" height="39.924" fill="#98E6EC"/>
<rect x="844.481" y="120" width="39.9906" height="39.924" fill="#A9EAEF"/>
<rect x="884.494" y="120" width="39.9906" height="39.924" fill="#BAEFF2"/>
<rect x="924.484" y="120" width="39.9906" height="39.924" fill="#CBF3F6"/>
<rect x="964.475" y="120" width="39.9906" height="39.924" fill="#DDF7F9"/>
<rect x="1004.47" y="120" width="39.9906" height="39.924" fill="#EEFBFC"/>
<rect x="1044.46" y="120" width="39.9906" height="39.924" fill="white"/>
</g>
<defs>
<filter id="filter0_d_1_4580" x="0" y="0" width="1288" height="335" filterUnits="userSpaceOnUse" color-interpolation-filters="sRGB">
<feFlood flood-opacity="0" result="BackgroundImageFix"/>
<feColorMatrix in="SourceAlpha" type="matrix" values="0 0 0 0 0 0 0 0 0 0 0 0 0 0 0 0 0 0 127 0" result="hardAlpha"/>
<feOffset dy="19"/>
<feGaussianBlur stdDeviation="22"/>
<feComposite in2="hardAlpha" operator="out"/>
<feColorMatrix type="matrix" values="0 0 0 0 0 0 0 0 0 0 0 0 0 0 0 0 0 0 0.12 0"/>
<feBlend mode="normal" in2="BackgroundImageFix" result="effect1_dropShadow_1_4580"/>
<feBlend mode="normal" in="SourceGraphic" in2="effect1_dropShadow_1_4580" result="shape"/>
</filter>
</defs>
</svg>
