<svg width="360" height="319" viewBox="0 0 360 319" fill="none" xmlns="http://www.w3.org/2000/svg">
<g clip-path="url(#clip0_1_1043)">
<rect width="360" height="319" rx="3" fill="#F9E6C9"/>
<path d="M299 224C299 213.232 301.121 202.569 305.242 192.62C309.363 182.671 315.403 173.632 323.017 166.017C330.632 158.403 339.671 152.363 349.62 148.242C359.569 144.121 370.232 142 381 142L381 224L299 224Z" stroke="#F5CD90" stroke-opacity="0.5" stroke-width="0.8" stroke-miterlimit="1.55572" stroke-linecap="round" stroke-linejoin="round" stroke-dasharray="2 2"/>
<path d="M296.267 222.633C296.267 211.685 298.423 200.845 302.613 190.73C306.802 180.616 312.943 171.426 320.684 163.684C328.425 155.943 337.616 149.802 347.73 145.613C357.845 141.423 368.685 139.267 379.633 139.267L379.633 222.633L296.267 222.633Z" stroke="#F5CD90" stroke-opacity="0.5" stroke-width="0.8" stroke-miterlimit="1.55572" stroke-linecap="round" stroke-linejoin="round" stroke-dasharray="2 2"/>
<path d="M293.533 221.267C293.533 210.139 295.725 199.121 299.983 188.841C304.242 178.56 310.483 169.219 318.351 161.351C326.219 153.483 335.56 147.242 345.841 142.983C356.121 138.725 367.139 136.533 378.267 136.533L378.267 221.267L293.533 221.267Z" stroke="#F5CD90" stroke-opacity="0.5" stroke-width="0.8" stroke-miterlimit="1.55572" stroke-linecap="round" stroke-linejoin="round" stroke-dasharray="2 2"/>
<path d="M290.8 219.9C290.8 208.593 293.027 197.397 297.354 186.951C301.681 176.505 308.023 167.013 316.018 159.018C324.013 151.023 333.505 144.681 343.951 140.354C354.397 136.027 365.593 133.8 376.9 133.8L376.9 219.9L290.8 219.9Z" stroke="#F5CD90" stroke-opacity="0.5" stroke-width="0.8" stroke-miterlimit="1.55572" stroke-linecap="round" stroke-linejoin="round" stroke-dasharray="2 2"/>
<path d="M288.067 218.533C288.067 207.047 290.329 195.673 294.725 185.061C299.12 174.449 305.563 164.807 313.685 156.685C321.807 148.563 331.449 142.12 342.061 137.725C352.673 133.329 364.047 131.067 375.533 131.067L375.533 218.533L288.067 218.533Z" stroke="#F5CD90" stroke-opacity="0.5" stroke-width="0.8" stroke-miterlimit="1.55572" stroke-linecap="round" stroke-linejoin="round" stroke-dasharray="2 2"/>
<path d="M285.333 217.167C285.333 205.501 287.631 193.949 292.095 183.172C296.56 172.394 303.103 162.601 311.352 154.352C319.601 146.103 329.394 139.56 340.172 135.095C350.949 130.631 362.501 128.333 374.167 128.333L374.167 217.167L285.333 217.167Z" stroke="#F5CD90" stroke-opacity="0.5" stroke-width="0.8" stroke-miterlimit="1.55572" stroke-linecap="round" stroke-linejoin="round" stroke-dasharray="2 2"/>
<path d="M282.6 215.8C282.6 203.955 284.933 192.226 289.466 181.282C293.999 170.338 300.643 160.395 309.019 152.019C317.395 143.643 327.338 136.999 338.282 132.466C349.226 127.933 360.955 125.6 372.8 125.6L372.8 215.8L282.6 215.8Z" stroke="#F5CD90" stroke-opacity="0.5" stroke-width="0.8" stroke-miterlimit="1.55572" stroke-linecap="round" stroke-linejoin="round" stroke-dasharray="2 2"/>
<path d="M279.867 214.433C279.867 202.409 282.235 190.502 286.837 179.392C291.438 168.283 298.183 158.189 306.686 149.686C315.189 141.183 325.283 134.438 336.392 129.837C347.502 125.235 359.409 122.867 371.433 122.867L371.433 214.433L279.867 214.433Z" stroke="#F5CD90" stroke-opacity="0.5" stroke-width="0.8" stroke-miterlimit="1.55572" stroke-linecap="round" stroke-linejoin="round" stroke-dasharray="2 2"/>
<path d="M277.133 213.067C277.133 200.863 279.537 188.778 284.207 177.503C288.878 166.227 295.723 155.983 304.353 147.353C312.983 138.723 323.227 131.878 334.503 127.207C345.778 122.537 357.862 120.133 370.067 120.133L370.067 213.067L277.133 213.067Z" stroke="#F5CD90" stroke-opacity="0.5" stroke-width="0.8" stroke-miterlimit="1.55572" stroke-linecap="round" stroke-linejoin="round" stroke-dasharray="2 2"/>
<path d="M274.4 211.7C274.4 199.316 276.839 187.054 281.578 175.613C286.317 164.172 293.263 153.776 302.02 145.02C310.776 136.263 321.172 129.317 332.613 124.578C344.054 119.839 356.316 117.4 368.7 117.4L368.7 211.7L274.4 211.7Z" stroke="#F5CD90" stroke-opacity="0.5" stroke-width="0.8" stroke-miterlimit="1.55572" stroke-linecap="round" stroke-linejoin="round" stroke-dasharray="2 2"/>
<path d="M271.667 210.333C271.667 197.77 274.141 185.33 278.949 173.723C283.757 162.116 290.803 151.57 299.687 142.687C308.57 133.803 319.116 126.757 330.723 121.949C342.33 117.141 354.77 114.667 367.333 114.667L367.333 210.333L271.667 210.333Z" stroke="#F5CD90" stroke-opacity="0.5" stroke-width="0.8" stroke-miterlimit="1.55572" stroke-linecap="round" stroke-linejoin="round" stroke-dasharray="2 2"/>
<path d="M268.933 208.967C268.933 196.224 271.443 183.606 276.32 171.834C281.196 160.061 288.343 149.364 297.354 140.354C306.364 131.343 317.061 124.196 328.834 119.32C340.606 114.443 353.224 111.933 365.967 111.933L365.967 208.967L268.933 208.967Z" stroke="#F5CD90" stroke-opacity="0.5" stroke-width="0.8" stroke-miterlimit="1.55572" stroke-linecap="round" stroke-linejoin="round" stroke-dasharray="2 2"/>
<path d="M266.2 207.6C266.2 194.678 268.745 181.882 273.69 169.944C278.635 158.006 285.883 147.158 295.021 138.021C304.158 128.883 315.005 121.635 326.944 116.69C338.882 111.745 351.678 109.2 364.6 109.2L364.6 207.6L266.2 207.6Z" stroke="#F5CD90" stroke-opacity="0.5" stroke-width="0.8" stroke-miterlimit="1.55572" stroke-linecap="round" stroke-linejoin="round" stroke-dasharray="2 2"/>
<path d="M263.467 206.233C263.467 193.132 266.047 180.159 271.061 168.054C276.075 155.95 283.423 144.952 292.688 135.688C301.952 126.423 312.95 119.075 325.054 114.061C337.159 109.047 350.132 106.467 363.233 106.467L363.233 206.233L263.467 206.233Z" stroke="#F5CD90" stroke-opacity="0.5" stroke-width="0.8" stroke-miterlimit="1.55572" stroke-linecap="round" stroke-linejoin="round" stroke-dasharray="2 2"/>
<path d="M260.733 204.867C260.733 191.586 263.349 178.435 268.432 166.165C273.514 153.895 280.963 142.746 290.355 133.355C299.746 123.964 310.895 116.514 323.165 111.432C335.435 106.349 348.586 103.733 361.867 103.733L361.867 204.867L260.733 204.867Z" stroke="#F5CD90" stroke-opacity="0.5" stroke-width="0.8" stroke-miterlimit="1.55572" stroke-linecap="round" stroke-linejoin="round" stroke-dasharray="2 2"/>
<path d="M258 203.5C258 190.04 260.651 176.711 265.802 164.275C270.953 151.839 278.504 140.54 288.022 131.022C297.54 121.504 308.839 113.953 321.275 108.802C333.711 103.651 347.039 101 360.5 101L360.5 203.5L258 203.5Z" stroke="#F5CD90" stroke-opacity="0.5" stroke-width="0.8" stroke-miterlimit="1.55572" stroke-linecap="round" stroke-linejoin="round" stroke-dasharray="2 2"/>
<path d="M61 -25C61 -14.2316 58.879 -3.56868 54.7581 6.38001C50.6373 16.3287 44.5972 25.3683 36.9828 32.9827C29.3684 40.5971 20.3288 46.6372 10.3801 50.7581C0.431369 54.879 -10.2316 57 -21 57L-21 -25L61 -25Z" stroke="#F5CD90" stroke-opacity="0.5" stroke-width="0.8" stroke-miterlimit="1.55572" stroke-linecap="round" stroke-linejoin="round" stroke-dasharray="2 2"/>
<path d="M63.7334 -23.6334C63.7334 -12.6855 61.577 -1.84483 57.3874 8.26968C53.1979 18.3842 47.0571 27.5745 39.3158 35.3158C31.5745 43.0571 22.3842 49.1978 12.2697 53.3874C2.15523 57.577 -8.68544 59.7333 -19.6333 59.7333L-19.6333 -23.6333L63.7334 -23.6334Z" stroke="#F5CD90" stroke-opacity="0.5" stroke-width="0.8" stroke-miterlimit="1.55572" stroke-linecap="round" stroke-linejoin="round" stroke-dasharray="2 2"/>
<path d="M66.4667 -22.2667C66.4667 -11.1394 64.275 -0.120969 60.0168 10.1594C55.7585 20.4397 49.5171 29.7806 41.6489 37.6488C33.7807 45.5171 24.4397 51.7585 14.1594 56.0167C3.87909 60.275 -7.1393 62.4667 -18.2666 62.4667L-18.2666 -22.2667L66.4667 -22.2667Z" stroke="#F5CD90" stroke-opacity="0.5" stroke-width="0.8" stroke-miterlimit="1.55572" stroke-linecap="round" stroke-linejoin="round" stroke-dasharray="2 2"/>
<path d="M69.2 -20.9C69.2 -9.59322 66.973 1.60288 62.646 12.049C58.3191 22.4951 51.977 31.9867 43.9819 39.9819C35.9868 47.977 26.4952 54.3191 16.0491 58.646C5.60294 62.9729 -5.59316 65.2 -16.9 65.2L-16.9 -20.9L69.2 -20.9Z" stroke="#F5CD90" stroke-opacity="0.5" stroke-width="0.8" stroke-miterlimit="1.55572" stroke-linecap="round" stroke-linejoin="round" stroke-dasharray="2 2"/>
<path d="M71.9333 -19.5334C71.9334 -8.04708 69.671 3.32674 65.2754 13.9387C60.8797 24.5506 54.437 34.1929 46.315 42.3149C38.1929 50.4369 28.5507 56.8797 17.9387 61.2753C7.32679 65.6709 -4.04702 67.9333 -15.5333 67.9333L-15.5333 -19.5333L71.9333 -19.5334Z" stroke="#F5CD90" stroke-opacity="0.5" stroke-width="0.8" stroke-miterlimit="1.55572" stroke-linecap="round" stroke-linejoin="round" stroke-dasharray="2 2"/>
<path d="M74.6667 -18.1667C74.6667 -6.50094 72.3689 5.05059 67.9046 15.8283C63.4404 26.6061 56.8969 36.399 48.648 44.648C40.3991 52.8969 30.6062 59.4403 19.8284 63.9046C9.05064 68.3689 -2.50089 70.6666 -14.1666 70.6666L-14.1667 -18.1667L74.6667 -18.1667Z" stroke="#F5CD90" stroke-opacity="0.5" stroke-width="0.8" stroke-miterlimit="1.55572" stroke-linecap="round" stroke-linejoin="round" stroke-dasharray="2 2"/>
<path d="M77.4 -16.8C77.4 -4.95479 75.0669 6.77445 70.534 17.718C66.001 28.6616 59.3569 38.6052 50.9811 46.981C42.6052 55.3569 32.6616 62.0009 21.7181 66.5339C10.7745 71.0669 -0.954734 73.4 -12.8 73.4L-12.8 -16.8L77.4 -16.8Z" stroke="#F5CD90" stroke-opacity="0.5" stroke-width="0.8" stroke-miterlimit="1.55572" stroke-linecap="round" stroke-linejoin="round" stroke-dasharray="2 2"/>
<path d="M80.1333 -15.4334C80.1333 -3.40866 77.7649 8.4983 73.1633 19.6077C68.5616 30.7171 61.8169 40.8113 53.3141 49.314C44.8114 57.8168 34.7171 64.5616 23.6077 69.1632C12.4984 73.7649 0.5914 76.1333 -11.4333 76.1333L-11.4333 -15.4334L80.1333 -15.4334Z" stroke="#F5CD90" stroke-opacity="0.5" stroke-width="0.8" stroke-miterlimit="1.55572" stroke-linecap="round" stroke-linejoin="round" stroke-dasharray="2 2"/>
<path d="M82.8667 -14.0667C82.8667 -1.86252 80.4629 10.2222 75.7926 21.4974C71.1222 32.7725 64.2768 43.0174 55.6472 51.6471C47.0175 60.2768 36.7726 67.1222 25.4974 71.7925C14.2222 76.4629 2.13754 78.8667 -10.0666 78.8667L-10.0666 -14.0667L82.8667 -14.0667Z" stroke="#F5CD90" stroke-opacity="0.5" stroke-width="0.8" stroke-miterlimit="1.55572" stroke-linecap="round" stroke-linejoin="round" stroke-dasharray="2 2"/>
<path d="M85.6 -12.7C85.6 -0.316385 83.1609 11.946 78.4219 23.387C73.6828 34.828 66.7368 45.2236 57.9802 53.9801C49.2236 62.7367 38.8281 69.6828 27.3871 74.4218C15.9461 79.1608 3.68368 81.6 -8.69998 81.6L-8.69999 -12.7L85.6 -12.7Z" stroke="#F5CD90" stroke-opacity="0.5" stroke-width="0.8" stroke-miterlimit="1.55572" stroke-linecap="round" stroke-linejoin="round" stroke-dasharray="2 2"/>
<path d="M88.3334 -11.3334C88.3334 1.22976 85.8589 13.6699 81.0512 25.2767C76.2435 36.8835 69.1967 47.4297 60.3133 56.3132C51.4298 65.1967 40.8836 72.2434 29.2768 77.0511C17.6699 81.8588 5.22983 84.3333 -7.3333 84.3333L-7.33331 -11.3333L88.3334 -11.3334Z" stroke="#F5CD90" stroke-opacity="0.5" stroke-width="0.8" stroke-miterlimit="1.55572" stroke-linecap="round" stroke-linejoin="round" stroke-dasharray="2 2"/>
<path d="M91.0667 -9.9667C91.0667 2.7759 88.5568 15.3937 83.6805 27.1664C78.8041 38.939 71.6567 49.6359 62.6463 58.6462C53.6359 67.6566 42.939 74.804 31.1664 79.6804C19.3938 84.5568 6.77596 87.0666 -5.96664 87.0666L-5.96665 -9.96668L91.0667 -9.9667Z" stroke="#F5CD90" stroke-opacity="0.5" stroke-width="0.8" stroke-miterlimit="1.55572" stroke-linecap="round" stroke-linejoin="round" stroke-dasharray="2 2"/>
<path d="M93.8 -8.60003C93.8 4.32204 91.2548 17.1176 86.3098 29.056C81.3647 40.9945 74.1166 51.842 64.9793 60.9793C55.8421 70.1166 44.9945 77.3647 33.0561 82.3097C21.1176 87.2548 8.3221 89.8 -4.59997 89.8L-4.59998 -8.60002L93.8 -8.60003Z" stroke="#F5CD90" stroke-opacity="0.5" stroke-width="0.8" stroke-miterlimit="1.55572" stroke-linecap="round" stroke-linejoin="round" stroke-dasharray="2 2"/>
<path d="M96.5333 -7.23337C96.5333 5.86817 93.9528 18.8414 88.9391 30.9457C83.9253 43.0499 76.5766 54.0481 67.3124 63.3123C58.0482 72.5765 47.05 79.9253 34.9457 84.939C22.8415 89.9528 9.86824 92.5333 -3.23331 92.5333L-3.23332 -7.23335L96.5333 -7.23337Z" stroke="#F5CD90" stroke-opacity="0.5" stroke-width="0.8" stroke-miterlimit="1.55572" stroke-linecap="round" stroke-linejoin="round" stroke-dasharray="2 2"/>
<path d="M99.2667 -5.8667C99.2667 7.41432 96.6508 20.5653 91.5684 32.8354C86.486 45.1054 79.0365 56.2543 69.6454 65.6454C60.2543 75.0365 49.1055 82.4859 36.8354 87.5683C24.5654 92.6508 11.4144 95.2667 -1.86663 95.2667L-1.86664 -5.86668L99.2667 -5.8667Z" stroke="#F5CD90" stroke-opacity="0.5" stroke-width="0.8" stroke-miterlimit="1.55572" stroke-linecap="round" stroke-linejoin="round" stroke-dasharray="2 2"/>
<path d="M102 -4.50004C102 8.96046 99.3488 22.2891 94.1977 34.725C89.0466 47.1609 81.4965 58.4604 71.9785 67.9784C62.4605 77.4964 51.161 85.0465 38.7251 90.1976C26.2892 95.3487 12.9605 98 -0.499969 98L-0.499982 -4.50002L102 -4.50004Z" stroke="#F5CD90" stroke-opacity="0.5" stroke-width="0.8" stroke-miterlimit="1.55572" stroke-linecap="round" stroke-linejoin="round" stroke-dasharray="2 2"/>
<path d="M-21 142C-10.2316 142 0.431346 144.121 10.38 148.242C20.3287 152.363 29.3684 158.403 36.9828 166.017C44.5972 173.632 50.6372 182.671 54.7581 192.62C58.879 202.569 61 213.232 61 224L-21 224L-21 142Z" stroke="#F5CD90" stroke-opacity="0.5" stroke-width="0.8" stroke-miterlimit="1.55572" stroke-linecap="round" stroke-linejoin="round" stroke-dasharray="2 2"/>
<path d="M-19.6333 139.267C-8.68546 139.267 2.1552 141.423 12.2697 145.613C22.3842 149.802 31.5745 155.943 39.3158 163.684C47.0571 171.426 53.1979 180.616 57.3874 190.73C61.577 200.845 63.7333 211.685 63.7333 222.633L-19.6333 222.633L-19.6333 139.267Z" stroke="#F5CD90" stroke-opacity="0.5" stroke-width="0.8" stroke-miterlimit="1.55572" stroke-linecap="round" stroke-linejoin="round" stroke-dasharray="2 2"/>
<path d="M-18.2667 136.533C-7.13932 136.533 3.87906 138.725 14.1594 142.983C24.4397 147.242 33.7806 153.483 41.6489 161.351C49.5171 169.219 55.7585 178.56 60.0167 188.841C64.275 199.121 66.4667 210.139 66.4667 221.267L-18.2667 221.267L-18.2667 136.533Z" stroke="#F5CD90" stroke-opacity="0.5" stroke-width="0.8" stroke-miterlimit="1.55572" stroke-linecap="round" stroke-linejoin="round" stroke-dasharray="2 2"/>
<path d="M-16.9 133.8C-5.59319 133.8 5.60291 136.027 16.049 140.354C26.4952 144.681 35.9868 151.023 43.9819 159.018C51.977 167.013 58.3191 176.505 62.646 186.951C66.973 197.397 69.2 208.593 69.2 219.9L-16.9 219.9L-16.9 133.8Z" stroke="#F5CD90" stroke-opacity="0.5" stroke-width="0.8" stroke-miterlimit="1.55572" stroke-linecap="round" stroke-linejoin="round" stroke-dasharray="2 2"/>
<path d="M-15.5333 131.067C-4.04704 131.067 7.32677 133.329 17.9387 137.725C28.5507 142.12 38.1929 148.563 46.3149 156.685C54.437 164.807 60.8797 174.449 65.2753 185.061C69.6709 195.673 71.9333 207.047 71.9333 218.533L-15.5333 218.533L-15.5333 131.067Z" stroke="#F5CD90" stroke-opacity="0.5" stroke-width="0.8" stroke-miterlimit="1.55572" stroke-linecap="round" stroke-linejoin="round" stroke-dasharray="2 2"/>
<path d="M-14.1667 128.333C-2.50091 128.333 9.05062 130.631 19.8284 135.095C30.6061 139.56 40.399 146.103 48.648 154.352C56.8969 162.601 63.4403 172.394 67.9046 183.172C72.3689 193.949 74.6667 205.501 74.6667 217.167L-14.1667 217.167L-14.1667 128.333Z" stroke="#F5CD90" stroke-opacity="0.5" stroke-width="0.8" stroke-miterlimit="1.55572" stroke-linecap="round" stroke-linejoin="round" stroke-dasharray="2 2"/>
<path d="M-12.8 125.6C-0.95476 125.6 10.7745 127.933 21.7181 132.466C32.6616 136.999 42.6052 143.643 50.981 152.019C59.3569 160.395 66.001 170.338 70.5339 181.282C75.0669 192.226 77.4 203.955 77.4 215.8L-12.8 215.8L-12.8 125.6Z" stroke="#F5CD90" stroke-opacity="0.5" stroke-width="0.8" stroke-miterlimit="1.55572" stroke-linecap="round" stroke-linejoin="round" stroke-dasharray="2 2"/>
<path d="M-11.4333 122.867C0.591374 122.867 12.4983 125.235 23.6077 129.837C34.7171 134.438 44.8113 141.183 53.3141 149.686C61.8168 158.189 68.5616 168.283 73.1632 179.392C77.7649 190.502 80.1333 202.409 80.1333 214.433L-11.4333 214.433L-11.4333 122.867Z" stroke="#F5CD90" stroke-opacity="0.5" stroke-width="0.8" stroke-miterlimit="1.55572" stroke-linecap="round" stroke-linejoin="round" stroke-dasharray="2 2"/>
<path d="M-10.0667 120.133C2.13752 120.133 14.2222 122.537 25.4974 127.207C36.7726 131.878 47.0175 138.723 55.6471 147.353C64.2768 155.983 71.1222 166.227 75.7925 177.503C80.4629 188.778 82.8667 200.862 82.8667 213.067L-10.0667 213.067L-10.0667 120.133Z" stroke="#F5CD90" stroke-opacity="0.5" stroke-width="0.8" stroke-miterlimit="1.55572" stroke-linecap="round" stroke-linejoin="round" stroke-dasharray="2 2"/>
<path d="M-8.7 117.4C3.68365 117.4 15.946 119.839 27.387 124.578C38.828 129.317 49.2236 136.263 57.9802 145.02C66.7367 153.776 73.6828 164.172 78.4218 175.613C83.1609 187.054 85.6 199.316 85.6 211.7L-8.7 211.7L-8.7 117.4Z" stroke="#F5CD90" stroke-opacity="0.5" stroke-width="0.8" stroke-miterlimit="1.55572" stroke-linecap="round" stroke-linejoin="round" stroke-dasharray="2 2"/>
<path d="M-7.33333 114.667C5.2298 114.667 17.6699 117.141 29.2767 121.949C40.8835 126.757 51.4298 133.803 60.3132 142.687C69.1967 151.57 76.2435 162.116 81.0512 173.723C85.8589 185.33 88.3333 197.77 88.3333 210.333L-7.33333 210.333L-7.33333 114.667Z" stroke="#F5CD90" stroke-opacity="0.5" stroke-width="0.8" stroke-miterlimit="1.55572" stroke-linecap="round" stroke-linejoin="round" stroke-dasharray="2 2"/>
<path d="M-5.96666 111.933C6.77593 111.933 19.3938 114.443 31.1664 119.32C42.939 124.196 53.6359 131.343 62.6463 140.354C71.6566 149.364 78.8041 160.061 83.6804 171.834C88.5568 183.606 91.0667 196.224 91.0667 208.967L-5.96667 208.967L-5.96666 111.933Z" stroke="#F5CD90" stroke-opacity="0.5" stroke-width="0.8" stroke-miterlimit="1.55572" stroke-linecap="round" stroke-linejoin="round" stroke-dasharray="2 2"/>
<path d="M-4.6 109.2C8.32208 109.2 21.1176 111.745 33.0561 116.69C44.9945 121.635 55.842 128.883 64.9793 138.021C74.1166 147.158 81.3647 158.006 86.3098 169.944C91.2548 181.882 93.8 194.678 93.8 207.6L-4.6 207.6L-4.6 109.2Z" stroke="#F5CD90" stroke-opacity="0.5" stroke-width="0.8" stroke-miterlimit="1.55572" stroke-linecap="round" stroke-linejoin="round" stroke-dasharray="2 2"/>
<path d="M-3.23334 106.467C9.86821 106.467 22.8415 109.047 34.9457 114.061C47.05 119.075 58.0482 126.423 67.3123 135.688C76.5765 144.952 83.9253 155.95 88.939 168.054C93.9528 180.159 96.5333 193.132 96.5333 206.233L-3.23334 206.233L-3.23334 106.467Z" stroke="#F5CD90" stroke-opacity="0.5" stroke-width="0.8" stroke-miterlimit="1.55572" stroke-linecap="round" stroke-linejoin="round" stroke-dasharray="2 2"/>
<path d="M-1.86666 103.733C11.4144 103.733 24.5653 106.349 36.8354 111.432C49.1055 116.514 60.2543 123.963 69.6454 133.355C79.0365 142.746 86.4859 153.895 91.5684 166.165C96.6508 178.435 99.2667 191.586 99.2667 204.867L-1.86666 204.867L-1.86666 103.733Z" stroke="#F5CD90" stroke-opacity="0.5" stroke-width="0.8" stroke-miterlimit="1.55572" stroke-linecap="round" stroke-linejoin="round" stroke-dasharray="2 2"/>
<path d="M-0.499998 101C12.9605 101 26.2892 103.651 38.7251 108.802C51.1609 113.953 62.4604 121.504 71.9784 131.022C81.4965 140.54 89.0465 151.839 94.1977 164.275C99.3488 176.711 102 190.04 102 203.5L-0.499999 203.5L-0.499998 101Z" stroke="#F5CD90" stroke-opacity="0.5" stroke-width="0.8" stroke-miterlimit="1.55572" stroke-linecap="round" stroke-linejoin="round" stroke-dasharray="2 2"/>
<path d="M381 57C370.232 57 359.569 54.879 349.62 50.7581C339.671 46.6372 330.632 40.5972 323.017 32.9828C315.403 25.3684 309.363 16.3287 305.242 6.38005C301.121 -3.56865 299 -14.2316 299 -25L381 -25L381 57Z" stroke="#F5CD90" stroke-opacity="0.5" stroke-width="0.8" stroke-miterlimit="1.55572" stroke-linecap="round" stroke-linejoin="round" stroke-dasharray="2 2"/>
<path d="M379.633 59.7333C368.685 59.7333 357.845 57.577 347.73 53.3874C337.616 49.1979 328.426 43.0571 320.684 35.3158C312.943 27.5745 306.802 18.3842 302.613 8.26972C298.423 -1.84479 296.267 -12.6855 296.267 -23.6333L379.633 -23.6333L379.633 59.7333Z" stroke="#F5CD90" stroke-opacity="0.5" stroke-width="0.8" stroke-miterlimit="1.55572" stroke-linecap="round" stroke-linejoin="round" stroke-dasharray="2 2"/>
<path d="M378.267 62.4667C367.139 62.4667 356.121 60.275 345.841 56.0167C335.56 51.7585 326.219 45.5171 318.351 37.6489C310.483 29.7806 304.242 20.4397 299.983 10.1594C295.725 -0.120931 293.533 -11.1393 293.533 -22.2667L378.267 -22.2667L378.267 62.4667Z" stroke="#F5CD90" stroke-opacity="0.5" stroke-width="0.8" stroke-miterlimit="1.55572" stroke-linecap="round" stroke-linejoin="round" stroke-dasharray="2 2"/>
<path d="M376.9 65.2C365.593 65.2 354.397 62.973 343.951 58.646C333.505 54.3191 324.013 47.977 316.018 39.9819C308.023 31.9868 301.681 22.4952 297.354 12.0491C293.027 1.60292 290.8 -9.59318 290.8 -20.9L376.9 -20.9L376.9 65.2Z" stroke="#F5CD90" stroke-opacity="0.5" stroke-width="0.8" stroke-miterlimit="1.55572" stroke-linecap="round" stroke-linejoin="round" stroke-dasharray="2 2"/>
<path d="M375.533 67.9333C364.047 67.9333 352.673 65.671 342.061 61.2753C331.449 56.8797 321.807 50.437 313.685 42.315C305.563 34.1929 299.12 24.5507 294.725 13.9387C290.329 3.32678 288.067 -8.04704 288.067 -19.5333L375.533 -19.5333L375.533 67.9333Z" stroke="#F5CD90" stroke-opacity="0.5" stroke-width="0.8" stroke-miterlimit="1.55572" stroke-linecap="round" stroke-linejoin="round" stroke-dasharray="2 2"/>
<path d="M374.167 70.6667C362.501 70.6667 350.949 68.3689 340.172 63.9046C329.394 59.4403 319.601 52.8969 311.352 44.648C303.103 36.3991 296.56 26.6061 292.095 15.8284C287.631 5.05063 285.333 -6.5009 285.333 -18.1667L374.167 -18.1667L374.167 70.6667Z" stroke="#F5CD90" stroke-opacity="0.5" stroke-width="0.8" stroke-miterlimit="1.55572" stroke-linecap="round" stroke-linejoin="round" stroke-dasharray="2 2"/>
<path d="M372.8 73.4C360.955 73.4 349.226 71.0669 338.282 66.534C327.338 62.001 317.395 55.3569 309.019 46.981C300.643 38.6052 293.999 28.6616 289.466 17.7181C284.933 6.77449 282.6 -4.95475 282.6 -16.8L372.8 -16.8L372.8 73.4Z" stroke="#F5CD90" stroke-opacity="0.5" stroke-width="0.8" stroke-miterlimit="1.55572" stroke-linecap="round" stroke-linejoin="round" stroke-dasharray="2 2"/>
<path d="M371.433 76.1333C359.409 76.1333 347.502 73.7649 336.392 69.1632C325.283 64.5616 315.189 57.8168 306.686 49.3141C298.183 40.8113 291.438 30.7171 286.837 19.6077C282.235 8.49834 279.867 -3.40862 279.867 -15.4333L371.433 -15.4333L371.433 76.1333Z" stroke="#F5CD90" stroke-opacity="0.5" stroke-width="0.8" stroke-miterlimit="1.55572" stroke-linecap="round" stroke-linejoin="round" stroke-dasharray="2 2"/>
<path d="M370.067 78.8667C357.862 78.8667 345.778 76.4629 334.503 71.7925C323.227 67.1222 312.983 60.2768 304.353 51.6471C295.723 43.0175 288.878 32.7726 284.207 21.4974C279.537 10.2222 277.133 -1.86248 277.133 -14.0667L370.067 -14.0667L370.067 78.8667Z" stroke="#F5CD90" stroke-opacity="0.5" stroke-width="0.8" stroke-miterlimit="1.55572" stroke-linecap="round" stroke-linejoin="round" stroke-dasharray="2 2"/>
<path d="M368.7 81.6C356.316 81.6 344.054 79.1609 332.613 74.4218C321.172 69.6828 310.776 62.7367 302.02 53.9802C293.263 45.2236 286.317 34.8281 281.578 23.3871C276.839 11.946 274.4 -0.316342 274.4 -12.7L368.7 -12.7L368.7 81.6Z" stroke="#F5CD90" stroke-opacity="0.5" stroke-width="0.8" stroke-miterlimit="1.55572" stroke-linecap="round" stroke-linejoin="round" stroke-dasharray="2 2"/>
<path d="M367.333 84.3334C354.77 84.3334 342.33 81.8589 330.723 77.0512C319.116 72.2435 308.57 65.1967 299.687 56.3132C290.803 47.4298 283.757 36.8835 278.949 25.2767C274.141 13.6699 271.667 1.22981 271.667 -11.3333L367.333 -11.3333L367.333 84.3334Z" stroke="#F5CD90" stroke-opacity="0.5" stroke-width="0.8" stroke-miterlimit="1.55572" stroke-linecap="round" stroke-linejoin="round" stroke-dasharray="2 2"/>
<path d="M365.967 87.0667C353.224 87.0667 340.606 84.5568 328.834 79.6805C317.061 74.8041 306.364 67.6566 297.354 58.6463C288.343 49.6359 281.196 38.939 276.32 27.1664C271.443 15.3938 268.933 2.77594 268.933 -9.96666L365.967 -9.96666L365.967 87.0667Z" stroke="#F5CD90" stroke-opacity="0.5" stroke-width="0.8" stroke-miterlimit="1.55572" stroke-linecap="round" stroke-linejoin="round" stroke-dasharray="2 2"/>
<path d="M364.6 89.8C351.678 89.8 338.882 87.2548 326.944 82.3098C315.006 77.3647 304.158 70.1166 295.021 60.9793C285.883 51.842 278.635 40.9945 273.69 29.0561C268.745 17.1176 266.2 4.32208 266.2 -8.59999L364.6 -8.59999L364.6 89.8Z" stroke="#F5CD90" stroke-opacity="0.5" stroke-width="0.8" stroke-miterlimit="1.55572" stroke-linecap="round" stroke-linejoin="round" stroke-dasharray="2 2"/>
<path d="M363.233 92.5333C350.132 92.5333 337.159 89.9528 325.054 84.9391C312.95 79.9253 301.952 72.5765 292.688 63.3124C283.423 54.0482 276.075 43.05 271.061 30.9457C266.047 18.8415 263.467 5.86822 263.467 -7.23333L363.233 -7.23333L363.233 92.5333Z" stroke="#F5CD90" stroke-opacity="0.5" stroke-width="0.8" stroke-miterlimit="1.55572" stroke-linecap="round" stroke-linejoin="round" stroke-dasharray="2 2"/>
<path d="M361.867 95.2667C348.586 95.2667 335.435 92.6508 323.165 87.5684C310.895 82.4859 299.746 75.0365 290.355 65.6454C280.964 56.2543 273.514 45.1055 268.432 32.8354C263.349 20.5653 260.733 7.41437 260.733 -5.86665L361.867 -5.86665L361.867 95.2667Z" stroke="#F5CD90" stroke-opacity="0.5" stroke-width="0.8" stroke-miterlimit="1.55572" stroke-linecap="round" stroke-linejoin="round" stroke-dasharray="2 2"/>
<path d="M360.5 98C347.04 98 333.711 95.3488 321.275 90.1977C308.839 85.0466 297.54 77.4965 288.022 67.9785C278.504 58.4605 270.953 47.1609 265.802 34.7251C260.651 22.2892 258 8.9605 258 -4.49999L360.5 -4.49999L360.5 98Z" stroke="#F5CD90" stroke-opacity="0.5" stroke-width="0.8" stroke-miterlimit="1.55572" stroke-linecap="round" stroke-linejoin="round" stroke-dasharray="2 2"/>
<g clip-path="url(#clip1_1_1043)">
<path d="M211.075 106.343V116.677C211.075 118.942 209.407 121.071 206.45 122.943C206.03 123.201 205.582 123.472 205.094 123.716C205.094 123.716 205.08 123.716 205.08 123.73C204.66 123.96 204.212 124.177 203.738 124.408C202.151 125.154 200.32 125.846 198.313 126.456C197.865 126.592 197.417 126.727 196.957 126.863H196.943C196.509 126.985 196.062 127.107 195.6 127.229C193.892 127.663 192.088 128.056 190.175 128.382C189.728 128.463 189.28 128.544 188.819 128.612H188.806C188.358 128.68 187.924 128.761 187.463 128.816C185.714 129.073 183.91 129.277 182.038 129.439C181.591 129.48 181.143 129.521 180.682 129.548H180.668C180.221 129.589 179.787 129.616 179.326 129.643C177.563 129.751 175.745 129.819 173.901 129.833C173.453 129.846 173.006 129.846 172.545 129.846H172.531C172.07 129.846 171.636 129.846 171.189 129.833C169.344 129.819 167.527 129.751 165.764 129.643C165.302 129.616 164.855 129.589 164.407 129.548H164.394C163.933 129.521 163.499 129.48 163.051 129.439C161.18 129.277 159.376 129.073 157.626 128.816C157.165 128.761 156.718 128.68 156.27 128.612H156.257C155.795 128.544 155.361 128.463 154.914 128.382C153.002 128.056 151.198 127.663 149.489 127.229C149.028 127.107 148.567 126.985 148.133 126.863H148.119C147.658 126.727 147.224 126.592 146.777 126.456C144.769 125.846 142.938 125.154 141.352 124.408C140.877 124.191 140.429 123.96 139.996 123.716C139.996 123.716 139.982 123.716 139.982 123.703C139.507 123.472 139.06 123.215 138.639 122.943C135.682 121.085 134 118.942 134 116.677V106.343H211.075Z" fill="#F6C358"/>
<path d="M211.075 106.343C211.075 108.608 209.407 110.737 206.45 112.582C206.016 112.866 205.569 113.138 205.08 113.382C204.66 113.626 204.212 113.843 203.738 114.074C202.151 114.82 200.32 115.498 198.313 116.122C197.865 116.257 197.417 116.393 196.956 116.528H196.943C196.509 116.65 196.061 116.773 195.6 116.894C193.891 117.329 192.088 117.722 190.175 118.047C189.728 118.129 189.28 118.21 188.819 118.278H188.806C188.358 118.346 187.924 118.427 187.463 118.481C185.713 118.739 183.91 118.942 182.038 119.105C181.59 119.146 181.143 119.187 180.682 119.214H180.668C180.221 119.254 179.787 119.282 179.326 119.309C177.563 119.417 175.745 119.485 173.901 119.499C173.453 119.512 173.006 119.512 172.545 119.512H172.531C172.07 119.512 171.636 119.512 171.188 119.499C169.344 119.485 167.527 119.417 165.763 119.309C165.302 119.282 164.855 119.254 164.407 119.214H164.394C163.933 119.187 163.499 119.146 163.051 119.105C161.179 118.942 159.376 118.739 157.626 118.481C157.165 118.427 156.717 118.346 156.27 118.278H156.256C155.795 118.21 155.361 118.129 154.914 118.047C153.001 117.722 151.198 117.329 149.489 116.894C149.028 116.773 148.567 116.65 148.133 116.528H148.119C147.658 116.393 147.224 116.257 146.776 116.122C144.769 115.511 142.938 114.82 141.351 114.074C140.877 113.857 140.429 113.626 139.995 113.382C139.995 113.382 139.982 113.382 139.982 113.369C139.507 113.138 139.06 112.88 138.639 112.609C135.682 110.751 134 108.608 134 106.343C134 99.0737 151.265 93.1738 172.544 93.1738C193.823 93.1738 211.075 99.0737 211.075 106.343Z" fill="#FCD462"/>
<path d="M172.425 115.832C172.042 115.832 171.677 115.832 171.301 115.82C169.526 115.807 167.768 115.745 165.988 115.636C165.555 115.61 165.145 115.586 164.735 115.549L164.571 115.534H164.507C164.144 115.511 163.798 115.478 163.443 115.446C161.49 115.276 159.787 115.08 158.161 114.841C157.787 114.796 157.527 114.753 157.269 114.711L156.537 114.598C156.265 114.554 155.572 114.427 155.572 114.427C153.824 114.13 152.143 113.773 150.392 113.328C149.987 113.22 149.545 113.104 149.128 112.986L147.841 112.599C146.318 112.136 144.915 111.627 143.66 111.08V111.069L141.618 110.073L140.958 109.702H140.931C140.833 109.643 140.733 109.581 140.633 109.517C138.444 108.14 137.68 106.95 137.68 106.343C137.68 102.998 150.916 96.8545 172.544 96.8545C194.163 96.8545 207.394 102.998 207.394 106.343C207.394 106.949 206.636 108.128 204.502 109.46C204.052 109.754 203.735 109.94 203.432 110.091L203.231 110.2C202.896 110.395 202.538 110.565 202.161 110.749C200.818 111.38 199.152 112.007 197.22 112.608L195.946 112.986C195.529 113.103 195.099 113.22 194.657 113.338C192.944 113.772 191.264 114.129 189.558 114.42C189.195 114.485 188.859 114.547 188.523 114.601L187.778 114.715C187.533 114.756 187.29 114.797 187.035 114.827C185.299 115.08 183.596 115.276 181.718 115.44C181.329 115.475 180.952 115.509 180.567 115.534L180.339 115.549C179.93 115.586 179.532 115.61 179.11 115.635C177.32 115.745 175.562 115.807 173.874 115.819C173.414 115.832 173.029 115.833 172.64 115.833C172.608 115.832 172.46 115.832 172.425 115.832Z" fill="#F6C358"/>
<path d="M141.351 114.072V124.407C140.876 124.19 140.429 123.959 139.995 123.715C139.995 123.715 139.981 123.715 139.981 123.701C139.507 123.471 139.059 123.213 138.639 122.942V112.607C139.059 112.879 139.507 113.136 139.981 113.367C139.981 113.38 139.995 113.38 139.995 113.38C140.429 113.625 140.876 113.855 141.351 114.072Z" fill="#DC8744"/>
<path d="M149.489 116.894V127.229C149.028 127.106 148.566 126.984 148.133 126.862H148.119C147.658 126.727 147.224 126.591 146.776 126.456V116.121C147.224 116.257 147.658 116.392 148.119 116.528H148.133C148.566 116.65 149.028 116.772 149.489 116.894Z" fill="#DC8744"/>
<path d="M157.625 118.481V128.815C157.164 128.761 156.717 128.68 156.269 128.612H156.256C155.795 128.544 155.361 128.463 154.913 128.381V118.047C155.361 118.128 155.795 118.21 156.256 118.277H156.269C156.717 118.345 157.164 118.427 157.625 118.481Z" fill="#DC8744"/>
<path d="M165.763 119.308V129.643C165.302 129.615 164.854 129.588 164.407 129.547H164.393C163.932 129.52 163.498 129.479 163.051 129.439V119.104C163.498 119.145 163.932 119.186 164.393 119.213H164.407C164.854 119.253 165.302 119.281 165.763 119.308Z" fill="#DC8744"/>
<path d="M173.901 119.498V129.833C173.453 129.846 173.006 129.846 172.545 129.846H172.531C172.07 129.846 171.636 129.846 171.188 129.833V119.498C171.636 119.512 172.07 119.512 172.531 119.512H172.545C173.006 119.512 173.453 119.512 173.901 119.498Z" fill="#DC8744"/>
<path d="M182.037 119.104V129.439C181.59 129.479 181.142 129.52 180.681 129.547H180.668C180.22 129.588 179.786 129.615 179.325 129.643V119.308C179.786 119.281 180.22 119.254 180.668 119.213H180.681C181.142 119.186 181.59 119.145 182.037 119.104Z" fill="#DC8744"/>
<path d="M190.175 118.047V128.381C189.728 128.463 189.28 128.544 188.819 128.612H188.805C188.358 128.68 187.924 128.761 187.463 128.815V118.481C187.924 118.427 188.358 118.345 188.805 118.277H188.819C189.28 118.21 189.728 118.128 190.175 118.047Z" fill="#DC8744"/>
<path d="M198.312 116.121V126.456C197.864 126.591 197.417 126.727 196.956 126.862H196.942C196.508 126.984 196.061 127.106 195.6 127.229V116.894C196.061 116.772 196.508 116.65 196.942 116.528H196.956C197.417 116.392 197.864 116.257 198.312 116.121Z" fill="#DC8744"/>
<path d="M206.45 112.581V122.943C206.029 123.2 205.582 123.472 205.093 123.716C205.093 123.716 205.08 123.716 205.08 123.729C204.659 123.96 204.212 124.177 203.737 124.407V114.073C204.212 113.842 204.659 113.625 205.08 113.381C205.568 113.137 206.016 112.866 206.45 112.581Z" fill="#DC8744"/>
<path d="M226 90.6699V101.004C226 103.269 224.332 105.399 221.376 107.27C220.955 107.528 220.508 107.799 220.02 108.043C220.02 108.043 220.006 108.043 220.006 108.057C219.586 108.288 219.138 108.505 218.664 108.735C217.077 109.481 215.246 110.173 213.239 110.783C212.791 110.919 212.343 111.054 211.882 111.19H211.869C211.435 111.312 210.987 111.434 210.526 111.556C208.817 111.99 207.014 112.383 205.101 112.709C204.654 112.79 204.206 112.871 203.745 112.939H203.732C203.284 113.007 202.85 113.088 202.389 113.143C200.639 113.4 198.836 113.604 196.964 113.767C196.516 113.807 196.069 113.848 195.608 113.875H195.594C195.147 113.916 194.713 113.943 194.252 113.97C192.489 114.079 190.671 114.146 188.827 114.16C188.379 114.174 187.932 114.174 187.47 114.174H187.457C186.996 114.174 186.562 114.174 186.114 114.16C184.27 114.146 182.453 114.079 180.689 113.97C180.228 113.943 179.781 113.916 179.333 113.875H179.32C178.859 113.848 178.425 113.807 177.977 113.767C176.105 113.604 174.302 113.4 172.552 113.143C172.091 113.089 171.643 113.007 171.196 112.939H171.182C170.721 112.871 170.287 112.79 169.84 112.709C167.927 112.383 166.124 111.99 164.415 111.556C163.954 111.434 163.493 111.312 163.059 111.19H163.045C162.584 111.054 162.15 110.919 161.702 110.783C159.695 110.173 157.864 109.481 156.277 108.735C155.803 108.518 155.355 108.288 154.921 108.043C154.921 108.043 154.908 108.043 154.908 108.03C154.433 107.799 153.986 107.542 153.565 107.27C150.609 105.412 148.927 103.269 148.927 101.005V90.6701H226V90.6699Z" fill="#F6C358"/>
<path d="M226 90.67C226 92.9349 224.332 95.0641 221.375 96.9087C220.941 97.1934 220.494 97.4647 220.005 97.7091C219.585 97.9531 219.137 98.1699 218.663 98.4006C217.076 99.1465 215.245 99.8247 213.238 100.448C212.79 100.584 212.342 100.72 211.881 100.855H211.868C211.434 100.978 210.986 101.1 210.525 101.222C208.816 101.656 207.013 102.049 205.1 102.375C204.653 102.456 204.205 102.537 203.744 102.605H203.731C203.283 102.673 202.849 102.754 202.388 102.809C200.638 103.066 198.835 103.27 196.963 103.432C196.515 103.473 196.068 103.514 195.607 103.541H195.593C195.146 103.581 194.712 103.609 194.251 103.636C192.488 103.744 190.67 103.812 188.826 103.826C188.378 103.839 187.931 103.839 187.47 103.839H187.456C186.995 103.839 186.561 103.839 186.113 103.826C184.269 103.812 182.452 103.744 180.688 103.636C180.227 103.609 179.78 103.582 179.332 103.541H179.319C178.858 103.514 178.424 103.473 177.976 103.432C176.104 103.27 174.301 103.066 172.551 102.809C172.09 102.754 171.642 102.673 171.195 102.605H171.181C170.72 102.537 170.286 102.456 169.839 102.375C167.926 102.049 166.123 101.656 164.414 101.222C163.953 101.1 163.492 100.978 163.058 100.855H163.044C162.583 100.72 162.149 100.584 161.701 100.448C159.694 99.8381 157.863 99.1465 156.276 98.4006C155.802 98.1835 155.354 97.9531 154.92 97.7091C154.92 97.7091 154.907 97.7091 154.907 97.6955C154.432 97.4647 153.985 97.2071 153.564 96.936C150.608 95.0779 148.926 92.9351 148.926 90.6702C148.926 83.4008 166.191 77.501 187.47 77.501C208.749 77.501 226 83.4004 226 90.67Z" fill="#FCD462"/>
<path d="M187.349 100.159C186.966 100.159 186.601 100.158 186.227 100.147C184.441 100.133 182.683 100.071 180.915 99.9623C180.482 99.9365 180.074 99.9126 179.666 99.8754L179.499 99.8605H179.431C179.083 99.8383 178.749 99.8073 178.409 99.7766C176.407 99.6018 174.703 99.4059 173.088 99.1674C172.713 99.1218 172.453 99.0788 172.194 99.0368L171.463 98.9242C171.182 98.8786 170.496 98.7535 170.496 98.7535C168.741 98.4541 167.061 98.0971 165.319 97.6543C164.913 97.5464 164.471 97.4297 164.055 97.3122L162.769 96.9266C161.241 96.4618 159.837 95.9516 158.586 95.4064V95.3921L156.534 94.3948L155.883 94.0288H155.858C155.758 93.9695 155.658 93.9072 155.558 93.8426C153.369 92.4674 152.605 91.2778 152.605 90.67C152.605 87.3249 165.842 81.1807 187.47 81.1807C209.088 81.1807 222.32 87.3247 222.32 90.67C222.32 91.2749 221.562 92.4542 219.427 93.7858C218.975 94.0817 218.658 94.2679 218.358 94.4184L218.159 94.5257C217.824 94.7204 217.465 94.8911 217.087 95.0744C215.743 95.707 214.078 96.3341 212.146 96.9341C211.793 97.0407 210.871 97.3126 210.871 97.3126C210.455 97.4295 210.025 97.5468 209.582 97.6643C207.878 98.0973 206.198 98.4542 204.482 98.7466C204.121 98.8124 203.787 98.8729 203.451 98.9263L202.701 99.0424C202.457 99.0825 202.214 99.1234 201.961 99.1532C200.234 99.4061 198.531 99.602 196.644 99.766C196.253 99.802 195.878 99.8361 195.494 99.8607L195.26 99.8756C194.852 99.9128 194.456 99.9367 194.036 99.9613C192.256 100.071 190.499 100.133 188.799 100.145C188.34 100.158 187.955 100.159 187.566 100.159C187.534 100.159 187.384 100.159 187.349 100.159Z" fill="#F6C358"/>
<path d="M156.277 98.3992V108.734C155.802 108.517 155.355 108.286 154.921 108.042C154.921 108.042 154.907 108.042 154.907 108.028C154.432 107.798 153.985 107.54 153.564 107.269V96.9346C153.985 97.2057 154.432 97.4634 154.907 97.6941C154.907 97.7076 154.921 97.7076 154.921 97.7076C155.355 97.9516 155.802 98.1821 156.277 98.3992Z" fill="#DC8744"/>
<path d="M164.414 101.221V111.556C163.953 111.434 163.492 111.312 163.058 111.19H163.045C162.584 111.054 162.15 110.918 161.702 110.783V100.448C162.15 100.584 162.584 100.72 163.045 100.855H163.058C163.492 100.977 163.953 101.099 164.414 101.221Z" fill="#DC8744"/>
<path d="M172.551 102.808V113.142C172.09 113.088 171.643 113.007 171.195 112.939H171.181C170.72 112.871 170.286 112.79 169.839 112.709V102.374C170.286 102.456 170.72 102.537 171.181 102.604H171.195C171.643 102.672 172.09 102.754 172.551 102.808Z" fill="#DC8744"/>
<path d="M180.689 103.635V113.97C180.228 113.943 179.78 113.915 179.333 113.875H179.319C178.858 113.847 178.424 113.807 177.977 113.766V103.432C178.424 103.472 178.858 103.513 179.319 103.54H179.333C179.78 103.581 180.228 103.608 180.689 103.635Z" fill="#DC8744"/>
<path d="M188.827 103.825V114.16C188.379 114.173 187.931 114.173 187.47 114.173H187.457C186.996 114.173 186.562 114.173 186.114 114.16V103.825C186.562 103.839 186.996 103.839 187.457 103.839H187.47C187.931 103.839 188.379 103.839 188.827 103.825Z" fill="#DC8744"/>
<path d="M196.964 103.432V113.766C196.517 113.807 196.069 113.847 195.608 113.875H195.595C195.147 113.915 194.713 113.943 194.252 113.97V103.635C194.713 103.608 195.147 103.581 195.595 103.54H195.608C196.069 103.513 196.517 103.472 196.964 103.432Z" fill="#DC8744"/>
<path d="M205.102 102.374V112.709C204.654 112.79 204.207 112.871 203.746 112.939H203.732C203.285 113.007 202.851 113.088 202.39 113.142V102.808C202.851 102.754 203.285 102.672 203.732 102.604H203.746C204.207 102.537 204.654 102.456 205.102 102.374Z" fill="#DC8744"/>
<path d="M213.239 100.448V110.783C212.791 110.918 212.344 111.054 211.883 111.19H211.869C211.435 111.312 210.987 111.434 210.526 111.556V101.221C210.987 101.099 211.435 100.977 211.869 100.855H211.883C212.343 100.72 212.791 100.584 213.239 100.448Z" fill="#DC8744"/>
<path d="M221.375 96.9082V107.27C220.955 107.528 220.507 107.799 220.019 108.043C220.019 108.043 220.006 108.043 220.006 108.056C219.585 108.287 219.138 108.504 218.663 108.735V98.4001C219.138 98.1695 219.585 97.9526 220.006 97.7086C220.494 97.4642 220.941 97.1931 221.375 96.9082Z" fill="#DC8744"/>
<path d="M211.075 74.9961V85.3306C211.075 87.5954 209.407 89.7248 206.45 91.5964C206.03 91.8542 205.582 92.1253 205.094 92.3695C205.094 92.3695 205.08 92.3695 205.08 92.383C204.66 92.6137 204.212 92.8308 203.738 93.0612C202.151 93.8072 200.32 94.4989 198.313 95.1091C197.865 95.2448 197.417 95.3802 196.957 95.516H196.943C196.509 95.638 196.062 95.76 195.6 95.8822C193.892 96.3161 192.088 96.7092 190.175 97.035C189.728 97.1163 189.28 97.1976 188.819 97.2656H188.806C188.358 97.3334 187.924 97.4145 187.463 97.4689C185.714 97.7265 183.91 97.9302 182.038 98.0927C181.591 98.1334 181.143 98.1742 180.682 98.2013H180.668C180.221 98.242 179.787 98.2693 179.326 98.2964C177.563 98.4047 175.745 98.4727 173.901 98.4862C173.453 98.4998 173.006 98.4998 172.545 98.4998H172.531C172.07 98.4998 171.636 98.4998 171.189 98.4862C169.344 98.4727 167.527 98.4047 165.764 98.2964C165.302 98.2693 164.855 98.2422 164.407 98.2013H164.394C163.933 98.1742 163.499 98.1334 163.051 98.0927C161.18 97.93 159.376 97.7265 157.626 97.4689C157.165 97.4147 156.718 97.3334 156.27 97.2656H156.257C155.795 97.1978 155.361 97.1163 154.914 97.035C153.002 96.7092 151.198 96.3161 149.489 95.8822C149.028 95.76 148.567 95.638 148.133 95.516H148.119C147.658 95.3802 147.224 95.2448 146.777 95.1091C144.769 94.4989 142.938 93.8072 141.352 93.0612C140.877 92.8443 140.429 92.6137 139.996 92.3695C139.996 92.3695 139.982 92.3695 139.982 92.3559C139.507 92.1255 139.06 91.8679 138.639 91.5966C135.682 89.7383 134 87.5954 134 85.3306V74.9961H211.075Z" fill="#F6C358"/>
<path d="M211.075 74.9963C211.075 77.2613 209.407 79.3905 206.45 81.2351C206.016 81.5197 205.569 81.791 205.08 82.0354C204.66 82.2794 204.212 82.4963 203.738 82.727C202.151 83.4729 200.32 84.1511 198.313 84.7748C197.865 84.9104 197.417 85.0462 196.956 85.1815H196.943C196.509 85.3037 196.061 85.4259 195.6 85.5477C193.891 85.9819 192.088 86.3752 190.175 86.7007C189.728 86.7823 189.28 86.8634 188.819 86.9312H188.806C188.358 86.9991 187.924 87.0805 187.463 87.1347C185.713 87.3925 183.91 87.5958 182.038 87.7587C181.59 87.7993 181.143 87.84 180.682 87.8671H180.668C180.221 87.9076 179.787 87.9349 179.326 87.962C177.563 88.0706 175.745 88.1384 173.901 88.152C173.453 88.1655 173.006 88.1655 172.545 88.1655H172.531C172.07 88.1655 171.636 88.1655 171.188 88.152C169.344 88.1386 167.527 88.0706 165.763 87.962C165.302 87.9349 164.855 87.9078 164.407 87.8671H164.394C163.933 87.84 163.499 87.7993 163.051 87.7587C161.179 87.5958 159.376 87.3925 157.626 87.1347C157.165 87.0805 156.717 86.9991 156.27 86.9312H156.256C155.795 86.8634 155.361 86.7823 154.914 86.7007C153.001 86.3752 151.198 85.9819 149.489 85.5477C149.028 85.4259 148.567 85.3037 148.133 85.1815H148.119C147.658 85.0462 147.224 84.9104 146.776 84.7748C144.769 84.1644 142.938 83.4729 141.351 82.727C140.877 82.5099 140.429 82.2794 139.995 82.0354C139.995 82.0354 139.982 82.0354 139.982 82.0219C139.507 81.791 139.06 81.5335 138.639 81.2624C135.682 79.4041 134 77.2613 134 74.9963C134 67.727 151.265 61.8271 172.544 61.8271C193.823 61.8271 211.075 67.727 211.075 74.9963Z" fill="#FCD462"/>
<path d="M172.428 84.4847C172.041 84.4847 171.674 84.4841 171.296 84.4733C169.516 84.459 167.758 84.3973 165.988 84.2888C165.559 84.2631 165.15 84.2391 164.74 84.2014L164.573 84.1865H164.505C164.157 84.1643 163.823 84.1332 163.483 84.1026C161.481 83.9277 159.778 83.7319 158.162 83.4934C157.79 83.4478 157.534 83.4059 157.279 83.3647L156.537 83.2509C156.265 83.2065 155.572 83.0796 155.572 83.0796C153.821 82.782 152.142 82.425 150.394 81.9804C149.985 81.8726 149.544 81.7559 149.128 81.639L147.845 81.2528C146.317 80.7879 144.913 80.2783 143.66 79.7326V79.7182L141.606 78.7198L140.957 78.355H140.932C140.833 78.2957 140.733 78.234 140.633 78.1699C138.444 76.793 137.68 75.6034 137.68 74.9962C137.68 71.6511 150.916 65.5068 172.544 65.5068C194.163 65.5068 207.394 71.6509 207.394 74.9962C207.394 75.6011 206.636 76.7804 204.502 78.1132C204.049 78.4079 203.731 78.5947 203.432 78.7444L203.234 78.8517C202.898 79.0463 202.539 79.2171 202.162 79.4004C200.817 80.033 199.152 80.66 197.22 81.26L195.946 81.6392C195.53 81.7561 195.102 81.8728 194.661 81.9889C192.946 82.425 191.266 82.782 189.558 83.0724C189.187 83.1394 188.844 83.2024 188.501 83.2568L187.768 83.3694C187.527 83.4089 187.286 83.4498 187.035 83.479C185.308 83.7319 183.605 83.9277 181.718 84.0918C181.33 84.1271 180.953 84.1619 180.569 84.1865L180.334 84.2014C179.924 84.2385 179.527 84.2631 179.105 84.2882C177.33 84.3973 175.572 84.459 173.872 84.4715C173.416 84.4841 173.029 84.4847 172.637 84.4847C172.607 84.4847 172.462 84.4847 172.428 84.4847Z" fill="#F6C358"/>
<path d="M141.351 82.7263V93.0608C140.876 92.8439 140.429 92.6133 139.995 92.3691C139.995 92.3691 139.981 92.3691 139.981 92.3555C139.507 92.1251 139.059 91.8675 138.639 91.5962V81.2617C139.059 81.5328 139.507 81.7906 139.981 82.0212C139.981 82.0348 139.995 82.0348 139.995 82.0348C140.429 82.2788 140.876 82.5092 141.351 82.7263Z" fill="#DC8744"/>
<path d="M149.489 85.5473V95.882C149.028 95.7598 148.566 95.6378 148.133 95.5158H148.119C147.658 95.38 147.224 95.2447 146.776 95.1089V84.7744C147.224 84.91 147.658 85.0457 148.119 85.1811H148.133C148.566 85.3033 149.028 85.4255 149.489 85.5473Z" fill="#DC8744"/>
<path d="M157.625 87.1342V97.4687C157.164 97.4144 156.717 97.3331 156.269 97.2653H156.256C155.795 97.1975 155.361 97.116 154.913 97.0347V86.7002C155.361 86.7817 155.795 86.8629 156.256 86.9306H156.269C156.717 86.9986 157.164 87.0801 157.625 87.1342Z" fill="#DC8744"/>
<path d="M165.763 87.9611V98.2958C165.302 98.2687 164.854 98.2416 164.407 98.2007H164.393C163.932 98.1736 163.498 98.1328 163.051 98.0921V87.7578C163.498 87.7985 163.932 87.8391 164.393 87.8663H164.407C164.854 87.9069 165.302 87.934 165.763 87.9611Z" fill="#DC8744"/>
<path d="M173.901 88.1514V98.4859C173.453 98.4994 173.006 98.4994 172.545 98.4994H172.531C172.07 98.4994 171.636 98.4994 171.188 98.4859V88.1514C171.636 88.1649 172.07 88.1649 172.531 88.1649H172.545C173.006 88.1649 173.453 88.1649 173.901 88.1514Z" fill="#DC8744"/>
<path d="M182.037 87.7578V98.0921C181.59 98.1328 181.142 98.1736 180.681 98.2007H180.668C180.22 98.2414 179.786 98.2687 179.325 98.2958V87.9611C179.786 87.934 180.22 87.9069 180.668 87.8663H180.681C181.142 87.8391 181.59 87.7987 182.037 87.7578Z" fill="#DC8744"/>
<path d="M190.175 86.7002V97.0347C189.728 97.116 189.28 97.1973 188.819 97.2653H188.805C188.358 97.3331 187.924 97.4142 187.463 97.4687V87.1342C187.924 87.0799 188.358 86.9986 188.805 86.9306H188.819C189.28 86.8631 189.728 86.7817 190.175 86.7002Z" fill="#DC8744"/>
<path d="M198.312 84.7744V95.1089C197.864 95.2447 197.417 95.38 196.956 95.5158H196.942C196.508 95.6378 196.061 95.7598 195.6 95.882V85.5473C196.061 85.4255 196.508 85.3033 196.942 85.1811H196.956C197.417 85.0457 197.864 84.91 198.312 84.7744Z" fill="#DC8744"/>
<path d="M206.45 81.2344V91.596C206.029 91.8537 205.582 92.1248 205.093 92.369C205.093 92.369 205.08 92.369 205.08 92.3826C204.659 92.6132 204.212 92.8303 203.737 93.0608V82.7263C204.212 82.4956 204.659 82.2787 205.08 82.0347C205.568 81.7903 206.016 81.5192 206.45 81.2344Z" fill="#DC8744"/>
<path d="M226 59.3223V69.6568C226 71.9215 224.332 74.0509 221.376 75.9226C220.955 76.1803 220.508 76.4515 220.02 76.6957C220.02 76.6957 220.006 76.6957 220.006 76.7092C219.586 76.9399 219.138 77.1569 218.664 77.3874C217.077 78.1333 215.246 78.8251 213.239 79.4353C212.791 79.571 212.343 79.7064 211.882 79.8421H211.869C211.435 79.9641 210.987 80.0861 210.526 80.2083C208.817 80.6423 207.014 81.0354 205.101 81.3611C204.654 81.4425 204.206 81.5238 203.745 81.5918H203.732C203.284 81.6596 202.85 81.7407 202.389 81.7951C200.639 82.0527 198.836 82.2564 196.964 82.4189C196.516 82.4595 196.069 82.5004 195.608 82.5275H195.594C195.147 82.5682 194.713 82.5955 194.252 82.6226C192.489 82.7308 190.671 82.7988 188.827 82.8124C188.379 82.8259 187.932 82.8259 187.47 82.8259H187.457C186.996 82.8259 186.562 82.8259 186.114 82.8124C184.27 82.7988 182.453 82.7308 180.689 82.6226C180.228 82.5955 179.781 82.5684 179.333 82.5275H179.32C178.859 82.5004 178.425 82.4595 177.977 82.4189C176.105 82.2562 174.302 82.0527 172.552 81.7951C172.091 81.7409 171.643 81.6596 171.196 81.5918H171.182C170.721 81.524 170.287 81.4425 169.84 81.3611C167.927 81.0354 166.124 80.6423 164.415 80.2083C163.954 80.0861 163.493 79.9641 163.059 79.8421H163.045C162.584 79.7064 162.15 79.571 161.702 79.4353C159.695 78.8251 157.864 78.1333 156.277 77.3874C155.803 77.1705 155.355 76.9399 154.921 76.6957C154.921 76.6957 154.908 76.6957 154.908 76.6821C154.433 76.4517 153.986 76.1941 153.565 75.9228C150.609 74.0647 148.927 71.9217 148.927 69.6569V59.3223H226Z" fill="#F6C358"/>
<path d="M226 59.3233C226 61.5883 224.332 63.7175 221.375 65.562C220.941 65.8467 220.494 66.118 220.005 66.3624C219.585 66.6064 219.137 66.8233 218.663 67.0539C217.076 67.7999 215.245 68.478 213.238 69.1018C212.79 69.2374 212.342 69.3731 211.881 69.5087H211.868C211.434 69.6309 210.986 69.7531 210.525 69.8749C208.816 70.309 207.013 70.7023 205.1 71.0279C204.653 71.1094 204.205 71.1905 203.744 71.2583H203.731C203.283 71.3263 202.849 71.4076 202.388 71.4618C200.638 71.7196 198.835 71.9229 196.963 72.0858C196.515 72.1265 196.068 72.1671 195.607 72.1942H195.593C195.146 72.2347 194.712 72.262 194.251 72.2891C192.488 72.3978 190.67 72.4655 188.826 72.4791C188.378 72.4927 187.931 72.4927 187.47 72.4927H187.456C186.995 72.4927 186.561 72.4927 186.113 72.4791C184.269 72.4657 182.452 72.3978 180.688 72.2891C180.227 72.262 179.78 72.2349 179.332 72.1942H179.319C178.858 72.1671 178.424 72.1265 177.976 72.0858C176.104 71.9229 174.301 71.7196 172.551 71.4618C172.09 71.4076 171.642 71.3263 171.195 71.2583H171.181C170.72 71.1905 170.286 71.1094 169.839 71.0279C167.926 70.7023 166.123 70.309 164.414 69.8749C163.953 69.7531 163.492 69.6309 163.058 69.5087H163.044C162.583 69.3733 162.149 69.2375 161.701 69.1018C159.694 68.4914 157.863 67.7999 156.276 67.0539C155.802 66.8368 155.354 66.6064 154.92 66.3624C154.92 66.3624 154.907 66.3624 154.907 66.3488C154.432 66.118 153.985 65.8604 153.564 65.5893C150.608 63.7312 148.926 61.5884 148.926 59.3235C148.926 52.0541 166.191 46.1543 187.47 46.1543C208.749 46.1543 226 52.0539 226 59.3233Z" fill="#FCD462"/>
<path d="M187.349 68.8119C186.966 68.8119 186.601 68.8113 186.226 68.7999C184.442 68.7855 182.683 68.7238 180.914 68.6154C180.482 68.5897 180.074 68.5651 179.666 68.528L179.499 68.513H179.431C179.082 68.4908 178.749 68.4598 178.409 68.4292C176.409 68.2543 174.706 68.0584 173.087 67.8205C172.721 67.7755 172.466 67.7331 172.211 67.6924L171.463 67.5775C171.192 67.5337 170.496 67.4062 170.496 67.4062C168.747 67.1086 167.067 66.7516 165.319 66.307C164.91 66.1992 164.47 66.0825 164.055 65.9656L162.765 65.5785C161.242 65.1155 159.84 64.6053 158.586 64.0595V64.0446L156.534 63.0474L155.884 62.6814H155.857C155.758 62.6226 155.66 62.5609 155.561 62.4975C153.369 61.1199 152.605 59.9304 152.605 59.3223C152.605 55.9772 165.842 49.833 187.47 49.833C209.088 49.833 222.32 55.977 222.32 59.3223C222.32 59.9272 221.562 61.1066 219.427 62.4393C218.975 62.734 218.657 62.9209 218.358 63.0706L218.159 63.1778C217.818 63.3761 217.452 63.5497 217.067 63.7373C215.744 64.3591 214.078 64.9862 212.145 65.587L210.871 65.9656C210.456 66.0825 210.028 66.1992 209.587 66.3153C207.872 66.7514 206.191 67.1084 204.483 67.3987C204.108 67.4671 203.766 67.5294 203.424 67.5832L202.685 67.697C202.445 67.7364 202.205 67.7765 201.956 67.806C200.232 68.0588 198.528 68.2539 196.644 68.4182C196.252 68.4541 195.878 68.4883 195.494 68.5128L195.259 68.5278C194.851 68.5649 194.456 68.5895 194.036 68.614C192.255 68.7236 190.498 68.7853 188.798 68.7979C188.339 68.8111 187.954 68.8117 187.565 68.8117C187.534 68.8119 187.384 68.8119 187.349 68.8119Z" fill="#F6C358"/>
<path d="M156.276 67.0525V77.387C155.801 77.1701 155.354 76.9394 154.92 76.6952C154.92 76.6952 154.906 76.6952 154.906 76.6817C154.431 76.4512 153.984 76.1937 153.563 75.9224V65.5879C153.984 65.859 154.431 66.1168 154.906 66.3474C154.906 66.361 154.92 66.361 154.92 66.361C155.354 66.605 155.801 66.8356 156.276 67.0525Z" fill="#DC8744"/>
<path d="M164.413 69.8744V80.2091C163.952 80.0869 163.491 79.9649 163.057 79.8429H163.044C162.583 79.7072 162.149 79.5718 161.701 79.436V69.1016C162.149 69.2371 162.583 69.3729 163.044 69.5084H163.057C163.491 69.6304 163.952 69.7526 164.413 69.8744Z" fill="#DC8744"/>
<path d="M172.55 71.4613V81.7958C172.089 81.7416 171.642 81.6603 171.194 81.5925H171.18C170.719 81.5247 170.285 81.4432 169.838 81.3618V71.0273C170.285 71.1089 170.719 71.19 171.18 71.2578H171.194C171.642 71.3258 172.089 71.4073 172.55 71.4613Z" fill="#DC8744"/>
<path d="M180.688 72.2883V82.623C180.227 82.5959 179.779 82.5688 179.332 82.5279H179.318C178.857 82.5008 178.423 82.4599 177.976 82.4193V72.085C178.423 72.1256 178.857 72.1663 179.318 72.1934H179.332C179.779 72.2341 180.227 72.2612 180.688 72.2883Z" fill="#DC8744"/>
<path d="M188.826 72.4785V82.813C188.378 82.8266 187.931 82.8266 187.469 82.8266H187.456C186.995 82.8266 186.561 82.8266 186.113 82.813V72.4785C186.561 72.4921 186.995 72.4921 187.456 72.4921H187.469C187.931 72.4921 188.378 72.4921 188.826 72.4785Z" fill="#DC8744"/>
<path d="M196.963 72.085V82.4193C196.516 82.4599 196.068 82.5008 195.607 82.5279H195.594C195.146 82.5686 194.712 82.5959 194.251 82.623V72.2883C194.712 72.2612 195.146 72.2341 195.594 72.1934H195.607C196.068 72.1661 196.516 72.1256 196.963 72.085Z" fill="#DC8744"/>
<path d="M205.101 71.0273V81.3618C204.653 81.4432 204.206 81.5245 203.745 81.5925H203.731C203.284 81.6603 202.85 81.7414 202.389 81.7958V71.4611C202.85 71.4069 203.284 71.3256 203.731 71.2576H203.745C204.206 71.19 204.653 71.1087 205.101 71.0273Z" fill="#DC8744"/>
<path d="M213.238 69.1016V79.436C212.79 79.5718 212.343 79.7072 211.882 79.8429H211.868C211.434 79.9649 210.986 80.0869 210.525 80.2091V69.8744C210.986 69.7526 211.434 69.6304 211.868 69.5082H211.882C212.342 69.3729 212.79 69.2371 213.238 69.1016Z" fill="#DC8744"/>
<path d="M221.375 65.5615V75.9231C220.955 76.1809 220.507 76.452 220.019 76.6962C220.019 76.6962 220.006 76.6962 220.006 76.7097C219.585 76.9404 219.138 77.1575 218.663 77.3879V67.0534C219.138 66.8228 219.585 66.6059 220.006 66.3619C220.494 66.1173 220.941 65.8462 221.375 65.5615Z" fill="#DC8744"/>
</g>
<path d="M0 195H360V314.2C360 315.88 360 316.72 359.673 317.362C359.385 317.926 358.926 318.385 358.362 318.673C357.72 319 356.88 319 355.2 319H4.8C3.11984 319 2.27976 319 1.63803 318.673C1.07354 318.385 0.614601 317.926 0.32698 317.362C0 316.72 0 315.88 0 314.2V195Z" fill="#FADCAC"/>
<path d="M31.0547 241H39.457V238.812H33.709V235.621H39.1318V233.547H33.709V230.506H39.457V228.317H31.0547V241ZM40.5117 241H43.21L44.9766 237.73H45.0293L46.8223 241H49.6084L46.6904 236.236L49.6348 231.578H46.8398L45.1699 234.76H45.1172L43.4209 231.578H40.5293L43.4648 236.307L40.5117 241ZM54.7061 241.193C57.2197 241.193 58.8457 239.629 58.9688 237.572V237.52H56.5781L56.5693 237.599C56.3936 238.548 55.752 239.181 54.7236 239.181C53.458 239.181 52.667 238.135 52.667 236.289V236.28C52.667 234.479 53.458 233.397 54.7148 233.397C55.7783 233.397 56.4023 234.083 56.5605 234.979L56.5781 235.059H58.96V234.997C58.8633 232.958 57.2373 231.385 54.6797 231.385C51.8584 231.385 50.0566 233.257 50.0566 236.271V236.28C50.0566 239.321 51.832 241.193 54.7061 241.193ZM60.2695 241H62.8359V235.604C62.8359 234.373 63.5654 233.512 64.6992 233.512C65.8682 233.512 66.5186 234.294 66.5186 235.612V241H69.085V235.085C69.085 232.809 67.8193 231.385 65.7803 231.385C64.3652 231.385 63.3721 232.035 62.8887 233.204H62.8359V228.317H60.2695V241ZM73.541 241.149C74.7803 241.149 75.7822 240.561 76.3184 239.594H76.3711V241H78.9375V234.54C78.9375 232.642 77.3643 231.385 74.9297 231.385C72.4424 231.385 70.9482 232.633 70.8076 234.373L70.7988 234.479H73.1455L73.1631 234.399C73.2861 233.793 73.8662 233.345 74.8242 233.345C75.8262 233.345 76.3711 233.863 76.3711 234.698V235.278L74.042 235.419C71.7041 235.568 70.377 236.57 70.377 238.284V238.302C70.377 239.963 71.6514 241.149 73.541 241.149ZM72.917 238.17V238.152C72.917 237.484 73.4355 237.062 74.4287 237.001L76.3711 236.878V237.555C76.3711 238.539 75.5273 239.277 74.376 239.277C73.4883 239.277 72.917 238.864 72.917 238.17ZM80.5986 241H83.165V235.586C83.165 234.355 83.8945 233.512 85.0459 233.512C86.1973 233.512 86.7773 234.215 86.7773 235.445V241H89.3438V234.918C89.3438 232.712 88.166 231.385 86.0918 231.385C84.668 231.385 83.7012 232.044 83.2178 233.125H83.165V231.578H80.5986V241ZM95.373 244.27C98.2031 244.27 99.9697 242.837 99.9697 240.736V231.578H97.4033V233.187H97.3506C96.8408 232.088 95.8125 231.385 94.4854 231.385C92.1035 231.385 90.627 233.169 90.627 236.175V236.184C90.627 239.11 92.0859 240.868 94.4414 240.868C95.8037 240.868 96.8584 240.244 97.3506 239.26H97.4033V240.701C97.4033 241.756 96.7002 242.441 95.373 242.441C94.3008 242.441 93.6152 242.037 93.4131 241.571L93.3867 241.51H90.8906L90.8994 241.589C91.1455 243.101 92.7803 244.27 95.373 244.27ZM95.3291 238.987C94.0459 238.987 93.2373 237.941 93.2373 236.245V236.236C93.2373 234.549 94.0547 233.512 95.3291 233.512C96.5771 233.512 97.4121 234.558 97.4121 236.236V236.245C97.4121 237.933 96.5859 238.987 95.3291 238.987ZM105.946 241.193C108.636 241.193 109.937 239.603 110.227 238.214L110.253 238.117H107.897L107.88 238.17C107.695 238.697 107.054 239.277 105.999 239.277C104.689 239.277 103.872 238.398 103.846 236.896H110.332V236.104C110.332 233.257 108.601 231.385 105.841 231.385C103.081 231.385 101.314 233.301 101.314 236.298V236.307C101.314 239.321 103.063 241.193 105.946 241.193ZM105.885 233.301C106.948 233.301 107.713 233.978 107.871 235.278H103.872C104.039 234.004 104.83 233.301 105.885 233.301ZM121.09 241.22C124.157 241.22 126.381 239.295 126.627 236.597L126.636 236.5H124.052L124.034 236.588C123.691 238.091 122.619 238.97 121.09 238.97C119.06 238.97 117.759 237.317 117.759 234.646V234.637C117.759 231.982 119.06 230.348 121.09 230.348C122.672 230.348 123.709 231.262 124.008 232.659L124.043 232.809H126.627L126.618 232.729C126.372 230.04 124.166 228.098 121.09 228.098C117.39 228.098 115.052 230.559 115.052 234.646V234.654C115.052 238.741 117.381 241.22 121.09 241.22ZM131.268 241.193C132.691 241.193 133.658 240.525 134.142 239.444H134.194V241H136.761V231.578H134.194V236.992C134.194 238.223 133.465 239.066 132.313 239.066C131.162 239.066 130.582 238.354 130.582 237.124V231.578H128.016V237.66C128.016 239.866 129.193 241.193 131.268 241.193ZM138.431 241H140.997V235.727C140.997 234.355 141.735 233.6 143.001 233.6C143.37 233.6 143.722 233.652 143.933 233.74V231.481C143.739 231.429 143.476 231.385 143.194 231.385C142.096 231.385 141.331 232.062 141.05 233.222H140.997V231.578H138.431V241ZM144.987 241H147.554V235.727C147.554 234.355 148.292 233.6 149.558 233.6C149.927 233.6 150.278 233.652 150.489 233.74V231.481C150.296 231.429 150.032 231.385 149.751 231.385C148.652 231.385 147.888 232.062 147.606 233.222H147.554V231.578H144.987V241ZM155.517 241.193C158.206 241.193 159.507 239.603 159.797 238.214L159.823 238.117H157.468L157.45 238.17C157.266 238.697 156.624 239.277 155.569 239.277C154.26 239.277 153.442 238.398 153.416 236.896H159.902V236.104C159.902 233.257 158.171 231.385 155.411 231.385C152.651 231.385 150.885 233.301 150.885 236.298V236.307C150.885 239.321 152.634 241.193 155.517 241.193ZM155.455 233.301C156.519 233.301 157.283 233.978 157.441 235.278H153.442C153.609 234.004 154.4 233.301 155.455 233.301ZM161.229 241H163.796V235.586C163.796 234.355 164.525 233.512 165.677 233.512C166.828 233.512 167.408 234.215 167.408 235.445V241H169.975V234.918C169.975 232.712 168.797 231.385 166.723 231.385C165.299 231.385 164.332 232.044 163.849 233.125H163.796V231.578H161.229V241ZM175.907 241.193C178.421 241.193 180.047 239.629 180.17 237.572V237.52H177.779L177.771 237.599C177.595 238.548 176.953 239.181 175.925 239.181C174.659 239.181 173.868 238.135 173.868 236.289V236.28C173.868 234.479 174.659 233.397 175.916 233.397C176.979 233.397 177.604 234.083 177.762 234.979L177.779 235.059H180.161V234.997C180.064 232.958 178.438 231.385 175.881 231.385C173.06 231.385 171.258 233.257 171.258 236.271V236.28C171.258 239.321 173.033 241.193 175.907 241.193ZM182.886 244.103C184.978 244.103 186.243 243.391 186.981 241.167L190.216 231.578H187.509L185.514 238.943H185.443L183.457 231.578H180.636L183.967 241L183.853 241.308C183.624 241.949 183.202 242.169 182.438 242.169C182.06 242.169 181.761 242.116 181.576 242.081V243.988C181.875 244.041 182.385 244.103 182.886 244.103Z" fill="#0B393C"/>
<path d="M31.0391 267H38.1953V265.492H32.7891V261.992H37.9062V260.523H32.7891V257.234H38.1953V255.727H31.0391V267ZM39.1719 267H41L42.8203 263.977H42.8594L44.6797 267H46.5391L43.8672 262.844L46.5703 258.781H44.7031L42.9375 261.758H42.8984L41.1094 258.781H39.2109L41.8906 262.898L39.1719 267ZM50.9766 267.164C52.9531 267.164 54.3281 265.898 54.5078 264.25L54.5156 264.195H52.8906L52.8828 264.258C52.6797 265.148 52.0156 265.75 50.9766 265.75C49.6719 265.75 48.8047 264.695 48.8047 262.898V262.891C48.8047 261.133 49.6562 260.039 50.9688 260.039C52.0703 260.039 52.6953 260.719 52.875 261.523L52.8906 261.586H54.5L54.4922 261.531C54.3516 259.984 53.0703 258.625 50.9531 258.625C48.6094 258.625 47.0781 260.273 47.0781 262.875V262.883C47.0781 265.516 48.5781 267.164 50.9766 267.164ZM55.7734 267H57.4609V262.242C57.4609 260.961 58.2344 260.07 59.3984 260.07C60.5859 260.07 61.2734 260.883 61.2734 262.242V267H62.9609V261.922C62.9609 259.938 61.8047 258.625 60.0469 258.625C58.8203 258.625 57.9375 259.18 57.5 260.133H57.4609V255.727H55.7734V267ZM67.0156 267.148C68.1016 267.148 69.0547 266.586 69.5312 265.703H69.5625V267H71.2578V261.336C71.2578 259.688 69.9844 258.625 67.9766 258.625C65.9531 258.625 64.7266 259.711 64.6094 261.125L64.6016 261.211H66.1953L66.2109 261.141C66.3516 260.484 66.9531 260.023 67.9297 260.023C68.9766 260.023 69.5625 260.57 69.5625 261.477V262.094L67.3281 262.227C65.3828 262.344 64.2734 263.219 64.2734 264.648V264.664C64.2734 266.141 65.375 267.148 67.0156 267.148ZM65.9766 264.625V264.609C65.9766 263.914 66.5391 263.469 67.5547 263.406L69.5625 263.281V263.922C69.5625 264.992 68.6641 265.797 67.4766 265.797C66.5703 265.797 65.9766 265.344 65.9766 264.625ZM72.8984 267H74.5859V262.211C74.5859 260.93 75.3516 260.07 76.5391 260.07C77.7109 260.07 78.2891 260.766 78.2891 262V267H79.9844V261.68C79.9844 259.789 78.9453 258.625 77.1406 258.625C75.8984 258.625 75.0547 259.188 74.625 260.023H74.5859V258.781H72.8984V267ZM85.2188 269.898C87.5391 269.898 88.9922 268.648 88.9922 266.773V258.781H87.2969V260.18H87.2578C86.7734 259.25 85.8672 258.625 84.7109 258.625C82.625 258.625 81.25 260.242 81.25 262.82V262.828C81.25 265.391 82.6094 267.008 84.6719 267.008C85.8516 267.008 86.7891 266.438 87.2578 265.547H87.2969V266.672C87.2969 267.82 86.5547 268.539 85.2109 268.539C84.1562 268.539 83.4453 268.18 83.2188 267.656L83.1875 267.594H81.5156L81.5234 267.664C81.7734 268.922 83.1094 269.898 85.2188 269.898ZM85.1484 265.633C83.8125 265.633 82.9766 264.57 82.9766 262.852V262.844C82.9766 261.148 83.8125 260.07 85.1484 260.07C86.4297 260.07 87.2969 261.156 87.2969 262.844V262.852C87.2969 264.547 86.4375 265.633 85.1484 265.633ZM94.1719 267.164C96.1641 267.164 97.4297 265.977 97.6953 264.672L97.7109 264.586H96.1094L96.0859 264.648C95.875 265.266 95.2109 265.781 94.2109 265.781C92.8672 265.781 92.0156 264.875 91.9844 263.32H97.8047V262.75C97.8047 260.281 96.3906 258.625 94.0859 258.625C91.7812 258.625 90.2969 260.344 90.2969 262.914V262.922C90.2969 265.516 91.7578 267.164 94.1719 267.164ZM94.0938 260.008C95.1953 260.008 95.9922 260.703 96.1328 262.125H92.0078C92.1562 260.75 93 260.008 94.0938 260.008ZM102.367 267H104.055V261.922C104.055 260.859 104.766 260.07 105.766 260.07C106.719 260.07 107.32 260.68 107.32 261.633V267H108.977V261.859C108.977 260.82 109.672 260.07 110.672 260.07C111.672 260.07 112.242 260.688 112.242 261.758V267H113.938V261.352C113.938 259.703 112.875 258.625 111.25 258.625C110.078 258.625 109.109 259.242 108.688 260.242H108.648C108.32 259.211 107.492 258.625 106.359 258.625C105.281 258.625 104.445 259.195 104.094 260.055H104.055V258.781H102.367V267ZM119.102 267.164C121.453 267.164 123 265.539 123 262.891V262.875C123 260.242 121.438 258.625 119.094 258.625C116.758 258.625 115.203 260.25 115.203 262.875V262.891C115.203 265.531 116.742 267.164 119.102 267.164ZM119.109 265.75C117.789 265.75 116.93 264.711 116.93 262.891V262.875C116.93 261.078 117.797 260.039 119.094 260.039C120.414 260.039 121.273 261.078 121.273 262.875V262.891C121.273 264.703 120.43 265.75 119.109 265.75ZM124.305 267H125.992V262.211C125.992 260.93 126.758 260.07 127.945 260.07C129.117 260.07 129.695 260.766 129.695 262V267H131.391V261.68C131.391 259.789 130.352 258.625 128.547 258.625C127.305 258.625 126.461 259.188 126.031 260.023H125.992V258.781H124.305V267ZM136.531 267.164C138.523 267.164 139.789 265.977 140.055 264.672L140.07 264.586H138.469L138.445 264.648C138.234 265.266 137.57 265.781 136.57 265.781C135.227 265.781 134.375 264.875 134.344 263.32H140.164V262.75C140.164 260.281 138.75 258.625 136.445 258.625C134.141 258.625 132.656 260.344 132.656 262.914V262.922C132.656 265.516 134.117 267.164 136.531 267.164ZM136.453 260.008C137.555 260.008 138.352 260.703 138.492 262.125H134.367C134.516 260.75 135.359 260.008 136.453 260.008ZM142.133 269.742C143.742 269.742 144.602 269.086 145.211 267.383L148.273 258.781H146.492L144.422 265.469H144.367L142.297 258.781H140.469L143.461 267.008L143.32 267.398C143.039 268.195 142.602 268.406 141.805 268.406C141.578 268.406 141.383 268.375 141.25 268.344V269.664C141.453 269.703 141.805 269.742 142.133 269.742ZM153 267H154.695V260.125H156.336V258.781H154.664V257.938C154.664 257.211 155.023 256.844 155.781 256.844C155.992 256.844 156.203 256.859 156.367 256.883V255.633C156.141 255.594 155.766 255.562 155.422 255.562C153.75 255.562 153 256.312 153 257.906V258.781H151.867V260.125H153V267ZM157.664 267H159.352V262.102C159.352 260.875 160.023 260.164 161.109 260.164C161.438 260.164 161.734 260.203 161.867 260.258V258.688C161.734 258.664 161.523 258.625 161.281 258.625C160.344 258.625 159.656 259.227 159.391 260.188H159.352V258.781H157.664V267ZM166.086 267.164C168.438 267.164 169.984 265.539 169.984 262.891V262.875C169.984 260.242 168.422 258.625 166.078 258.625C163.742 258.625 162.188 260.25 162.188 262.875V262.891C162.188 265.531 163.727 267.164 166.086 267.164ZM166.094 265.75C164.773 265.75 163.914 264.711 163.914 262.891V262.875C163.914 261.078 164.781 260.039 166.078 260.039C167.398 260.039 168.258 261.078 168.258 262.875V262.891C168.258 264.703 167.414 265.75 166.094 265.75ZM171.289 267H172.977V261.922C172.977 260.859 173.688 260.07 174.688 260.07C175.641 260.07 176.242 260.68 176.242 261.633V267H177.898V261.859C177.898 260.82 178.594 260.07 179.594 260.07C180.594 260.07 181.164 260.688 181.164 261.758V267H182.859V261.352C182.859 259.703 181.797 258.625 180.172 258.625C179 258.625 178.031 259.242 177.609 260.242H177.57C177.242 259.211 176.414 258.625 175.281 258.625C174.203 258.625 173.367 259.195 173.016 260.055H172.977V258.781H171.289V267ZM191.273 267.164C193.625 267.164 195.172 265.539 195.172 262.891V262.875C195.172 260.242 193.609 258.625 191.266 258.625C188.93 258.625 187.375 260.25 187.375 262.875V262.891C187.375 265.531 188.914 267.164 191.273 267.164ZM191.281 265.75C189.961 265.75 189.102 264.711 189.102 262.891V262.875C189.102 261.078 189.969 260.039 191.266 260.039C192.586 260.039 193.445 261.078 193.445 262.875V262.891C193.445 264.703 192.602 265.75 191.281 265.75ZM196.477 267H198.164V262.211C198.164 260.93 198.93 260.07 200.117 260.07C201.289 260.07 201.867 260.766 201.867 262V267H203.562V261.68C203.562 259.789 202.523 258.625 200.719 258.625C199.477 258.625 198.633 259.188 198.203 260.023H198.164V258.781H196.477V267ZM208.703 267.164C210.695 267.164 211.961 265.977 212.227 264.672L212.242 264.586H210.641L210.617 264.648C210.406 265.266 209.742 265.781 208.742 265.781C207.398 265.781 206.547 264.875 206.516 263.32H212.336V262.75C212.336 260.281 210.922 258.625 208.617 258.625C206.312 258.625 204.828 260.344 204.828 262.914V262.922C204.828 265.516 206.289 267.164 208.703 267.164ZM208.625 260.008C209.727 260.008 210.523 260.703 210.664 262.125H206.539C206.688 260.75 207.531 260.008 208.625 260.008ZM216.961 267H218.648V255.727H216.961V267ZM223.914 267.164C226.266 267.164 227.812 265.539 227.812 262.891V262.875C227.812 260.242 226.25 258.625 223.906 258.625C221.57 258.625 220.016 260.25 220.016 262.875V262.891C220.016 265.531 221.555 267.164 223.914 267.164ZM223.922 265.75C222.602 265.75 221.742 264.711 221.742 262.891V262.875C221.742 261.078 222.609 260.039 223.906 260.039C225.227 260.039 226.086 261.078 226.086 262.875V262.891C226.086 264.703 225.242 265.75 223.922 265.75ZM232.648 267.164C234.625 267.164 236 265.898 236.18 264.25L236.188 264.195H234.562L234.555 264.258C234.352 265.148 233.688 265.75 232.648 265.75C231.344 265.75 230.477 264.695 230.477 262.898V262.891C230.477 261.133 231.328 260.039 232.641 260.039C233.742 260.039 234.367 260.719 234.547 261.523L234.562 261.586H236.172L236.164 261.531C236.023 259.984 234.742 258.625 232.625 258.625C230.281 258.625 228.75 260.273 228.75 262.875V262.883C228.75 265.516 230.25 267.164 232.648 267.164ZM239.797 267.148C240.883 267.148 241.836 266.586 242.312 265.703H242.344V267H244.039V261.336C244.039 259.688 242.766 258.625 240.758 258.625C238.734 258.625 237.508 259.711 237.391 261.125L237.383 261.211H238.977L238.992 261.141C239.133 260.484 239.734 260.023 240.711 260.023C241.758 260.023 242.344 260.57 242.344 261.477V262.094L240.109 262.227C238.164 262.344 237.055 263.219 237.055 264.648V264.664C237.055 266.141 238.156 267.148 239.797 267.148ZM238.758 264.625V264.609C238.758 263.914 239.32 263.469 240.336 263.406L242.344 263.281V263.922C242.344 264.992 241.445 265.797 240.258 265.797C239.352 265.797 238.758 265.344 238.758 264.625ZM245.742 267H247.43V255.727H245.742V267ZM34.3672 285.164C36.3438 285.164 37.7188 283.898 37.8984 282.25L37.9062 282.195H36.2812L36.2734 282.258C36.0703 283.148 35.4062 283.75 34.3672 283.75C33.0625 283.75 32.1953 282.695 32.1953 280.898V280.891C32.1953 279.133 33.0469 278.039 34.3594 278.039C35.4609 278.039 36.0859 278.719 36.2656 279.523L36.2812 279.586H37.8906L37.8828 279.531C37.7422 277.984 36.4609 276.625 34.3438 276.625C32 276.625 30.4688 278.273 30.4688 280.875V280.883C30.4688 283.516 31.9688 285.164 34.3672 285.164ZM41.8984 285.164C43.1484 285.164 43.9844 284.594 44.4141 283.766H44.4531V285H46.1484V276.781H44.4531V281.578C44.4531 282.859 43.6875 283.711 42.5 283.711C41.3281 283.711 40.75 283.023 40.75 281.781V276.781H39.0625V282.109C39.0625 284 40.0938 285.164 41.8984 285.164ZM47.8203 285H49.5078V280.102C49.5078 278.875 50.1797 278.164 51.2656 278.164C51.5938 278.164 51.8906 278.203 52.0234 278.258V276.688C51.8906 276.664 51.6797 276.625 51.4375 276.625C50.5 276.625 49.8125 277.227 49.5469 278.188H49.5078V276.781H47.8203V285ZM53.0703 285H54.7578V280.102C54.7578 278.875 55.4297 278.164 56.5156 278.164C56.8438 278.164 57.1406 278.203 57.2734 278.258V276.688C57.1406 276.664 56.9297 276.625 56.6875 276.625C55.75 276.625 55.0625 277.227 54.7969 278.188H54.7578V276.781H53.0703V285ZM61.4688 285.164C63.4609 285.164 64.7266 283.977 64.9922 282.672L65.0078 282.586H63.4062L63.3828 282.648C63.1719 283.266 62.5078 283.781 61.5078 283.781C60.1641 283.781 59.3125 282.875 59.2812 281.32H65.1016V280.75C65.1016 278.281 63.6875 276.625 61.3828 276.625C59.0781 276.625 57.5938 278.344 57.5938 280.914V280.922C57.5938 283.516 59.0547 285.164 61.4688 285.164ZM61.3906 278.008C62.4922 278.008 63.2891 278.703 63.4297 280.125H59.3047C59.4531 278.75 60.2969 278.008 61.3906 278.008ZM66.4141 285H68.1016V280.211C68.1016 278.93 68.8672 278.07 70.0547 278.07C71.2266 278.07 71.8047 278.766 71.8047 280V285H73.5V279.68C73.5 277.789 72.4609 276.625 70.6562 276.625C69.4141 276.625 68.5703 277.188 68.1406 278.023H68.1016V276.781H66.4141V285ZM78.6641 285.164C80.6406 285.164 82.0156 283.898 82.1953 282.25L82.2031 282.195H80.5781L80.5703 282.258C80.3672 283.148 79.7031 283.75 78.6641 283.75C77.3594 283.75 76.4922 282.695 76.4922 280.898V280.891C76.4922 279.133 77.3438 278.039 78.6562 278.039C79.7578 278.039 80.3828 278.719 80.5625 279.523L80.5781 279.586H82.1875L82.1797 279.531C82.0391 277.984 80.7578 276.625 78.6406 276.625C76.2969 276.625 74.7656 278.273 74.7656 280.875V280.883C74.7656 283.516 76.2656 285.164 78.6641 285.164ZM84.3672 287.742C85.9766 287.742 86.8359 287.086 87.4453 285.383L90.5078 276.781H88.7266L86.6562 283.469H86.6016L84.5312 276.781H82.7031L85.6953 285.008L85.5547 285.398C85.2734 286.195 84.8359 286.406 84.0391 286.406C83.8125 286.406 83.6172 286.375 83.4844 286.344V287.664C83.6875 287.703 84.0391 287.742 84.3672 287.742ZM97.625 285.164C97.9688 285.164 98.2891 285.125 98.4844 285.094V283.789C98.3594 283.805 98.2109 283.82 98.0312 283.82C97.3203 283.82 96.9453 283.57 96.9453 282.734V278.125H98.4844V276.781H96.9453V274.641H95.2188V276.781H94.0391V278.125H95.2188V282.836C95.2188 284.477 96 285.164 97.625 285.164ZM103.211 285.164C105.562 285.164 107.109 283.539 107.109 280.891V280.875C107.109 278.242 105.547 276.625 103.203 276.625C100.867 276.625 99.3125 278.25 99.3125 280.875V280.891C99.3125 283.531 100.852 285.164 103.211 285.164ZM103.219 283.75C101.898 283.75 101.039 282.711 101.039 280.891V280.875C101.039 279.078 101.906 278.039 103.203 278.039C104.523 278.039 105.383 279.078 105.383 280.875V280.891C105.383 282.703 104.539 283.75 103.219 283.75ZM114.078 285.148C115.164 285.148 116.117 284.586 116.594 283.703H116.625V285H118.32V279.336C118.32 277.688 117.047 276.625 115.039 276.625C113.016 276.625 111.789 277.711 111.672 279.125L111.664 279.211H113.258L113.273 279.141C113.414 278.484 114.016 278.023 114.992 278.023C116.039 278.023 116.625 278.57 116.625 279.477V280.094L114.391 280.227C112.445 280.344 111.336 281.219 111.336 282.648V282.664C111.336 284.141 112.438 285.148 114.078 285.148ZM113.039 282.625V282.609C113.039 281.914 113.602 281.469 114.617 281.406L116.625 281.281V281.922C116.625 282.992 115.727 283.797 114.539 283.797C113.633 283.797 113.039 283.344 113.039 282.625ZM119.961 285H121.648V280.211C121.648 278.93 122.414 278.07 123.602 278.07C124.773 278.07 125.352 278.766 125.352 280V285H127.047V279.68C127.047 277.789 126.008 276.625 124.203 276.625C122.961 276.625 122.117 277.188 121.688 278.023H121.648V276.781H119.961V285ZM132.211 285.164C134.562 285.164 136.109 283.539 136.109 280.891V280.875C136.109 278.242 134.547 276.625 132.203 276.625C129.867 276.625 128.312 278.25 128.312 280.875V280.891C128.312 283.531 129.852 285.164 132.211 285.164ZM132.219 283.75C130.898 283.75 130.039 282.711 130.039 280.891V280.875C130.039 279.078 130.906 278.039 132.203 278.039C133.523 278.039 134.383 279.078 134.383 280.875V280.891C134.383 282.703 133.539 283.75 132.219 283.75ZM140.297 285.164C140.641 285.164 140.961 285.125 141.156 285.094V283.789C141.031 283.805 140.883 283.82 140.703 283.82C139.992 283.82 139.617 283.57 139.617 282.734V278.125H141.156V276.781H139.617V274.641H137.891V276.781H136.711V278.125H137.891V282.836C137.891 284.477 138.672 285.164 140.297 285.164ZM142.617 285H144.305V280.242C144.305 278.961 145.078 278.07 146.242 278.07C147.43 278.07 148.117 278.883 148.117 280.242V285H149.805V279.922C149.805 277.938 148.648 276.625 146.891 276.625C145.664 276.625 144.781 277.18 144.344 278.133H144.305V273.727H142.617V285ZM154.953 285.164C156.945 285.164 158.211 283.977 158.477 282.672L158.492 282.586H156.891L156.867 282.648C156.656 283.266 155.992 283.781 154.992 283.781C153.648 283.781 152.797 282.875 152.766 281.32H158.586V280.75C158.586 278.281 157.172 276.625 154.867 276.625C152.562 276.625 151.078 278.344 151.078 280.914V280.922C151.078 283.516 152.539 285.164 154.953 285.164ZM154.875 278.008C155.977 278.008 156.773 278.703 156.914 280.125H152.789C152.938 278.75 153.781 278.008 154.875 278.008ZM159.898 285H161.586V280.102C161.586 278.875 162.258 278.164 163.344 278.164C163.672 278.164 163.969 278.203 164.102 278.258V276.688C163.969 276.664 163.758 276.625 163.516 276.625C162.578 276.625 161.891 277.227 161.625 278.188H161.586V276.781H159.898V285Z" fill="#5F6D74"/>
<path d="M320.59 274.34L325.17 269.75L320.59 265.16L322 263.75L328 269.75L322 275.75L320.59 274.34Z" fill="black" fill-opacity="0.54"/>
</g>
<defs>
<clipPath id="clip0_1_1043">
<rect width="360" height="319" fill="white"/>
</clipPath>
<clipPath id="clip1_1_1043">
<rect width="92" height="92" fill="white" transform="translate(134 42)"/>
</clipPath>
</defs>
</svg>
