<svg width="10" height="727" viewBox="0 0 10 727" fill="none" xmlns="http://www.w3.org/2000/svg">
<path d="M9 18.1L8.48 18.1L8.48 16.02L2.46 16.02L2.46 16.07L4.17 17.99L3.79 18.33L2.02 16.34L2.02 15.43L8.48 15.43L8.48 13.48L9 13.48L9 18.1ZM9.12 9.70391C9.12 10.5106 8.82 11.1106 8.22 11.5039C7.61333 11.8906 6.71 12.0839 5.51 12.0839C4.31 12.0839 3.41 11.8906 2.81 11.5039C2.20333 11.1106 1.9 10.5106 1.9 9.70391C1.9 8.89724 2.20333 8.30057 2.81 7.91391C3.41 7.52057 4.31 7.32391 5.51 7.32391C6.71 7.32391 7.61333 7.52057 8.22 7.91391C8.82 8.30057 9.12 8.89724 9.12 9.70391ZM8.6 9.70391C8.6 9.10391 8.37333 8.66391 7.92 8.38391C7.46 8.10391 6.81333 7.96391 5.98 7.96391L5.04 7.96391C4.21333 7.96391 3.57 8.10391 3.11 8.38391C2.65 8.66391 2.42 9.10391 2.42 9.70391C2.42 10.3039 2.65 10.7439 3.11 11.0239C3.57 11.3039 4.21333 11.4439 5.04 11.4439L5.98 11.4439C6.81333 11.4439 7.46 11.3039 7.92 11.0239C8.37333 10.7439 8.6 10.3039 8.6 9.70391ZM5.97 9.70391C5.97 9.87724 5.93333 10.0006 5.86 10.0739C5.78667 10.1472 5.69667 10.1839 5.59 10.1839L5.43 10.1839C5.32333 10.1839 5.23333 10.1472 5.16 10.0739C5.08667 10.0006 5.05 9.87724 5.05 9.70391C5.05 9.53057 5.08667 9.40724 5.16 9.33391C5.23333 9.26057 5.32333 9.22391 5.43 9.22391L5.59 9.22391C5.69667 9.22391 5.78667 9.26057 5.86 9.33391C5.93333 9.40724 5.97 9.53057 5.97 9.70391ZM9.12 3.40781C9.12 4.21448 8.82 4.81448 8.22 5.20781C7.61333 5.59448 6.71 5.78781 5.51 5.78781C4.31 5.78781 3.41 5.59448 2.81 5.20781C2.20333 4.81448 1.9 4.21448 1.9 3.40781C1.9 2.60115 2.20333 2.00448 2.81 1.61781C3.41 1.22448 4.31 1.02781 5.51 1.02781C6.71 1.02781 7.61333 1.22448 8.22 1.61781C8.82 2.00448 9.12 2.60114 9.12 3.40781ZM8.6 3.40781C8.6 2.80781 8.37333 2.36781 7.92 2.08781C7.46 1.80781 6.81333 1.66781 5.98 1.66781L5.04 1.66781C4.21333 1.66781 3.57 1.80781 3.11 2.08781C2.65 2.36781 2.42 2.80781 2.42 3.40781C2.42 4.00781 2.65 4.44781 3.11 4.72781C3.57 5.00781 4.21333 5.14781 5.04 5.14781L5.98 5.14781C6.81333 5.14781 7.46 5.00781 7.92 4.72781C8.37333 4.44781 8.6 4.00781 8.6 3.40781ZM5.97 3.40781C5.97 3.58115 5.93333 3.70448 5.86 3.77781C5.78667 3.85115 5.69667 3.88781 5.59 3.88781L5.43 3.88781C5.32333 3.88781 5.23333 3.85115 5.16 3.77781C5.08667 3.70448 5.05 3.58115 5.05 3.40781C5.05 3.23448 5.08667 3.11115 5.16 3.03781C5.23333 2.96448 5.32333 2.92781 5.43 2.92781L5.59 2.92781C5.69667 2.92781 5.78667 2.96448 5.86 3.03781C5.93333 3.11115 5.97 3.23448 5.97 3.40781Z" fill="#505050" fill-opacity="0.5"/>
<path d="M9 77.1L8.48 77.1L8.48 75.02L2.46 75.02L2.46 75.07L4.17 76.99L3.79 77.33L2.02 75.34L2.02 74.43L8.48 74.43L8.48 72.48L9 72.48L9 77.1ZM2.54 66.7739L2.54 69.9339L5.47 70.1539L5.48 70.0939C5.23333 69.9139 5.05 69.7072 4.93 69.4739C4.80333 69.2339 4.74 68.9272 4.74 68.5539C4.74 68.2472 4.79 67.9672 4.89 67.7139C4.98333 67.4539 5.12333 67.2339 5.31 67.0539C5.49 66.8739 5.71333 66.7339 5.98 66.6339C6.24 66.5339 6.53667 66.4839 6.87 66.4839C7.21 66.4839 7.52 66.5372 7.8 66.6439C8.07333 66.7439 8.31 66.8939 8.51 67.0939C8.70333 67.2872 8.85333 67.5239 8.96 67.8039C9.06667 68.0839 9.12 68.3972 9.12 68.7439C9.12 69.0172 9.09 69.2672 9.03 69.4939C8.97667 69.7139 8.9 69.9139 8.8 70.0939C8.69333 70.2672 8.57 70.4239 8.43 70.5639C8.29 70.7039 8.14 70.8272 7.98 70.9339L7.64 70.4739C7.94 70.2806 8.17667 70.0539 8.35 69.7939C8.51667 69.5272 8.6 69.1739 8.6 68.7339C8.6 68.2139 8.45333 67.8139 8.16 67.5339C7.86667 67.2472 7.48 67.1039 7 67.1039L6.84 67.1039C6.35333 67.1039 5.96667 67.2439 5.68 67.5239C5.39333 67.7972 5.25 68.1939 5.25 68.7139C5.25 68.9006 5.26667 69.0639 5.3 69.2039C5.32667 69.3439 5.37 69.4706 5.43 69.5839C5.48333 69.6906 5.55 69.7906 5.63 69.8839C5.70333 69.9772 5.79 70.0672 5.89 70.1539L5.81 70.6739L2.02 70.4239L2.02 66.7739L2.54 66.7739ZM9.12 62.4078C9.12 63.2145 8.82 63.8145 8.22 64.2078C7.61333 64.5945 6.71 64.7878 5.51 64.7878C4.31 64.7878 3.41 64.5945 2.81 64.2078C2.20333 63.8145 1.9 63.2145 1.9 62.4078C1.9 61.6011 2.20333 61.0045 2.81 60.6178C3.41 60.2245 4.31 60.0278 5.51 60.0278C6.71 60.0278 7.61333 60.2245 8.22 60.6178C8.82 61.0045 9.12 61.6011 9.12 62.4078ZM8.6 62.4078C8.6 61.8078 8.37333 61.3678 7.92 61.0878C7.46 60.8078 6.81333 60.6678 5.98 60.6678L5.04 60.6678C4.21333 60.6678 3.57 60.8078 3.11 61.0878C2.65 61.3678 2.42 61.8078 2.42 62.4078C2.42 63.0078 2.65 63.4478 3.11 63.7278C3.57 64.0078 4.21333 64.1478 5.04 64.1478L5.98 64.1478C6.81333 64.1478 7.46 64.0078 7.92 63.7278C8.37333 63.4478 8.6 63.0078 8.6 62.4078ZM5.97 62.4078C5.97 62.5811 5.93333 62.7045 5.86 62.7778C5.78667 62.8511 5.69667 62.8878 5.59 62.8878L5.43 62.8878C5.32333 62.8878 5.23333 62.8511 5.16 62.7778C5.08667 62.7045 5.05 62.5811 5.05 62.4078C5.05 62.2345 5.08667 62.1111 5.16 62.0378C5.23333 61.9645 5.32333 61.9278 5.43 61.9278L5.59 61.9278C5.69667 61.9278 5.78667 61.9645 5.86 62.0378C5.93333 62.1111 5.97 62.2345 5.97 62.4078Z" fill="#505050" fill-opacity="0.5"/>
<path d="M9 131.69L9 136.23L8.39 136.23L6.05 133.76C5.73 133.42 5.40667 133.147 5.08 132.94C4.74667 132.733 4.39667 132.63 4.03 132.63L3.84 132.63C3.40667 132.63 3.06333 132.753 2.81 133C2.55 133.24 2.42 133.6 2.42 134.08C2.42 134.547 2.53667 134.91 2.77 135.17C2.99667 135.423 3.30333 135.61 3.69 135.73L3.5 136.26C3.28667 136.193 3.08333 136.103 2.89 135.99C2.69667 135.877 2.52667 135.733 2.38 135.56C2.23333 135.38 2.11667 135.167 2.03 134.92C1.94333 134.673 1.9 134.39 1.9 134.07C1.9 133.737 1.95 133.443 2.05 133.19C2.14333 132.93 2.27667 132.713 2.45 132.54C2.62333 132.36 2.83333 132.227 3.08 132.14C3.32 132.047 3.59 132 3.89 132C4.38333 132 4.83333 132.127 5.24 132.38C5.64 132.633 6.03667 132.973 6.43 133.4L8.48 135.6L8.48 131.69L9 131.69ZM9.12 127.704C9.12 128.511 8.82 129.111 8.22 129.504C7.61333 129.891 6.71 130.084 5.51 130.084C4.31 130.084 3.41 129.891 2.81 129.504C2.20333 129.111 1.9 128.511 1.9 127.704C1.9 126.897 2.20333 126.301 2.81 125.914C3.41 125.521 4.31 125.324 5.51 125.324C6.71 125.324 7.61333 125.521 8.22 125.914C8.82 126.301 9.12 126.897 9.12 127.704ZM8.6 127.704C8.6 127.104 8.37333 126.664 7.92 126.384C7.46 126.104 6.81333 125.964 5.98 125.964L5.04 125.964C4.21333 125.964 3.57 126.104 3.11 126.384C2.65 126.664 2.42 127.104 2.42 127.704C2.42 128.304 2.65 128.744 3.11 129.024C3.57 129.304 4.21333 129.444 5.04 129.444L5.98 129.444C6.81333 129.444 7.46 129.304 7.92 129.024C8.37333 128.744 8.6 128.304 8.6 127.704ZM5.97 127.704C5.97 127.877 5.93333 128.001 5.86 128.074C5.78667 128.147 5.69667 128.184 5.59 128.184L5.43 128.184C5.32333 128.184 5.23333 128.147 5.16 128.074C5.08667 128.001 5.05 127.877 5.05 127.704C5.05 127.531 5.08667 127.407 5.16 127.334C5.23333 127.261 5.32333 127.224 5.43 127.224L5.59 127.224C5.69667 127.224 5.78667 127.261 5.86 127.334C5.93333 127.407 5.97 127.531 5.97 127.704ZM9.12 121.408C9.12 122.214 8.82 122.814 8.22 123.208C7.61333 123.594 6.71 123.788 5.51 123.788C4.31 123.788 3.41 123.594 2.81 123.208C2.20333 122.814 1.9 122.214 1.9 121.408C1.9 120.601 2.20333 120.004 2.81 119.618C3.41 119.224 4.31 119.028 5.51 119.028C6.71 119.028 7.61333 119.224 8.22 119.618C8.82 120.004 9.12 120.601 9.12 121.408ZM8.6 121.408C8.6 120.808 8.37333 120.368 7.92 120.088C7.46 119.808 6.81333 119.668 5.98 119.668L5.04 119.668C4.21333 119.668 3.57 119.808 3.11 120.088C2.65 120.368 2.42 120.808 2.42 121.408C2.42 122.008 2.65 122.448 3.11 122.728C3.57 123.008 4.21333 123.148 5.04 123.148L5.98 123.148C6.81333 123.148 7.46 123.008 7.92 122.728C8.37333 122.448 8.6 122.008 8.6 121.408ZM5.97 121.408C5.97 121.581 5.93333 121.704 5.86 121.778C5.78667 121.851 5.69667 121.888 5.59 121.888L5.43 121.888C5.32333 121.888 5.23333 121.851 5.16 121.778C5.08667 121.704 5.05 121.581 5.05 121.408C5.05 121.234 5.08667 121.111 5.16 121.038C5.23333 120.964 5.32333 120.928 5.43 120.928L5.59 120.928C5.69667 120.928 5.78667 120.964 5.86 121.038C5.93333 121.111 5.97 121.234 5.97 121.408Z" fill="#505050" fill-opacity="0.5"/>
<path d="M9 190.69L9 195.23L8.39 195.23L6.05 192.76C5.73 192.42 5.40667 192.147 5.08 191.94C4.74667 191.733 4.39667 191.63 4.03 191.63L3.84 191.63C3.40667 191.63 3.06333 191.753 2.81 192C2.55 192.24 2.42 192.6 2.42 193.08C2.42 193.547 2.53667 193.91 2.77 194.17C2.99667 194.423 3.30333 194.61 3.69 194.73L3.5 195.26C3.28667 195.193 3.08333 195.103 2.89 194.99C2.69667 194.877 2.52667 194.733 2.38 194.56C2.23333 194.38 2.11667 194.167 2.03 193.92C1.94333 193.673 1.9 193.39 1.9 193.07C1.9 192.737 1.95 192.443 2.05 192.19C2.14333 191.93 2.27667 191.713 2.45 191.54C2.62333 191.36 2.83333 191.227 3.08 191.14C3.32 191.047 3.59 191 3.89 191C4.38333 191 4.83333 191.127 5.24 191.38C5.64 191.633 6.03667 191.973 6.43 192.4L8.48 194.6L8.48 190.69L9 190.69ZM2.54 184.774L2.54 187.934L5.47 188.154L5.48 188.094C5.23333 187.914 5.05 187.707 4.93 187.474C4.80333 187.234 4.74 186.927 4.74 186.554C4.74 186.247 4.79 185.967 4.89 185.714C4.98333 185.454 5.12333 185.234 5.31 185.054C5.49 184.874 5.71333 184.734 5.98 184.634C6.24 184.534 6.53667 184.484 6.87 184.484C7.21 184.484 7.52 184.537 7.8 184.644C8.07333 184.744 8.31 184.894 8.51 185.094C8.70333 185.287 8.85333 185.524 8.96 185.804C9.06667 186.084 9.12 186.397 9.12 186.744C9.12 187.017 9.09 187.267 9.03 187.494C8.97667 187.714 8.9 187.914 8.8 188.094C8.69333 188.267 8.57 188.424 8.43 188.564C8.29 188.704 8.14 188.827 7.98 188.934L7.64 188.474C7.94 188.281 8.17667 188.054 8.35 187.794C8.51667 187.527 8.6 187.174 8.6 186.734C8.6 186.214 8.45333 185.814 8.16 185.534C7.86667 185.247 7.48 185.104 7 185.104L6.84 185.104C6.35333 185.104 5.96667 185.244 5.68 185.524C5.39333 185.797 5.25 186.194 5.25 186.714C5.25 186.901 5.26667 187.064 5.3 187.204C5.32667 187.344 5.37 187.471 5.43 187.584C5.48333 187.691 5.55 187.791 5.63 187.884C5.70333 187.977 5.79 188.067 5.89 188.154L5.81 188.674L2.02 188.424L2.02 184.774L2.54 184.774ZM9.12 180.408C9.12 181.214 8.82 181.814 8.22 182.208C7.61333 182.594 6.71 182.788 5.51 182.788C4.31 182.788 3.41 182.594 2.81 182.208C2.20333 181.814 1.9 181.214 1.9 180.408C1.9 179.601 2.20333 179.004 2.81 178.618C3.41 178.224 4.31 178.028 5.51 178.028C6.71 178.028 7.61333 178.224 8.22 178.618C8.82 179.004 9.12 179.601 9.12 180.408ZM8.6 180.408C8.6 179.808 8.37333 179.368 7.92 179.088C7.46 178.808 6.81333 178.668 5.98 178.668L5.04 178.668C4.21333 178.668 3.57 178.808 3.11 179.088C2.65 179.368 2.42 179.808 2.42 180.408C2.42 181.008 2.65 181.448 3.11 181.728C3.57 182.008 4.21333 182.148 5.04 182.148L5.98 182.148C6.81333 182.148 7.46 182.008 7.92 181.728C8.37333 181.448 8.6 181.008 8.6 180.408ZM5.97 180.408C5.97 180.581 5.93333 180.704 5.86 180.778C5.78667 180.851 5.69667 180.888 5.59 180.888L5.43 180.888C5.32333 180.888 5.23333 180.851 5.16 180.778C5.08667 180.704 5.05 180.581 5.05 180.408C5.05 180.234 5.08667 180.111 5.16 180.038C5.23333 179.964 5.32333 179.928 5.43 179.928L5.59 179.928C5.69667 179.928 5.78667 179.964 5.86 180.038C5.93333 180.111 5.97 180.234 5.97 180.408Z" fill="#505050" fill-opacity="0.5"/>
<path d="M5.08 252.26C5.08 251.767 4.96333 251.383 4.73 251.11C4.49 250.837 4.18 250.7 3.8 250.7L3.67 250.7C3.27 250.7 2.96333 250.833 2.75 251.1C2.53 251.36 2.42 251.7 2.42 252.12C2.42 252.533 2.50667 252.863 2.68 253.11C2.84667 253.357 3.07 253.553 3.35 253.7L3.03 254.15C2.88333 254.07 2.74333 253.97 2.61 253.85C2.47 253.723 2.34667 253.58 2.24 253.42C2.13333 253.253 2.05 253.063 1.99 252.85C1.93 252.63 1.9 252.383 1.9 252.11C1.9 251.817 1.94 251.547 2.02 251.3C2.1 251.047 2.21667 250.83 2.37 250.65C2.51667 250.47 2.7 250.33 2.92 250.23C3.13333 250.123 3.37667 250.07 3.65 250.07C3.88333 250.07 4.09333 250.107 4.28 250.18C4.46667 250.247 4.62667 250.343 4.76 250.47C4.89333 250.59 5.00667 250.737 5.1 250.91C5.18667 251.077 5.25333 251.257 5.3 251.45L5.34 251.45C5.37333 251.243 5.43667 251.047 5.53 250.86C5.61667 250.673 5.73333 250.513 5.88 250.38C6.02667 250.24 6.20333 250.13 6.41 250.05C6.61667 249.97 6.85 249.93 7.11 249.93C7.41 249.93 7.68667 249.983 7.94 250.09C8.18667 250.197 8.39667 250.35 8.57 250.55C8.74333 250.75 8.88 250.99 8.98 251.27C9.07333 251.55 9.12 251.863 9.12 252.21C9.12 252.49 9.09 252.743 9.03 252.97C8.97667 253.197 8.9 253.4 8.8 253.58C8.69333 253.76 8.57 253.92 8.43 254.06C8.29 254.2 8.14 254.323 7.98 254.43L7.64 253.98C7.94 253.787 8.17667 253.553 8.35 253.28C8.51667 253.007 8.6 252.65 8.6 252.21C8.6 251.697 8.47333 251.293 8.22 251C7.96 250.707 7.61 250.56 7.17 250.56L7.01 250.56C6.57 250.56 6.22667 250.703 5.98 250.99C5.72667 251.27 5.6 251.68 5.6 252.22L5.6 253.1L5.08 253.1L5.08 252.26ZM9.12 245.704C9.12 246.511 8.82 247.111 8.22 247.504C7.61333 247.891 6.71 248.084 5.51 248.084C4.31 248.084 3.41 247.891 2.81 247.504C2.20333 247.111 1.9 246.511 1.9 245.704C1.9 244.897 2.20333 244.301 2.81 243.914C3.41 243.521 4.31 243.324 5.51 243.324C6.71 243.324 7.61333 243.521 8.22 243.914C8.82 244.301 9.12 244.897 9.12 245.704ZM8.6 245.704C8.6 245.104 8.37333 244.664 7.92 244.384C7.46 244.104 6.81333 243.964 5.98 243.964L5.04 243.964C4.21333 243.964 3.57 244.104 3.11 244.384C2.65 244.664 2.42 245.104 2.42 245.704C2.42 246.304 2.65 246.744 3.11 247.024C3.57 247.304 4.21333 247.444 5.04 247.444L5.98 247.444C6.81333 247.444 7.46 247.304 7.92 247.024C8.37333 246.744 8.6 246.304 8.6 245.704ZM5.97 245.704C5.97 245.877 5.93333 246.001 5.86 246.074C5.78667 246.147 5.69667 246.184 5.59 246.184L5.43 246.184C5.32333 246.184 5.23333 246.147 5.16 246.074C5.08667 246.001 5.05 245.877 5.05 245.704C5.05 245.531 5.08667 245.407 5.16 245.334C5.23333 245.261 5.32333 245.224 5.43 245.224L5.59 245.224C5.69667 245.224 5.78667 245.261 5.86 245.334C5.93333 245.407 5.97 245.531 5.97 245.704ZM9.12 239.408C9.12 240.214 8.82 240.814 8.22 241.208C7.61333 241.594 6.71 241.788 5.51 241.788C4.31 241.788 3.41 241.594 2.81 241.208C2.20333 240.814 1.9 240.214 1.9 239.408C1.9 238.601 2.20333 238.004 2.81 237.618C3.41 237.224 4.31 237.028 5.51 237.028C6.71 237.028 7.61333 237.224 8.22 237.618C8.82 238.004 9.12 238.601 9.12 239.408ZM8.6 239.408C8.6 238.808 8.37333 238.368 7.92 238.088C7.46 237.808 6.81333 237.668 5.98 237.668L5.04 237.668C4.21333 237.668 3.57 237.808 3.11 238.088C2.65 238.368 2.42 238.808 2.42 239.408C2.42 240.008 2.65 240.448 3.11 240.728C3.57 241.008 4.21333 241.148 5.04 241.148L5.98 241.148C6.81333 241.148 7.46 241.008 7.92 240.728C8.37333 240.448 8.6 240.008 8.6 239.408ZM5.97 239.408C5.97 239.581 5.93333 239.704 5.86 239.778C5.78667 239.851 5.69667 239.888 5.59 239.888L5.43 239.888C5.32333 239.888 5.23333 239.851 5.16 239.778C5.08667 239.704 5.05 239.581 5.05 239.408C5.05 239.234 5.08667 239.111 5.16 239.038C5.23333 238.964 5.32333 238.928 5.43 238.928L5.59 238.928C5.69667 238.928 5.78667 238.964 5.86 239.038C5.93333 239.111 5.97 239.234 5.97 239.408Z" fill="#505050" fill-opacity="0.5"/>
<path d="M5.08 311.26C5.08 310.767 4.96333 310.383 4.73 310.11C4.49 309.837 4.18 309.7 3.8 309.7L3.67 309.7C3.27 309.7 2.96333 309.833 2.75 310.1C2.53 310.36 2.42 310.7 2.42 311.12C2.42 311.533 2.50667 311.863 2.68 312.11C2.84667 312.357 3.07 312.553 3.35 312.7L3.03 313.15C2.88333 313.07 2.74333 312.97 2.61 312.85C2.47 312.723 2.34667 312.58 2.24 312.42C2.13333 312.253 2.05 312.063 1.99 311.85C1.93 311.63 1.9 311.383 1.9 311.11C1.9 310.817 1.94 310.547 2.02 310.3C2.1 310.047 2.21667 309.83 2.37 309.65C2.51667 309.47 2.7 309.33 2.92 309.23C3.13333 309.123 3.37667 309.07 3.65 309.07C3.88333 309.07 4.09333 309.107 4.28 309.18C4.46667 309.247 4.62667 309.343 4.76 309.47C4.89333 309.59 5.00667 309.737 5.1 309.91C5.18667 310.077 5.25333 310.257 5.3 310.45L5.34 310.45C5.37333 310.243 5.43667 310.047 5.53 309.86C5.61667 309.673 5.73333 309.513 5.88 309.38C6.02667 309.24 6.20333 309.13 6.41 309.05C6.61667 308.97 6.85 308.93 7.11 308.93C7.41 308.93 7.68667 308.983 7.94 309.09C8.18667 309.197 8.39667 309.35 8.57 309.55C8.74333 309.75 8.88 309.99 8.98 310.27C9.07333 310.55 9.12 310.863 9.12 311.21C9.12 311.49 9.09 311.743 9.03 311.97C8.97667 312.197 8.9 312.4 8.8 312.58C8.69333 312.76 8.57 312.92 8.43 313.06C8.29 313.2 8.14 313.323 7.98 313.43L7.64 312.98C7.94 312.787 8.17667 312.553 8.35 312.28C8.51667 312.007 8.6 311.65 8.6 311.21C8.6 310.697 8.47333 310.293 8.22 310C7.96 309.707 7.61 309.56 7.17 309.56L7.01 309.56C6.57 309.56 6.22667 309.703 5.98 309.99C5.72667 310.27 5.6 310.68 5.6 311.22L5.6 312.1L5.08 312.1L5.08 311.26ZM2.54 302.774L2.54 305.934L5.47 306.154L5.48 306.094C5.23333 305.914 5.05 305.707 4.93 305.474C4.80333 305.234 4.74 304.927 4.74 304.554C4.74 304.247 4.79 303.967 4.89 303.714C4.98333 303.454 5.12333 303.234 5.31 303.054C5.49 302.874 5.71333 302.734 5.98 302.634C6.24 302.534 6.53667 302.484 6.87 302.484C7.21 302.484 7.52 302.537 7.8 302.644C8.07333 302.744 8.31 302.894 8.51 303.094C8.70333 303.287 8.85333 303.524 8.96 303.804C9.06667 304.084 9.12 304.397 9.12 304.744C9.12 305.017 9.09 305.267 9.03 305.494C8.97667 305.714 8.9 305.914 8.8 306.094C8.69333 306.267 8.57 306.424 8.43 306.564C8.29 306.704 8.14 306.827 7.98 306.934L7.64 306.474C7.94 306.281 8.17667 306.054 8.35 305.794C8.51667 305.527 8.6 305.174 8.6 304.734C8.6 304.214 8.45333 303.814 8.16 303.534C7.86667 303.247 7.48 303.104 7 303.104L6.84 303.104C6.35333 303.104 5.96667 303.244 5.68 303.524C5.39333 303.797 5.25 304.194 5.25 304.714C5.25 304.901 5.26667 305.064 5.3 305.204C5.32667 305.344 5.37 305.471 5.43 305.584C5.48333 305.691 5.55 305.791 5.63 305.884C5.70333 305.977 5.79 306.067 5.89 306.154L5.81 306.674L2.02 306.424L2.02 302.774L2.54 302.774ZM9.12 298.408C9.12 299.214 8.82 299.814 8.22 300.208C7.61333 300.594 6.71 300.788 5.51 300.788C4.31 300.788 3.41 300.594 2.81 300.208C2.20333 299.814 1.9 299.214 1.9 298.408C1.9 297.601 2.20333 297.004 2.81 296.618C3.41 296.224 4.31 296.028 5.51 296.028C6.71 296.028 7.61333 296.224 8.22 296.618C8.82 297.004 9.12 297.601 9.12 298.408ZM8.6 298.408C8.6 297.808 8.37333 297.368 7.92 297.088C7.46 296.808 6.81333 296.668 5.98 296.668L5.04 296.668C4.21333 296.668 3.57 296.808 3.11 297.088C2.65 297.368 2.42 297.808 2.42 298.408C2.42 299.008 2.65 299.448 3.11 299.728C3.57 300.008 4.21333 300.148 5.04 300.148L5.98 300.148C6.81333 300.148 7.46 300.008 7.92 299.728C8.37333 299.448 8.6 299.008 8.6 298.408ZM5.97 298.408C5.97 298.581 5.93333 298.704 5.86 298.778C5.78667 298.851 5.69667 298.888 5.59 298.888L5.43 298.888C5.32333 298.888 5.23333 298.851 5.16 298.778C5.08667 298.704 5.05 298.581 5.05 298.408C5.05 298.234 5.08667 298.111 5.16 298.038C5.23333 297.964 5.32333 297.928 5.43 297.928L5.59 297.928C5.69667 297.928 5.78667 297.964 5.86 298.038C5.93333 298.111 5.97 298.234 5.97 298.408Z" fill="#505050" fill-opacity="0.5"/>
<path d="M9 369.09L7.54 369.09L7.54 372.61L7.01 372.61L2.02 369.36L2.02 368.52L7.05 368.52L7.05 367.43L7.54 367.43L7.54 368.52L9 368.52L9 369.09ZM7.05 372.07L7.05 369.09L2.53 369.09L2.53 369.12L7.05 372.07ZM9.12 363.704C9.12 364.511 8.82 365.111 8.22 365.504C7.61333 365.891 6.71 366.084 5.51 366.084C4.31 366.084 3.41 365.891 2.81 365.504C2.20333 365.111 1.9 364.511 1.9 363.704C1.9 362.897 2.20333 362.301 2.81 361.914C3.41 361.521 4.31 361.324 5.51 361.324C6.71 361.324 7.61333 361.521 8.22 361.914C8.82 362.301 9.12 362.897 9.12 363.704ZM8.6 363.704C8.6 363.104 8.37333 362.664 7.92 362.384C7.46 362.104 6.81333 361.964 5.98 361.964L5.04 361.964C4.21333 361.964 3.57 362.104 3.11 362.384C2.65 362.664 2.42 363.104 2.42 363.704C2.42 364.304 2.65 364.744 3.11 365.024C3.57 365.304 4.21333 365.444 5.04 365.444L5.98 365.444C6.81333 365.444 7.46 365.304 7.92 365.024C8.37333 364.744 8.6 364.304 8.6 363.704ZM5.97 363.704C5.97 363.877 5.93333 364.001 5.86 364.074C5.78667 364.147 5.69667 364.184 5.59 364.184L5.43 364.184C5.32333 364.184 5.23333 364.147 5.16 364.074C5.08667 364.001 5.05 363.877 5.05 363.704C5.05 363.531 5.08667 363.407 5.16 363.334C5.23333 363.261 5.32333 363.224 5.43 363.224L5.59 363.224C5.69667 363.224 5.78667 363.261 5.86 363.334C5.93333 363.407 5.97 363.531 5.97 363.704ZM9.12 357.408C9.12 358.214 8.82 358.814 8.22 359.208C7.61333 359.594 6.71 359.788 5.51 359.788C4.31 359.788 3.41 359.594 2.81 359.208C2.20333 358.814 1.9 358.214 1.9 357.408C1.9 356.601 2.20333 356.004 2.81 355.618C3.41 355.224 4.31 355.028 5.51 355.028C6.71 355.028 7.61333 355.224 8.22 355.618C8.82 356.004 9.12 356.601 9.12 357.408ZM8.6 357.408C8.6 356.808 8.37333 356.368 7.92 356.088C7.46 355.808 6.81333 355.668 5.98 355.668L5.04 355.668C4.21333 355.668 3.57 355.808 3.11 356.088C2.65 356.368 2.42 356.808 2.42 357.408C2.42 358.008 2.65 358.448 3.11 358.728C3.57 359.008 4.21333 359.148 5.04 359.148L5.98 359.148C6.81333 359.148 7.46 359.008 7.92 358.728C8.37333 358.448 8.6 358.008 8.6 357.408ZM5.97 357.408C5.97 357.581 5.93333 357.704 5.86 357.778C5.78667 357.851 5.69667 357.888 5.59 357.888L5.43 357.888C5.32333 357.888 5.23333 357.851 5.16 357.778C5.08667 357.704 5.05 357.581 5.05 357.408C5.05 357.234 5.08667 357.111 5.16 357.038C5.23333 356.964 5.32333 356.928 5.43 356.928L5.59 356.928C5.69667 356.928 5.78667 356.964 5.86 357.038C5.93333 357.111 5.97 357.234 5.97 357.408Z" fill="#505050" fill-opacity="0.5"/>
<path d="M9 428.09L7.54 428.09L7.54 431.61L7.01 431.61L2.02 428.36L2.02 427.52L7.05 427.52L7.05 426.43L7.54 426.43L7.54 427.52L9 427.52L9 428.09ZM7.05 431.07L7.05 428.09L2.53 428.09L2.53 428.12L7.05 431.07ZM2.54 420.774L2.54 423.934L5.47 424.154L5.48 424.094C5.23333 423.914 5.05 423.707 4.93 423.474C4.80333 423.234 4.74 422.927 4.74 422.554C4.74 422.247 4.79 421.967 4.89 421.714C4.98333 421.454 5.12333 421.234 5.31 421.054C5.49 420.874 5.71333 420.734 5.98 420.634C6.24 420.534 6.53667 420.484 6.87 420.484C7.21 420.484 7.52 420.537 7.8 420.644C8.07333 420.744 8.31 420.894 8.51 421.094C8.70333 421.287 8.85333 421.524 8.96 421.804C9.06667 422.084 9.12 422.397 9.12 422.744C9.12 423.017 9.09 423.267 9.03 423.494C8.97667 423.714 8.9 423.914 8.8 424.094C8.69333 424.267 8.57 424.424 8.43 424.564C8.29 424.704 8.14 424.827 7.98 424.934L7.64 424.474C7.94 424.281 8.17667 424.054 8.35 423.794C8.51667 423.527 8.6 423.174 8.6 422.734C8.6 422.214 8.45333 421.814 8.16 421.534C7.86667 421.247 7.48 421.104 7 421.104L6.84 421.104C6.35333 421.104 5.96667 421.244 5.68 421.524C5.39333 421.797 5.25 422.194 5.25 422.714C5.25 422.901 5.26667 423.064 5.3 423.204C5.32667 423.344 5.37 423.471 5.43 423.584C5.48333 423.691 5.55 423.791 5.63 423.884C5.70333 423.977 5.79 424.067 5.89 424.154L5.81 424.674L2.02 424.424L2.02 420.774L2.54 420.774ZM9.12 416.408C9.12 417.214 8.82 417.814 8.22 418.208C7.61333 418.594 6.71 418.788 5.51 418.788C4.31 418.788 3.41 418.594 2.81 418.208C2.20333 417.814 1.9 417.214 1.9 416.408C1.9 415.601 2.20333 415.004 2.81 414.618C3.41 414.224 4.31 414.028 5.51 414.028C6.71 414.028 7.61333 414.224 8.22 414.618C8.82 415.004 9.12 415.601 9.12 416.408ZM8.6 416.408C8.6 415.808 8.37333 415.368 7.92 415.088C7.46 414.808 6.81333 414.668 5.98 414.668L5.04 414.668C4.21333 414.668 3.57 414.808 3.11 415.088C2.65 415.368 2.42 415.808 2.42 416.408C2.42 417.008 2.65 417.448 3.11 417.728C3.57 418.008 4.21333 418.148 5.04 418.148L5.98 418.148C6.81333 418.148 7.46 418.008 7.92 417.728C8.37333 417.448 8.6 417.008 8.6 416.408ZM5.97 416.408C5.97 416.581 5.93333 416.704 5.86 416.778C5.78667 416.851 5.69667 416.888 5.59 416.888L5.43 416.888C5.32333 416.888 5.23333 416.851 5.16 416.778C5.08667 416.704 5.05 416.581 5.05 416.408C5.05 416.234 5.08667 416.111 5.16 416.038C5.23333 415.964 5.32333 415.928 5.43 415.928L5.59 415.928C5.69667 415.928 5.78667 415.964 5.86 416.038C5.93333 416.111 5.97 416.234 5.97 416.408Z" fill="#505050" fill-opacity="0.5"/>
<path d="M2.54 486.07L2.54 489.23L5.47 489.45L5.48 489.39C5.23333 489.21 5.05 489.003 4.93 488.77C4.80333 488.53 4.74 488.223 4.74 487.85C4.74 487.543 4.79 487.263 4.89 487.01C4.98333 486.75 5.12333 486.53 5.31 486.35C5.49 486.17 5.71333 486.03 5.98 485.93C6.24 485.83 6.53667 485.78 6.87 485.78C7.21 485.78 7.52 485.833 7.8 485.94C8.07333 486.04 8.31 486.19 8.51 486.39C8.70333 486.583 8.85333 486.82 8.96 487.1C9.06667 487.38 9.12 487.693 9.12 488.04C9.12 488.313 9.09 488.563 9.03 488.79C8.97667 489.01 8.9 489.21 8.8 489.39C8.69333 489.563 8.57 489.72 8.43 489.86C8.29 490 8.14 490.123 7.98 490.23L7.64 489.77C7.94 489.577 8.17667 489.35 8.35 489.09C8.51667 488.823 8.6 488.47 8.6 488.03C8.6 487.51 8.45333 487.11 8.16 486.83C7.86667 486.543 7.48 486.4 7 486.4L6.84 486.4C6.35333 486.4 5.96667 486.54 5.68 486.82C5.39333 487.093 5.25 487.49 5.25 488.01C5.25 488.197 5.26667 488.36 5.3 488.5C5.32667 488.64 5.37 488.767 5.43 488.88C5.48333 488.987 5.55 489.087 5.63 489.18C5.70333 489.273 5.79 489.363 5.89 489.45L5.81 489.97L2.02 489.72L2.02 486.07L2.54 486.07ZM9.12 481.704C9.12 482.511 8.82 483.111 8.22 483.504C7.61333 483.891 6.71 484.084 5.51 484.084C4.31 484.084 3.41 483.891 2.81 483.504C2.20333 483.111 1.9 482.511 1.9 481.704C1.9 480.897 2.20333 480.301 2.81 479.914C3.41 479.521 4.31 479.324 5.51 479.324C6.71 479.324 7.61333 479.521 8.22 479.914C8.82 480.301 9.12 480.897 9.12 481.704ZM8.6 481.704C8.6 481.104 8.37333 480.664 7.92 480.384C7.46 480.104 6.81333 479.964 5.98 479.964L5.04 479.964C4.21333 479.964 3.57 480.104 3.11 480.384C2.65 480.664 2.42 481.104 2.42 481.704C2.42 482.304 2.65 482.744 3.11 483.024C3.57 483.304 4.21333 483.444 5.04 483.444L5.98 483.444C6.81333 483.444 7.46 483.304 7.92 483.024C8.37333 482.744 8.6 482.304 8.6 481.704ZM5.97 481.704C5.97 481.877 5.93333 482.001 5.86 482.074C5.78667 482.147 5.69667 482.184 5.59 482.184L5.43 482.184C5.32333 482.184 5.23333 482.147 5.16 482.074C5.08667 482.001 5.05 481.877 5.05 481.704C5.05 481.531 5.08667 481.407 5.16 481.334C5.23333 481.261 5.32333 481.224 5.43 481.224L5.59 481.224C5.69667 481.224 5.78667 481.261 5.86 481.334C5.93333 481.407 5.97 481.531 5.97 481.704ZM9.12 475.408C9.12 476.214 8.82 476.814 8.22 477.208C7.61333 477.594 6.71 477.788 5.51 477.788C4.31 477.788 3.41 477.594 2.81 477.208C2.20333 476.814 1.9 476.214 1.9 475.408C1.9 474.601 2.20333 474.004 2.81 473.618C3.41 473.224 4.31 473.028 5.51 473.028C6.71 473.028 7.61333 473.224 8.22 473.618C8.82 474.004 9.12 474.601 9.12 475.408ZM8.6 475.408C8.6 474.808 8.37333 474.368 7.92 474.088C7.46 473.808 6.81333 473.668 5.98 473.668L5.04 473.668C4.21333 473.668 3.57 473.808 3.11 474.088C2.65 474.368 2.42 474.808 2.42 475.408C2.42 476.008 2.65 476.448 3.11 476.728C3.57 477.008 4.21333 477.148 5.04 477.148L5.98 477.148C6.81333 477.148 7.46 477.008 7.92 476.728C8.37333 476.448 8.6 476.008 8.6 475.408ZM5.97 475.408C5.97 475.581 5.93333 475.704 5.86 475.778C5.78667 475.851 5.69667 475.888 5.59 475.888L5.43 475.888C5.32333 475.888 5.23333 475.851 5.16 475.778C5.08667 475.704 5.05 475.581 5.05 475.408C5.05 475.234 5.08667 475.111 5.16 475.038C5.23333 474.964 5.32333 474.928 5.43 474.928L5.59 474.928C5.69667 474.928 5.78667 474.964 5.86 475.038C5.93333 475.111 5.97 475.234 5.97 475.408Z" fill="#505050" fill-opacity="0.5"/>
<path d="M2.54 545.07L2.54 548.23L5.47 548.45L5.48 548.39C5.23333 548.21 5.05 548.003 4.93 547.77C4.80333 547.53 4.74 547.223 4.74 546.85C4.74 546.543 4.79 546.263 4.89 546.01C4.98333 545.75 5.12333 545.53 5.31 545.35C5.49 545.17 5.71333 545.03 5.98 544.93C6.24 544.83 6.53667 544.78 6.87 544.78C7.21 544.78 7.52 544.833 7.8 544.94C8.07333 545.04 8.31 545.19 8.51 545.39C8.70333 545.583 8.85333 545.82 8.96 546.1C9.06667 546.38 9.12 546.693 9.12 547.04C9.12 547.313 9.09 547.563 9.03 547.79C8.97667 548.01 8.9 548.21 8.8 548.39C8.69333 548.563 8.57 548.72 8.43 548.86C8.29 549 8.14 549.123 7.98 549.23L7.64 548.77C7.94 548.577 8.17667 548.35 8.35 548.09C8.51667 547.823 8.6 547.47 8.6 547.03C8.6 546.51 8.45333 546.11 8.16 545.83C7.86667 545.543 7.48 545.4 7 545.4L6.84 545.4C6.35333 545.4 5.96667 545.54 5.68 545.82C5.39333 546.093 5.25 546.49 5.25 547.01C5.25 547.197 5.26667 547.36 5.3 547.5C5.32667 547.64 5.37 547.767 5.43 547.88C5.48333 547.987 5.55 548.087 5.63 548.18C5.70333 548.273 5.79 548.363 5.89 548.45L5.81 548.97L2.02 548.72L2.02 545.07L2.54 545.07ZM2.54 538.774L2.54 541.934L5.47 542.154L5.48 542.094C5.23333 541.914 5.05 541.707 4.93 541.474C4.80333 541.234 4.74 540.927 4.74 540.554C4.74 540.247 4.79 539.967 4.89 539.714C4.98333 539.454 5.12333 539.234 5.31 539.054C5.49 538.874 5.71333 538.734 5.98 538.634C6.24 538.534 6.53667 538.484 6.87 538.484C7.21 538.484 7.52 538.537 7.8 538.644C8.07333 538.744 8.31 538.894 8.51 539.094C8.70333 539.287 8.85333 539.524 8.96 539.804C9.06667 540.084 9.12 540.397 9.12 540.744C9.12 541.017 9.09 541.267 9.03 541.494C8.97667 541.714 8.9 541.914 8.8 542.094C8.69333 542.267 8.57 542.424 8.43 542.564C8.29 542.704 8.14 542.827 7.98 542.934L7.64 542.474C7.94 542.281 8.17667 542.054 8.35 541.794C8.51667 541.527 8.6 541.174 8.6 540.734C8.6 540.214 8.45333 539.814 8.16 539.534C7.86667 539.247 7.48 539.104 7 539.104L6.84 539.104C6.35333 539.104 5.96667 539.244 5.68 539.524C5.39333 539.797 5.25 540.194 5.25 540.714C5.25 540.901 5.26667 541.064 5.3 541.204C5.32667 541.344 5.37 541.471 5.43 541.584C5.48333 541.691 5.55 541.791 5.63 541.884C5.70333 541.977 5.79 542.067 5.89 542.154L5.81 542.674L2.02 542.424L2.02 538.774L2.54 538.774ZM9.12 534.408C9.12 535.214 8.82 535.814 8.22 536.208C7.61333 536.594 6.71 536.788 5.51 536.788C4.31 536.788 3.41 536.594 2.81 536.208C2.20333 535.814 1.9 535.214 1.9 534.408C1.9 533.601 2.20333 533.004 2.81 532.618C3.41 532.224 4.31 532.028 5.51 532.028C6.71 532.028 7.61333 532.224 8.22 532.618C8.82 533.004 9.12 533.601 9.12 534.408ZM8.6 534.408C8.6 533.808 8.37333 533.368 7.92 533.088C7.46 532.808 6.81333 532.668 5.98 532.668L5.04 532.668C4.21333 532.668 3.57 532.808 3.11 533.088C2.65 533.368 2.42 533.808 2.42 534.408C2.42 535.008 2.65 535.448 3.11 535.728C3.57 536.008 4.21333 536.148 5.04 536.148L5.98 536.148C6.81333 536.148 7.46 536.008 7.92 535.728C8.37333 535.448 8.6 535.008 8.6 534.408ZM5.97 534.408C5.97 534.581 5.93333 534.704 5.86 534.778C5.78667 534.851 5.69667 534.888 5.59 534.888L5.43 534.888C5.32333 534.888 5.23333 534.851 5.16 534.778C5.08667 534.704 5.05 534.581 5.05 534.408C5.05 534.234 5.08667 534.111 5.16 534.038C5.23333 533.964 5.32333 533.928 5.43 533.928L5.59 533.928C5.69667 533.928 5.78667 533.964 5.86 534.038C5.93333 534.111 5.97 534.234 5.97 534.408Z" fill="#505050" fill-opacity="0.5"/>
<path d="M9.12 605.99C9.12 606.363 9.06 606.693 8.94 606.98C8.81333 607.26 8.64 607.497 8.42 607.69C8.19333 607.883 7.92333 608.03 7.61 608.13C7.29 608.223 6.94 608.27 6.56 608.27C6.02 608.27 5.52 608.197 5.06 608.05C4.59333 607.897 4.17 607.7 3.79 607.46C3.41 607.213 3.07333 606.933 2.78 606.62C2.48 606.307 2.22667 605.987 2.02 605.66L2.02 604.88C2.28667 605.273 2.55333 605.623 2.82 605.93C3.08667 606.23 3.37 606.493 3.67 606.72C3.96333 606.947 4.28 607.137 4.62 607.29C4.96 607.437 5.33333 607.553 5.74 607.64L5.75 607.6C5.43667 607.427 5.19 607.197 5.01 606.91C4.82333 606.623 4.73 606.267 4.73 605.84C4.73 605.527 4.78 605.243 4.88 604.99C4.98 604.73 5.12333 604.507 5.31 604.32C5.49 604.133 5.71333 603.99 5.98 603.89C6.24 603.79 6.53333 603.74 6.86 603.74C7.2 603.74 7.51 603.793 7.79 603.9C8.06333 604.007 8.3 604.157 8.5 604.35C8.69333 604.543 8.84667 604.78 8.96 605.06C9.06667 605.34 9.12 605.65 9.12 605.99ZM8.61 606C8.61 605.48 8.46667 605.077 8.18 604.79C7.88667 604.497 7.49667 604.35 7.01 604.35L6.83 604.35C6.34333 604.35 5.95667 604.497 5.67 604.79C5.37667 605.077 5.23 605.48 5.23 606C5.23 606.527 5.37667 606.937 5.67 607.23C5.95667 607.517 6.34333 607.66 6.83 607.66L7.01 607.66C7.49667 607.66 7.88667 607.517 8.18 607.23C8.46667 606.937 8.61 606.527 8.61 606ZM9.12 599.704C9.12 600.511 8.82 601.111 8.22 601.504C7.61333 601.891 6.71 602.084 5.51 602.084C4.31 602.084 3.41 601.891 2.81 601.504C2.20333 601.111 1.9 600.511 1.9 599.704C1.9 598.897 2.20333 598.301 2.81 597.914C3.41 597.521 4.31 597.324 5.51 597.324C6.71 597.324 7.61333 597.521 8.22 597.914C8.82 598.301 9.12 598.897 9.12 599.704ZM8.6 599.704C8.6 599.104 8.37333 598.664 7.92 598.384C7.46 598.104 6.81333 597.964 5.98 597.964L5.04 597.964C4.21333 597.964 3.57 598.104 3.11 598.384C2.65 598.664 2.42 599.104 2.42 599.704C2.42 600.304 2.65 600.744 3.11 601.024C3.57 601.304 4.21333 601.444 5.04 601.444L5.98 601.444C6.81333 601.444 7.46 601.304 7.92 601.024C8.37333 600.744 8.6 600.304 8.6 599.704ZM5.97 599.704C5.97 599.877 5.93333 600.001 5.86 600.074C5.78667 600.147 5.69667 600.184 5.59 600.184L5.43 600.184C5.32333 600.184 5.23333 600.147 5.16 600.074C5.08667 600.001 5.05 599.877 5.05 599.704C5.05 599.531 5.08667 599.407 5.16 599.334C5.23333 599.261 5.32333 599.224 5.43 599.224L5.59 599.224C5.69667 599.224 5.78667 599.261 5.86 599.334C5.93333 599.407 5.97 599.531 5.97 599.704ZM9.12 593.408C9.12 594.214 8.82 594.814 8.22 595.208C7.61333 595.594 6.71 595.788 5.51 595.788C4.31 595.788 3.41 595.594 2.81 595.208C2.20333 594.814 1.9 594.214 1.9 593.408C1.9 592.601 2.20333 592.004 2.81 591.618C3.41 591.224 4.31 591.028 5.51 591.028C6.71 591.028 7.61333 591.224 8.22 591.618C8.82 592.004 9.12 592.601 9.12 593.408ZM8.6 593.408C8.6 592.808 8.37333 592.368 7.92 592.088C7.46 591.808 6.81333 591.668 5.98 591.668L5.04 591.668C4.21333 591.668 3.57 591.808 3.11 592.088C2.65 592.368 2.42 592.808 2.42 593.408C2.42 594.008 2.65 594.448 3.11 594.728C3.57 595.008 4.21333 595.148 5.04 595.148L5.98 595.148C6.81333 595.148 7.46 595.008 7.92 594.728C8.37333 594.448 8.6 594.008 8.6 593.408ZM5.97 593.408C5.97 593.581 5.93333 593.704 5.86 593.778C5.78667 593.851 5.69667 593.888 5.59 593.888L5.43 593.888C5.32333 593.888 5.23333 593.851 5.16 593.778C5.08667 593.704 5.05 593.581 5.05 593.408C5.05 593.234 5.08667 593.111 5.16 593.038C5.23333 592.964 5.32333 592.928 5.43 592.928L5.59 592.928C5.69667 592.928 5.78667 592.964 5.86 593.038C5.93333 593.111 5.97 593.234 5.97 593.408Z" fill="#505050" fill-opacity="0.5"/>
<path d="M9.12 664.99C9.12 665.363 9.06 665.693 8.94 665.98C8.81333 666.26 8.64 666.497 8.42 666.69C8.19333 666.883 7.92333 667.03 7.61 667.13C7.29 667.223 6.94 667.27 6.56 667.27C6.02 667.27 5.52 667.197 5.06 667.05C4.59333 666.897 4.17 666.7 3.79 666.46C3.41 666.213 3.07333 665.933 2.78 665.62C2.48 665.307 2.22667 664.987 2.02 664.66L2.02 663.88C2.28667 664.273 2.55333 664.623 2.82 664.93C3.08667 665.23 3.37 665.493 3.67 665.72C3.96333 665.947 4.28 666.137 4.62 666.29C4.96 666.437 5.33333 666.553 5.74 666.64L5.75 666.6C5.43667 666.427 5.19 666.197 5.01 665.91C4.82333 665.623 4.73 665.267 4.73 664.84C4.73 664.527 4.78 664.243 4.88 663.99C4.98 663.73 5.12333 663.507 5.31 663.32C5.49 663.133 5.71333 662.99 5.98 662.89C6.24 662.79 6.53333 662.74 6.86 662.74C7.2 662.74 7.51 662.793 7.79 662.9C8.06333 663.007 8.3 663.157 8.5 663.35C8.69333 663.543 8.84667 663.78 8.96 664.06C9.06667 664.34 9.12 664.65 9.12 664.99ZM8.61 665C8.61 664.48 8.46667 664.077 8.18 663.79C7.88667 663.497 7.49667 663.35 7.01 663.35L6.83 663.35C6.34333 663.35 5.95667 663.497 5.67 663.79C5.37667 664.077 5.23 664.48 5.23 665C5.23 665.527 5.37667 665.937 5.67 666.23C5.95667 666.517 6.34333 666.66 6.83 666.66L7.01 666.66C7.49667 666.66 7.88667 666.517 8.18 666.23C8.46667 665.937 8.61 665.527 8.61 665ZM2.54 656.774L2.54 659.934L5.47 660.154L5.48 660.094C5.23333 659.914 5.05 659.707 4.93 659.474C4.80333 659.234 4.74 658.927 4.74 658.554C4.74 658.247 4.79 657.967 4.89 657.714C4.98333 657.454 5.12333 657.234 5.31 657.054C5.49 656.874 5.71333 656.734 5.98 656.634C6.24 656.534 6.53667 656.484 6.87 656.484C7.21 656.484 7.52 656.537 7.8 656.644C8.07333 656.744 8.31 656.894 8.51 657.094C8.70333 657.287 8.85333 657.524 8.96 657.804C9.06667 658.084 9.12 658.397 9.12 658.744C9.12 659.017 9.09 659.267 9.03 659.494C8.97667 659.714 8.9 659.914 8.8 660.094C8.69333 660.267 8.57 660.424 8.43 660.564C8.29 660.704 8.14 660.827 7.98 660.934L7.64 660.474C7.94 660.281 8.17667 660.054 8.35 659.794C8.51667 659.527 8.6 659.174 8.6 658.734C8.6 658.214 8.45333 657.814 8.16 657.534C7.86667 657.247 7.48 657.104 7 657.104L6.84 657.104C6.35333 657.104 5.96667 657.244 5.68 657.524C5.39333 657.797 5.25 658.194 5.25 658.714C5.25 658.901 5.26667 659.064 5.3 659.204C5.32667 659.344 5.37 659.471 5.43 659.584C5.48333 659.691 5.55 659.791 5.63 659.884C5.70333 659.977 5.79 660.067 5.89 660.154L5.81 660.674L2.02 660.424L2.02 656.774L2.54 656.774ZM9.12 652.408C9.12 653.214 8.82 653.814 8.22 654.208C7.61333 654.594 6.71 654.788 5.51 654.788C4.31 654.788 3.41 654.594 2.81 654.208C2.20333 653.814 1.9 653.214 1.9 652.408C1.9 651.601 2.20333 651.004 2.81 650.618C3.41 650.224 4.31 650.028 5.51 650.028C6.71 650.028 7.61333 650.224 8.22 650.618C8.82 651.004 9.12 651.601 9.12 652.408ZM8.6 652.408C8.6 651.808 8.37333 651.368 7.92 651.088C7.46 650.808 6.81333 650.668 5.98 650.668L5.04 650.668C4.21333 650.668 3.57 650.808 3.11 651.088C2.65 651.368 2.42 651.808 2.42 652.408C2.42 653.008 2.65 653.448 3.11 653.728C3.57 654.008 4.21333 654.148 5.04 654.148L5.98 654.148C6.81333 654.148 7.46 654.008 7.92 653.728C8.37333 653.448 8.6 653.008 8.6 652.408ZM5.97 652.408C5.97 652.581 5.93333 652.704 5.86 652.778C5.78667 652.851 5.69667 652.888 5.59 652.888L5.43 652.888C5.32333 652.888 5.23333 652.851 5.16 652.778C5.08667 652.704 5.05 652.581 5.05 652.408C5.05 652.234 5.08667 652.111 5.16 652.038C5.23333 651.964 5.32333 651.928 5.43 651.928L5.59 651.928C5.69667 651.928 5.78667 651.964 5.86 652.038C5.93333 652.111 5.97 652.234 5.97 652.408Z" fill="#505050" fill-opacity="0.5"/>
<path d="M9 725.22L2.54 722.37L2.54 725.76L3.98 725.76L3.98 726.3L2.02 726.3L2.02 721.76L2.55 721.76L9 724.57L9 725.22ZM9.12 717.704C9.12 718.511 8.82 719.111 8.22 719.504C7.61333 719.891 6.71 720.084 5.51 720.084C4.31 720.084 3.41 719.891 2.81 719.504C2.20333 719.111 1.9 718.511 1.9 717.704C1.9 716.897 2.20333 716.301 2.81 715.914C3.41 715.521 4.31 715.324 5.51 715.324C6.71 715.324 7.61333 715.521 8.22 715.914C8.82 716.301 9.12 716.897 9.12 717.704ZM8.6 717.704C8.6 717.104 8.37333 716.664 7.92 716.384C7.46 716.104 6.81333 715.964 5.98 715.964L5.04 715.964C4.21333 715.964 3.57 716.104 3.11 716.384C2.65 716.664 2.42 717.104 2.42 717.704C2.42 718.304 2.65 718.744 3.11 719.024C3.57 719.304 4.21333 719.444 5.04 719.444L5.98 719.444C6.81333 719.444 7.46 719.304 7.92 719.024C8.37333 718.744 8.6 718.304 8.6 717.704ZM5.97 717.704C5.97 717.877 5.93333 718.001 5.86 718.074C5.78667 718.147 5.69667 718.184 5.59 718.184L5.43 718.184C5.32333 718.184 5.23333 718.147 5.16 718.074C5.08667 718.001 5.05 717.877 5.05 717.704C5.05 717.531 5.08667 717.407 5.16 717.334C5.23333 717.261 5.32333 717.224 5.43 717.224L5.59 717.224C5.69667 717.224 5.78667 717.261 5.86 717.334C5.93333 717.407 5.97 717.531 5.97 717.704ZM9.12 711.408C9.12 712.214 8.82 712.814 8.22 713.208C7.61333 713.594 6.71 713.788 5.51 713.788C4.31 713.788 3.41 713.594 2.81 713.208C2.20333 712.814 1.9 712.214 1.9 711.408C1.9 710.601 2.20333 710.004 2.81 709.618C3.41 709.224 4.31 709.028 5.51 709.028C6.71 709.028 7.61333 709.224 8.22 709.618C8.82 710.004 9.12 710.601 9.12 711.408ZM8.6 711.408C8.6 710.808 8.37333 710.368 7.92 710.088C7.46 709.808 6.81333 709.668 5.98 709.668L5.04 709.668C4.21333 709.668 3.57 709.808 3.11 710.088C2.65 710.368 2.42 710.808 2.42 711.408C2.42 712.008 2.65 712.448 3.11 712.728C3.57 713.008 4.21333 713.148 5.04 713.148L5.98 713.148C6.81333 713.148 7.46 713.008 7.92 712.728C8.37333 712.448 8.6 712.008 8.6 711.408ZM5.97 711.408C5.97 711.581 5.93333 711.704 5.86 711.778C5.78667 711.851 5.69667 711.888 5.59 711.888L5.43 711.888C5.32333 711.888 5.23333 711.851 5.16 711.778C5.08667 711.704 5.05 711.581 5.05 711.408C5.05 711.234 5.08667 711.111 5.16 711.038C5.23333 710.964 5.32333 710.928 5.43 710.928L5.59 710.928C5.69667 710.928 5.78667 710.964 5.86 711.038C5.93333 711.111 5.97 711.234 5.97 711.408Z" fill="#505050" fill-opacity="0.5"/>
</svg>
