<svg width="727" height="10" viewBox="0 0 727 10" fill="none" xmlns="http://www.w3.org/2000/svg">
<path d="M708.9 9.00003V8.48003L710.98 8.48003V2.46003L710.93 2.46003L709.01 4.17003L708.67 3.79003L710.66 2.02003L711.57 2.02003V8.48003L713.52 8.48003V9.00003L708.9 9.00003ZM717.296 9.12003C716.489 9.12003 715.889 8.82003 715.496 8.22003C715.109 7.61337 714.916 6.71003 714.916 5.51003C714.916 4.31003 715.109 3.41003 715.496 2.81003C715.889 2.20336 716.489 1.90003 717.296 1.90003C718.103 1.90003 718.699 2.20336 719.086 2.81003C719.479 3.41003 719.676 4.31003 719.676 5.51003C719.676 6.71003 719.479 7.61337 719.086 8.22003C718.699 8.82003 718.103 9.12003 717.296 9.12003ZM717.296 8.60003C717.896 8.60003 718.336 8.37337 718.616 7.92003C718.896 7.46003 719.036 6.81337 719.036 5.98003V5.04003C719.036 4.21336 718.896 3.57003 718.616 3.11003C718.336 2.65003 717.896 2.42003 717.296 2.42003C716.696 2.42003 716.256 2.65003 715.976 3.11003C715.696 3.57003 715.556 4.21336 715.556 5.04003V5.98003C715.556 6.81337 715.696 7.46003 715.976 7.92003C716.256 8.37337 716.696 8.60003 717.296 8.60003ZM717.296 5.97003C717.123 5.97003 716.999 5.93337 716.926 5.86003C716.853 5.7867 716.816 5.6967 716.816 5.59003V5.43003C716.816 5.32336 716.853 5.23336 716.926 5.16003C716.999 5.0867 717.123 5.05003 717.296 5.05003C717.469 5.05003 717.593 5.0867 717.666 5.16003C717.739 5.23336 717.776 5.32336 717.776 5.43003V5.59003C717.776 5.6967 717.739 5.7867 717.666 5.86003C717.593 5.93337 717.469 5.97003 717.296 5.97003ZM723.592 9.12003C722.786 9.12003 722.186 8.82003 721.792 8.22003C721.406 7.61337 721.212 6.71003 721.212 5.51003C721.212 4.31003 721.406 3.41003 721.792 2.81003C722.186 2.20336 722.786 1.90003 723.592 1.90003C724.399 1.90003 724.996 2.20336 725.382 2.81003C725.776 3.41003 725.972 4.31003 725.972 5.51003C725.972 6.71003 725.776 7.61337 725.382 8.22003C724.996 8.82003 724.399 9.12003 723.592 9.12003ZM723.592 8.60003C724.192 8.60003 724.632 8.37337 724.912 7.92003C725.192 7.46003 725.332 6.81337 725.332 5.98003V5.04003C725.332 4.21336 725.192 3.57003 724.912 3.11003C724.632 2.65003 724.192 2.42003 723.592 2.42003C722.992 2.42003 722.552 2.65003 722.272 3.11003C721.992 3.57003 721.852 4.21336 721.852 5.04003V5.98003C721.852 6.81337 721.992 7.46003 722.272 7.92003C722.552 8.37337 722.992 8.60003 723.592 8.60003ZM723.592 5.97003C723.419 5.97003 723.296 5.93337 723.222 5.86003C723.149 5.7867 723.112 5.6967 723.112 5.59003V5.43003C723.112 5.32336 723.149 5.23336 723.222 5.16003C723.296 5.0867 723.419 5.05003 723.592 5.05003C723.766 5.05003 723.889 5.0867 723.962 5.16003C724.036 5.23336 724.072 5.32336 724.072 5.43003V5.59003C724.072 5.6967 724.036 5.7867 723.962 5.86003C723.889 5.93337 723.766 5.97003 723.592 5.97003Z" fill="#505050" fill-opacity="0.5"/>
<path d="M649.9 9.00003V8.48003L651.98 8.48003V2.46003L651.93 2.46003L650.01 4.17003L649.67 3.79003L651.66 2.02003L652.57 2.02003V8.48003L654.52 8.48003V9.00003L649.9 9.00003ZM660.226 2.54003L657.066 2.54003L656.846 5.47003L656.906 5.48003C657.086 5.23336 657.293 5.05003 657.526 4.93003C657.766 4.80336 658.073 4.74003 658.446 4.74003C658.753 4.74003 659.033 4.79003 659.286 4.89003C659.546 4.98336 659.766 5.12336 659.946 5.31003C660.126 5.49003 660.266 5.71337 660.366 5.98003C660.466 6.24003 660.516 6.5367 660.516 6.87003C660.516 7.21003 660.463 7.52003 660.356 7.80003C660.256 8.07337 660.106 8.31003 659.906 8.51003C659.713 8.70337 659.476 8.85337 659.196 8.96003C658.916 9.0667 658.603 9.12003 658.256 9.12003C657.983 9.12003 657.733 9.09003 657.506 9.03003C657.286 8.9767 657.086 8.90003 656.906 8.80003C656.733 8.69337 656.576 8.57003 656.436 8.43003C656.296 8.29003 656.173 8.14003 656.066 7.98003L656.526 7.64003C656.719 7.94003 656.946 8.1767 657.206 8.35003C657.473 8.5167 657.826 8.60003 658.266 8.60003C658.786 8.60003 659.186 8.45337 659.466 8.16003C659.753 7.8667 659.896 7.48003 659.896 7.00003V6.84003C659.896 6.35337 659.756 5.9667 659.476 5.68003C659.203 5.39336 658.806 5.25003 658.286 5.25003C658.099 5.25003 657.936 5.2667 657.796 5.30003C657.656 5.3267 657.529 5.37003 657.416 5.43003C657.309 5.48336 657.209 5.55003 657.116 5.63003C657.023 5.70337 656.933 5.79003 656.846 5.89003L656.326 5.81003L656.576 2.02003L660.226 2.02003V2.54003ZM664.592 9.12003C663.786 9.12003 663.186 8.82003 662.792 8.22003C662.406 7.61337 662.212 6.71003 662.212 5.51003C662.212 4.31003 662.406 3.41003 662.792 2.81003C663.186 2.20336 663.786 1.90003 664.592 1.90003C665.399 1.90003 665.996 2.20336 666.382 2.81003C666.776 3.41003 666.972 4.31003 666.972 5.51003C666.972 6.71003 666.776 7.61337 666.382 8.22003C665.996 8.82003 665.399 9.12003 664.592 9.12003ZM664.592 8.60003C665.192 8.60003 665.632 8.37337 665.912 7.92003C666.192 7.46003 666.332 6.81337 666.332 5.98003V5.04003C666.332 4.21336 666.192 3.57003 665.912 3.11003C665.632 2.65003 665.192 2.42003 664.592 2.42003C663.992 2.42003 663.552 2.65003 663.272 3.11003C662.992 3.57003 662.852 4.21336 662.852 5.04003V5.98003C662.852 6.81337 662.992 7.46003 663.272 7.92003C663.552 8.37337 663.992 8.60003 664.592 8.60003ZM664.592 5.97003C664.419 5.97003 664.296 5.93337 664.222 5.86003C664.149 5.7867 664.112 5.6967 664.112 5.59003V5.43003C664.112 5.32336 664.149 5.23336 664.222 5.16003C664.296 5.0867 664.419 5.05003 664.592 5.05003C664.766 5.05003 664.889 5.0867 664.962 5.16003C665.036 5.23336 665.072 5.32336 665.072 5.43003V5.59003C665.072 5.6967 665.036 5.7867 664.962 5.86003C664.889 5.93337 664.766 5.97003 664.592 5.97003Z" fill="#505050" fill-opacity="0.5"/>
<path d="M595.31 9.00003L590.77 9.00003V8.39003L593.24 6.05003C593.58 5.73003 593.853 5.4067 594.06 5.08003C594.267 4.7467 594.37 4.3967 594.37 4.03003V3.84003C594.37 3.4067 594.247 3.06336 594 2.81003C593.76 2.55003 593.4 2.42003 592.92 2.42003C592.453 2.42003 592.09 2.5367 591.83 2.77003C591.577 2.9967 591.39 3.30336 591.27 3.69003L590.74 3.50003C590.807 3.2867 590.897 3.08336 591.01 2.89003C591.123 2.6967 591.267 2.5267 591.44 2.38003C591.62 2.23336 591.833 2.1167 592.08 2.03003C592.327 1.94336 592.61 1.90003 592.93 1.90003C593.263 1.90003 593.557 1.95003 593.81 2.05003C594.07 2.14336 594.287 2.2767 594.46 2.45003C594.64 2.62336 594.773 2.83337 594.86 3.08003C594.953 3.32003 595 3.59003 595 3.89003C595 4.38336 594.873 4.83337 594.62 5.24003C594.367 5.64003 594.027 6.0367 593.6 6.43003L591.4 8.48003L595.31 8.48003V9.00003ZM599.296 9.12003C598.489 9.12003 597.889 8.82003 597.496 8.22003C597.109 7.61337 596.916 6.71003 596.916 5.51003C596.916 4.31003 597.109 3.41003 597.496 2.81003C597.889 2.20336 598.489 1.90003 599.296 1.90003C600.103 1.90003 600.699 2.20336 601.086 2.81003C601.479 3.41003 601.676 4.31003 601.676 5.51003C601.676 6.71003 601.479 7.61337 601.086 8.22003C600.699 8.82003 600.103 9.12003 599.296 9.12003ZM599.296 8.60003C599.896 8.60003 600.336 8.37337 600.616 7.92003C600.896 7.46003 601.036 6.81337 601.036 5.98003V5.04003C601.036 4.21336 600.896 3.57003 600.616 3.11003C600.336 2.65003 599.896 2.42003 599.296 2.42003C598.696 2.42003 598.256 2.65003 597.976 3.11003C597.696 3.57003 597.556 4.21336 597.556 5.04003V5.98003C597.556 6.81337 597.696 7.46003 597.976 7.92003C598.256 8.37337 598.696 8.60003 599.296 8.60003ZM599.296 5.97003C599.123 5.97003 598.999 5.93337 598.926 5.86003C598.853 5.7867 598.816 5.6967 598.816 5.59003V5.43003C598.816 5.32336 598.853 5.23336 598.926 5.16003C598.999 5.0867 599.123 5.05003 599.296 5.05003C599.469 5.05003 599.593 5.0867 599.666 5.16003C599.739 5.23336 599.776 5.32336 599.776 5.43003V5.59003C599.776 5.6967 599.739 5.7867 599.666 5.86003C599.593 5.93337 599.469 5.97003 599.296 5.97003ZM605.592 9.12003C604.786 9.12003 604.186 8.82003 603.792 8.22003C603.406 7.61337 603.212 6.71003 603.212 5.51003C603.212 4.31003 603.406 3.41003 603.792 2.81003C604.186 2.20336 604.786 1.90003 605.592 1.90003C606.399 1.90003 606.996 2.20336 607.382 2.81003C607.776 3.41003 607.972 4.31003 607.972 5.51003C607.972 6.71003 607.776 7.61337 607.382 8.22003C606.996 8.82003 606.399 9.12003 605.592 9.12003ZM605.592 8.60003C606.192 8.60003 606.632 8.37337 606.912 7.92003C607.192 7.46003 607.332 6.81337 607.332 5.98003V5.04003C607.332 4.21336 607.192 3.57003 606.912 3.11003C606.632 2.65003 606.192 2.42003 605.592 2.42003C604.992 2.42003 604.552 2.65003 604.272 3.11003C603.992 3.57003 603.852 4.21336 603.852 5.04003V5.98003C603.852 6.81337 603.992 7.46003 604.272 7.92003C604.552 8.37337 604.992 8.60003 605.592 8.60003ZM605.592 5.97003C605.419 5.97003 605.296 5.93337 605.222 5.86003C605.149 5.7867 605.112 5.6967 605.112 5.59003V5.43003C605.112 5.32336 605.149 5.23336 605.222 5.16003C605.296 5.0867 605.419 5.05003 605.592 5.05003C605.766 5.05003 605.889 5.0867 605.962 5.16003C606.036 5.23336 606.072 5.32336 606.072 5.43003V5.59003C606.072 5.6967 606.036 5.7867 605.962 5.86003C605.889 5.93337 605.766 5.97003 605.592 5.97003Z" fill="#505050" fill-opacity="0.5"/>
<path d="M536.31 9.00003L531.77 9.00003V8.39003L534.24 6.05003C534.58 5.73003 534.853 5.4067 535.06 5.08003C535.267 4.7467 535.37 4.3967 535.37 4.03003V3.84003C535.37 3.4067 535.247 3.06336 535 2.81003C534.76 2.55003 534.4 2.42003 533.92 2.42003C533.453 2.42003 533.09 2.5367 532.83 2.77003C532.577 2.9967 532.39 3.30336 532.27 3.69003L531.74 3.50003C531.807 3.2867 531.897 3.08336 532.01 2.89003C532.123 2.6967 532.267 2.5267 532.44 2.38003C532.62 2.23336 532.833 2.1167 533.08 2.03003C533.327 1.94336 533.61 1.90003 533.93 1.90003C534.263 1.90003 534.557 1.95003 534.81 2.05003C535.07 2.14336 535.287 2.2767 535.46 2.45003C535.64 2.62336 535.773 2.83337 535.86 3.08003C535.953 3.32003 536 3.59003 536 3.89003C536 4.38336 535.873 4.83337 535.62 5.24003C535.367 5.64003 535.027 6.0367 534.6 6.43003L532.4 8.48003L536.31 8.48003V9.00003ZM542.226 2.54003L539.066 2.54003L538.846 5.47003L538.906 5.48003C539.086 5.23336 539.293 5.05003 539.526 4.93003C539.766 4.80336 540.073 4.74003 540.446 4.74003C540.753 4.74003 541.033 4.79003 541.286 4.89003C541.546 4.98336 541.766 5.12336 541.946 5.31003C542.126 5.49003 542.266 5.71337 542.366 5.98003C542.466 6.24003 542.516 6.5367 542.516 6.87003C542.516 7.21003 542.463 7.52003 542.356 7.80003C542.256 8.07337 542.106 8.31003 541.906 8.51003C541.713 8.70337 541.476 8.85337 541.196 8.96003C540.916 9.0667 540.603 9.12003 540.256 9.12003C539.983 9.12003 539.733 9.09003 539.506 9.03003C539.286 8.9767 539.086 8.90003 538.906 8.80003C538.733 8.69337 538.576 8.57003 538.436 8.43003C538.296 8.29003 538.173 8.14003 538.066 7.98003L538.526 7.64003C538.719 7.94003 538.946 8.1767 539.206 8.35003C539.473 8.5167 539.826 8.60003 540.266 8.60003C540.786 8.60003 541.186 8.45337 541.466 8.16003C541.753 7.8667 541.896 7.48003 541.896 7.00003V6.84003C541.896 6.35337 541.756 5.9667 541.476 5.68003C541.203 5.39336 540.806 5.25003 540.286 5.25003C540.099 5.25003 539.936 5.2667 539.796 5.30003C539.656 5.3267 539.529 5.37003 539.416 5.43003C539.309 5.48336 539.209 5.55003 539.116 5.63003C539.023 5.70337 538.933 5.79003 538.846 5.89003L538.326 5.81003L538.576 2.02003L542.226 2.02003V2.54003ZM546.592 9.12003C545.786 9.12003 545.186 8.82003 544.792 8.22003C544.406 7.61337 544.212 6.71003 544.212 5.51003C544.212 4.31003 544.406 3.41003 544.792 2.81003C545.186 2.20336 545.786 1.90003 546.592 1.90003C547.399 1.90003 547.996 2.20336 548.382 2.81003C548.776 3.41003 548.972 4.31003 548.972 5.51003C548.972 6.71003 548.776 7.61337 548.382 8.22003C547.996 8.82003 547.399 9.12003 546.592 9.12003ZM546.592 8.60003C547.192 8.60003 547.632 8.37337 547.912 7.92003C548.192 7.46003 548.332 6.81337 548.332 5.98003V5.04003C548.332 4.21336 548.192 3.57003 547.912 3.11003C547.632 2.65003 547.192 2.42003 546.592 2.42003C545.992 2.42003 545.552 2.65003 545.272 3.11003C544.992 3.57003 544.852 4.21336 544.852 5.04003V5.98003C544.852 6.81337 544.992 7.46003 545.272 7.92003C545.552 8.37337 545.992 8.60003 546.592 8.60003ZM546.592 5.97003C546.419 5.97003 546.296 5.93337 546.222 5.86003C546.149 5.7867 546.112 5.6967 546.112 5.59003V5.43003C546.112 5.32336 546.149 5.23336 546.222 5.16003C546.296 5.0867 546.419 5.05003 546.592 5.05003C546.766 5.05003 546.889 5.0867 546.962 5.16003C547.036 5.23336 547.072 5.32336 547.072 5.43003V5.59003C547.072 5.6967 547.036 5.7867 546.962 5.86003C546.889 5.93337 546.766 5.97003 546.592 5.97003Z" fill="#505050" fill-opacity="0.5"/>
<path d="M474.74 5.08003C475.233 5.08003 475.617 4.96336 475.89 4.73003C476.163 4.49003 476.3 4.18003 476.3 3.80003V3.67003C476.3 3.27003 476.167 2.96336 475.9 2.75003C475.64 2.53003 475.3 2.42003 474.88 2.42003C474.467 2.42003 474.137 2.5067 473.89 2.68003C473.643 2.8467 473.447 3.07003 473.3 3.35003L472.85 3.03003C472.93 2.88336 473.03 2.74336 473.15 2.61003C473.277 2.47003 473.42 2.3467 473.58 2.24003C473.747 2.13336 473.937 2.05003 474.15 1.99003C474.37 1.93003 474.617 1.90003 474.89 1.90003C475.183 1.90003 475.453 1.94003 475.7 2.02003C475.953 2.10003 476.17 2.2167 476.35 2.37003C476.53 2.5167 476.67 2.70003 476.77 2.92003C476.877 3.13336 476.93 3.3767 476.93 3.65003C476.93 3.88337 476.893 4.09337 476.82 4.28003C476.753 4.4667 476.657 4.6267 476.53 4.76003C476.41 4.89336 476.263 5.0067 476.09 5.10003C475.923 5.1867 475.743 5.25337 475.55 5.30003V5.34003C475.757 5.37336 475.953 5.4367 476.14 5.53003C476.327 5.6167 476.487 5.73336 476.62 5.88003C476.76 6.0267 476.87 6.20336 476.95 6.41003C477.03 6.6167 477.07 6.85003 477.07 7.11003C477.07 7.41003 477.017 7.6867 476.91 7.94003C476.803 8.1867 476.65 8.3967 476.45 8.57003C476.25 8.74337 476.01 8.88003 475.73 8.98003C475.45 9.07337 475.137 9.12003 474.79 9.12003C474.51 9.12003 474.257 9.09003 474.03 9.03003C473.803 8.9767 473.6 8.90003 473.42 8.80003C473.24 8.69337 473.08 8.57003 472.94 8.43003C472.8 8.29003 472.677 8.14003 472.57 7.98003L473.02 7.64003C473.213 7.94003 473.447 8.1767 473.72 8.35003C473.993 8.5167 474.35 8.60003 474.79 8.60003C475.303 8.60003 475.707 8.47337 476 8.22003C476.293 7.96003 476.44 7.61003 476.44 7.17003V7.01003C476.44 6.57003 476.297 6.2267 476.01 5.98003C475.73 5.7267 475.32 5.60003 474.78 5.60003L473.9 5.60003V5.08003L474.74 5.08003ZM481.296 9.12003C480.489 9.12003 479.889 8.82003 479.496 8.22003C479.109 7.61337 478.916 6.71003 478.916 5.51003C478.916 4.31003 479.109 3.41003 479.496 2.81003C479.889 2.20336 480.489 1.90003 481.296 1.90003C482.103 1.90003 482.699 2.20336 483.086 2.81003C483.479 3.41003 483.676 4.31003 483.676 5.51003C483.676 6.71003 483.479 7.61337 483.086 8.22003C482.699 8.82003 482.103 9.12003 481.296 9.12003ZM481.296 8.60003C481.896 8.60003 482.336 8.37337 482.616 7.92003C482.896 7.46003 483.036 6.81337 483.036 5.98003V5.04003C483.036 4.21336 482.896 3.57003 482.616 3.11003C482.336 2.65003 481.896 2.42003 481.296 2.42003C480.696 2.42003 480.256 2.65003 479.976 3.11003C479.696 3.57003 479.556 4.21336 479.556 5.04003V5.98003C479.556 6.81337 479.696 7.46003 479.976 7.92003C480.256 8.37337 480.696 8.60003 481.296 8.60003ZM481.296 5.97003C481.123 5.97003 480.999 5.93337 480.926 5.86003C480.853 5.7867 480.816 5.6967 480.816 5.59003V5.43003C480.816 5.32336 480.853 5.23336 480.926 5.16003C480.999 5.0867 481.123 5.05003 481.296 5.05003C481.469 5.05003 481.593 5.0867 481.666 5.16003C481.739 5.23336 481.776 5.32336 481.776 5.43003V5.59003C481.776 5.6967 481.739 5.7867 481.666 5.86003C481.593 5.93337 481.469 5.97003 481.296 5.97003ZM487.592 9.12003C486.786 9.12003 486.186 8.82003 485.792 8.22003C485.406 7.61337 485.212 6.71003 485.212 5.51003C485.212 4.31003 485.406 3.41003 485.792 2.81003C486.186 2.20336 486.786 1.90003 487.592 1.90003C488.399 1.90003 488.996 2.20336 489.382 2.81003C489.776 3.41003 489.972 4.31003 489.972 5.51003C489.972 6.71003 489.776 7.61337 489.382 8.22003C488.996 8.82003 488.399 9.12003 487.592 9.12003ZM487.592 8.60003C488.192 8.60003 488.632 8.37337 488.912 7.92003C489.192 7.46003 489.332 6.81337 489.332 5.98003V5.04003C489.332 4.21336 489.192 3.57003 488.912 3.11003C488.632 2.65003 488.192 2.42003 487.592 2.42003C486.992 2.42003 486.552 2.65003 486.272 3.11003C485.992 3.57003 485.852 4.21336 485.852 5.04003V5.98003C485.852 6.81337 485.992 7.46003 486.272 7.92003C486.552 8.37337 486.992 8.60003 487.592 8.60003ZM487.592 5.97003C487.419 5.97003 487.296 5.93337 487.222 5.86003C487.149 5.7867 487.112 5.6967 487.112 5.59003V5.43003C487.112 5.32336 487.149 5.23336 487.222 5.16003C487.296 5.0867 487.419 5.05003 487.592 5.05003C487.766 5.05003 487.889 5.0867 487.962 5.16003C488.036 5.23336 488.072 5.32336 488.072 5.43003V5.59003C488.072 5.6967 488.036 5.7867 487.962 5.86003C487.889 5.93337 487.766 5.97003 487.592 5.97003Z" fill="#505050" fill-opacity="0.5"/>
<path d="M415.74 5.08003C416.233 5.08003 416.617 4.96336 416.89 4.73003C417.163 4.49003 417.3 4.18003 417.3 3.80003V3.67003C417.3 3.27003 417.167 2.96336 416.9 2.75003C416.64 2.53003 416.3 2.42003 415.88 2.42003C415.467 2.42003 415.137 2.5067 414.89 2.68003C414.643 2.8467 414.447 3.07003 414.3 3.35003L413.85 3.03003C413.93 2.88336 414.03 2.74336 414.15 2.61003C414.277 2.47003 414.42 2.3467 414.58 2.24003C414.747 2.13336 414.937 2.05003 415.15 1.99003C415.37 1.93003 415.617 1.90003 415.89 1.90003C416.183 1.90003 416.453 1.94003 416.7 2.02003C416.953 2.10003 417.17 2.2167 417.35 2.37003C417.53 2.5167 417.67 2.70003 417.77 2.92003C417.877 3.13336 417.93 3.3767 417.93 3.65003C417.93 3.88337 417.893 4.09337 417.82 4.28003C417.753 4.4667 417.657 4.6267 417.53 4.76003C417.41 4.89336 417.263 5.0067 417.09 5.10003C416.923 5.1867 416.743 5.25337 416.55 5.30003V5.34003C416.757 5.37336 416.953 5.4367 417.14 5.53003C417.327 5.6167 417.487 5.73336 417.62 5.88003C417.76 6.0267 417.87 6.20336 417.95 6.41003C418.03 6.6167 418.07 6.85003 418.07 7.11003C418.07 7.41003 418.017 7.6867 417.91 7.94003C417.803 8.1867 417.65 8.3967 417.45 8.57003C417.25 8.74337 417.01 8.88003 416.73 8.98003C416.45 9.07337 416.137 9.12003 415.79 9.12003C415.51 9.12003 415.257 9.09003 415.03 9.03003C414.803 8.9767 414.6 8.90003 414.42 8.80003C414.24 8.69337 414.08 8.57003 413.94 8.43003C413.8 8.29003 413.677 8.14003 413.57 7.98003L414.02 7.64003C414.213 7.94003 414.447 8.1767 414.72 8.35003C414.993 8.5167 415.35 8.60003 415.79 8.60003C416.303 8.60003 416.707 8.47337 417 8.22003C417.293 7.96003 417.44 7.61003 417.44 7.17003V7.01003C417.44 6.57003 417.297 6.2267 417.01 5.98003C416.73 5.7267 416.32 5.60003 415.78 5.60003L414.9 5.60003V5.08003L415.74 5.08003ZM424.226 2.54003L421.066 2.54003L420.846 5.47003L420.906 5.48003C421.086 5.23336 421.293 5.05003 421.526 4.93003C421.766 4.80336 422.073 4.74003 422.446 4.74003C422.753 4.74003 423.033 4.79003 423.286 4.89003C423.546 4.98336 423.766 5.12336 423.946 5.31003C424.126 5.49003 424.266 5.71337 424.366 5.98003C424.466 6.24003 424.516 6.5367 424.516 6.87003C424.516 7.21003 424.463 7.52003 424.356 7.80003C424.256 8.07337 424.106 8.31003 423.906 8.51003C423.713 8.70337 423.476 8.85337 423.196 8.96003C422.916 9.0667 422.603 9.12003 422.256 9.12003C421.983 9.12003 421.733 9.09003 421.506 9.03003C421.286 8.9767 421.086 8.90003 420.906 8.80003C420.733 8.69337 420.576 8.57003 420.436 8.43003C420.296 8.29003 420.173 8.14003 420.066 7.98003L420.526 7.64003C420.719 7.94003 420.946 8.1767 421.206 8.35003C421.473 8.5167 421.826 8.60003 422.266 8.60003C422.786 8.60003 423.186 8.45337 423.466 8.16003C423.753 7.8667 423.896 7.48003 423.896 7.00003V6.84003C423.896 6.35337 423.756 5.9667 423.476 5.68003C423.203 5.39336 422.806 5.25003 422.286 5.25003C422.099 5.25003 421.936 5.2667 421.796 5.30003C421.656 5.3267 421.529 5.37003 421.416 5.43003C421.309 5.48336 421.209 5.55003 421.116 5.63003C421.023 5.70337 420.933 5.79003 420.846 5.89003L420.326 5.81003L420.576 2.02003L424.226 2.02003V2.54003ZM428.592 9.12003C427.786 9.12003 427.186 8.82003 426.792 8.22003C426.406 7.61337 426.212 6.71003 426.212 5.51003C426.212 4.31003 426.406 3.41003 426.792 2.81003C427.186 2.20336 427.786 1.90003 428.592 1.90003C429.399 1.90003 429.996 2.20336 430.382 2.81003C430.776 3.41003 430.972 4.31003 430.972 5.51003C430.972 6.71003 430.776 7.61337 430.382 8.22003C429.996 8.82003 429.399 9.12003 428.592 9.12003ZM428.592 8.60003C429.192 8.60003 429.632 8.37337 429.912 7.92003C430.192 7.46003 430.332 6.81337 430.332 5.98003V5.04003C430.332 4.21336 430.192 3.57003 429.912 3.11003C429.632 2.65003 429.192 2.42003 428.592 2.42003C427.992 2.42003 427.552 2.65003 427.272 3.11003C426.992 3.57003 426.852 4.21336 426.852 5.04003V5.98003C426.852 6.81337 426.992 7.46003 427.272 7.92003C427.552 8.37337 427.992 8.60003 428.592 8.60003ZM428.592 5.97003C428.419 5.97003 428.296 5.93337 428.222 5.86003C428.149 5.7867 428.112 5.6967 428.112 5.59003V5.43003C428.112 5.32336 428.149 5.23336 428.222 5.16003C428.296 5.0867 428.419 5.05003 428.592 5.05003C428.766 5.05003 428.889 5.0867 428.962 5.16003C429.036 5.23336 429.072 5.32336 429.072 5.43003V5.59003C429.072 5.6967 429.036 5.7867 428.962 5.86003C428.889 5.93337 428.766 5.97003 428.592 5.97003Z" fill="#505050" fill-opacity="0.5"/>
<path d="M357.91 9.00003L357.91 7.54003L354.39 7.54003V7.01003L357.64 2.02003L358.48 2.02003V7.05003L359.57 7.05003V7.54003L358.48 7.54003L358.48 9.00003L357.91 9.00003ZM354.93 7.05003L357.91 7.05003V2.53003H357.88L354.93 7.05003ZM363.296 9.12003C362.489 9.12003 361.889 8.82003 361.496 8.22003C361.109 7.61337 360.916 6.71003 360.916 5.51003C360.916 4.31003 361.109 3.41003 361.496 2.81003C361.889 2.20336 362.489 1.90003 363.296 1.90003C364.103 1.90003 364.699 2.20336 365.086 2.81003C365.479 3.41003 365.676 4.31003 365.676 5.51003C365.676 6.71003 365.479 7.61337 365.086 8.22003C364.699 8.82003 364.103 9.12003 363.296 9.12003ZM363.296 8.60003C363.896 8.60003 364.336 8.37337 364.616 7.92003C364.896 7.46003 365.036 6.81337 365.036 5.98003V5.04003C365.036 4.21336 364.896 3.57003 364.616 3.11003C364.336 2.65003 363.896 2.42003 363.296 2.42003C362.696 2.42003 362.256 2.65003 361.976 3.11003C361.696 3.57003 361.556 4.21336 361.556 5.04003V5.98003C361.556 6.81337 361.696 7.46003 361.976 7.92003C362.256 8.37337 362.696 8.60003 363.296 8.60003ZM363.296 5.97003C363.123 5.97003 362.999 5.93337 362.926 5.86003C362.853 5.7867 362.816 5.6967 362.816 5.59003V5.43003C362.816 5.32336 362.853 5.23336 362.926 5.16003C362.999 5.0867 363.123 5.05003 363.296 5.05003C363.469 5.05003 363.593 5.0867 363.666 5.16003C363.739 5.23336 363.776 5.32336 363.776 5.43003V5.59003C363.776 5.6967 363.739 5.7867 363.666 5.86003C363.593 5.93337 363.469 5.97003 363.296 5.97003ZM369.592 9.12003C368.786 9.12003 368.186 8.82003 367.792 8.22003C367.406 7.61337 367.212 6.71003 367.212 5.51003C367.212 4.31003 367.406 3.41003 367.792 2.81003C368.186 2.20336 368.786 1.90003 369.592 1.90003C370.399 1.90003 370.996 2.20336 371.382 2.81003C371.776 3.41003 371.972 4.31003 371.972 5.51003C371.972 6.71003 371.776 7.61337 371.382 8.22003C370.996 8.82003 370.399 9.12003 369.592 9.12003ZM369.592 8.60003C370.192 8.60003 370.632 8.37337 370.912 7.92003C371.192 7.46003 371.332 6.81337 371.332 5.98003V5.04003C371.332 4.21336 371.192 3.57003 370.912 3.11003C370.632 2.65003 370.192 2.42003 369.592 2.42003C368.992 2.42003 368.552 2.65003 368.272 3.11003C367.992 3.57003 367.852 4.21336 367.852 5.04003V5.98003C367.852 6.81337 367.992 7.46003 368.272 7.92003C368.552 8.37337 368.992 8.60003 369.592 8.60003ZM369.592 5.97003C369.419 5.97003 369.296 5.93337 369.222 5.86003C369.149 5.7867 369.112 5.6967 369.112 5.59003V5.43003C369.112 5.32336 369.149 5.23336 369.222 5.16003C369.296 5.0867 369.419 5.05003 369.592 5.05003C369.766 5.05003 369.889 5.0867 369.962 5.16003C370.036 5.23336 370.072 5.32336 370.072 5.43003V5.59003C370.072 5.6967 370.036 5.7867 369.962 5.86003C369.889 5.93337 369.766 5.97003 369.592 5.97003Z" fill="#505050" fill-opacity="0.5"/>
<path d="M298.91 9.00003L298.91 7.54003L295.39 7.54003V7.01003L298.64 2.02003L299.48 2.02003V7.05003L300.57 7.05003V7.54003L299.48 7.54003L299.48 9.00003L298.91 9.00003ZM295.93 7.05003L298.91 7.05003V2.53003H298.88L295.93 7.05003ZM306.226 2.54003L303.066 2.54003L302.846 5.47003L302.906 5.48003C303.086 5.23336 303.293 5.05003 303.526 4.93003C303.766 4.80336 304.073 4.74003 304.446 4.74003C304.753 4.74003 305.033 4.79003 305.286 4.89003C305.546 4.98336 305.766 5.12336 305.946 5.31003C306.126 5.49003 306.266 5.71337 306.366 5.98003C306.466 6.24003 306.516 6.5367 306.516 6.87003C306.516 7.21003 306.463 7.52003 306.356 7.80003C306.256 8.07337 306.106 8.31003 305.906 8.51003C305.713 8.70337 305.476 8.85337 305.196 8.96003C304.916 9.0667 304.603 9.12003 304.256 9.12003C303.983 9.12003 303.733 9.09003 303.506 9.03003C303.286 8.9767 303.086 8.90003 302.906 8.80003C302.733 8.69337 302.576 8.57003 302.436 8.43003C302.296 8.29003 302.173 8.14003 302.066 7.98003L302.526 7.64003C302.719 7.94003 302.946 8.1767 303.206 8.35003C303.473 8.5167 303.826 8.60003 304.266 8.60003C304.786 8.60003 305.186 8.45337 305.466 8.16003C305.753 7.8667 305.896 7.48003 305.896 7.00003V6.84003C305.896 6.35337 305.756 5.9667 305.476 5.68003C305.203 5.39336 304.806 5.25003 304.286 5.25003C304.099 5.25003 303.936 5.2667 303.796 5.30003C303.656 5.3267 303.529 5.37003 303.416 5.43003C303.309 5.48336 303.209 5.55003 303.116 5.63003C303.023 5.70337 302.933 5.79003 302.846 5.89003L302.326 5.81003L302.576 2.02003L306.226 2.02003V2.54003ZM310.592 9.12003C309.786 9.12003 309.186 8.82003 308.792 8.22003C308.406 7.61337 308.212 6.71003 308.212 5.51003C308.212 4.31003 308.406 3.41003 308.792 2.81003C309.186 2.20336 309.786 1.90003 310.592 1.90003C311.399 1.90003 311.996 2.20336 312.382 2.81003C312.776 3.41003 312.972 4.31003 312.972 5.51003C312.972 6.71003 312.776 7.61337 312.382 8.22003C311.996 8.82003 311.399 9.12003 310.592 9.12003ZM310.592 8.60003C311.192 8.60003 311.632 8.37337 311.912 7.92003C312.192 7.46003 312.332 6.81337 312.332 5.98003V5.04003C312.332 4.21336 312.192 3.57003 311.912 3.11003C311.632 2.65003 311.192 2.42003 310.592 2.42003C309.992 2.42003 309.552 2.65003 309.272 3.11003C308.992 3.57003 308.852 4.21336 308.852 5.04003V5.98003C308.852 6.81337 308.992 7.46003 309.272 7.92003C309.552 8.37337 309.992 8.60003 310.592 8.60003ZM310.592 5.97003C310.419 5.97003 310.296 5.93337 310.222 5.86003C310.149 5.7867 310.112 5.6967 310.112 5.59003V5.43003C310.112 5.32336 310.149 5.23336 310.222 5.16003C310.296 5.0867 310.419 5.05003 310.592 5.05003C310.766 5.05003 310.889 5.0867 310.962 5.16003C311.036 5.23336 311.072 5.32336 311.072 5.43003V5.59003C311.072 5.6967 311.036 5.7867 310.962 5.86003C310.889 5.93337 310.766 5.97003 310.592 5.97003Z" fill="#505050" fill-opacity="0.5"/>
<path d="M240.93 2.54003L237.77 2.54003L237.55 5.47003L237.61 5.48003C237.79 5.23336 237.997 5.05003 238.23 4.93003C238.47 4.80336 238.777 4.74003 239.15 4.74003C239.457 4.74003 239.737 4.79003 239.99 4.89003C240.25 4.98336 240.47 5.12336 240.65 5.31003C240.83 5.49003 240.97 5.71337 241.07 5.98003C241.17 6.24003 241.22 6.5367 241.22 6.87003C241.22 7.21003 241.167 7.52003 241.06 7.80003C240.96 8.07337 240.81 8.31003 240.61 8.51003C240.417 8.70337 240.18 8.85337 239.9 8.96003C239.62 9.0667 239.307 9.12003 238.96 9.12003C238.687 9.12003 238.437 9.09003 238.21 9.03003C237.99 8.9767 237.79 8.90003 237.61 8.80003C237.437 8.69337 237.28 8.57003 237.14 8.43003C237 8.29003 236.877 8.14003 236.77 7.98003L237.23 7.64003C237.423 7.94003 237.65 8.1767 237.91 8.35003C238.177 8.5167 238.53 8.60003 238.97 8.60003C239.49 8.60003 239.89 8.45337 240.17 8.16003C240.457 7.8667 240.6 7.48003 240.6 7.00003V6.84003C240.6 6.35337 240.46 5.9667 240.18 5.68003C239.907 5.39336 239.51 5.25003 238.99 5.25003C238.803 5.25003 238.64 5.2667 238.5 5.30003C238.36 5.3267 238.233 5.37003 238.12 5.43003C238.013 5.48336 237.913 5.55003 237.82 5.63003C237.727 5.70337 237.637 5.79003 237.55 5.89003L237.03 5.81003L237.28 2.02003L240.93 2.02003V2.54003ZM245.296 9.12003C244.489 9.12003 243.889 8.82003 243.496 8.22003C243.109 7.61337 242.916 6.71003 242.916 5.51003C242.916 4.31003 243.109 3.41003 243.496 2.81003C243.889 2.20336 244.489 1.90003 245.296 1.90003C246.103 1.90003 246.699 2.20336 247.086 2.81003C247.479 3.41003 247.676 4.31003 247.676 5.51003C247.676 6.71003 247.479 7.61337 247.086 8.22003C246.699 8.82003 246.103 9.12003 245.296 9.12003ZM245.296 8.60003C245.896 8.60003 246.336 8.37337 246.616 7.92003C246.896 7.46003 247.036 6.81337 247.036 5.98003V5.04003C247.036 4.21336 246.896 3.57003 246.616 3.11003C246.336 2.65003 245.896 2.42003 245.296 2.42003C244.696 2.42003 244.256 2.65003 243.976 3.11003C243.696 3.57003 243.556 4.21336 243.556 5.04003V5.98003C243.556 6.81337 243.696 7.46003 243.976 7.92003C244.256 8.37337 244.696 8.60003 245.296 8.60003ZM245.296 5.97003C245.123 5.97003 244.999 5.93337 244.926 5.86003C244.853 5.7867 244.816 5.6967 244.816 5.59003V5.43003C244.816 5.32336 244.853 5.23336 244.926 5.16003C244.999 5.0867 245.123 5.05003 245.296 5.05003C245.469 5.05003 245.593 5.0867 245.666 5.16003C245.739 5.23336 245.776 5.32336 245.776 5.43003V5.59003C245.776 5.6967 245.739 5.7867 245.666 5.86003C245.593 5.93337 245.469 5.97003 245.296 5.97003ZM251.592 9.12003C250.786 9.12003 250.186 8.82003 249.792 8.22003C249.406 7.61337 249.212 6.71003 249.212 5.51003C249.212 4.31003 249.406 3.41003 249.792 2.81003C250.186 2.20336 250.786 1.90003 251.592 1.90003C252.399 1.90003 252.996 2.20336 253.382 2.81003C253.776 3.41003 253.972 4.31003 253.972 5.51003C253.972 6.71003 253.776 7.61337 253.382 8.22003C252.996 8.82003 252.399 9.12003 251.592 9.12003ZM251.592 8.60003C252.192 8.60003 252.632 8.37337 252.912 7.92003C253.192 7.46003 253.332 6.81337 253.332 5.98003V5.04003C253.332 4.21336 253.192 3.57003 252.912 3.11003C252.632 2.65003 252.192 2.42003 251.592 2.42003C250.992 2.42003 250.552 2.65003 250.272 3.11003C249.992 3.57003 249.852 4.21336 249.852 5.04003V5.98003C249.852 6.81337 249.992 7.46003 250.272 7.92003C250.552 8.37337 250.992 8.60003 251.592 8.60003ZM251.592 5.97003C251.419 5.97003 251.296 5.93337 251.222 5.86003C251.149 5.7867 251.112 5.6967 251.112 5.59003V5.43003C251.112 5.32336 251.149 5.23336 251.222 5.16003C251.296 5.0867 251.419 5.05003 251.592 5.05003C251.766 5.05003 251.889 5.0867 251.962 5.16003C252.036 5.23336 252.072 5.32336 252.072 5.43003V5.59003C252.072 5.6967 252.036 5.7867 251.962 5.86003C251.889 5.93337 251.766 5.97003 251.592 5.97003Z" fill="#505050" fill-opacity="0.5"/>
<path d="M181.93 2.54003L178.77 2.54003L178.55 5.47003L178.61 5.48003C178.79 5.23336 178.997 5.05003 179.23 4.93003C179.47 4.80336 179.777 4.74003 180.15 4.74003C180.457 4.74003 180.737 4.79003 180.99 4.89003C181.25 4.98336 181.47 5.12336 181.65 5.31003C181.83 5.49003 181.97 5.71337 182.07 5.98003C182.17 6.24003 182.22 6.5367 182.22 6.87003C182.22 7.21003 182.167 7.52003 182.06 7.80003C181.96 8.07337 181.81 8.31003 181.61 8.51003C181.417 8.70337 181.18 8.85337 180.9 8.96003C180.62 9.0667 180.307 9.12003 179.96 9.12003C179.687 9.12003 179.437 9.09003 179.21 9.03003C178.99 8.9767 178.79 8.90003 178.61 8.80003C178.437 8.69337 178.28 8.57003 178.14 8.43003C178 8.29003 177.877 8.14003 177.77 7.98003L178.23 7.64003C178.423 7.94003 178.65 8.1767 178.91 8.35003C179.177 8.5167 179.53 8.60003 179.97 8.60003C180.49 8.60003 180.89 8.45337 181.17 8.16003C181.457 7.8667 181.6 7.48003 181.6 7.00003V6.84003C181.6 6.35337 181.46 5.9667 181.18 5.68003C180.907 5.39336 180.51 5.25003 179.99 5.25003C179.803 5.25003 179.64 5.2667 179.5 5.30003C179.36 5.3267 179.233 5.37003 179.12 5.43003C179.013 5.48336 178.913 5.55003 178.82 5.63003C178.727 5.70337 178.637 5.79003 178.55 5.89003L178.03 5.81003L178.28 2.02003L181.93 2.02003V2.54003ZM188.226 2.54003L185.066 2.54003L184.846 5.47003L184.906 5.48003C185.086 5.23336 185.293 5.05003 185.526 4.93003C185.766 4.80336 186.073 4.74003 186.446 4.74003C186.753 4.74003 187.033 4.79003 187.286 4.89003C187.546 4.98336 187.766 5.12336 187.946 5.31003C188.126 5.49003 188.266 5.71337 188.366 5.98003C188.466 6.24003 188.516 6.5367 188.516 6.87003C188.516 7.21003 188.463 7.52003 188.356 7.80003C188.256 8.07337 188.106 8.31003 187.906 8.51003C187.713 8.70337 187.476 8.85337 187.196 8.96003C186.916 9.0667 186.603 9.12003 186.256 9.12003C185.983 9.12003 185.733 9.09003 185.506 9.03003C185.286 8.9767 185.086 8.90003 184.906 8.80003C184.733 8.69337 184.576 8.57003 184.436 8.43003C184.296 8.29003 184.173 8.14003 184.066 7.98003L184.526 7.64003C184.719 7.94003 184.946 8.1767 185.206 8.35003C185.473 8.5167 185.826 8.60003 186.266 8.60003C186.786 8.60003 187.186 8.45337 187.466 8.16003C187.753 7.8667 187.896 7.48003 187.896 7.00003V6.84003C187.896 6.35337 187.756 5.9667 187.476 5.68003C187.203 5.39336 186.806 5.25003 186.286 5.25003C186.099 5.25003 185.936 5.2667 185.796 5.30003C185.656 5.3267 185.529 5.37003 185.416 5.43003C185.309 5.48336 185.209 5.55003 185.116 5.63003C185.023 5.70337 184.933 5.79003 184.846 5.89003L184.326 5.81003L184.576 2.02003L188.226 2.02003V2.54003ZM192.592 9.12003C191.786 9.12003 191.186 8.82003 190.792 8.22003C190.406 7.61337 190.212 6.71003 190.212 5.51003C190.212 4.31003 190.406 3.41003 190.792 2.81003C191.186 2.20336 191.786 1.90003 192.592 1.90003C193.399 1.90003 193.996 2.20336 194.382 2.81003C194.776 3.41003 194.972 4.31003 194.972 5.51003C194.972 6.71003 194.776 7.61337 194.382 8.22003C193.996 8.82003 193.399 9.12003 192.592 9.12003ZM192.592 8.60003C193.192 8.60003 193.632 8.37337 193.912 7.92003C194.192 7.46003 194.332 6.81337 194.332 5.98003V5.04003C194.332 4.21336 194.192 3.57003 193.912 3.11003C193.632 2.65003 193.192 2.42003 192.592 2.42003C191.992 2.42003 191.552 2.65003 191.272 3.11003C190.992 3.57003 190.852 4.21336 190.852 5.04003V5.98003C190.852 6.81337 190.992 7.46003 191.272 7.92003C191.552 8.37337 191.992 8.60003 192.592 8.60003ZM192.592 5.97003C192.419 5.97003 192.296 5.93337 192.222 5.86003C192.149 5.7867 192.112 5.6967 192.112 5.59003V5.43003C192.112 5.32336 192.149 5.23336 192.222 5.16003C192.296 5.0867 192.419 5.05003 192.592 5.05003C192.766 5.05003 192.889 5.0867 192.962 5.16003C193.036 5.23336 193.072 5.32336 193.072 5.43003V5.59003C193.072 5.6967 193.036 5.7867 192.962 5.86003C192.889 5.93337 192.766 5.97003 192.592 5.97003Z" fill="#505050" fill-opacity="0.5"/>
<path d="M121.01 9.12003C120.637 9.12003 120.307 9.06003 120.02 8.94003C119.74 8.81337 119.503 8.64003 119.31 8.42003C119.117 8.19337 118.97 7.92337 118.87 7.61003C118.777 7.29003 118.73 6.94003 118.73 6.56003C118.73 6.02003 118.803 5.52003 118.95 5.06003C119.103 4.59336 119.3 4.17003 119.54 3.79003C119.787 3.41003 120.067 3.07336 120.38 2.78003C120.693 2.48003 121.013 2.2267 121.34 2.02003L122.12 2.02003C121.727 2.2867 121.377 2.55336 121.07 2.82003C120.77 3.0867 120.507 3.37003 120.28 3.67003C120.053 3.96336 119.863 4.28003 119.71 4.62003C119.563 4.96003 119.447 5.33336 119.36 5.74003L119.4 5.75003C119.573 5.4367 119.803 5.19003 120.09 5.01003C120.377 4.82336 120.733 4.73003 121.16 4.73003C121.473 4.73003 121.757 4.78003 122.01 4.88003C122.27 4.98003 122.493 5.12336 122.68 5.31003C122.867 5.49003 123.01 5.71337 123.11 5.98003C123.21 6.24003 123.26 6.53336 123.26 6.86003C123.26 7.20003 123.207 7.51003 123.1 7.79003C122.993 8.06337 122.843 8.30003 122.65 8.50003C122.457 8.69337 122.22 8.8467 121.94 8.96003C121.66 9.0667 121.35 9.12003 121.01 9.12003ZM121 8.61003C121.52 8.61003 121.923 8.4667 122.21 8.18003C122.503 7.8867 122.65 7.4967 122.65 7.01003V6.83003C122.65 6.34336 122.503 5.9567 122.21 5.67003C121.923 5.3767 121.52 5.23003 121 5.23003C120.473 5.23003 120.063 5.3767 119.77 5.67003C119.483 5.9567 119.34 6.34336 119.34 6.83003V7.01003C119.34 7.4967 119.483 7.8867 119.77 8.18003C120.063 8.4667 120.473 8.61003 121 8.61003ZM127.296 9.12003C126.489 9.12003 125.889 8.82003 125.496 8.22003C125.109 7.61337 124.916 6.71003 124.916 5.51003C124.916 4.31003 125.109 3.41003 125.496 2.81003C125.889 2.20336 126.489 1.90003 127.296 1.90003C128.103 1.90003 128.699 2.20336 129.086 2.81003C129.479 3.41003 129.676 4.31003 129.676 5.51003C129.676 6.71003 129.479 7.61337 129.086 8.22003C128.699 8.82003 128.103 9.12003 127.296 9.12003ZM127.296 8.60003C127.896 8.60003 128.336 8.37337 128.616 7.92003C128.896 7.46003 129.036 6.81337 129.036 5.98003V5.04003C129.036 4.21336 128.896 3.57003 128.616 3.11003C128.336 2.65003 127.896 2.42003 127.296 2.42003C126.696 2.42003 126.256 2.65003 125.976 3.11003C125.696 3.57003 125.556 4.21336 125.556 5.04003L125.556 5.98003C125.556 6.81337 125.696 7.46003 125.976 7.92003C126.256 8.37337 126.696 8.60003 127.296 8.60003ZM127.296 5.97003C127.123 5.97003 126.999 5.93337 126.926 5.86003C126.853 5.7867 126.816 5.6967 126.816 5.59003V5.43003C126.816 5.32336 126.853 5.23336 126.926 5.16003C126.999 5.0867 127.123 5.05003 127.296 5.05003C127.469 5.05003 127.593 5.0867 127.666 5.16003C127.739 5.23336 127.776 5.32336 127.776 5.43003V5.59003C127.776 5.6967 127.739 5.7867 127.666 5.86003C127.593 5.93337 127.469 5.97003 127.296 5.97003ZM133.592 9.12003C132.786 9.12003 132.186 8.82003 131.792 8.22003C131.406 7.61337 131.212 6.71003 131.212 5.51003C131.212 4.31003 131.406 3.41003 131.792 2.81003C132.186 2.20336 132.786 1.90003 133.592 1.90003C134.399 1.90003 134.996 2.20336 135.382 2.81003C135.776 3.41003 135.972 4.31003 135.972 5.51003C135.972 6.71003 135.776 7.61337 135.382 8.22003C134.996 8.82003 134.399 9.12003 133.592 9.12003ZM133.592 8.60003C134.192 8.60003 134.632 8.37337 134.912 7.92003C135.192 7.46003 135.332 6.81337 135.332 5.98003V5.04003C135.332 4.21336 135.192 3.57003 134.912 3.11003C134.632 2.65003 134.192 2.42003 133.592 2.42003C132.992 2.42003 132.552 2.65003 132.272 3.11003C131.992 3.57003 131.852 4.21336 131.852 5.04003V5.98003C131.852 6.81337 131.992 7.46003 132.272 7.92003C132.552 8.37337 132.992 8.60003 133.592 8.60003ZM133.592 5.97003C133.419 5.97003 133.296 5.93337 133.222 5.86003C133.149 5.7867 133.112 5.6967 133.112 5.59003V5.43003C133.112 5.32336 133.149 5.23336 133.222 5.16003C133.296 5.0867 133.419 5.05003 133.592 5.05003C133.766 5.05003 133.889 5.0867 133.962 5.16003C134.036 5.23336 134.072 5.32336 134.072 5.43003V5.59003C134.072 5.6967 134.036 5.7867 133.962 5.86003C133.889 5.93337 133.766 5.97003 133.592 5.97003Z" fill="#505050" fill-opacity="0.5"/>
<path d="M62.01 9.12003C61.6367 9.12003 61.3067 9.06003 61.02 8.94003C60.74 8.81337 60.5033 8.64003 60.31 8.42003C60.1167 8.19337 59.97 7.92337 59.87 7.61003C59.7767 7.29003 59.73 6.94003 59.73 6.56003C59.73 6.02003 59.8033 5.52003 59.95 5.06003C60.1033 4.59336 60.3 4.17003 60.54 3.79003C60.7867 3.41003 61.0667 3.07336 61.38 2.78003C61.6933 2.48003 62.0133 2.2267 62.34 2.02003L63.12 2.02003C62.7267 2.2867 62.3767 2.55336 62.07 2.82003C61.77 3.0867 61.5067 3.37003 61.28 3.67003C61.0533 3.96336 60.8633 4.28003 60.71 4.62003C60.5633 4.96003 60.4467 5.33336 60.36 5.74003L60.4 5.75003C60.5733 5.4367 60.8033 5.19003 61.09 5.01003C61.3767 4.82336 61.7333 4.73003 62.16 4.73003C62.4733 4.73003 62.7567 4.78003 63.01 4.88003C63.27 4.98003 63.4933 5.12336 63.68 5.31003C63.8667 5.49003 64.01 5.71337 64.11 5.98003C64.21 6.24003 64.26 6.53336 64.26 6.86003C64.26 7.20003 64.2067 7.51003 64.1 7.79003C63.9933 8.06337 63.8433 8.30003 63.65 8.50003C63.4567 8.69337 63.22 8.8467 62.94 8.96003C62.66 9.0667 62.35 9.12003 62.01 9.12003ZM62 8.61003C62.52 8.61003 62.9233 8.4667 63.21 8.18003C63.5033 7.8867 63.65 7.4967 63.65 7.01003L63.65 6.83003C63.65 6.34336 63.5033 5.9567 63.21 5.67003C62.9233 5.3767 62.52 5.23003 62 5.23003C61.4733 5.23003 61.0633 5.3767 60.77 5.67003C60.4833 5.9567 60.34 6.34336 60.34 6.83003L60.34 7.01003C60.34 7.4967 60.4833 7.8867 60.77 8.18003C61.0633 8.4667 61.4733 8.61003 62 8.61003ZM70.2261 2.54003L67.0661 2.54003L66.8461 5.47003L66.9061 5.48003C67.0861 5.23336 67.2928 5.05003 67.5261 4.93003C67.7661 4.80336 68.0728 4.74003 68.4461 4.74003C68.7528 4.74003 69.0328 4.79003 69.2861 4.89003C69.5461 4.98336 69.7661 5.12336 69.9461 5.31003C70.1261 5.49003 70.2661 5.71337 70.3661 5.98003C70.4661 6.24003 70.5161 6.5367 70.5161 6.87003C70.5161 7.21003 70.4628 7.52003 70.3561 7.80003C70.2561 8.07337 70.1061 8.31003 69.9061 8.51003C69.7128 8.70337 69.4761 8.85337 69.1961 8.96003C68.9161 9.0667 68.6028 9.12003 68.2561 9.12003C67.9828 9.12003 67.7328 9.09003 67.5061 9.03003C67.2861 8.9767 67.0861 8.90003 66.9061 8.80003C66.7328 8.69337 66.5761 8.57003 66.4361 8.43003C66.2961 8.29003 66.1728 8.14003 66.0661 7.98003L66.5261 7.64003C66.7194 7.94003 66.9461 8.1767 67.2061 8.35003C67.4728 8.5167 67.8261 8.60003 68.2661 8.60003C68.7861 8.60003 69.1861 8.45337 69.4661 8.16003C69.7528 7.8667 69.8961 7.48003 69.8961 7.00003V6.84003C69.8961 6.35337 69.7561 5.9667 69.4761 5.68003C69.2028 5.39336 68.8061 5.25003 68.2861 5.25003C68.0994 5.25003 67.9361 5.2667 67.7961 5.30003C67.6561 5.3267 67.5294 5.37003 67.4161 5.43003C67.3094 5.48336 67.2094 5.55003 67.1161 5.63003C67.0228 5.70337 66.9328 5.79003 66.8461 5.89003L66.3261 5.81003L66.5761 2.02003L70.2261 2.02003L70.2261 2.54003ZM74.5922 9.12003C73.7855 9.12003 73.1855 8.82003 72.7922 8.22003C72.4055 7.61337 72.2122 6.71003 72.2122 5.51003C72.2122 4.31003 72.4055 3.41003 72.7922 2.81003C73.1855 2.20336 73.7855 1.90003 74.5922 1.90003C75.3989 1.90003 75.9955 2.20336 76.3822 2.81003C76.7755 3.41003 76.9722 4.31003 76.9722 5.51003C76.9722 6.71003 76.7755 7.61337 76.3822 8.22003C75.9955 8.82003 75.3989 9.12003 74.5922 9.12003ZM74.5922 8.60003C75.1922 8.60003 75.6322 8.37337 75.9122 7.92003C76.1922 7.46003 76.3322 6.81337 76.3322 5.98003L76.3322 5.04003C76.3322 4.21336 76.1922 3.57003 75.9122 3.11003C75.6322 2.65003 75.1922 2.42003 74.5922 2.42003C73.9922 2.42003 73.5522 2.65003 73.2722 3.11003C72.9922 3.57003 72.8522 4.21336 72.8522 5.04003L72.8522 5.98003C72.8522 6.81337 72.9922 7.46003 73.2722 7.92003C73.5522 8.37337 73.9922 8.60003 74.5922 8.60003ZM74.5922 5.97003C74.4189 5.97003 74.2955 5.93337 74.2222 5.86003C74.1489 5.7867 74.1122 5.6967 74.1122 5.59003V5.43003C74.1122 5.32336 74.1489 5.23336 74.2222 5.16003C74.2955 5.0867 74.4189 5.05003 74.5922 5.05003C74.7655 5.05003 74.8889 5.0867 74.9622 5.16003C75.0355 5.23336 75.0722 5.32336 75.0722 5.43003L75.0722 5.59003C75.0722 5.6967 75.0355 5.7867 74.9622 5.86003C74.8889 5.93337 74.7655 5.97003 74.5922 5.97003Z" fill="#505050" fill-opacity="0.5"/>
<path d="M1.78 9.00003L4.63 2.54003L1.24 2.54003L1.24 3.98003L0.7 3.98003L0.7 2.02003L5.24 2.02003L5.24 2.55003L2.43 9.00003L1.78 9.00003ZM9.29609 9.12003C8.48943 9.12003 7.88943 8.82003 7.49609 8.22003C7.10943 7.61337 6.91609 6.71003 6.91609 5.51003C6.91609 4.31003 7.10943 3.41003 7.49609 2.81003C7.88943 2.20336 8.48943 1.90003 9.29609 1.90003C10.1028 1.90003 10.6994 2.20336 11.0861 2.81003C11.4794 3.41003 11.6761 4.31003 11.6761 5.51003C11.6761 6.71003 11.4794 7.61337 11.0861 8.22003C10.6994 8.82003 10.1028 9.12003 9.29609 9.12003ZM9.29609 8.60003C9.89609 8.60003 10.3361 8.37337 10.6161 7.92003C10.8961 7.46003 11.0361 6.81337 11.0361 5.98003L11.0361 5.04003C11.0361 4.21336 10.8961 3.57003 10.6161 3.11003C10.3361 2.65003 9.89609 2.42003 9.29609 2.42003C8.69609 2.42003 8.25609 2.65003 7.97609 3.11003C7.69609 3.57003 7.55609 4.21336 7.55609 5.04003L7.55609 5.98003C7.55609 6.81337 7.69609 7.46003 7.97609 7.92003C8.25609 8.37337 8.69609 8.60003 9.29609 8.60003ZM9.29609 5.97003C9.12276 5.97003 8.99943 5.93337 8.92609 5.86003C8.85276 5.7867 8.81609 5.6967 8.81609 5.59003V5.43003C8.81609 5.32336 8.85276 5.23336 8.92609 5.16003C8.99943 5.0867 9.12276 5.05003 9.29609 5.05003C9.46943 5.05003 9.59276 5.0867 9.66609 5.16003C9.73943 5.23336 9.77609 5.32336 9.77609 5.43003V5.59003C9.77609 5.6967 9.73943 5.7867 9.66609 5.86003C9.59276 5.93337 9.46943 5.97003 9.29609 5.97003ZM15.5922 9.12003C14.7855 9.12003 14.1855 8.82003 13.7922 8.22003C13.4055 7.61337 13.2122 6.71003 13.2122 5.51003C13.2122 4.31003 13.4055 3.41003 13.7922 2.81003C14.1855 2.20336 14.7855 1.90003 15.5922 1.90003C16.3989 1.90003 16.9955 2.20336 17.3822 2.81003C17.7755 3.41003 17.9722 4.31003 17.9722 5.51003C17.9722 6.71003 17.7755 7.61337 17.3822 8.22003C16.9955 8.82003 16.3989 9.12003 15.5922 9.12003ZM15.5922 8.60003C16.1922 8.60003 16.6322 8.37337 16.9122 7.92003C17.1922 7.46003 17.3322 6.81337 17.3322 5.98003L17.3322 5.04003C17.3322 4.21336 17.1922 3.57003 16.9122 3.11003C16.6322 2.65003 16.1922 2.42003 15.5922 2.42003C14.9922 2.42003 14.5522 2.65003 14.2722 3.11003C13.9922 3.57003 13.8522 4.21336 13.8522 5.04003L13.8522 5.98003C13.8522 6.81337 13.9922 7.46003 14.2722 7.92003C14.5522 8.37337 14.9922 8.60003 15.5922 8.60003ZM15.5922 5.97003C15.4189 5.97003 15.2955 5.93337 15.2222 5.86003C15.1489 5.7867 15.1122 5.6967 15.1122 5.59003V5.43003C15.1122 5.32336 15.1489 5.23336 15.2222 5.16003C15.2955 5.0867 15.4189 5.05003 15.5922 5.05003C15.7655 5.05003 15.8889 5.0867 15.9622 5.16003C16.0355 5.23336 16.0722 5.32336 16.0722 5.43003L16.0722 5.59003C16.0722 5.6967 16.0355 5.7867 15.9622 5.86003C15.8889 5.93337 15.7655 5.97003 15.5922 5.97003Z" fill="#505050" fill-opacity="0.5"/>
</svg>
