<svg width="411" height="236" viewBox="0 0 411 236" fill="none" xmlns="http://www.w3.org/2000/svg">
<path d="M60.1386 69.5634C55.7442 69.1794 46.9554 66.1068 46.9554 56.889C46.9554 47.6713 54.6369 48.4394 58.4776 49.9757C62.9595 51.198 69.9995 44.4868 74.9688 38.7257C83.0343 31.5402 106.563 38.1822 112.992 34.1103C128.331 24.3952 113.856 -3.44987 86.4909 3.00255C81.618 4.53851 72.6643 8.76814 70.3599 17.9849C49.6199 4.15826 10.214 41.951 36.9455 87.118C31.9585 91.3428 23.9414 102.558 31.7694 113.619C43.4924 109.244 54.1521 107.95 56.1729 106.435C59.86 103.669 60.353 80.7016 60.1386 69.5634Z" fill="black"/>
<path d="M56.1729 106.435C54.1521 107.95 43.4924 109.244 31.7694 113.619C19.8889 118.053 -0.245121 180.443 1.22682 204.64L43.8589 186.204C50.6531 187.803 60.3913 185.705 70.3606 182.127C61.4314 178.864 65.1038 165.819 68.0561 159.703C80.961 159.703 95.7094 144.34 101.47 136.659L104.566 135.187C99.0358 116.043 117.097 125.012 126.819 135.187C134.336 142.568 138.959 162.835 107.721 190.75C122.081 179.249 136.759 169.721 147.482 162.274C152.948 158.478 157.387 155.223 160.233 152.523C122.439 105.299 103.775 109.006 88.4353 109.891C68.1562 128.11 58.4774 115.178 56.1729 106.435Z" fill="black"/>
<path d="M27.7276 223.075H58.8376C62.4668 198.708 79.8599 214.711 99.4702 197.632C96.5401 199.924 93.3713 202.261 89.9477 204.64C65.1195 221.892 43.4416 225.69 27.7276 223.359V223.075Z" fill="black"/>
<path d="M99.4702 197.632C79.8599 214.711 62.4668 198.708 58.8376 223.075H123.286C117.78 208.29 125.165 217.23 134.124 193.311C138.664 181.191 143.607 170.101 147.482 162.274C136.759 169.721 122.081 179.249 107.721 190.75C105.209 192.996 102.464 195.291 99.4702 197.632Z" fill="black"/>
<path d="M168.222 177.18C157.894 171.65 150.092 164.938 147.482 162.274C143.607 170.101 138.664 181.191 134.124 193.311L168.222 177.18Z" fill="black"/>
<path fill-rule="evenodd" clip-rule="evenodd" d="M114.377 34.5677C118.021 31.9637 119.939 28.3058 120.319 24.3537C120.722 20.163 119.393 15.7059 116.703 11.8356C111.302 4.0653 100.356 -1.45042 86.2282 1.88076L86.1869 1.89052L86.1463 1.9033C81.4568 3.38144 72.6736 7.41681 69.68 16.2228C64.3904 13.3042 58.1834 13.3068 52.23 15.522C45.7822 17.9212 39.5661 22.9289 34.9003 29.7799C25.6529 43.3584 22.4437 64.2386 35.4762 86.8829C32.9899 89.187 30.0409 92.9217 28.466 97.4241C26.8261 102.112 26.6774 107.653 30.097 113.178C28.7329 114.033 27.3863 115.412 26.0761 117.105C24.3326 119.359 22.5409 122.321 20.7559 125.78C17.1837 132.702 13.5774 141.734 10.3986 151.357C7.2184 160.984 4.45576 171.235 2.57939 180.607C0.707147 189.958 -0.298619 198.51 0.0784896 204.71C0.332083 208.876 3.19067 213.23 7.87943 216.793C12.5991 220.379 19.2998 223.272 27.5603 224.498C33.4471 225.371 40.129 225.399 47.465 224.227H160.235V221.923H124.092C122.921 218.686 122.504 216.855 122.55 215.592C122.593 214.384 123.06 213.622 124.149 212.377C124.363 212.133 124.597 211.874 124.851 211.593C125.904 210.43 127.287 208.903 128.833 206.619C130.71 203.846 132.832 199.962 135.04 194.153L168.21 178.461C170.984 179.753 173.896 179.63 176.71 178.634C179.675 177.584 182.578 175.555 185.25 173.119C190.589 168.252 195.247 161.536 197.917 156.832C200.845 152.045 205.171 144.347 208.657 136.764C210.401 132.968 211.945 129.179 212.997 125.785C213.838 123.07 214.393 120.519 214.439 118.388C216.33 118.498 217.825 118.004 218.947 117.205C220.223 116.296 220.934 115.051 221.221 114.072C222.959 111.127 225.63 106.464 228.107 101.864C230.606 97.2229 232.957 92.5554 233.914 89.7952C234.966 86.7616 234.312 84.2837 233.014 82.4667C231.807 80.7763 230.078 79.6977 228.777 79.1813C227.087 77.9352 222.876 75.2099 218.274 73.3691C215.699 72.3388 213.545 72.5209 211.894 73.2757C210.286 74.0112 209.239 75.2506 208.75 76.228L208.735 76.2583L205.622 83.5231C203.156 83.2992 201.065 84.6168 199.408 86.5086C197.544 88.6362 196.045 91.6714 194.875 94.7822C193.698 97.9128 192.819 101.214 192.234 103.948C191.713 106.383 191.408 108.449 191.353 109.562C187.335 116.38 180.998 126.539 174.854 135.183C171.741 139.562 168.696 143.527 166.038 146.468C164.708 147.939 163.496 149.131 162.437 149.985C161.711 150.571 161.109 150.955 160.632 151.177C141.932 127.93 127.826 117.036 116.371 112.108C105.874 107.591 97.6863 108.131 90.5749 108.601C90.244 108.623 89.9155 108.645 89.5892 108.666V98.5425C93.7545 98.1124 97.3279 95.4232 100.305 91.8348C103.567 87.9044 106.267 82.7165 108.415 77.6036C110.567 72.4782 112.19 67.3634 113.274 63.5359C113.816 61.6205 114.225 60.0234 114.499 58.9035C114.635 58.3435 114.738 57.9026 114.807 57.6005C114.842 57.4495 114.868 57.3332 114.885 57.2541L114.905 57.1636L114.912 57.1334C114.912 57.1329 114.912 57.1307 113.786 56.8887L114.912 57.1307L114.919 57.099L114.924 57.067L113.786 56.8887C114.924 57.067 114.924 57.0673 114.924 57.067L114.926 57.0537L114.931 57.0193L114.951 56.889C114.968 56.7755 114.991 56.6095 115.02 56.3963C115.079 55.9699 115.158 55.3543 115.243 54.5913C115.412 53.0663 115.606 50.9472 115.702 48.5704C115.879 44.1802 115.731 38.7448 114.377 34.5677ZM112.652 56.6787L112.653 56.6732L112.671 56.554C112.687 56.448 112.709 56.29 112.737 56.0852C112.793 55.6754 112.87 55.0786 112.952 54.3362C113.118 52.8505 113.307 50.7872 113.4 48.4775C113.569 44.2768 113.414 39.4151 112.321 35.718C111.622 35.9845 110.852 36.1768 110.043 36.3178C108.687 36.5541 107.143 36.6589 105.497 36.6905C103.109 36.7364 100.411 36.6285 97.6512 36.5181C96.6242 36.477 95.5887 36.4356 94.5578 36.4017C90.7165 36.2752 86.8997 36.2497 83.5601 36.6879C80.2323 37.1245 77.5499 38.0019 75.7915 39.5376C73.2951 42.4268 70.2539 45.5855 67.2413 47.8851C65.7254 49.0421 64.1769 50.0127 62.6761 50.6132C61.6385 51.0283 60.5718 51.287 59.5292 51.2728C59.21 55.999 59.5345 62.5686 61.2564 69.2766C63.9367 79.7183 69.9396 90.2939 81.9436 94.9911C84.2663 95.9 86.4265 96.3023 88.4347 96.2983C92.0947 96.2912 95.4668 94.0573 98.5319 90.3633C101.584 86.6853 104.18 81.7347 106.29 76.7113C108.394 71.7003 109.988 66.6807 111.057 62.9079C111.591 61.0232 111.992 59.4537 112.26 58.357C112.394 57.8087 112.494 57.3789 112.561 57.0872C112.594 56.9414 112.619 56.8301 112.635 56.7558L112.652 56.6787ZM58.8392 48.8786C59.6172 49.0729 60.6065 48.9592 61.8201 48.4736C63.0551 47.9795 64.4175 47.1413 65.8431 46.0533C68.6924 43.8783 71.6348 40.8286 74.098 37.9728L74.1475 37.9154L74.204 37.8651C76.4796 35.8378 79.7417 34.8647 83.2603 34.403C86.8015 33.9384 90.781 33.9716 94.6336 34.0985C95.7081 34.1339 96.7702 34.1763 97.8119 34.218C100.545 34.3273 103.138 34.431 105.452 34.3865C107.042 34.356 108.454 34.2554 109.647 34.0476C110.85 33.8379 111.754 33.5312 112.377 33.1366C115.903 30.9032 117.686 27.6643 118.025 24.1332C118.368 20.5722 117.243 16.6497 114.811 13.1509C109.973 6.19031 100.015 1.01328 86.7986 4.11392C81.9911 5.63717 73.6218 9.69558 71.4794 18.264L71.0829 19.8502L69.7225 18.9433C64.9119 15.7362 58.9635 15.4753 53.0337 17.6818C47.0952 19.8915 41.2417 24.5624 36.805 31.0771C27.9591 44.066 24.7961 64.3241 37.9388 86.5308L38.4343 87.368L37.6921 87.9968C35.3174 90.0085 32.2079 93.7062 30.6412 98.185C29.1649 102.405 29.0574 107.296 32.221 112.226C37.8379 110.19 43.1601 108.845 47.3404 107.834C47.7984 107.724 48.2415 107.617 48.6689 107.514C50.3024 107.122 51.7079 106.784 52.8525 106.47C53.5723 106.272 54.1632 106.091 54.6248 105.919C55.1053 105.74 55.3666 105.6 55.4833 105.512C55.6825 105.363 55.9967 104.949 56.3427 104.085C56.6734 103.258 56.9778 102.164 57.2516 100.84C57.7982 98.1948 58.1943 94.7734 58.4715 91.0529C58.9931 84.0532 59.0854 76.1174 59.0052 70.5841C56.7299 70.2299 53.7733 69.298 51.2297 67.4751C48.235 65.3288 45.8049 61.9306 45.8049 56.8887C45.8049 54.4296 46.3172 52.5129 47.2513 51.0758C48.1945 49.6247 49.5076 48.756 50.9268 48.3019C53.6602 47.4272 56.7997 48.0759 58.8392 48.8786ZM61.3229 76.7986C61.2805 81.3532 61.1221 86.4936 60.7696 91.2241C60.4895 94.9835 60.0844 98.5186 59.5083 101.306C59.2206 102.698 58.8833 103.938 58.4822 104.941C58.2133 105.613 57.8851 106.258 57.4663 106.771C58.6839 110.837 61.4713 115.437 65.9847 117.2C70.5682 118.991 77.4801 118.049 87.2848 109.375V98.5666C85.3073 98.4396 83.2465 97.9755 81.1039 97.1371C70.9128 93.1493 64.8149 85.2557 61.3229 76.7986ZM88.9054 111.017C78.7798 120.008 70.9312 121.607 65.146 119.347C59.9604 117.32 56.8854 112.352 55.4598 108.067C55.4494 108.071 55.439 108.075 55.4286 108.079C54.8746 108.285 54.2096 108.487 53.4628 108.692C52.2788 109.017 50.8246 109.367 49.1857 109.76C48.7629 109.862 48.3279 109.966 47.882 110.074C43.5075 111.132 37.9676 112.536 32.174 114.698C31.002 115.136 29.5523 116.378 27.8987 118.515C26.2729 120.617 24.554 123.445 22.8037 126.837C19.3053 133.616 15.7426 142.526 12.5868 152.079C9.43242 161.628 6.69502 171.789 4.83898 181.059C3.14662 189.512 2.20016 197.161 2.31342 202.915L43.7534 184.995L44.1246 185.083C47.3108 185.832 51.2722 185.73 55.7273 184.971C59.4262 184.34 63.4136 183.266 67.4993 181.9C66.2987 181.014 65.4077 179.892 64.7841 178.611C63.8075 176.605 63.5134 174.269 63.6032 171.94C63.7824 167.293 65.5039 162.343 67.0203 159.202L67.3347 158.551H68.0579C74.1026 158.551 80.7534 154.923 86.7256 150.161C92.657 145.431 97.7181 139.744 100.55 135.967L100.721 135.74L103.201 134.561C102.667 132.518 102.401 130.767 102.385 129.285C102.368 127.584 102.679 126.161 103.37 125.065C104.838 122.738 107.553 122.473 110.225 123.067C112.941 123.672 116.073 125.233 119.101 127.242C122.141 129.258 125.153 131.776 127.641 134.377C131.685 138.358 134.811 145.662 132.937 155.484C131.596 162.509 127.708 170.785 119.837 180.077C126.711 175.072 133.358 170.54 139.282 166.501C141.96 164.675 144.49 162.95 146.827 161.327C151.812 157.866 155.881 154.895 158.662 152.405C140.158 129.442 126.387 118.926 115.46 114.224C105.489 109.934 97.8075 110.437 90.7181 110.902C90.1099 110.942 89.506 110.981 88.9054 111.017ZM160.804 153.569C158.094 156.097 154.097 159.058 149.286 162.422C152.506 165.45 159.634 171.273 168.768 176.164C171.001 177.36 173.408 177.358 175.941 176.461C178.503 175.555 181.143 173.746 183.697 171.417C188.804 166.761 193.327 160.255 195.922 155.678L195.931 155.661L195.941 155.645C198.835 150.917 203.12 143.291 206.563 135.801C208.284 132.055 209.785 128.366 210.795 125.103C211.718 122.126 212.197 119.614 212.132 117.769L199.885 110.831L199.79 110.746C199.03 110.058 198.796 108.811 199.058 107.373C199.329 105.877 200.165 103.918 201.927 101.427L201.956 101.386L201.988 101.348C204.064 98.8949 206.672 95.1576 207.862 91.8783C208.463 90.2231 208.637 88.8601 208.376 87.8839C208.149 87.034 207.548 86.3033 206.044 85.9265C204.332 85.4976 202.725 86.2189 201.142 88.027C199.548 89.8457 198.167 92.5772 197.032 95.5935C195.905 98.5898 195.055 101.776 194.488 104.43C193.913 107.117 193.649 109.158 193.649 109.891V110.205L193.49 110.475C189.459 117.33 183.004 127.695 176.732 136.518C173.598 140.927 170.493 144.975 167.747 148.013C166.376 149.531 165.073 150.819 163.885 151.778C162.847 152.616 161.801 153.283 160.804 153.569ZM213.64 115.975C215.567 116.321 216.816 115.893 217.61 115.328C218.466 114.718 218.9 113.871 219.033 113.339L219.074 113.177L219.159 113.033C220.881 110.117 223.581 105.41 226.078 100.772C228.591 96.1044 230.85 91.5972 231.737 89.0403C232.528 86.7568 232.03 85.0543 231.139 83.806C230.207 82.5012 228.803 81.6477 227.815 81.2799L227.658 81.2218L227.525 81.1218C226.048 80.0137 221.911 77.3057 217.418 75.5087C215.385 74.6954 213.89 74.8974 212.852 75.3716C211.79 75.8572 211.113 76.6728 210.825 77.2312L207.869 84.1297C209.312 84.7937 210.226 85.8805 210.602 87.2894C211.045 88.9471 210.686 90.8536 210.029 92.6644C208.71 96.2984 205.924 100.257 203.78 102.798C202.152 105.107 201.515 106.74 201.325 107.785C201.189 108.532 201.29 108.885 201.338 109.005L213.64 115.975ZM144.545 165.698C143.251 166.584 141.914 167.496 140.539 168.433C130.983 174.949 119.635 182.687 108.467 191.63C105.948 193.881 103.2 196.179 100.206 198.521C98.7311 199.803 97.2668 200.905 95.8187 201.854C94.1499 203.087 92.4134 204.331 90.6069 205.586C79.8899 213.033 69.7333 218.007 60.3616 221.073C60.3046 221.349 60.2497 221.633 60.1969 221.923H121.646C120.658 219.092 120.189 217.104 120.247 215.509C120.319 213.488 121.226 212.218 122.415 210.859C122.654 210.586 122.907 210.306 123.174 210.012C124.222 208.853 125.478 207.463 126.924 205.327C128.732 202.657 130.834 198.814 133.047 192.907C136.886 182.658 141.013 173.142 144.545 165.698ZM57.8569 221.923C57.8611 221.898 57.8653 221.874 57.8696 221.849C57.7861 221.874 57.7027 221.898 57.6194 221.923H57.8569ZM47.2786 221.923C50.8271 221.347 54.5418 220.481 58.406 219.278C59.4399 215.113 61.0388 212.293 63.1926 210.363C65.904 207.933 69.3223 207.078 72.9777 206.483C73.9216 206.329 74.8904 206.191 75.8822 206.05C81.4602 205.257 87.7674 204.359 94.4731 199.983C95.9488 198.893 97.3699 197.813 98.7383 196.743C101.454 194.379 104.211 192.087 106.978 189.87C122.469 176.021 128.928 164.192 130.673 155.052C132.415 145.927 129.479 139.412 126.013 136.009L126 135.996L125.987 135.982C123.617 133.501 120.731 131.088 117.827 129.162C114.908 127.226 112.048 125.834 109.724 125.317C107.357 124.79 105.986 125.236 105.319 126.294C104.943 126.89 104.675 127.828 104.69 129.261C104.705 130.689 105.001 132.534 105.675 134.867C107.039 139.587 108.452 143.013 109.629 145.714C109.807 146.124 109.983 146.521 110.153 146.907C111.082 149.013 111.861 150.778 112.223 152.4C112.679 154.445 112.494 156.303 111.386 158.487C110.319 160.591 108.39 163.005 105.417 166.243L105.309 166.361L105.173 166.445C97.3636 171.259 83.8721 178.501 70.7516 183.211C65.7273 185.014 60.7321 186.456 56.1144 187.242C51.6691 188 47.5034 188.164 43.9742 187.41L2.46665 205.36C2.9578 208.416 5.22539 211.882 9.27363 214.958C13.3985 218.092 19.2639 220.73 26.5772 222.005V221.923H47.2786ZM84.6774 206.769C81.6395 207.568 78.7778 207.972 76.169 208.34C75.1918 208.478 74.25 208.611 73.3478 208.757C69.7499 209.343 66.9138 210.123 64.7305 212.079C63.2393 213.416 61.9703 215.379 61.0348 218.416C68.4367 215.863 76.355 212.081 84.6774 206.769ZM147.819 164.205C144.37 171.288 140.183 180.719 136.217 191.047L165.695 177.102C157.433 172.421 150.988 167.167 147.819 164.205ZM103.847 136.805L102.222 137.578C99.2647 141.48 94.1539 147.184 88.1624 151.962C82.3118 156.628 75.4319 160.563 68.7979 160.84C67.4477 163.813 66.0575 168.098 65.9059 172.029C65.8248 174.133 66.1022 176.053 66.8561 177.602C67.5446 179.016 68.6521 180.17 70.3787 180.895C83.1031 176.28 96.1703 169.275 103.827 164.567C106.729 161.399 108.431 159.218 109.331 157.445C110.201 155.729 110.311 154.416 109.973 152.902C109.665 151.52 108.998 150.005 108.065 147.885C107.891 147.49 107.708 147.074 107.516 146.634C106.427 144.136 105.127 140.997 103.847 136.805ZM58.6209 68.1737C56.7568 67.791 54.5072 66.9889 52.5721 65.602C50.0737 63.8115 48.1094 61.0645 48.1094 56.8887C48.1094 54.7389 48.5573 53.295 49.1835 52.3317C49.8006 51.3822 50.648 50.8107 51.6292 50.4967C53.3822 49.9357 55.5389 50.2123 57.2556 50.7601C56.9092 55.3495 57.1487 61.6348 58.6209 68.1737Z" fill="black"/>
<path d="M60.1386 69.5634C58.2315 62.1336 58.0038 54.8724 58.4776 49.9757C54.6369 48.4394 46.9554 47.6713 46.9554 56.889C46.9554 66.1068 55.7442 69.1794 60.1386 69.5634Z" fill="white"/>
<path d="M113.784 56.889C113.784 56.889 116.089 42.1759 112.992 34.1103C106.563 38.1822 83.0343 31.5402 74.9688 38.7257C69.9995 44.4868 62.9595 51.198 58.4776 49.9757C58.0038 54.8724 58.2315 62.1336 60.1386 69.5634C62.8688 80.1992 69.0404 91.1804 81.522 96.0645C83.9649 97.0204 86.268 97.4551 88.4353 97.4509C105.077 97.4184 113.784 56.889 113.784 56.889Z" fill="white"/>
<path d="M81.522 96.0645C69.0404 91.1804 62.8688 80.1992 60.1386 69.5634C60.353 80.7016 59.86 103.669 56.1729 106.435C58.4774 115.178 68.1562 128.11 88.4353 109.891V97.4509C86.268 97.4551 83.9649 97.0204 81.522 96.0645Z" fill="white"/>
<path d="M126.819 135.187C117.097 125.012 99.0358 116.043 104.566 135.187C110.097 154.331 116.449 152.523 104.566 165.464C96.8027 170.251 83.3844 177.452 70.3606 182.127C60.3913 185.705 50.6531 187.803 43.8589 186.204L1.22682 204.64C1.67757 212.046 11.537 220.956 27.7276 223.359C43.4416 225.69 65.1195 221.892 89.9477 204.64C93.3713 202.261 99.4702 197.632 99.4702 197.632C99.4702 197.632 104.949 192.971 107.721 190.75C138.959 162.835 134.336 142.568 126.819 135.187Z" fill="white"/>
<path d="M206.322 84.8092C197.105 82.5003 192.495 106.435 192.495 109.891C184.455 123.564 166.746 151.233 160.233 152.523C157.387 155.223 152.948 158.478 147.482 162.274C150.092 164.938 157.894 171.65 168.222 177.18C178.551 182.711 191.659 165.529 196.922 156.247C202.744 146.734 214.158 125.581 213.236 117.071L200.561 109.891C199.908 109.301 199.455 106.915 202.866 102.092C207.091 97.101 213.697 86.6562 206.322 84.8092Z" fill="white"/>
<path d="M104.566 165.464C116.449 152.523 110.097 154.331 104.566 135.187L101.47 136.659C95.7094 144.34 80.961 159.703 68.0561 159.703C65.1038 165.819 61.4314 178.864 70.3606 182.127C83.3844 177.452 96.8027 170.251 104.566 165.464Z" fill="white"/>
<path fill-rule="evenodd" clip-rule="evenodd" d="M114.377 34.5677C118.021 31.9637 119.939 28.3058 120.319 24.3537C120.722 20.163 119.393 15.7059 116.703 11.8356C111.302 4.0653 100.356 -1.45042 86.2282 1.88076L86.1869 1.89052L86.1463 1.9033C81.4568 3.38144 72.6736 7.41681 69.68 16.2228C64.3904 13.3042 58.1834 13.3068 52.23 15.522C45.7822 17.9212 39.5661 22.9289 34.9003 29.7799C25.6529 43.3584 22.4437 64.2386 35.4762 86.8829C32.9899 89.187 30.0409 92.9217 28.466 97.4241C26.8261 102.112 26.6774 107.653 30.097 113.178C28.7329 114.033 27.3863 115.412 26.0761 117.105C24.3326 119.359 22.5409 122.321 20.7559 125.78C17.1837 132.702 13.5774 141.734 10.3986 151.357C7.2184 160.984 4.45576 171.235 2.57939 180.607C0.707147 189.958 -0.298619 198.51 0.0784896 204.71C0.332083 208.876 3.19067 213.23 7.87943 216.793C12.5991 220.379 19.2998 223.272 27.5603 224.498C43.6149 226.88 65.5834 222.974 90.6069 205.586C92.3358 204.385 94.7298 202.623 96.6828 201.168C97.6613 200.439 98.5324 199.785 99.1589 199.313C99.4722 199.077 99.7244 198.886 99.8983 198.755L100.151 198.564L100.167 198.551L100.182 198.539L100.196 198.528L100.449 198.324C100.611 198.192 100.846 198.002 101.135 197.766C101.714 197.296 102.511 196.644 103.388 195.923C105.124 194.493 107.189 192.771 108.467 191.63C119.635 182.687 130.983 174.95 140.539 168.433C141.914 167.496 143.251 166.584 144.545 165.698C141.013 173.142 136.886 182.658 133.047 192.907C130.834 198.814 128.732 202.657 126.924 205.327C125.478 207.463 124.222 208.853 123.174 210.012C122.907 210.306 122.654 210.586 122.415 210.859C121.226 212.218 120.319 213.488 120.247 215.509C120.189 217.104 120.658 219.092 121.646 221.923H58.8393V224.227H123.287V223.075C123.287 224.227 123.287 224.227 123.287 224.227H160.235V221.923H124.092C122.921 218.686 122.504 216.855 122.55 215.592C122.593 214.384 123.06 213.622 124.149 212.377C124.363 212.133 124.597 211.874 124.851 211.593C125.904 210.43 127.287 208.903 128.833 206.619C130.71 203.846 132.832 199.962 135.04 194.153L168.21 178.461C170.984 179.753 173.896 179.63 176.71 178.634C179.675 177.584 182.578 175.555 185.25 173.119C190.589 168.252 195.247 161.536 197.917 156.832C200.845 152.045 205.171 144.347 208.657 136.764C210.401 132.968 211.945 129.179 212.997 125.785C213.838 123.07 214.393 120.519 214.439 118.388C216.33 118.498 217.825 118.004 218.947 117.205C220.223 116.296 220.934 115.051 221.221 114.072C222.959 111.127 225.63 106.464 228.107 101.864C230.606 97.2229 232.957 92.5554 233.914 89.7952C234.966 86.7616 234.312 84.2837 233.014 82.4667C231.807 80.7763 230.078 79.6977 228.777 79.1813C227.087 77.9352 222.876 75.2099 218.274 73.3691C215.699 72.3388 213.545 72.5209 211.894 73.2757C210.286 74.0112 209.239 75.2506 208.75 76.228L208.735 76.2583L205.622 83.5231C203.156 83.2992 201.065 84.6168 199.408 86.5086C197.544 88.6362 196.045 91.6714 194.875 94.7822C193.698 97.9128 192.819 101.214 192.234 103.948C191.713 106.383 191.408 108.449 191.353 109.562C187.335 116.38 180.998 126.539 174.854 135.183C171.741 139.562 168.696 143.527 166.038 146.468C164.708 147.939 163.496 149.131 162.437 149.985C161.711 150.571 161.109 150.955 160.632 151.177C141.932 127.93 127.826 117.036 116.371 112.108C105.874 107.591 97.6863 108.131 90.5749 108.601C90.244 108.623 89.9155 108.645 89.5892 108.666V98.5425C93.7545 98.1124 97.3279 95.4232 100.305 91.8348C103.567 87.9044 106.267 82.7165 108.415 77.6036C110.567 72.4782 112.19 67.3634 113.274 63.5359C113.816 61.6205 114.225 60.0234 114.499 58.9035C114.635 58.3435 114.738 57.9026 114.807 57.6005C114.842 57.4495 114.868 57.3332 114.885 57.2541L114.905 57.1636L114.912 57.1334C114.912 57.1329 114.912 57.1307 113.786 56.8887L114.912 57.1307L114.919 57.099L114.924 57.067L113.786 56.8887C114.924 57.067 114.924 57.0673 114.924 57.067L114.926 57.0537L114.931 57.0193L114.951 56.889C114.968 56.7755 114.991 56.6095 115.02 56.3963C115.079 55.9699 115.158 55.3543 115.243 54.5913C115.412 53.0663 115.606 50.9472 115.702 48.5704C115.879 44.1802 115.731 38.7448 114.377 34.5677ZM112.652 56.6787L112.653 56.6732L112.671 56.554C112.687 56.448 112.709 56.29 112.737 56.0852C112.793 55.6754 112.87 55.0786 112.952 54.3362C113.118 52.8505 113.307 50.7872 113.4 48.4775C113.569 44.2768 113.414 39.4151 112.321 35.718C111.622 35.9845 110.852 36.1768 110.043 36.3178C108.687 36.5541 107.143 36.6589 105.497 36.6905C103.109 36.7364 100.411 36.6285 97.6512 36.5181C96.6242 36.477 95.5887 36.4356 94.5578 36.4017C90.7165 36.2752 86.8997 36.2497 83.5601 36.6879C80.2323 37.1245 77.5499 38.0019 75.7915 39.5376C73.2951 42.4268 70.2539 45.5855 67.2413 47.8851C65.7254 49.0421 64.1769 50.0127 62.6761 50.6132C61.6385 51.0283 60.5718 51.287 59.5292 51.2728C59.21 55.999 59.5345 62.5686 61.2564 69.2766C63.9367 79.7183 69.9396 90.2939 81.9436 94.9911C84.2663 95.9 86.4265 96.3023 88.4347 96.2983C92.0947 96.2912 95.4668 94.0573 98.5319 90.3633C101.584 86.6853 104.18 81.7347 106.29 76.7113C108.394 71.7003 109.988 66.6807 111.057 62.9079C111.591 61.0232 111.992 59.4537 112.26 58.357C112.394 57.8087 112.494 57.3789 112.561 57.0872C112.594 56.9414 112.619 56.8301 112.635 56.7558L112.652 56.6787ZM58.8392 48.8786C59.6172 49.0729 60.6065 48.9592 61.8201 48.4736C63.0551 47.9795 64.4175 47.1413 65.8431 46.0533C68.6924 43.8783 71.6348 40.8286 74.098 37.9728L74.1475 37.9154L74.204 37.8651C76.4796 35.8378 79.7417 34.8647 83.2603 34.403C86.8015 33.9384 90.781 33.9716 94.6336 34.0985C95.7081 34.1339 96.7702 34.1763 97.8119 34.218C100.545 34.3273 103.138 34.431 105.452 34.3865C107.042 34.356 108.454 34.2554 109.647 34.0476C110.85 33.8379 111.754 33.5312 112.377 33.1366C115.903 30.9032 117.686 27.6643 118.025 24.1332C118.368 20.5722 117.243 16.6497 114.811 13.1509C109.973 6.19031 100.015 1.01328 86.7986 4.11392C81.9911 5.63717 73.6218 9.69558 71.4794 18.264L71.0829 19.8502L69.7225 18.9433C64.9119 15.7362 58.9635 15.4753 53.0337 17.6818C47.0952 19.8915 41.2417 24.5624 36.805 31.0771C27.9591 44.066 24.7961 64.3241 37.9388 86.5308L38.4343 87.368L37.6921 87.9968C35.3174 90.0085 32.2079 93.7062 30.6412 98.185C29.1649 102.405 29.0574 107.296 32.221 112.226C37.8379 110.19 43.1601 108.845 47.3404 107.834C47.7984 107.724 48.2415 107.617 48.6689 107.514C50.3024 107.122 51.7079 106.784 52.8525 106.47C53.5723 106.272 54.1632 106.091 54.6248 105.919C55.1053 105.74 55.3666 105.6 55.4833 105.512C55.6825 105.363 55.9967 104.949 56.3427 104.085C56.6734 103.258 56.9778 102.164 57.2516 100.84C57.7982 98.1948 58.1943 94.7734 58.4715 91.0529C58.9931 84.0532 59.0854 76.1174 59.0052 70.5841C56.7299 70.2299 53.7733 69.298 51.2297 67.4751C48.235 65.3288 45.8049 61.9306 45.8049 56.8887C45.8049 54.4296 46.3172 52.5129 47.2513 51.0758C48.1945 49.6247 49.5076 48.756 50.9268 48.3019C53.6602 47.4272 56.7997 48.0759 58.8392 48.8786ZM61.3229 76.7986C61.2805 81.3532 61.1221 86.4936 60.7696 91.2241C60.4895 94.9835 60.0844 98.5186 59.5083 101.306C59.2206 102.698 58.8833 103.938 58.4822 104.941C58.2133 105.613 57.8851 106.258 57.4663 106.771C58.6839 110.837 61.4713 115.437 65.9847 117.2C70.5682 118.991 77.4801 118.049 87.2848 109.375V98.5666C85.3073 98.4396 83.2465 97.9755 81.1039 97.1371C70.9128 93.1493 64.8149 85.2557 61.3229 76.7986ZM88.9054 111.017C78.7798 120.008 70.9312 121.607 65.146 119.347C59.9604 117.32 56.8854 112.352 55.4598 108.067C55.4494 108.071 55.439 108.075 55.4286 108.079C54.8746 108.285 54.2096 108.487 53.4628 108.692C52.2788 109.017 50.8246 109.367 49.1857 109.76C48.7629 109.862 48.3279 109.966 47.882 110.074C43.5075 111.132 37.9676 112.536 32.174 114.698C31.002 115.136 29.5523 116.378 27.8987 118.515C26.2729 120.617 24.554 123.445 22.8037 126.837C19.3053 133.616 15.7426 142.526 12.5868 152.079C9.43242 161.628 6.69502 171.789 4.83898 181.059C3.14662 189.512 2.20016 197.161 2.31342 202.915L43.7534 184.995L44.1246 185.083C47.3108 185.832 51.2722 185.73 55.7273 184.971C59.4262 184.34 63.4136 183.266 67.4993 181.9C66.2987 181.014 65.4077 179.892 64.7841 178.611C63.8075 176.605 63.5134 174.269 63.6032 171.94C63.7824 167.293 65.5039 162.343 67.0203 159.202L67.3347 158.551H68.0579C74.1026 158.551 80.7534 154.923 86.7256 150.161C92.657 145.431 97.7181 139.744 100.55 135.967L100.721 135.74L103.201 134.561C102.667 132.518 102.401 130.767 102.385 129.285C102.368 127.584 102.679 126.161 103.37 125.065C104.838 122.738 107.553 122.473 110.225 123.067C112.941 123.672 116.073 125.233 119.101 127.242C122.141 129.258 125.153 131.776 127.641 134.377C131.685 138.358 134.811 145.662 132.937 155.484C131.596 162.509 127.708 170.785 119.837 180.077C126.711 175.072 133.358 170.54 139.282 166.501C141.96 164.675 144.49 162.95 146.827 161.327C151.812 157.866 155.881 154.895 158.662 152.405C140.158 129.442 126.387 118.926 115.46 114.224C105.489 109.934 97.8075 110.437 90.7181 110.902C90.1099 110.942 89.506 110.981 88.9054 111.017ZM160.804 153.569C158.094 156.097 154.097 159.058 149.286 162.422C152.506 165.45 159.634 171.273 168.768 176.164C171.001 177.36 173.408 177.358 175.941 176.461C178.503 175.555 181.143 173.746 183.697 171.417C188.804 166.761 193.327 160.255 195.922 155.678L195.931 155.661L195.941 155.645C198.835 150.917 203.12 143.291 206.563 135.801C208.284 132.055 209.785 128.366 210.795 125.103C211.718 122.126 212.197 119.614 212.132 117.769L199.885 110.831L199.79 110.746C199.03 110.058 198.796 108.811 199.058 107.373C199.329 105.877 200.165 103.918 201.927 101.427L201.956 101.386L201.988 101.348C204.064 98.8949 206.672 95.1576 207.862 91.8783C208.463 90.2231 208.637 88.8601 208.376 87.8839C208.149 87.034 207.548 86.3033 206.044 85.9265C204.332 85.4976 202.725 86.2189 201.142 88.027C199.548 89.8457 198.167 92.5772 197.032 95.5935C195.905 98.5898 195.055 101.776 194.488 104.43C193.913 107.117 193.649 109.158 193.649 109.891V110.205L193.49 110.475C189.459 117.33 183.004 127.695 176.732 136.518C173.598 140.927 170.493 144.975 167.747 148.013C166.376 149.531 165.073 150.819 163.885 151.778C162.847 152.616 161.801 153.283 160.804 153.569ZM213.64 115.975C215.567 116.321 216.816 115.893 217.61 115.328C218.466 114.718 218.9 113.871 219.033 113.339L219.074 113.177L219.159 113.033C220.881 110.117 223.581 105.41 226.078 100.772C228.591 96.1044 230.85 91.5972 231.737 89.0403C232.528 86.7568 232.03 85.0543 231.139 83.806C230.207 82.5012 228.803 81.6477 227.815 81.2799L227.658 81.2218L227.525 81.1218C226.048 80.0137 221.911 77.3057 217.418 75.5087C215.385 74.6954 213.89 74.8974 212.852 75.3716C211.79 75.8572 211.113 76.6728 210.825 77.2312L207.869 84.1297C209.312 84.7937 210.226 85.8805 210.602 87.2894C211.045 88.9471 210.686 90.8536 210.029 92.6644C208.71 96.2984 205.924 100.257 203.78 102.798C202.152 105.107 201.515 106.74 201.325 107.785C201.189 108.532 201.29 108.885 201.338 109.005L213.64 115.975ZM147.819 164.205C150.988 167.167 157.433 172.421 165.695 177.102L136.217 191.047C140.183 180.719 144.37 171.288 147.819 164.205ZM106.978 189.87C122.469 176.021 128.928 164.192 130.673 155.052C132.415 145.927 129.479 139.412 126.013 136.009L126 135.996L125.987 135.982C123.617 133.501 120.731 131.088 117.827 129.162C114.908 127.226 112.048 125.834 109.724 125.317C107.357 124.79 105.986 125.236 105.319 126.294C104.943 126.89 104.675 127.828 104.69 129.261C104.705 130.689 105.001 132.534 105.675 134.867C107.039 139.587 108.452 143.013 109.629 145.714C109.807 146.124 109.983 146.521 110.153 146.907C111.082 149.013 111.861 150.778 112.223 152.4C112.679 154.445 112.494 156.303 111.386 158.487C110.319 160.591 108.39 163.005 105.417 166.243L105.309 166.361L105.173 166.445C97.3636 171.259 83.8721 178.501 70.7516 183.211C65.7273 185.014 60.7321 186.456 56.1144 187.242C51.6691 188 47.5034 188.164 43.9742 187.41L2.46665 205.36C2.9578 208.416 5.22539 211.882 9.27363 214.958C13.644 218.279 19.9683 221.042 27.8985 222.219C43.2719 224.5 64.6591 220.81 89.2919 203.693C90.9867 202.516 93.354 200.774 95.3063 199.32C96.2805 198.594 97.1481 197.942 97.7722 197.472C98.0842 197.237 98.3352 197.048 98.5081 196.917L98.7501 196.733L99.6267 195.99C100.184 195.518 100.957 194.865 101.816 194.142C103.522 192.708 105.581 190.991 106.978 189.87ZM103.847 136.805L102.222 137.578C99.2647 141.48 94.1539 147.184 88.1624 151.962C82.3118 156.628 75.4319 160.563 68.7979 160.84C67.4477 163.813 66.0575 168.098 65.9059 172.029C65.8248 174.133 66.1022 176.053 66.8561 177.602C67.5446 179.016 68.6521 180.17 70.3787 180.895C83.1031 176.28 96.1703 169.275 103.827 164.567C106.729 161.399 108.431 159.218 109.331 157.445C110.201 155.729 110.311 154.416 109.973 152.902C109.665 151.52 108.998 150.005 108.065 147.885C107.891 147.49 107.708 147.074 107.516 146.634C106.427 144.136 105.127 140.997 103.847 136.805ZM58.6209 68.1737C56.7568 67.791 54.5072 66.9889 52.5721 65.602C50.0737 63.8115 48.1094 61.0645 48.1094 56.8887C48.1094 54.7389 48.5573 53.295 49.1835 52.3317C49.8006 51.3822 50.648 50.8107 51.6292 50.4967C53.3822 49.9357 55.5389 50.2123 57.2556 50.7601C56.9092 55.3495 57.1487 61.6348 58.6209 68.1737Z" fill="black"/>
<path d="M206.326 84.8087C213.7 86.6558 207.094 97.1005 202.869 102.092C199.458 106.914 199.912 109.301 200.565 109.891L213.239 117.071C217.848 117.993 219.768 115.153 220.152 113.619C223.609 107.767 230.983 94.7347 232.827 89.4176C234.67 84.1005 230.522 81.057 228.218 80.1999C226.682 79.0476 222.457 76.2823 217.848 74.4388C213.239 72.5952 210.551 75.2069 209.782 76.7432L206.326 84.8087Z" fill="#C4C4C4"/>
<path fill-rule="evenodd" clip-rule="evenodd" d="M210.826 77.231L207.869 84.1294C209.312 84.7935 210.226 85.8803 210.603 87.2892C211.045 88.9468 210.686 90.8534 210.029 92.6642C208.71 96.2982 205.925 100.257 203.78 102.797C202.153 105.107 201.515 106.74 201.325 107.784C201.189 108.532 201.291 108.885 201.338 109.005L213.64 115.974C215.567 116.321 216.816 115.893 217.61 115.327C218.466 114.718 218.9 113.871 219.033 113.339L219.074 113.176L219.159 113.032C220.881 110.117 223.581 105.41 226.079 100.771C228.592 96.1041 230.85 91.5969 231.737 89.04C232.529 86.7565 232.03 85.0541 231.139 83.8058C230.207 82.5009 228.804 81.6474 227.815 81.2797L227.659 81.2215L227.525 81.1215C226.048 80.0134 221.911 77.3054 217.419 75.5084C215.385 74.6951 213.89 74.8971 212.853 75.3713C211.79 75.857 211.113 76.6726 210.826 77.231ZM211.895 73.2755C213.546 72.5207 215.699 72.3386 218.275 73.3688C222.877 75.2097 227.088 77.935 228.778 79.1811C230.078 79.6975 231.807 80.776 233.014 82.4664C234.312 84.2834 234.966 86.7613 233.914 89.7949C232.957 92.5552 230.607 97.2227 228.108 101.864C225.631 106.464 222.959 111.126 221.222 114.071C220.935 115.051 220.223 116.296 218.947 117.204C217.557 118.195 215.593 118.717 213.012 118.201L212.831 118.164L199.885 110.831L199.791 110.745C199.03 110.058 198.797 108.81 199.058 107.372C199.33 105.877 200.165 103.918 201.927 101.427L201.956 101.386L201.988 101.347C204.064 98.8946 206.673 95.1574 207.863 91.878C208.463 90.2228 208.637 88.8599 208.376 87.8837C208.149 87.0338 207.549 86.303 206.045 85.9263L204.733 85.5977L208.735 76.2581L208.751 76.2278C209.239 75.2504 210.286 74.0109 211.895 73.2755Z" fill="black"/>
<path fill-rule="evenodd" clip-rule="evenodd" d="M87.6075 59.9629C88.0704 60.3996 88.0916 61.1288 87.6549 61.5917L85.4715 63.9061C85.0348 64.369 84.3055 64.3902 83.8427 63.9535C83.3798 63.5169 83.3586 62.7876 83.7953 62.3247L85.9787 60.0103C86.4154 59.5475 87.1447 59.5262 87.6075 59.9629ZM108.288 57.6542C108.846 57.9603 109.05 58.6607 108.744 59.2186L106.865 62.6444C106.559 63.2023 105.858 63.4064 105.3 63.1003C104.742 62.7943 104.538 62.0939 104.844 61.536L106.724 58.1101C107.03 57.5522 107.73 57.3481 108.288 57.6542ZM99.0126 69.6067C99.2425 70.2 98.9479 70.8675 98.3546 71.0974L92.3961 73.4066C91.8027 73.6365 91.1353 73.3419 90.9053 72.7486C90.6754 72.1552 90.97 71.4878 91.5633 71.2579L97.5219 68.9487C98.1152 68.7187 98.7826 69.0133 99.0126 69.6067ZM85.5447 78.3566C86.1329 78.1139 86.8066 78.394 87.0493 78.9823C88.3714 82.1869 89.9423 83.0687 91.1183 83.2138C92.4019 83.3722 93.6996 82.7235 94.5148 81.993C94.9887 81.5684 95.7172 81.6084 96.1418 82.0823C96.5665 82.5562 96.5265 83.2847 96.0526 83.7093C94.9489 84.6982 93.0139 85.7696 90.8361 85.5009C88.5507 85.2189 86.4312 83.5264 84.919 79.8612C84.6763 79.2729 84.9564 78.5993 85.5447 78.3566Z" fill="black"/>
<path d="M57.0835 156.856C60.1946 159.792 64.0015 160.69 68.1075 160.22C79.4529 158.923 93.082 147.186 100.629 139.166C104.686 134.854 104.539 123.334 98.1695 118.702C91.7009 113.997 80.8094 108.702 70.2405 111.94C82.8694 117.69 76.1958 125.15 71.2804 128.161C75.1272 125.623 72.9163 120.18 68.1075 123.353C64.2605 125.891 59.2248 123.14 57.1878 121.448C48.9373 132.078 47.3595 147.679 57.0835 156.856Z" fill="white"/>
<path fill-rule="evenodd" clip-rule="evenodd" d="M62.3373 114.739C64.7906 112.89 67.3335 111.626 69.9026 110.838C81.0093 107.435 92.2983 113.007 98.8468 117.77C102.394 120.349 104.115 124.758 104.457 128.96C104.797 133.132 103.806 137.471 101.468 139.955C97.6561 144.006 92.3053 149 86.4597 153.153C80.8672 157.127 74.7017 160.419 68.9332 161.274C67.8347 164.179 66.7131 168.351 66.6238 172.137C66.5261 176.277 67.643 179.405 70.6402 180.514C71.237 180.735 71.5417 181.398 71.3208 181.995C71.0998 182.591 70.437 182.896 69.8402 182.675C65.3674 181.019 64.217 176.447 64.32 172.083C64.4069 168.399 65.3747 164.469 66.4058 161.487C62.709 161.551 59.2197 160.456 56.2923 157.694C45.981 147.963 47.8112 131.649 56.2772 120.741C58.0195 118.497 60.0523 116.462 62.3373 114.739ZM70.1615 113.174C67.9911 113.889 65.8306 114.992 63.7246 116.579C61.924 117.937 60.2864 119.509 58.8368 121.238C59.7589 121.854 60.9769 122.497 62.2913 122.881C64.1025 123.409 65.935 123.405 67.4726 122.391C68.8233 121.5 70.1374 121.117 71.3167 121.265C72.525 121.417 73.4532 122.115 73.9596 123.079C74.1372 123.418 74.2604 123.778 74.3298 124.151C75.2654 123.087 75.948 121.948 76.2183 120.811C76.4975 119.638 76.3552 118.409 75.4735 117.132C74.6035 115.871 72.9709 114.507 70.1615 113.174ZM73.5127 112.367C75.2624 113.449 76.5289 114.604 77.37 115.822C78.6353 117.655 78.8853 119.558 78.4602 121.344C78.0461 123.085 77.0102 124.651 75.8138 125.947C74.6103 127.25 73.1848 128.346 71.882 129.144C71.3458 129.472 70.6453 129.31 70.3078 128.78C69.9704 128.249 70.1207 127.546 70.6455 127.199C72.1714 126.193 72.2664 124.812 71.9194 124.151C71.7528 123.834 71.4671 123.607 71.0285 123.552C70.561 123.493 69.7955 123.619 68.7418 124.314C66.4324 125.838 63.8235 125.728 61.6458 125.093C60.0111 124.616 58.5283 123.82 57.4192 123.061C49.9949 133.36 49.0009 147.644 57.874 156.018C60.6894 158.675 64.1349 159.515 67.9763 159.075C73.3557 158.46 79.4051 155.339 85.125 151.275C90.817 147.231 96.0542 142.346 99.7895 138.376C101.509 136.549 102.472 132.972 102.16 129.147C101.851 125.353 100.314 121.686 97.4915 119.633C91.724 115.439 82.6107 110.941 73.5127 112.367Z" fill="black"/>
<path d="M85.2765 143.089C85.8022 143.885 85.5825 144.957 84.7858 145.483C83.9891 146.009 82.917 145.789 82.3913 144.992C81.8656 144.196 82.0853 143.124 82.882 142.598C83.6788 142.072 84.7508 142.292 85.2765 143.089Z" fill="black"/>
<path fill-rule="evenodd" clip-rule="evenodd" d="M65.7878 141.551C66.1467 141.026 66.8637 140.891 67.3892 141.25C69.2788 142.54 71.8225 140.862 71.3793 138.617C71.256 137.993 71.6622 137.387 72.2865 137.263C72.9108 137.14 73.5168 137.546 73.6401 138.171C74.4829 142.439 69.6825 145.607 66.0895 143.153C65.564 142.794 65.4289 142.077 65.7878 141.551Z" fill="black"/>
<path d="M63.0337 115.661C60.8343 117.319 58.8734 119.28 57.1902 121.449C59.2272 123.142 64.2629 125.892 68.1099 123.354C72.9187 120.181 75.1296 125.624 71.2828 128.163C76.1982 125.151 82.8719 117.692 70.2429 111.941C67.8032 112.689 65.3806 113.891 63.0337 115.661Z" fill="black"/>
<path fill-rule="evenodd" clip-rule="evenodd" d="M62.338 114.74C64.7913 112.891 67.3341 111.627 69.9033 110.84C81.01 107.436 92.299 113.009 98.8475 117.771C102.394 120.35 104.116 124.759 104.458 128.961C104.798 133.133 103.806 137.472 101.468 139.957C96.2885 145.462 88.233 152.743 79.9443 157.263C71.7524 161.731 62.7494 163.788 56.293 157.695C45.9817 147.964 47.8119 131.65 56.2779 120.742C58.0202 118.498 60.053 116.463 62.338 114.74ZM70.1622 113.175C67.9918 113.89 65.8313 114.993 63.7252 116.581C61.9246 117.938 60.2871 119.51 58.8375 121.239C59.7595 121.856 60.9775 122.498 62.292 122.882C64.1032 123.41 65.9357 123.407 67.4733 122.392C68.824 121.501 70.1381 121.118 71.3174 121.266C72.5257 121.419 73.4539 122.116 73.9603 123.081C74.1379 123.419 74.2611 123.78 74.3305 124.152C75.266 123.088 75.9487 121.949 76.219 120.812C76.4982 119.639 76.3559 118.41 75.4742 117.133C74.6042 115.873 72.9716 114.508 70.1622 113.175ZM73.5134 112.368C75.2631 113.45 76.5296 114.605 77.3706 115.824C78.636 117.657 78.886 119.559 78.4609 121.346C78.0468 123.086 77.0109 124.652 75.8145 125.948C74.611 127.251 73.1855 128.347 71.8827 129.145C71.3465 129.473 70.646 129.311 70.3085 128.781C69.9711 128.25 70.1214 127.547 70.6462 127.201C72.1721 126.194 72.2671 124.813 71.92 124.152C71.7534 123.835 71.4677 123.608 71.0292 123.553C70.5617 123.494 69.7961 123.62 68.7425 124.316C66.433 125.839 63.8241 125.729 61.6465 125.094C60.0118 124.617 58.529 123.821 57.4199 123.062C49.9956 133.361 49.0015 147.645 57.8746 156.019C63.1261 160.975 70.7567 159.649 78.841 155.24C86.8286 150.884 94.6919 143.796 99.7902 138.377C101.509 136.55 102.473 132.973 102.161 129.149C101.852 125.354 100.315 121.687 97.4922 119.635C91.7247 115.44 82.6114 110.942 73.5134 112.368Z" fill="black"/>
<path d="M85.2745 143.089C85.8003 143.885 85.5805 144.957 84.7838 145.483C83.9871 146.009 82.9151 145.789 82.3894 144.992C81.8637 144.196 82.0834 143.124 82.8801 142.598C83.6768 142.072 84.7488 142.292 85.2745 143.089Z" fill="black"/>
<path fill-rule="evenodd" clip-rule="evenodd" d="M65.7859 141.551C66.1448 141.026 66.8617 140.891 67.3872 141.25C69.2769 142.54 71.8206 140.862 71.3773 138.617C71.254 137.993 71.6602 137.387 72.2845 137.263C72.9088 137.14 73.5148 137.546 73.6381 138.171C74.4809 142.439 69.6806 145.607 66.0875 143.153C65.562 142.794 65.427 142.077 65.7859 141.551Z" fill="black"/>
<path fill-rule="evenodd" clip-rule="evenodd" d="M77.3288 133.937C77.6877 133.411 78.4047 133.276 78.9302 133.635C80.8198 134.926 83.3636 133.247 82.9203 131.002C82.797 130.378 83.2032 129.772 83.8275 129.649C84.4518 129.525 85.0578 129.932 85.1811 130.556C86.0239 134.825 81.2235 137.992 77.6305 135.538C77.105 135.179 76.9699 134.462 77.3288 133.937Z" fill="black"/>
<path d="M99.0902 219.813L91.0247 205.986L106.004 193.312L115.222 222.117C112.917 225.958 105.543 233.87 94.4814 234.791C83.4201 235.713 92.9451 225.19 99.0902 219.813Z" fill="white"/>
<path fill-rule="evenodd" clip-rule="evenodd" d="M106.323 192.204C106.693 192.31 106.986 192.594 107.103 192.96L116.321 221.766C116.422 222.081 116.382 222.425 116.211 222.71C113.788 226.749 106.129 234.977 94.5787 235.94C93.128 236.06 91.9201 236.004 90.9558 235.746C89.9795 235.485 89.1681 234.992 88.6853 234.19C88.2079 233.397 88.1697 232.497 88.3279 231.661C88.4855 230.828 88.854 229.959 89.3272 229.105C91.0567 225.985 94.6499 222.256 97.6211 219.578L90.0311 206.566C89.7492 206.083 89.8551 205.468 90.2821 205.106L105.261 192.432C105.555 192.183 105.953 192.098 106.323 192.204ZM92.5089 206.241L100.087 219.232C100.365 219.709 100.266 220.316 99.8506 220.68C96.7911 223.357 93.006 227.221 91.3428 230.222C90.9326 230.963 90.6866 231.59 90.5922 232.089C90.4983 232.585 90.5706 232.854 90.6596 233.002C90.7433 233.141 90.9546 233.36 91.5506 233.52C92.1586 233.682 93.0726 233.753 94.3873 233.643C104.555 232.796 111.502 225.738 113.963 221.959L105.433 195.305L92.5089 206.241Z" fill="black"/>
<path d="M138.703 180.693L125.105 172.247L112.02 186.87L140.559 196.882C144.462 194.685 152.575 187.533 153.803 176.501C155.031 165.47 144.248 174.699 138.703 180.693Z" fill="white"/>
<path fill-rule="evenodd" clip-rule="evenodd" d="M110.903 187.156C110.999 187.529 111.274 187.829 111.637 187.957L140.176 197.969C140.489 198.079 140.834 198.049 141.123 197.886C145.228 195.575 153.665 188.148 154.947 176.629C155.108 175.182 155.085 173.973 154.854 173.002C154.621 172.019 154.15 171.194 153.362 170.689C152.582 170.19 151.684 170.127 150.843 170.262C150.006 170.396 149.128 170.74 148.261 171.19C145.094 172.832 141.268 176.321 138.508 179.216L125.712 171.269C125.236 170.973 124.618 171.062 124.245 171.479L111.16 186.101C110.904 186.388 110.807 186.784 110.903 187.156ZM125.317 173.736L138.093 181.672C138.562 181.963 139.172 181.881 139.547 181.476C142.308 178.491 146.276 174.815 149.322 173.235C150.073 172.846 150.707 172.617 151.209 172.537C151.707 172.457 151.974 172.536 152.119 172.63C152.256 172.717 152.47 172.934 152.612 173.535C152.758 174.147 152.803 175.062 152.657 176.374C151.528 186.514 144.28 193.263 140.435 195.618L114.027 186.353L125.317 173.736Z" fill="black"/>
<path d="M319.771 228.52C349.704 235.893 409.375 238.906 408.594 191.978C408.386 179.475 405.025 167.141 399.747 155.64C385.773 125.19 358.359 100.576 340.427 94.1252C339.19 93.6802 337.84 94.2144 337.2 95.3626C329.961 108.351 325.33 126.035 302.153 123.959C292.244 123.072 292.97 111.441 294.647 104.744C295.103 102.925 293.985 100.947 292.239 100.263C289.306 99.1148 286.406 97.1465 283.605 94.2434C283.112 93.7321 282.467 93.3894 281.759 93.3378C268.209 92.3502 242.163 99.3795 238.203 135.587C234.133 172.794 254.432 208.258 265.091 221.339L319.771 228.52Z" fill="#E5E5E5"/>
<path fill-rule="evenodd" clip-rule="evenodd" d="M278.776 88.1206C257.303 55.4841 258.866 27.0481 270.905 14.2262C282.943 1.40433 307.405 -12.452 334.735 30.6295C342.382 23.0514 357.637 42.4532 334.735 55.4841L338.317 93.4376C336.814 95.9143 335.457 98.6255 334.078 101.379C328.176 113.167 321.888 125.727 302.153 123.959C290.104 122.88 293.779 105.916 295.769 101.255C291.375 100.493 286.997 98.0143 282.852 93.4376C281.465 91.9052 280.103 90.1376 278.776 88.1206ZM238.203 135.587L257.204 152.443C257.882 153.045 258.237 153.924 258.189 154.829C257.267 172.286 261.858 203.737 265.091 221.339C254.432 208.258 234.133 172.794 238.203 135.587ZM319.771 228.52C298.623 224.994 260.816 214.48 278.776 200.633C294.031 188.87 331.022 188.764 355.177 190.767L350.648 169.535L399.747 155.64C405.025 167.141 408.386 179.475 408.594 191.978C409.375 238.906 349.704 235.893 319.771 228.52Z" fill="white"/>
<path fill-rule="evenodd" clip-rule="evenodd" d="M297.127 0.0116036C285.471 -0.324626 275.971 6.70668 269.845 13.2317C257.121 26.7835 255.937 56.0531 277.562 88.9198C278.232 89.9382 278.912 90.8976 279.602 91.7992C272.934 91.7478 264.197 93.4852 256.296 98.8093C246.9 105.141 238.834 116.445 236.758 135.429C234.69 154.335 238.816 172.744 244.769 188.038C250.722 203.329 258.537 215.597 263.964 222.257L264.329 222.705L319.502 229.951C334.581 233.655 357.184 236.283 376.02 232.03C385.468 229.896 394.087 226.005 400.302 219.529C406.551 213.018 410.248 204.022 410.047 191.954C409.835 179.209 406.41 166.676 401.067 155.034C393.713 139.009 382.696 124.608 371.275 113.558C360.27 102.911 348.767 95.2575 339.672 92.333L336.268 56.2719C341.701 53.0206 345.042 49.3451 346.786 45.6593C348.619 41.7829 348.642 37.9798 347.565 34.8551C346.499 31.7634 344.339 29.2993 341.773 28.1562C339.627 27.2001 337.206 27.1903 335.093 28.5C321.618 7.79827 308.611 0.342884 297.127 0.0116036ZM336.139 31.3184C337.497 30.2142 339.071 30.135 340.59 30.8115C342.32 31.5821 343.975 33.362 344.817 35.8024C345.646 38.2097 345.667 41.2267 344.158 44.4164C342.901 47.0746 340.552 49.9104 336.618 52.6001C336.982 49.0087 336.82 45.6278 336.585 42.4288C336.535 41.7505 336.482 41.0833 336.43 40.4252C336.178 37.239 335.942 34.2692 336.139 31.3184ZM334.103 64.259C331.132 74.2934 326.468 83.3928 320.837 90.2402C313.998 98.558 305.49 103.811 296.714 102.855C295.847 105.375 294.869 109.797 295.146 113.852C295.305 116.185 295.871 118.248 296.968 119.758C298.023 121.211 299.659 122.277 302.282 122.512C311.776 123.362 317.868 120.776 322.319 116.683C326.865 112.503 329.802 106.673 332.778 100.729L332.793 100.699C334.087 98.1153 335.39 95.5114 336.825 93.099L334.103 64.259ZM338.983 95.1654C347.443 97.9433 358.48 105.224 369.254 115.647C380.09 126.131 390.535 139.675 397.705 154.707L351.745 167.715L347.54 148.001C347.373 147.216 346.601 146.716 345.816 146.883C345.031 147.051 344.53 147.823 344.697 148.608L353.349 189.164C341.547 188.267 327.04 187.901 313.511 189.09C299.313 190.339 285.874 193.324 277.888 199.482C275.528 201.301 273.938 203.174 273.163 205.125C272.366 207.13 272.478 209.1 273.306 210.935C274.112 212.719 275.567 214.319 277.376 215.752C279.195 217.192 281.451 218.526 283.971 219.754C286.847 221.155 290.122 222.445 293.58 223.615L266.33 220.036C263.11 202.255 258.746 171.835 259.64 154.906C259.711 153.573 259.187 152.261 258.168 151.356L239.732 135.001C241.85 117.235 249.423 106.945 257.92 101.22C266.353 95.5375 275.838 94.257 282.157 94.8288C285.85 98.7841 289.786 101.233 293.83 102.315C292.894 105.196 291.953 109.759 292.246 114.05C292.425 116.675 293.076 119.347 294.616 121.467C296.198 123.644 298.622 125.103 302.023 125.407C312.265 126.325 319.185 123.514 324.287 118.823C329.26 114.249 332.409 107.96 335.318 102.15L335.378 102.03C336.578 99.6321 337.739 97.3152 338.983 95.1654ZM239.384 138.579L256.239 153.531C256.576 153.83 256.763 154.275 256.738 154.753C255.903 170.543 259.517 197.505 262.602 215.608C257.817 208.774 252.083 198.812 247.478 186.983C241.936 172.748 238.063 155.891 239.384 138.579ZM356.373 189.41L352.353 170.564L398.938 157.379C403.855 168.413 406.943 180.15 407.14 192.002C407.33 203.398 403.861 211.623 398.205 217.516C392.517 223.443 384.494 227.136 375.38 229.194C357.125 233.316 334.973 230.768 320.119 227.109L320.065 227.096L320.01 227.087C309.477 225.331 294.904 221.848 285.245 217.141C282.84 215.969 280.782 214.741 279.181 213.473C277.57 212.197 276.499 210.942 275.955 209.738C275.434 208.585 275.373 207.434 275.864 206.199C276.376 204.911 277.533 203.426 279.663 201.784C286.932 196.179 299.617 193.23 313.766 191.986C327.831 190.749 343.03 191.218 355.057 192.216C359.318 192.569 363.174 192.988 366.432 193.419C367.228 193.524 367.958 192.965 368.063 192.169C368.169 191.373 367.609 190.643 366.813 190.537C363.783 190.136 360.253 189.747 356.373 189.41ZM333.248 31.001C333.02 34.2365 333.28 37.4924 333.536 40.7159C333.588 41.3594 333.639 42.0016 333.686 42.6422C333.985 46.7066 334.139 50.8169 333.306 55.2139C330.856 68.1449 325.424 80.0845 318.592 88.3941C311.722 96.7488 303.699 101.154 296.017 99.823C292.007 99.1283 287.905 96.8524 283.929 92.4623C282.597 90.9912 281.281 89.2838 279.99 87.3221C258.668 54.9157 260.611 27.3133 271.964 15.2214C277.876 8.92451 286.626 2.61672 297.043 2.91723C307.319 3.21368 319.801 9.96946 333.248 31.001Z" fill="black"/>
<path fill-rule="evenodd" clip-rule="evenodd" d="M305.674 36.8538C308.55 36.732 311.614 38.4654 312.282 41.772C312.841 44.5441 312.955 47.8877 311.767 50.9098C310.549 54.0068 308.027 56.594 303.676 57.865C301.528 58.4923 299.564 58.4884 297.798 57.9478C296.036 57.4088 294.562 56.3645 293.345 55.0535C290.944 52.4656 289.463 48.7505 288.598 45.3318C287.511 41.0339 290.827 37.4827 294.731 37.3173L305.674 36.8538ZM309.485 42.3287C309.181 40.8228 307.692 39.7285 305.839 39.807L294.897 40.2705C292.419 40.3755 290.824 42.5045 291.361 44.6294C292.173 47.8394 293.49 50.9783 295.39 53.0256C296.324 54.0322 297.376 54.7508 298.565 55.1146C299.748 55.4767 301.158 55.5154 302.856 55.0195C306.432 53.975 308.246 51.9729 309.117 49.7561C310.019 47.4645 309.978 44.7699 309.485 42.3287Z" fill="black"/>
<path fill-rule="evenodd" clip-rule="evenodd" d="M334.226 30.0537L309.709 40.6843L310.866 43.3513L335.383 32.7206L334.226 30.0537Z" fill="black"/>
<path fill-rule="evenodd" clip-rule="evenodd" d="M281.827 38.4965C284.701 38.4137 287.74 40.1858 288.366 43.4982C288.891 46.2778 288.965 49.6239 287.739 52.6311C286.483 55.7131 283.929 58.2673 279.56 59.4797C277.406 60.0776 275.443 60.0473 273.684 59.4834C271.93 58.9213 270.469 57.858 269.269 56.5315C266.9 53.913 265.466 50.18 264.643 46.7507C263.608 42.4357 266.972 38.9245 270.879 38.8119L281.827 38.4965ZM285.563 44.0205C285.278 42.5117 283.805 41.399 281.953 41.4523L271.005 41.7677C268.526 41.8392 266.902 43.9494 267.414 46.0824C268.186 49.3022 269.464 52.4572 271.339 54.5291C272.26 55.5478 273.303 56.2803 274.487 56.66C275.666 57.0379 277.076 57.0954 278.779 56.6227C282.368 55.6265 284.206 53.6486 285.105 51.4437C286.034 49.1641 286.026 46.4685 285.563 44.0205Z" fill="black"/>
<path fill-rule="evenodd" clip-rule="evenodd" d="M297.127 0.0116036C285.471 -0.324626 275.971 6.70668 269.845 13.2317C257.121 26.7835 255.937 56.0531 277.562 88.9198C278.232 89.9382 278.912 90.8976 279.602 91.7992C272.934 91.7478 264.197 93.4852 256.296 98.8093C246.9 105.141 238.834 116.445 236.758 135.429C234.69 154.335 238.816 172.744 244.769 188.038C250.722 203.329 258.537 215.597 263.964 222.257L264.329 222.705L319.502 229.951C334.581 233.655 357.184 236.283 376.02 232.03C385.468 229.896 394.087 226.005 400.302 219.529C406.551 213.018 410.248 204.022 410.047 191.954C409.835 179.209 406.41 166.676 401.067 155.034C393.713 139.009 382.696 124.608 371.275 113.558C360.27 102.911 348.767 95.2575 339.672 92.333L336.268 56.2719C341.701 53.0206 345.042 49.3451 346.786 45.6593C348.619 41.7829 348.642 37.9798 347.565 34.8551C346.499 31.7634 344.339 29.2993 341.773 28.1562C339.627 27.2001 337.206 27.1903 335.093 28.5C321.618 7.79827 308.611 0.342884 297.127 0.0116036ZM336.139 31.3184C337.497 30.2142 339.071 30.135 340.59 30.8115C342.32 31.5821 343.975 33.362 344.817 35.8024C345.646 38.2097 345.667 41.2267 344.158 44.4164C342.901 47.0746 340.552 49.9104 336.618 52.6001C336.982 49.0087 336.82 45.6278 336.585 42.4288C336.535 41.7505 336.482 41.0833 336.43 40.4252C336.178 37.239 335.942 34.2692 336.139 31.3184ZM334.103 64.259C331.132 74.2934 326.468 83.3928 320.837 90.2402C313.998 98.558 305.49 103.811 296.714 102.855C295.847 105.375 294.869 109.797 295.146 113.852C295.305 116.185 295.871 118.248 296.968 119.758C298.023 121.211 299.659 122.277 302.282 122.512C308.166 123.039 312.719 122.242 316.368 120.622C320.017 119.001 322.857 116.513 325.252 113.515C327.658 110.502 329.594 107.001 331.447 103.371C331.886 102.511 332.321 101.641 332.758 100.768C334.067 98.1527 335.386 95.5189 336.825 93.0991L334.103 64.259ZM338.982 95.1654C347.443 97.9432 358.48 105.224 369.254 115.647C380.09 126.131 390.535 139.675 397.705 154.707L351.745 167.715L347.54 148.001C347.373 147.216 346.601 146.716 345.816 146.883C345.031 147.051 344.53 147.823 344.697 148.608L353.349 189.164C341.547 188.267 327.04 187.901 313.511 189.09C299.313 190.339 285.874 193.324 277.888 199.482C275.528 201.301 273.938 203.174 273.163 205.125C272.366 207.13 272.478 209.1 273.306 210.935C274.112 212.719 275.567 214.319 277.376 215.752C279.195 217.192 281.451 218.526 283.971 219.754C286.847 221.155 290.122 222.445 293.58 223.615L266.33 220.036C263.017 201.738 258.497 170.091 259.729 153.506C259.924 150.885 260.258 148.706 260.739 147.046C261.234 145.337 261.82 144.409 262.343 144.006C262.979 143.517 263.098 142.604 262.609 141.968C262.12 141.332 261.207 141.213 260.571 141.702C259.297 142.682 258.492 144.355 257.947 146.238C257.593 147.458 257.321 148.867 257.118 150.425L239.732 135.001C241.85 117.235 249.423 106.945 257.92 101.22C266.353 95.5375 275.838 94.257 282.157 94.8288C285.85 98.7841 289.786 101.233 293.83 102.315C292.894 105.196 291.953 109.759 292.246 114.05C292.425 116.675 293.076 119.347 294.616 121.467C296.198 123.644 298.622 125.103 302.023 125.407C308.312 125.971 313.373 125.132 317.548 123.278C321.721 121.425 324.912 118.598 327.523 115.329C330.123 112.074 332.168 108.353 334.036 104.693C334.5 103.783 334.952 102.881 335.398 101.99C336.588 99.613 337.739 97.3138 338.982 95.1654ZM239.384 138.579L256.781 154.012C255.789 169.701 259.47 197.23 262.602 215.607C257.817 208.774 252.083 198.812 247.478 186.983C241.936 172.748 238.063 155.891 239.384 138.579ZM356.373 189.41L352.353 170.564L398.938 157.379C403.855 168.413 406.943 180.15 407.14 192.002C407.33 203.398 403.861 211.623 398.205 217.516C392.517 223.443 384.494 227.136 375.38 229.194C357.125 233.316 334.973 230.768 320.119 227.109L320.065 227.096L320.01 227.087C309.477 225.331 294.904 221.848 285.245 217.141C282.84 215.969 280.782 214.741 279.181 213.473C277.57 212.197 276.499 210.942 275.955 209.738C275.434 208.585 275.373 207.434 275.864 206.199C276.376 204.911 277.533 203.426 279.663 201.784C286.932 196.179 299.617 193.23 313.766 191.986C327.831 190.749 343.03 191.218 355.057 192.216C359.318 192.569 363.174 192.988 366.432 193.419C367.228 193.524 367.958 192.965 368.063 192.169C368.169 191.373 367.609 190.643 366.813 190.537C363.783 190.136 360.253 189.747 356.373 189.41ZM333.248 31.001C333.02 34.2365 333.28 37.4924 333.536 40.7159C333.588 41.3594 333.639 42.0016 333.686 42.6422C333.985 46.7066 334.139 50.8169 333.306 55.2139C330.856 68.1449 325.424 80.0845 318.592 88.3941C311.722 96.7488 303.699 101.154 296.017 99.823C292.007 99.1283 287.905 96.8524 283.929 92.4623C282.597 90.9912 281.281 89.2838 279.99 87.3221C258.668 54.9157 260.611 27.3133 271.964 15.2214C277.876 8.92451 286.626 2.61672 297.043 2.91723C307.319 3.21368 319.801 9.96946 333.248 31.001Z" fill="black"/>
<path fill-rule="evenodd" clip-rule="evenodd" d="M297.207 41.6579C296.672 42.2569 296.725 43.1757 297.324 43.71L304.222 49.8619C304.821 50.3962 305.739 50.3437 306.274 49.7447C306.808 49.1456 306.755 48.2268 306.156 47.6926L299.259 41.5406C298.66 41.0063 297.741 41.0588 297.207 41.6579ZM274.258 44.1029C273.736 44.7124 273.806 45.6299 274.416 46.1523L280.94 51.745C281.55 52.2674 282.467 52.1968 282.99 51.5873C283.512 50.9779 283.442 50.0603 282.832 49.538L276.307 43.9453C275.698 43.4229 274.78 43.4935 274.258 44.1029ZM288.173 64.1014C287.885 64.8506 288.259 65.6915 289.008 65.9797L296.278 68.776C297.027 69.0641 297.868 68.6904 298.157 67.9412C298.445 67.192 298.071 66.351 297.322 66.0629L290.051 63.2666C289.302 62.9784 288.461 63.3522 288.173 64.1014ZM309.43 74.0965C308.793 73.6076 307.881 73.7273 307.392 74.3639C305.49 76.8404 304.03 78.3629 302.48 79.3255C300.969 80.2637 299.256 80.7397 296.719 80.8821C295.917 80.9271 295.304 81.6132 295.349 82.4147C295.394 83.2161 296.08 83.8293 296.881 83.7844C299.73 83.6244 301.962 83.0683 304.013 81.7951C306.024 80.5463 307.744 78.6778 309.697 76.1345C310.186 75.4979 310.066 74.5855 309.43 74.0965Z" fill="black"/>
<rect x="262.518" y="175.414" width="24.9755" height="36.1515" rx="9.59807" transform="rotate(-30.8811 262.518 175.414)" fill="#C4C4C4" stroke="black" stroke-width="3.83923"/>
</svg>
