<svg width="440" height="22" viewBox="0 0 440 22" fill="none" xmlns="http://www.w3.org/2000/svg">
<line x1="-335" y1="21.75" x2="776" y2="21.7499" stroke="#505050" stroke-opacity="0.2" stroke-width="0.5"/>
<path d="M392.31 9L387.77 9V8.39L390.24 6.05C390.58 5.73 390.853 5.40667 391.06 5.08C391.267 4.74667 391.37 4.39667 391.37 4.03V3.84C391.37 3.40667 391.247 3.06333 391 2.81C390.76 2.55 390.4 2.42 389.92 2.42C389.453 2.42 389.09 2.53667 388.83 2.77C388.577 2.99667 388.39 3.30333 388.27 3.69L387.74 3.5C387.807 3.28667 387.897 3.08333 388.01 2.89C388.123 2.69667 388.267 2.52667 388.44 2.38C388.62 2.23333 388.833 2.11667 389.08 2.03C389.327 1.94333 389.61 1.9 389.93 1.9C390.263 1.9 390.557 1.95 390.81 2.05C391.07 2.14333 391.287 2.27667 391.46 2.45C391.64 2.62333 391.773 2.83333 391.86 3.08C391.953 3.32 392 3.59 392 3.89C392 4.38333 391.873 4.83333 391.62 5.24C391.367 5.64 391.027 6.03667 390.6 6.43L388.4 8.48L392.31 8.48V9ZM398.226 2.54L395.066 2.54L394.846 5.47L394.906 5.48C395.086 5.23333 395.293 5.05 395.526 4.93C395.766 4.80333 396.073 4.74 396.446 4.74C396.753 4.74 397.033 4.79 397.286 4.89C397.546 4.98333 397.766 5.12333 397.946 5.31C398.126 5.49 398.266 5.71333 398.366 5.98C398.466 6.24 398.516 6.53667 398.516 6.87C398.516 7.21 398.463 7.52 398.356 7.8C398.256 8.07333 398.106 8.31 397.906 8.51C397.713 8.70333 397.476 8.85333 397.196 8.96C396.916 9.06667 396.603 9.12 396.256 9.12C395.983 9.12 395.733 9.09 395.506 9.03C395.286 8.97667 395.086 8.9 394.906 8.8C394.733 8.69333 394.576 8.57 394.436 8.43C394.296 8.29 394.173 8.14 394.066 7.98L394.526 7.64C394.719 7.94 394.946 8.17667 395.206 8.35C395.473 8.51667 395.826 8.6 396.266 8.6C396.786 8.6 397.186 8.45333 397.466 8.16C397.753 7.86667 397.896 7.48 397.896 7V6.84C397.896 6.35333 397.756 5.96667 397.476 5.68C397.203 5.39333 396.806 5.25 396.286 5.25C396.099 5.25 395.936 5.26667 395.796 5.3C395.656 5.32667 395.529 5.37 395.416 5.43C395.309 5.48333 395.209 5.55 395.116 5.63C395.023 5.70333 394.933 5.79 394.846 5.89L394.326 5.81L394.576 2.02L398.226 2.02V2.54ZM402.592 9.12C401.786 9.12 401.186 8.82 400.792 8.22C400.406 7.61333 400.212 6.71 400.212 5.51C400.212 4.31 400.406 3.41 400.792 2.81C401.186 2.20333 401.786 1.9 402.592 1.9C403.399 1.9 403.996 2.20333 404.382 2.81C404.776 3.41 404.972 4.31 404.972 5.51C404.972 6.71 404.776 7.61333 404.382 8.22C403.996 8.82 403.399 9.12 402.592 9.12ZM402.592 8.6C403.192 8.6 403.632 8.37333 403.912 7.92C404.192 7.46 404.332 6.81333 404.332 5.98V5.04C404.332 4.21333 404.192 3.57 403.912 3.11C403.632 2.65 403.192 2.42 402.592 2.42C401.992 2.42 401.552 2.65 401.272 3.11C400.992 3.57 400.852 4.21333 400.852 5.04V5.98C400.852 6.81333 400.992 7.46 401.272 7.92C401.552 8.37333 401.992 8.6 402.592 8.6ZM402.592 5.97C402.419 5.97 402.296 5.93333 402.222 5.86C402.149 5.78667 402.112 5.69667 402.112 5.59V5.43C402.112 5.32333 402.149 5.23333 402.222 5.16C402.296 5.08667 402.419 5.05 402.592 5.05C402.766 5.05 402.889 5.08667 402.962 5.16C403.036 5.23333 403.072 5.32333 403.072 5.43V5.59C403.072 5.69667 403.036 5.78667 402.962 5.86C402.889 5.93333 402.766 5.97 402.592 5.97Z" fill="#505050" fill-opacity="0.5"/>
<path d="M330.74 5.08C331.233 5.08 331.617 4.96333 331.89 4.73C332.163 4.49 332.3 4.18 332.3 3.8V3.67C332.3 3.27 332.167 2.96333 331.9 2.75C331.64 2.53 331.3 2.42 330.88 2.42C330.467 2.42 330.137 2.50667 329.89 2.68C329.643 2.84667 329.447 3.07 329.3 3.35L328.85 3.03C328.93 2.88333 329.03 2.74333 329.15 2.61C329.277 2.47 329.42 2.34667 329.58 2.24C329.747 2.13333 329.937 2.05 330.15 1.99C330.37 1.93 330.617 1.9 330.89 1.9C331.183 1.9 331.453 1.94 331.7 2.02C331.953 2.1 332.17 2.21667 332.35 2.37C332.53 2.51667 332.67 2.7 332.77 2.92C332.877 3.13333 332.93 3.37667 332.93 3.65C332.93 3.88333 332.893 4.09333 332.82 4.28C332.753 4.46667 332.657 4.62667 332.53 4.76C332.41 4.89333 332.263 5.00667 332.09 5.1C331.923 5.18667 331.743 5.25333 331.55 5.3V5.34C331.757 5.37333 331.953 5.43667 332.14 5.53C332.327 5.61667 332.487 5.73333 332.62 5.88C332.76 6.02667 332.87 6.20333 332.95 6.41C333.03 6.61667 333.07 6.85 333.07 7.11C333.07 7.41 333.017 7.68667 332.91 7.94C332.803 8.18667 332.65 8.39667 332.45 8.57C332.25 8.74333 332.01 8.88 331.73 8.98C331.45 9.07333 331.137 9.12 330.79 9.12C330.51 9.12 330.257 9.09 330.03 9.03C329.803 8.97667 329.6 8.9 329.42 8.8C329.24 8.69333 329.08 8.57 328.94 8.43C328.8 8.29 328.677 8.14 328.57 7.98L329.02 7.64C329.213 7.94 329.447 8.17667 329.72 8.35C329.993 8.51667 330.35 8.6 330.79 8.6C331.303 8.6 331.707 8.47333 332 8.22C332.293 7.96 332.44 7.61 332.44 7.17V7.01C332.44 6.57 332.297 6.22667 332.01 5.98C331.73 5.72667 331.32 5.6 330.78 5.6L329.9 5.6V5.08L330.74 5.08ZM337.296 9.12C336.489 9.12 335.889 8.82 335.496 8.22C335.109 7.61333 334.916 6.71 334.916 5.51C334.916 4.31 335.109 3.41 335.496 2.81C335.889 2.20333 336.489 1.9 337.296 1.9C338.103 1.9 338.699 2.20333 339.086 2.81C339.479 3.41 339.676 4.31 339.676 5.51C339.676 6.71 339.479 7.61333 339.086 8.22C338.699 8.82 338.103 9.12 337.296 9.12ZM337.296 8.6C337.896 8.6 338.336 8.37333 338.616 7.92C338.896 7.46 339.036 6.81333 339.036 5.98V5.04C339.036 4.21333 338.896 3.57 338.616 3.11C338.336 2.65 337.896 2.42 337.296 2.42C336.696 2.42 336.256 2.65 335.976 3.11C335.696 3.57 335.556 4.21333 335.556 5.04V5.98C335.556 6.81333 335.696 7.46 335.976 7.92C336.256 8.37333 336.696 8.6 337.296 8.6ZM337.296 5.97C337.123 5.97 336.999 5.93333 336.926 5.86C336.853 5.78667 336.816 5.69667 336.816 5.59V5.43C336.816 5.32333 336.853 5.23333 336.926 5.16C336.999 5.08667 337.123 5.05 337.296 5.05C337.469 5.05 337.593 5.08667 337.666 5.16C337.739 5.23333 337.776 5.32333 337.776 5.43V5.59C337.776 5.69667 337.739 5.78667 337.666 5.86C337.593 5.93333 337.469 5.97 337.296 5.97ZM343.592 9.12C342.786 9.12 342.186 8.82 341.792 8.22C341.406 7.61333 341.212 6.71 341.212 5.51C341.212 4.31 341.406 3.41 341.792 2.81C342.186 2.20333 342.786 1.9 343.592 1.9C344.399 1.9 344.996 2.20333 345.382 2.81C345.776 3.41 345.972 4.31 345.972 5.51C345.972 6.71 345.776 7.61333 345.382 8.22C344.996 8.82 344.399 9.12 343.592 9.12ZM343.592 8.6C344.192 8.6 344.632 8.37333 344.912 7.92C345.192 7.46 345.332 6.81333 345.332 5.98V5.04C345.332 4.21333 345.192 3.57 344.912 3.11C344.632 2.65 344.192 2.42 343.592 2.42C342.992 2.42 342.552 2.65 342.272 3.11C341.992 3.57 341.852 4.21333 341.852 5.04V5.98C341.852 6.81333 341.992 7.46 342.272 7.92C342.552 8.37333 342.992 8.6 343.592 8.6ZM343.592 5.97C343.419 5.97 343.296 5.93333 343.222 5.86C343.149 5.78667 343.112 5.69667 343.112 5.59V5.43C343.112 5.32333 343.149 5.23333 343.222 5.16C343.296 5.08667 343.419 5.05 343.592 5.05C343.766 5.05 343.889 5.08667 343.962 5.16C344.036 5.23333 344.072 5.32333 344.072 5.43V5.59C344.072 5.69667 344.036 5.78667 343.962 5.86C343.889 5.93333 343.766 5.97 343.592 5.97Z" fill="#505050" fill-opacity="0.5"/>
<path d="M271.74 5.08C272.233 5.08 272.617 4.96333 272.89 4.73C273.163 4.49 273.3 4.18 273.3 3.8V3.67C273.3 3.27 273.167 2.96333 272.9 2.75C272.64 2.53 272.3 2.42 271.88 2.42C271.467 2.42 271.137 2.50667 270.89 2.68C270.643 2.84667 270.447 3.07 270.3 3.35L269.85 3.03C269.93 2.88333 270.03 2.74333 270.15 2.61C270.277 2.47 270.42 2.34667 270.58 2.24C270.747 2.13333 270.937 2.05 271.15 1.99C271.37 1.93 271.617 1.9 271.89 1.9C272.183 1.9 272.453 1.94 272.7 2.02C272.953 2.1 273.17 2.21667 273.35 2.37C273.53 2.51667 273.67 2.7 273.77 2.92C273.877 3.13333 273.93 3.37667 273.93 3.65C273.93 3.88333 273.893 4.09333 273.82 4.28C273.753 4.46667 273.657 4.62667 273.53 4.76C273.41 4.89333 273.263 5.00667 273.09 5.1C272.923 5.18667 272.743 5.25333 272.55 5.3V5.34C272.757 5.37333 272.953 5.43667 273.14 5.53C273.327 5.61667 273.487 5.73333 273.62 5.88C273.76 6.02667 273.87 6.20333 273.95 6.41C274.03 6.61667 274.07 6.85 274.07 7.11C274.07 7.41 274.017 7.68667 273.91 7.94C273.803 8.18667 273.65 8.39667 273.45 8.57C273.25 8.74333 273.01 8.88 272.73 8.98C272.45 9.07333 272.137 9.12 271.79 9.12C271.51 9.12 271.257 9.09 271.03 9.03C270.803 8.97667 270.6 8.9 270.42 8.8C270.24 8.69333 270.08 8.57 269.94 8.43C269.8 8.29 269.677 8.14 269.57 7.98L270.02 7.64C270.213 7.94 270.447 8.17667 270.72 8.35C270.993 8.51667 271.35 8.6 271.79 8.6C272.303 8.6 272.707 8.47333 273 8.22C273.293 7.96 273.44 7.61 273.44 7.17V7.01C273.44 6.57 273.297 6.22667 273.01 5.98C272.73 5.72667 272.32 5.6 271.78 5.6L270.9 5.6V5.08L271.74 5.08ZM280.226 2.54L277.066 2.54L276.846 5.47L276.906 5.48C277.086 5.23333 277.293 5.05 277.526 4.93C277.766 4.80333 278.073 4.74 278.446 4.74C278.753 4.74 279.033 4.79 279.286 4.89C279.546 4.98333 279.766 5.12333 279.946 5.31C280.126 5.49 280.266 5.71333 280.366 5.98C280.466 6.24 280.516 6.53667 280.516 6.87C280.516 7.21 280.463 7.52 280.356 7.8C280.256 8.07333 280.106 8.31 279.906 8.51C279.713 8.70333 279.476 8.85333 279.196 8.96C278.916 9.06667 278.603 9.12 278.256 9.12C277.983 9.12 277.733 9.09 277.506 9.03C277.286 8.97667 277.086 8.9 276.906 8.8C276.733 8.69333 276.576 8.57 276.436 8.43C276.296 8.29 276.173 8.14 276.066 7.98L276.526 7.64C276.719 7.94 276.946 8.17667 277.206 8.35C277.473 8.51667 277.826 8.6 278.266 8.6C278.786 8.6 279.186 8.45333 279.466 8.16C279.753 7.86667 279.896 7.48 279.896 7V6.84C279.896 6.35333 279.756 5.96667 279.476 5.68C279.203 5.39333 278.806 5.25 278.286 5.25C278.099 5.25 277.936 5.26667 277.796 5.3C277.656 5.32667 277.529 5.37 277.416 5.43C277.309 5.48333 277.209 5.55 277.116 5.63C277.023 5.70333 276.933 5.79 276.846 5.89L276.326 5.81L276.576 2.02L280.226 2.02V2.54ZM284.592 9.12C283.786 9.12 283.186 8.82 282.792 8.22C282.406 7.61333 282.212 6.71 282.212 5.51C282.212 4.31 282.406 3.41 282.792 2.81C283.186 2.20333 283.786 1.9 284.592 1.9C285.399 1.9 285.996 2.20333 286.382 2.81C286.776 3.41 286.972 4.31 286.972 5.51C286.972 6.71 286.776 7.61333 286.382 8.22C285.996 8.82 285.399 9.12 284.592 9.12ZM284.592 8.6C285.192 8.6 285.632 8.37333 285.912 7.92C286.192 7.46 286.332 6.81333 286.332 5.98V5.04C286.332 4.21333 286.192 3.57 285.912 3.11C285.632 2.65 285.192 2.42 284.592 2.42C283.992 2.42 283.552 2.65 283.272 3.11C282.992 3.57 282.852 4.21333 282.852 5.04V5.98C282.852 6.81333 282.992 7.46 283.272 7.92C283.552 8.37333 283.992 8.6 284.592 8.6ZM284.592 5.97C284.419 5.97 284.296 5.93333 284.222 5.86C284.149 5.78667 284.112 5.69667 284.112 5.59V5.43C284.112 5.32333 284.149 5.23333 284.222 5.16C284.296 5.08667 284.419 5.05 284.592 5.05C284.766 5.05 284.889 5.08667 284.962 5.16C285.036 5.23333 285.072 5.32333 285.072 5.43V5.59C285.072 5.69667 285.036 5.78667 284.962 5.86C284.889 5.93333 284.766 5.97 284.592 5.97Z" fill="#505050" fill-opacity="0.5"/>
<path d="M213.91 9V7.54L210.39 7.54V7.01L213.64 2.02L214.48 2.02L214.48 7.05L215.57 7.05V7.54L214.48 7.54V9L213.91 9ZM210.93 7.05L213.91 7.05L213.91 2.53H213.88L210.93 7.05ZM219.296 9.12C218.489 9.12 217.889 8.82 217.496 8.22C217.109 7.61333 216.916 6.71 216.916 5.51C216.916 4.31 217.109 3.41 217.496 2.81C217.889 2.20333 218.489 1.9 219.296 1.9C220.103 1.9 220.699 2.20333 221.086 2.81C221.479 3.41 221.676 4.31 221.676 5.51C221.676 6.71 221.479 7.61333 221.086 8.22C220.699 8.82 220.103 9.12 219.296 9.12ZM219.296 8.6C219.896 8.6 220.336 8.37333 220.616 7.92C220.896 7.46 221.036 6.81333 221.036 5.98V5.04C221.036 4.21333 220.896 3.57 220.616 3.11C220.336 2.65 219.896 2.42 219.296 2.42C218.696 2.42 218.256 2.65 217.976 3.11C217.696 3.57 217.556 4.21333 217.556 5.04V5.98C217.556 6.81333 217.696 7.46 217.976 7.92C218.256 8.37333 218.696 8.6 219.296 8.6ZM219.296 5.97C219.123 5.97 218.999 5.93333 218.926 5.86C218.853 5.78667 218.816 5.69667 218.816 5.59V5.43C218.816 5.32333 218.853 5.23333 218.926 5.16C218.999 5.08667 219.123 5.05 219.296 5.05C219.469 5.05 219.593 5.08667 219.666 5.16C219.739 5.23333 219.776 5.32333 219.776 5.43V5.59C219.776 5.69667 219.739 5.78667 219.666 5.86C219.593 5.93333 219.469 5.97 219.296 5.97ZM225.592 9.12C224.786 9.12 224.186 8.82 223.792 8.22C223.406 7.61333 223.212 6.71 223.212 5.51C223.212 4.31 223.406 3.41 223.792 2.81C224.186 2.20333 224.786 1.9 225.592 1.9C226.399 1.9 226.996 2.20333 227.382 2.81C227.776 3.41 227.972 4.31 227.972 5.51C227.972 6.71 227.776 7.61333 227.382 8.22C226.996 8.82 226.399 9.12 225.592 9.12ZM225.592 8.6C226.192 8.6 226.632 8.37333 226.912 7.92C227.192 7.46 227.332 6.81333 227.332 5.98V5.04C227.332 4.21333 227.192 3.57 226.912 3.11C226.632 2.65 226.192 2.42 225.592 2.42C224.992 2.42 224.552 2.65 224.272 3.11C223.992 3.57 223.852 4.21333 223.852 5.04V5.98C223.852 6.81333 223.992 7.46 224.272 7.92C224.552 8.37333 224.992 8.6 225.592 8.6ZM225.592 5.97C225.419 5.97 225.296 5.93333 225.222 5.86C225.149 5.78667 225.112 5.69667 225.112 5.59V5.43C225.112 5.32333 225.149 5.23333 225.222 5.16C225.296 5.08667 225.419 5.05 225.592 5.05C225.766 5.05 225.889 5.08667 225.962 5.16C226.036 5.23333 226.072 5.32333 226.072 5.43V5.59C226.072 5.69667 226.036 5.78667 225.962 5.86C225.889 5.93333 225.766 5.97 225.592 5.97Z" fill="#505050" fill-opacity="0.5"/>
<path d="M154.91 9V7.54L151.39 7.54V7.01L154.64 2.02L155.48 2.02L155.48 7.05L156.57 7.05V7.54L155.48 7.54V9L154.91 9ZM151.93 7.05L154.91 7.05L154.91 2.53H154.88L151.93 7.05ZM162.226 2.54L159.066 2.54L158.846 5.47L158.906 5.48C159.086 5.23333 159.293 5.05 159.526 4.93C159.766 4.80333 160.073 4.74 160.446 4.74C160.753 4.74 161.033 4.79 161.286 4.89C161.546 4.98333 161.766 5.12333 161.946 5.31C162.126 5.49 162.266 5.71333 162.366 5.98C162.466 6.24 162.516 6.53667 162.516 6.87C162.516 7.21 162.463 7.52 162.356 7.8C162.256 8.07333 162.106 8.31 161.906 8.51C161.713 8.70333 161.476 8.85333 161.196 8.96C160.916 9.06667 160.603 9.12 160.256 9.12C159.983 9.12 159.733 9.09 159.506 9.03C159.286 8.97667 159.086 8.9 158.906 8.8C158.733 8.69333 158.576 8.57 158.436 8.43C158.296 8.29 158.173 8.14 158.066 7.98L158.526 7.64C158.719 7.94 158.946 8.17667 159.206 8.35C159.473 8.51667 159.826 8.6 160.266 8.6C160.786 8.6 161.186 8.45333 161.466 8.16C161.753 7.86667 161.896 7.48 161.896 7V6.84C161.896 6.35333 161.756 5.96667 161.476 5.68C161.203 5.39333 160.806 5.25 160.286 5.25C160.099 5.25 159.936 5.26667 159.796 5.3C159.656 5.32667 159.529 5.37 159.416 5.43C159.309 5.48333 159.209 5.55 159.116 5.63C159.023 5.70333 158.933 5.79 158.846 5.89L158.326 5.81L158.576 2.02L162.226 2.02V2.54ZM166.592 9.12C165.786 9.12 165.186 8.82 164.792 8.22C164.406 7.61333 164.212 6.71 164.212 5.51C164.212 4.31 164.406 3.41 164.792 2.81C165.186 2.20333 165.786 1.9 166.592 1.9C167.399 1.9 167.996 2.20333 168.382 2.81C168.776 3.41 168.972 4.31 168.972 5.51C168.972 6.71 168.776 7.61333 168.382 8.22C167.996 8.82 167.399 9.12 166.592 9.12ZM166.592 8.6C167.192 8.6 167.632 8.37333 167.912 7.92C168.192 7.46 168.332 6.81333 168.332 5.98V5.04C168.332 4.21333 168.192 3.57 167.912 3.11C167.632 2.65 167.192 2.42 166.592 2.42C165.992 2.42 165.552 2.65 165.272 3.11C164.992 3.57 164.852 4.21333 164.852 5.04V5.98C164.852 6.81333 164.992 7.46 165.272 7.92C165.552 8.37333 165.992 8.6 166.592 8.6ZM166.592 5.97C166.419 5.97 166.296 5.93333 166.222 5.86C166.149 5.78667 166.112 5.69667 166.112 5.59V5.43C166.112 5.32333 166.149 5.23333 166.222 5.16C166.296 5.08667 166.419 5.05 166.592 5.05C166.766 5.05 166.889 5.08667 166.962 5.16C167.036 5.23333 167.072 5.32333 167.072 5.43V5.59C167.072 5.69667 167.036 5.78667 166.962 5.86C166.889 5.93333 166.766 5.97 166.592 5.97Z" fill="#505050" fill-opacity="0.5"/>
<path d="M96.93 2.54L93.77 2.54L93.55 5.47L93.61 5.48C93.79 5.23333 93.9967 5.05 94.23 4.93C94.47 4.80333 94.7767 4.74 95.15 4.74C95.4567 4.74 95.7367 4.79 95.99 4.89C96.25 4.98333 96.47 5.12333 96.65 5.31C96.83 5.49 96.97 5.71333 97.07 5.98C97.17 6.24 97.22 6.53667 97.22 6.87C97.22 7.21 97.1667 7.52 97.06 7.8C96.96 8.07333 96.81 8.31 96.61 8.51C96.4167 8.70333 96.18 8.85333 95.9 8.96C95.62 9.06667 95.3067 9.12 94.96 9.12C94.6867 9.12 94.4367 9.09 94.21 9.03C93.99 8.97667 93.79 8.9 93.61 8.8C93.4367 8.69333 93.28 8.57 93.14 8.43C93 8.29 92.8767 8.14 92.77 7.98L93.23 7.64C93.4233 7.94 93.65 8.17667 93.91 8.35C94.1767 8.51667 94.53 8.6 94.97 8.6C95.49 8.6 95.89 8.45333 96.17 8.16C96.4567 7.86667 96.6 7.48 96.6 7V6.84C96.6 6.35333 96.46 5.96667 96.18 5.68C95.9067 5.39333 95.51 5.25 94.99 5.25C94.8033 5.25 94.64 5.26667 94.5 5.3C94.36 5.32667 94.2333 5.37 94.12 5.43C94.0133 5.48333 93.9133 5.55 93.82 5.63C93.7267 5.70333 93.6367 5.79 93.55 5.89L93.03 5.81L93.28 2.02L96.93 2.02L96.93 2.54ZM101.296 9.12C100.489 9.12 99.8894 8.82 99.4961 8.22C99.1094 7.61333 98.9161 6.71 98.9161 5.51C98.9161 4.31 99.1094 3.41 99.4961 2.81C99.8894 2.20333 100.489 1.9 101.296 1.9C102.103 1.9 102.699 2.20333 103.086 2.81C103.479 3.41 103.676 4.31 103.676 5.51C103.676 6.71 103.479 7.61333 103.086 8.22C102.699 8.82 102.103 9.12 101.296 9.12ZM101.296 8.6C101.896 8.6 102.336 8.37333 102.616 7.92C102.896 7.46 103.036 6.81333 103.036 5.98L103.036 5.04C103.036 4.21333 102.896 3.57 102.616 3.11C102.336 2.65 101.896 2.42 101.296 2.42C100.696 2.42 100.256 2.65 99.9761 3.11C99.6961 3.57 99.5561 4.21333 99.5561 5.04L99.5561 5.98C99.5561 6.81333 99.6961 7.46 99.9761 7.92C100.256 8.37333 100.696 8.6 101.296 8.6ZM101.296 5.97C101.123 5.97 100.999 5.93333 100.926 5.86C100.853 5.78667 100.816 5.69667 100.816 5.59V5.43C100.816 5.32333 100.853 5.23333 100.926 5.16C100.999 5.08667 101.123 5.05 101.296 5.05C101.469 5.05 101.593 5.08667 101.666 5.16C101.739 5.23333 101.776 5.32333 101.776 5.43V5.59C101.776 5.69667 101.739 5.78667 101.666 5.86C101.593 5.93333 101.469 5.97 101.296 5.97ZM107.592 9.12C106.786 9.12 106.186 8.82 105.792 8.22C105.406 7.61333 105.212 6.71 105.212 5.51C105.212 4.31 105.406 3.41 105.792 2.81C106.186 2.20333 106.786 1.9 107.592 1.9C108.399 1.9 108.996 2.20333 109.382 2.81C109.776 3.41 109.972 4.31 109.972 5.51C109.972 6.71 109.776 7.61333 109.382 8.22C108.996 8.82 108.399 9.12 107.592 9.12ZM107.592 8.6C108.192 8.6 108.632 8.37333 108.912 7.92C109.192 7.46 109.332 6.81333 109.332 5.98L109.332 5.04C109.332 4.21333 109.192 3.57 108.912 3.11C108.632 2.65 108.192 2.42 107.592 2.42C106.992 2.42 106.552 2.65 106.272 3.11C105.992 3.57 105.852 4.21333 105.852 5.04L105.852 5.98C105.852 6.81333 105.992 7.46 106.272 7.92C106.552 8.37333 106.992 8.6 107.592 8.6ZM107.592 5.97C107.419 5.97 107.296 5.93333 107.222 5.86C107.149 5.78667 107.112 5.69667 107.112 5.59V5.43C107.112 5.32333 107.149 5.23333 107.222 5.16C107.296 5.08667 107.419 5.05 107.592 5.05C107.766 5.05 107.889 5.08667 107.962 5.16C108.036 5.23333 108.072 5.32333 108.072 5.43L108.072 5.59C108.072 5.69667 108.036 5.78667 107.962 5.86C107.889 5.93333 107.766 5.97 107.592 5.97Z" fill="#505050" fill-opacity="0.5"/>
<path d="M37.93 2.54L34.77 2.54L34.55 5.47L34.61 5.48C34.79 5.23333 34.9967 5.05 35.23 4.93C35.47 4.80333 35.7767 4.74 36.15 4.74C36.4567 4.74 36.7367 4.79 36.99 4.89C37.25 4.98333 37.47 5.12333 37.65 5.31C37.83 5.49 37.97 5.71333 38.07 5.98C38.17 6.24 38.22 6.53667 38.22 6.87C38.22 7.21 38.1667 7.52 38.06 7.8C37.96 8.07333 37.81 8.31 37.61 8.51C37.4167 8.70333 37.18 8.85333 36.9 8.96C36.62 9.06667 36.3067 9.12 35.96 9.12C35.6867 9.12 35.4367 9.09 35.21 9.03C34.99 8.97667 34.79 8.9 34.61 8.8C34.4367 8.69333 34.28 8.57 34.14 8.43C34 8.29 33.8767 8.14 33.77 7.98L34.23 7.64C34.4233 7.94 34.65 8.17667 34.91 8.35C35.1767 8.51667 35.53 8.6 35.97 8.6C36.49 8.6 36.89 8.45333 37.17 8.16C37.4567 7.86667 37.6 7.48 37.6 7L37.6 6.84C37.6 6.35333 37.46 5.96667 37.18 5.68C36.9067 5.39333 36.51 5.25 35.99 5.25C35.8033 5.25 35.64 5.26667 35.5 5.3C35.36 5.32667 35.2333 5.37 35.12 5.43C35.0133 5.48333 34.9133 5.55 34.82 5.63C34.7267 5.70333 34.6367 5.79 34.55 5.89L34.03 5.81L34.28 2.02L37.93 2.02V2.54ZM44.2261 2.54L41.0661 2.54L40.8461 5.47L40.9061 5.48C41.0861 5.23333 41.2928 5.05 41.5261 4.93C41.7661 4.80333 42.0728 4.74 42.4461 4.74C42.7528 4.74 43.0328 4.79 43.2861 4.89C43.5461 4.98333 43.7661 5.12333 43.9461 5.31C44.1261 5.49 44.2661 5.71333 44.3661 5.98C44.4661 6.24 44.5161 6.53667 44.5161 6.87C44.5161 7.21 44.4628 7.52 44.3561 7.8C44.2561 8.07333 44.1061 8.31 43.9061 8.51C43.7128 8.70333 43.4761 8.85333 43.1961 8.96C42.9161 9.06667 42.6028 9.12 42.2561 9.12C41.9828 9.12 41.7328 9.09 41.5061 9.03C41.2861 8.97667 41.0861 8.9 40.9061 8.8C40.7328 8.69333 40.5761 8.57 40.4361 8.43C40.2961 8.29 40.1728 8.14 40.0661 7.98L40.5261 7.64C40.7194 7.94 40.9461 8.17667 41.2061 8.35C41.4728 8.51667 41.8261 8.6 42.2661 8.6C42.7861 8.6 43.1861 8.45333 43.4661 8.16C43.7528 7.86667 43.8961 7.48 43.8961 7V6.84C43.8961 6.35333 43.7561 5.96667 43.4761 5.68C43.2028 5.39333 42.8061 5.25 42.2861 5.25C42.0994 5.25 41.9361 5.26667 41.7961 5.3C41.6561 5.32667 41.5294 5.37 41.4161 5.43C41.3094 5.48333 41.2094 5.55 41.1161 5.63C41.0228 5.70333 40.9328 5.79 40.8461 5.89L40.3261 5.81L40.5761 2.02L44.2261 2.02V2.54ZM48.5922 9.12C47.7855 9.12 47.1855 8.82 46.7922 8.22C46.4055 7.61333 46.2122 6.71 46.2122 5.51C46.2122 4.31 46.4055 3.41 46.7922 2.81C47.1855 2.20333 47.7855 1.9 48.5922 1.9C49.3989 1.9 49.9955 2.20333 50.3822 2.81C50.7755 3.41 50.9722 4.31 50.9722 5.51C50.9722 6.71 50.7755 7.61333 50.3822 8.22C49.9955 8.82 49.3989 9.12 48.5922 9.12ZM48.5922 8.6C49.1922 8.6 49.6322 8.37333 49.9122 7.92C50.1922 7.46 50.3322 6.81333 50.3322 5.98L50.3322 5.04C50.3322 4.21333 50.1922 3.57 49.9122 3.11C49.6322 2.65 49.1922 2.42 48.5922 2.42C47.9922 2.42 47.5522 2.65 47.2722 3.11C46.9922 3.57 46.8522 4.21333 46.8522 5.04L46.8522 5.98C46.8522 6.81333 46.9922 7.46 47.2722 7.92C47.5522 8.37333 47.9922 8.6 48.5922 8.6ZM48.5922 5.97C48.4189 5.97 48.2955 5.93333 48.2222 5.86C48.1489 5.78667 48.1122 5.69667 48.1122 5.59V5.43C48.1122 5.32333 48.1489 5.23333 48.2222 5.16C48.2955 5.08667 48.4189 5.05 48.5922 5.05C48.7655 5.05 48.8889 5.08667 48.9622 5.16C49.0355 5.23333 49.0722 5.32333 49.0722 5.43L49.0722 5.59C49.0722 5.69667 49.0355 5.78667 48.9622 5.86C48.8889 5.93333 48.7655 5.97 48.5922 5.97Z" fill="#505050" fill-opacity="0.5"/>
<line x1="396.75" y1="14" x2="396.75" y2="22" stroke="#505050" stroke-opacity="0.2" stroke-width="0.5"/>
<line x1="337.75" y1="14" x2="337.75" y2="22" stroke="#505050" stroke-opacity="0.2" stroke-width="0.5"/>
<line x1="278.75" y1="14" x2="278.75" y2="22" stroke="#505050" stroke-opacity="0.2" stroke-width="0.5"/>
<line x1="219.75" y1="14" x2="219.75" y2="22" stroke="#505050" stroke-opacity="0.2" stroke-width="0.5"/>
<line x1="160.75" y1="14" x2="160.75" y2="22" stroke="#505050" stroke-opacity="0.2" stroke-width="0.5"/>
<line x1="101.75" y1="14" x2="101.75" y2="22" stroke="#505050" stroke-opacity="0.2" stroke-width="0.5"/>
<line x1="42.75" y1="14" x2="42.75" y2="22" stroke="#505050" stroke-opacity="0.2" stroke-width="0.5"/>
</svg>
