<svg width="311" height="106" viewBox="0 0 311 106" fill="none" xmlns="http://www.w3.org/2000/svg">
<path d="M286.521 37.5748C286.522 37.5748 286.522 37.5748 286.522 37.5748" stroke="black" stroke-width="2.5" stroke-linecap="round" stroke-linejoin="round"/>
<path d="M41.4956 30.2504C32.3035 34.0617 32.7888 45.1379 35.651 53.4066C37.7117 59.3595 47.771 61.9674 51.1502 55.885C53.9876 50.7776 52.6147 44.4979 51.4461 39.2391C50.8046 36.3526 48.1633 34.8906 46.8223 32.5438C45.7763 30.7134 39.8284 29.0812 41.4956 31.582" stroke="black" stroke-width="2.5" stroke-linecap="round" stroke-linejoin="round"/>
<path d="M39.498 52.889C43.4479 53.7778 43.6155 54.4924 46.8222 52.889" stroke="black" stroke-width="2.5" stroke-linecap="round" stroke-linejoin="round"/>
<path d="M38.832 45.5653C38.8321 45.5653 38.8321 45.5653 38.8321 45.5653" stroke="black" stroke-width="2.5" stroke-linecap="round" stroke-linejoin="round"/>
<path d="M44.8242 43.568C44.8243 43.568 44.8243 43.568 44.8243 43.568" stroke="black" stroke-width="2.5" stroke-linecap="round" stroke-linejoin="round"/>
<path d="M9.53711 19.5975C11.3007 23.0541 14.6722 26.3923 15.5296 30.2509C16.2726 33.5942 17.7489 36.2701 19.8205 38.9067C21.7236 41.3288 22.702 43.9552 24.8513 46.2309C26.059 47.5096 27.4746 49.3548 28.3284 50.8917C29.8096 53.5579 33.316 56.7539 35.8745 58.2159C36.918 58.8122 43.0131 61.9137 42.163 60.2134" stroke="black" stroke-width="2.5" stroke-linecap="round" stroke-linejoin="round"/>
<path d="M7.53711 24.2581C9.8348 27.4174 9.09947 29.1257 10.3484 32.2481C12.2083 36.8979 14.707 41.2493 16.5259 45.8977C18.2314 50.2564 19.6755 54.0623 22.2225 57.8827C23.9785 60.5167 25.9915 63.0638 27.8081 65.6877C30.5375 69.6302 37.878 70.6457 38.8313 74.9354C40.1319 80.7882 43.6061 85.9306 45.4897 91.5813C46.6865 95.1719 48.5217 99.0111 49.3367 102.679C50.0395 105.841 48.8067 103.468 48.153 102.161" stroke="black" stroke-width="2.5" stroke-linecap="round" stroke-linejoin="round"/>
<path d="M52.8135 55.5526C54.7198 46.868 56.8085 38.6257 56.8085 29.6221C56.8085 22.2679 56.1426 14.8461 56.1426 7.61254C56.1426 5.49173 56.1426 1.25012 56.1426 1.25012C56.1426 1.25012 57.329 4.88454 57.8442 6.72476C59.6377 13.13 60.8035 18.6534 60.8035 25.2571C60.8035 34.3971 61.4693 43.3105 61.4693 52.5193C61.4693 54.8245 60.1264 63.1614 61.3214 64.3564C64.8424 67.8774 66.4235 74.2544 68.0537 78.7828C69.5391 82.9091 70.3047 87.2592 71.7528 91.3967C72.223 92.7401 71.4568 93.49 71.4568 94.8368" stroke="black" stroke-width="2.5" stroke-linecap="round" stroke-linejoin="round"/>
<path d="M6.20619 26.922C3.19515 23.8169 0.246986 19.9806 1.58234 15.3069C1.73272 14.7806 5.23592 14.1665 5.87327 14.3081C6.97321 14.5526 8.80501 17.1694 8.86952 18.2662C9.09345 22.0729 14.1962 16.2703 14.1962 21.2624C14.1962 23.4817 13.834 24.1639 11.8658 25.2574C9.74625 26.4349 11.5575 27.5755 10.2012 28.2537" stroke="black" stroke-width="2.5" stroke-linecap="round" stroke-linejoin="round"/>
<path d="M84.108 21.5952C73.3178 19.753 73.6241 35.3867 74.1205 42.0881C74.582 48.3191 82.6047 51.1624 87.1042 47.5627C91.8617 43.7568 90.7663 38.1045 90.7663 32.5815C90.7663 29.9931 90.5468 26.8139 88.9168 24.7764C87.9117 23.5201 87.7928 22.9269 85.7726 22.9269C84.1665 22.9269 84.4054 23.444 85.4396 22.9269" stroke="black" stroke-width="2.5" stroke-linecap="round" stroke-linejoin="round"/>
<path d="M78.7822 42.9017C79.299 43.1034 84.7747 44.8979 84.7747 42.9017" stroke="black" stroke-width="2.5" stroke-linecap="round" stroke-linejoin="round"/>
<path d="M80.1133 35.5773C80.1133 35.5773 80.1133 35.5773 80.1134 35.5773" stroke="black" stroke-width="2.5" stroke-linecap="round" stroke-linejoin="round"/>
<path d="M84.7754 34.9117C84.7754 34.9117 84.7755 34.9117 84.7755 34.9117" stroke="black" stroke-width="2.5" stroke-linecap="round" stroke-linejoin="round"/>
<path d="M58.1406 3.61719C59.6922 7.59306 62.8387 10.809 63.9852 14.9364C65.5109 20.4289 67.6354 25.6429 69.7927 30.9164C70.3713 32.3306 73.7854 44.0678 73.4548 44.2331" stroke="black" stroke-width="2.5" stroke-linecap="round" stroke-linejoin="round"/>
<path d="M60.8057 13.6052C60.8833 16.7884 61.7328 20.4209 62.5072 23.5188C63.8163 28.7548 64.0886 34.2376 65.4665 39.4248C66.8073 44.4723 68.1104 49.6588 69.4985 54.517C69.7121 55.2647 70.9205 56.1033 71.311 56.8844C73.3732 61.0088 75.5708 64.2764 76.4528 68.9804C77.4837 74.4785 79.1015 79.8116 80.7807 85.1454C81.0073 85.8652 81.7226 91.0045 80.7807 88.1786" stroke="black" stroke-width="2.5" stroke-linecap="round" stroke-linejoin="round"/>
<path d="M88.7686 48.2282C94.1651 47.0436 99.1087 44.6557 104.601 44.2332C106.72 44.0702 108.191 44.2332 110.408 44.2332C113.298 44.2332 113.046 45.3259 111.407 44.2332" stroke="black" stroke-width="2.5" stroke-linecap="round" stroke-linejoin="round"/>
<path d="M114.071 50.226C110.036 51.8009 107.169 53.3209 103.418 55.4047C102.022 56.18 100.516 56.7564 99.1272 57.5501C98.7738 57.7521 98.0521 59.7633 97.5736 60.3614C96.9607 61.1276 97.3949 63.7785 97.7585 64.5784C98.7992 66.868 98.0914 70.5494 98.0914 73.0123C98.0914 78.5116 100.551 94.4289 98.0914 89.5102" stroke="black" stroke-width="2.5" stroke-linecap="round" stroke-linejoin="round"/>
<path d="M122.728 22.9266C112.943 21.0174 113.008 34.5568 114.035 41.2371C114.95 47.181 119.042 50.9022 124.726 48.3763C131.989 45.148 133.024 26.2558 123.394 26.2558" stroke="black" stroke-width="2.5" stroke-linecap="round" stroke-linejoin="round"/>
<path d="M119.397 41.5699C119.846 41.7451 126.032 43.2224 124.058 42.2358" stroke="black" stroke-width="2.5" stroke-linecap="round" stroke-linejoin="round"/>
<path d="M119.397 34.9117C119.397 34.9117 119.398 34.9117 119.398 34.9117" stroke="black" stroke-width="2.5" stroke-linecap="round" stroke-linejoin="round"/>
<path d="M125.39 33.58C125.39 33.58 125.39 33.58 125.39 33.58" stroke="black" stroke-width="2.5" stroke-linecap="round" stroke-linejoin="round"/>
<path d="M102.086 61.545C103.014 61.5677 109.429 63.3528 110.076 62.5438C111.422 60.8606 112.914 64.0969 113.257 65.0222C115.881 72.107 116.068 95.0677 116.068 87.5126" stroke="black" stroke-width="2.5" stroke-linecap="round" stroke-linejoin="round"/>
<path d="M135.377 87.5122C134.854 84.7634 133.331 63.1322 135.377 62.8763C137.748 62.58 139.551 60.8788 142.332 60.8788C143.911 60.8788 145.355 60.213 146.992 60.213C149.509 60.213 147.332 60.4732 146.031 60.213" stroke="black" stroke-width="2.5" stroke-linecap="round" stroke-linejoin="round"/>
<path d="M129.386 47.5626C130.111 48.1293 131.514 49.9304 132.419 50.189C132.878 50.3202 133.496 50.0522 133.899 50.3739C134.673 50.9934 135.77 50.993 136.562 51.7056C137.347 52.4124 138.388 52.2198 139.373 52.7413C140.773 53.4822 139.172 54.3086 138.042 53.5551" stroke="black" stroke-width="2.5" stroke-linecap="round" stroke-linejoin="round"/>
<path d="M166.005 20.9294C157.752 20.9294 152.688 28.9752 152.688 36.7615C152.688 41.5964 156.296 51.4306 162.972 49.5233C168.631 47.9064 171.332 42.0696 171.332 36.5765C171.332 33.6251 168.996 30.6881 168.003 27.9577C167.59 26.8221 166.925 25.6488 166.338 24.5915C165.481 23.0496 164.246 24.3776 165.339 24.9244" stroke="black" stroke-width="2.5" stroke-linecap="round" stroke-linejoin="round"/>
<path d="M158.682 42.2358C161.045 43.9549 161.741 44.6196 164.008 43.4195C164.823 42.9882 166.553 42.1767 165.34 41.5699" stroke="black" stroke-width="2.5" stroke-linecap="round" stroke-linejoin="round"/>
<path d="M156.685 32.9144C156.685 32.9144 156.685 32.9144 156.685 32.9144" stroke="black" stroke-width="2.5" stroke-linecap="round" stroke-linejoin="round"/>
<path d="M164.674 33.58C164.674 33.58 164.674 33.58 164.674 33.58" stroke="black" stroke-width="2.5" stroke-linecap="round" stroke-linejoin="round"/>
<path d="M152.688 46.231C148.739 41.1762 143.995 34.5992 142.552 28.1055C141.149 21.7897 138.569 14.2358 135.376 8.64835C134.741 7.53743 134.336 5.95668 133.231 5.09723C132.144 4.25226 132.047 9.2309 132.047 9.61011C132.047 16.844 133.841 25.1709 135.894 32.1005C136.686 34.7743 136.608 37.5594 137.374 40.2385C138.098 42.7733 139.346 45.1943 140.185 47.7106C141.47 51.5653 144.379 54.9369 145.401 58.5119C146.363 61.8807 149.359 63.2181 149.359 67.2048C149.359 70.2398 149.973 73.6665 150.542 76.6374C151.019 79.1261 151.284 81.658 151.356 84.1835C151.394 85.5135 152.274 86.5708 150.69 85.5152" stroke="black" stroke-width="2.5" stroke-linecap="round" stroke-linejoin="round"/>
<path d="M168.004 49.5604C172.252 49.5604 175.784 50.8921 179.989 50.8921C182.153 50.8921 186.914 52.8896 181.986 52.8896" stroke="black" stroke-width="2.5" stroke-linecap="round" stroke-linejoin="round"/>
<path d="M187.977 56.8845C185.397 56.8845 181.147 56.2956 178.952 57.5503C177.789 58.2148 174.086 58.67 173.995 60.2137C173.695 65.3111 175.105 70.2795 174.328 75.5649C174.056 77.4166 175.078 87.3043 173.329 88.1787" stroke="black" stroke-width="2.5" stroke-linecap="round" stroke-linejoin="round"/>
<path d="M201.295 16.9338C191.733 15.3012 188.089 30.4154 192.011 37.2788C195.583 43.5293 206.886 46.9682 210.617 38.5735C212.939 33.3501 211.132 28.0612 209.138 23.0743C208.044 20.3414 205.53 19.8964 203.959 17.9326C202.359 15.9333 200.302 18.7676 201.961 19.5972" stroke="black" stroke-width="2.5" stroke-linecap="round" stroke-linejoin="round"/>
<path d="M198.631 36.2435C201.251 38.2288 202.469 39.4551 205.289 37.5752" stroke="black" stroke-width="2.5" stroke-linecap="round" stroke-linejoin="round"/>
<path d="M196.635 25.59C196.635 25.59 196.635 25.59 196.635 25.59" stroke="black" stroke-width="2.5" stroke-linecap="round" stroke-linejoin="round"/>
<path d="M205.292 26.2557C205.292 26.2557 205.292 26.2557 205.292 26.2557" stroke="black" stroke-width="2.5" stroke-linecap="round" stroke-linejoin="round"/>
<path d="M194.638 41.5699C186.826 43.0942 179.84 48.2283 172 48.2283" stroke="black" stroke-width="2.5" stroke-linecap="round" stroke-linejoin="round"/>
<path d="M185.314 54.8867C186.355 54.8867 189.169 54.3094 189.827 55.5525C190.194 56.2447 189.781 56.9542 190.308 57.587C191.942 59.5476 191.837 65.101 192.306 67.5375C193.442 73.4474 193.97 91.5332 193.97 85.515" stroke="black" stroke-width="2.5" stroke-linecap="round" stroke-linejoin="round"/>
<path d="M209.952 43.568C213.054 43.6455 214.708 44.6512 217.276 45.9354C219.364 46.9793 220.931 46.8972 223.269 46.8972C225.167 46.8972 231.052 48.4806 231.925 50.2263" stroke="black" stroke-width="2.5" stroke-linecap="round" stroke-linejoin="round"/>
<path d="M236.587 56.8844C233.802 56.8844 216.982 58.7281 216.982 60.2136C216.982 60.9286 217.267 62.479 217.611 63.5797C218.745 67.2109 217.595 72.5871 216.945 76.2306C216.334 79.651 216.066 83.883 215.946 87.3648C215.896 88.8162 215.946 90.2773 215.946 91.7297C215.946 92.0256 216.155 91.0512 215.946 90.8419" stroke="black" stroke-width="2.5" stroke-linecap="round" stroke-linejoin="round"/>
<path d="M247.238 30.9167C244.567 29.8093 244.191 29.0229 241.911 30.1029C239.725 31.1384 238.127 32.4885 236.584 34.3939C233.248 38.515 233.031 42.7515 234.069 47.7106C234.779 51.1027 236.647 56.0647 239.914 57.6981C243.221 59.3518 244.368 56.5373 247.238 56.2184C249.132 56.0079 250.71 52.8952 251.899 51.5576C253.221 50.07 253.23 46.1782 253.23 44.2334C253.23 42.8952 252.855 39.1033 252.047 38.093C251.621 37.5605 248.843 29.7036 247.238 32.9142" stroke="black" stroke-width="2.5" stroke-linecap="round" stroke-linejoin="round"/>
<path d="M239.247 50.8912C241.335 52.4098 244.977 54.7458 246.571 51.5571" stroke="black" stroke-width="2.5" stroke-linecap="round" stroke-linejoin="round"/>
<path d="M240.578 42.9017C240.578 42.9017 240.578 42.9017 240.578 42.9017" stroke="black" stroke-width="2.5" stroke-linecap="round" stroke-linejoin="round"/>
<path d="M247.24 41.5699C247.24 41.5699 247.24 41.5699 247.24 41.5699" stroke="black" stroke-width="2.5" stroke-linecap="round" stroke-linejoin="round"/>
<path d="M220.605 63.5426C223.794 65.8612 226.814 66.8451 230.445 68.0555C232.304 68.675 234.15 69.5105 235.92 70.3489C237.89 71.2821 236.308 71.6842 236.918 73.2712C238.748 78.0271 237.085 85.6161 236.622 90.4719C236.51 91.6544 236.322 93.4304 236.918 94.5039C237.691 95.8943 237.256 93.8405 236.585 93.5051" stroke="black" stroke-width="2.5" stroke-linecap="round" stroke-linejoin="round"/>
<path d="M250.567 55.5524C255.894 51.3908 254.562 44.5884 254.562 38.3887C254.562 33.9005 254.562 29.4123 254.562 24.9241C254.562 22.4596 253.679 17.9238 254.71 15.6024C257.577 9.15312 258.53 22.4259 258.557 24.1103C258.689 32.1421 259.889 40.0789 259.889 48.1913C259.889 51.9906 260.555 55.417 260.555 59.2145C260.555 61.7882 260.749 66.3681 261.258 69.165C262.16 74.1262 261.221 79.6081 261.221 84.8491C261.221 87.906 259.889 90.9388 259.889 94.0228C259.889 94.75 259.889 99.3659 259.889 96.8341" stroke="black" stroke-width="2.5" stroke-linecap="round" stroke-linejoin="round"/>
<path d="M284.527 24.9241C278.995 23.9795 275.697 27.0744 274.022 32.1003C272.356 37.0972 272.592 40.1346 274.91 44.8991C276.722 48.6238 277.184 51.7168 281.198 53.407C285.233 55.1057 288.66 52.1688 291.519 50.2628C296.086 47.2176 295.067 36.1531 293.183 31.9153C291.8 28.8023 288.833 29.3069 287.191 27.2545C285.181 24.7418 283.325 28.2101 281.198 28.9191" stroke="black" stroke-width="2.5" stroke-linecap="round" stroke-linejoin="round"/>
<path d="M280.53 43.568C282.889 46.8115 283.26 47.8769 286.819 46.8602C287.45 46.6799 291.144 44.691 288.52 45.5655" stroke="black" stroke-width="2.5" stroke-linecap="round" stroke-linejoin="round"/>
<path d="M281.863 36.2435C281.863 36.2435 281.863 36.2435 281.863 36.2435" stroke="black" stroke-width="2.5" stroke-linecap="round" stroke-linejoin="round"/>
<path d="M274.538 50.8915C268.717 53.163 263.757 54.7491 258.558 58.2157" stroke="black" stroke-width="2.5" stroke-linecap="round" stroke-linejoin="round"/>
<path d="M263.887 66.2058C264.362 66.0203 269.928 64.1438 269.879 64.8742C269.771 66.4957 268.91 67.8013 269.361 69.8309C270.582 75.3216 269.213 81.4355 269.213 87.0686C269.213 87.7977 269.404 93.696 268.548 92.8392" stroke="black" stroke-width="2.5" stroke-linecap="round" stroke-linejoin="round"/>
<path d="M295.177 95.5026C295.294 89.778 296.564 83.8135 297.508 78.154C298.015 75.1082 298.85 72.2165 299.505 69.2022C299.96 67.1102 299.636 65.1633 300.504 63.2097C303.563 56.3263 306.434 49.8466 308.161 41.903C309.31 36.6164 309.814 31.2527 308.827 25.923C307.988 21.395 309.07 16.1702 306.792 11.9405C306.001 10.4706 305.067 8.80409 304.499 7.24264C303.783 5.27341 302.256 4.85818 301.207 3.28462C299.993 1.46484 297.241 2.01701 297.804 3.98745C298.765 7.35378 299.517 10.7191 300.652 14.1229C301.769 17.4736 298.418 12.7949 297.323 13.753C297.303 13.7699 301.961 17.4806 302.353 18.2659C303.271 20.1008 301.717 23.422 301.318 25.2202C300.46 29.0782 300.598 32.9265 299.32 36.7613C298.695 38.6372 299.019 41.9456 297.693 43.4196C295.606 45.7376 296.35 51.9701 293.18 53.5551" stroke="black" stroke-width="2.5" stroke-linecap="round" stroke-linejoin="round"/>
</svg>
