<svg width="440" height="22" viewBox="0 0 440 22" fill="none" xmlns="http://www.w3.org/2000/svg">
<line x1="776" y1="0.25" x2="-335" y2="0.250194" stroke="#505050" stroke-opacity="0.2" stroke-width="0.5"/>
<path d="M48.69 13.0001L53.23 13.0001L53.23 13.6101L50.76 15.9501C50.42 16.2701 50.1467 16.5935 49.94 16.9201C49.7333 17.2535 49.63 17.6035 49.63 17.9701L49.63 18.1601C49.63 18.5935 49.7533 18.9368 50 19.1901C50.24 19.4501 50.6 19.5801 51.08 19.5801C51.5467 19.5801 51.91 19.4635 52.17 19.2301C52.4233 19.0035 52.61 18.6968 52.73 18.3101L53.26 18.5001C53.1933 18.7135 53.1033 18.9168 52.99 19.1101C52.8767 19.3035 52.7333 19.4735 52.56 19.6201C52.38 19.7668 52.1667 19.8835 51.92 19.9701C51.6733 20.0568 51.39 20.1001 51.07 20.1001C50.7367 20.1001 50.4433 20.0501 50.19 19.9501C49.93 19.8568 49.7133 19.7235 49.54 19.5501C49.36 19.3768 49.2267 19.1668 49.14 18.9201C49.0467 18.6801 49 18.4101 49 18.1101C49 17.6168 49.1267 17.1668 49.38 16.7601C49.6333 16.3601 49.9733 15.9635 50.4 15.5701L52.6 13.5201L48.69 13.5201L48.69 13.0001ZM42.7739 19.4601L45.9339 19.4601L46.1539 16.5301L46.0939 16.5201C45.9139 16.7668 45.7072 16.9501 45.4739 17.0701C45.2339 17.1968 44.9272 17.2601 44.5539 17.2601C44.2472 17.2601 43.9672 17.2101 43.7139 17.1101C43.4539 17.0168 43.2339 16.8768 43.0539 16.6901C42.8739 16.5101 42.7339 16.2868 42.6339 16.0201C42.5339 15.7601 42.4839 15.4635 42.4839 15.1301C42.4839 14.7901 42.5372 14.4801 42.6439 14.2001C42.7439 13.9268 42.8939 13.6901 43.0939 13.4901C43.2872 13.2968 43.5239 13.1468 43.8039 13.0401C44.0839 12.9335 44.3972 12.8801 44.7439 12.8801C45.0172 12.8801 45.2672 12.9101 45.4939 12.9701C45.7139 13.0235 45.9139 13.1001 46.0939 13.2001C46.2672 13.3068 46.4239 13.4301 46.5639 13.5701C46.7039 13.7101 46.8272 13.8601 46.9339 14.0201L46.4739 14.3601C46.2806 14.0601 46.0539 13.8235 45.7939 13.6501C45.5272 13.4835 45.1739 13.4001 44.7339 13.4001C44.2139 13.4001 43.8139 13.5468 43.5339 13.8401C43.2472 14.1335 43.1039 14.5201 43.1039 15.0001L43.1039 15.1601C43.1039 15.6468 43.2439 16.0335 43.5239 16.3201C43.7972 16.6068 44.1939 16.7501 44.7139 16.7501C44.9006 16.7501 45.0639 16.7335 45.2039 16.7001C45.3439 16.6735 45.4706 16.6301 45.5839 16.5701C45.6906 16.5168 45.7906 16.4501 45.8839 16.3701C45.9772 16.2968 46.0672 16.2101 46.1539 16.1101L46.6739 16.1901L46.4239 19.9801L42.7739 19.9801L42.7739 19.4601ZM38.4078 12.8801C39.2145 12.8801 39.8145 13.1801 40.2078 13.7801C40.5945 14.3868 40.7878 15.2901 40.7878 16.4901C40.7878 17.6901 40.5945 18.5901 40.2078 19.1901C39.8145 19.7968 39.2145 20.1001 38.4078 20.1001C37.6011 20.1001 37.0045 19.7968 36.6178 19.1901C36.2245 18.5901 36.0278 17.6901 36.0278 16.4901C36.0278 15.2901 36.2245 14.3868 36.6178 13.7801C37.0045 13.1801 37.6011 12.8801 38.4078 12.8801ZM38.4078 13.4001C37.8078 13.4001 37.3678 13.6268 37.0878 14.0801C36.8078 14.5401 36.6678 15.1868 36.6678 16.0201L36.6678 16.9601C36.6678 17.7868 36.8078 18.4301 37.0878 18.8901C37.3678 19.3501 37.8078 19.5801 38.4078 19.5801C39.0078 19.5801 39.4478 19.3501 39.7278 18.8901C40.0078 18.4301 40.1478 17.7868 40.1478 16.9601L40.1478 16.0201C40.1478 15.1868 40.0078 14.5401 39.7278 14.0801C39.4478 13.6268 39.0078 13.4001 38.4078 13.4001ZM38.4078 16.0301C38.5811 16.0301 38.7045 16.0668 38.7778 16.1401C38.8511 16.2135 38.8878 16.3035 38.8878 16.4101L38.8878 16.5701C38.8878 16.6768 38.8511 16.7668 38.7778 16.8401C38.7045 16.9135 38.5811 16.9501 38.4078 16.9501C38.2345 16.9501 38.1111 16.9135 38.0378 16.8401C37.9645 16.7668 37.9278 16.6768 37.9278 16.5701L37.9278 16.4101C37.9278 16.3035 37.9645 16.2135 38.0378 16.1401C38.1111 16.0668 38.2345 16.0301 38.4078 16.0301Z" fill="#505050" fill-opacity="0.5"/>
<path d="M110.26 16.9201C109.767 16.9201 109.383 17.0368 109.11 17.2701C108.837 17.5101 108.7 17.8201 108.7 18.2001L108.7 18.3301C108.7 18.7301 108.833 19.0368 109.1 19.2501C109.36 19.4701 109.7 19.5801 110.12 19.5801C110.533 19.5801 110.863 19.4935 111.11 19.3201C111.357 19.1535 111.553 18.9301 111.7 18.6501L112.15 18.9701C112.07 19.1168 111.97 19.2568 111.85 19.3901C111.723 19.5301 111.58 19.6535 111.42 19.7601C111.253 19.8668 111.063 19.9501 110.85 20.0101C110.63 20.0701 110.383 20.1001 110.11 20.1001C109.817 20.1001 109.547 20.0601 109.3 19.9801C109.047 19.9001 108.83 19.7835 108.65 19.6301C108.47 19.4835 108.33 19.3001 108.23 19.0801C108.123 18.8668 108.07 18.6235 108.07 18.3501C108.07 18.1168 108.107 17.9068 108.18 17.7201C108.247 17.5335 108.343 17.3735 108.47 17.2401C108.59 17.1068 108.737 16.9935 108.91 16.9001C109.077 16.8135 109.257 16.7468 109.45 16.7001L109.45 16.6601C109.243 16.6268 109.047 16.5635 108.86 16.4701C108.673 16.3835 108.513 16.2668 108.38 16.1201C108.24 15.9735 108.13 15.7968 108.05 15.5901C107.97 15.3835 107.93 15.1501 107.93 14.8901C107.93 14.5901 107.983 14.3135 108.09 14.0601C108.197 13.8135 108.35 13.6035 108.55 13.4301C108.75 13.2568 108.99 13.1201 109.27 13.0201C109.55 12.9268 109.863 12.8801 110.21 12.8801C110.49 12.8801 110.743 12.9101 110.97 12.9701C111.197 13.0235 111.4 13.1001 111.58 13.2001C111.76 13.3068 111.92 13.4301 112.06 13.5701C112.2 13.7101 112.323 13.8601 112.43 14.0201L111.98 14.3601C111.787 14.0601 111.553 13.8235 111.28 13.6501C111.007 13.4835 110.65 13.4001 110.21 13.4001C109.697 13.4001 109.293 13.5268 109 13.7801C108.707 14.0401 108.56 14.3901 108.56 14.8301L108.56 14.9901C108.56 15.4301 108.703 15.7735 108.99 16.0201C109.27 16.2735 109.68 16.4001 110.22 16.4001L111.1 16.4001L111.1 16.9201L110.26 16.9201ZM103.704 12.8801C104.511 12.8801 105.111 13.1801 105.504 13.7801C105.891 14.3868 106.084 15.2901 106.084 16.4901C106.084 17.6901 105.891 18.5901 105.504 19.1901C105.111 19.7968 104.511 20.1001 103.704 20.1001C102.897 20.1001 102.301 19.7968 101.914 19.1901C101.521 18.5901 101.324 17.6901 101.324 16.4901C101.324 15.2901 101.521 14.3868 101.914 13.7801C102.301 13.1801 102.897 12.8801 103.704 12.8801ZM103.704 13.4001C103.104 13.4001 102.664 13.6268 102.384 14.0801C102.104 14.5401 101.964 15.1868 101.964 16.0201L101.964 16.9601C101.964 17.7868 102.104 18.4301 102.384 18.8901C102.664 19.3501 103.104 19.5801 103.704 19.5801C104.304 19.5801 104.744 19.3501 105.024 18.8901C105.304 18.4301 105.444 17.7868 105.444 16.9601L105.444 16.0201C105.444 15.1868 105.304 14.5401 105.024 14.0801C104.744 13.6268 104.304 13.4001 103.704 13.4001ZM103.704 16.0301C103.877 16.0301 104.001 16.0668 104.074 16.1401C104.147 16.2135 104.184 16.3035 104.184 16.4101L104.184 16.5701C104.184 16.6768 104.147 16.7668 104.074 16.8401C104.001 16.9135 103.877 16.9501 103.704 16.9501C103.531 16.9501 103.407 16.9135 103.334 16.8401C103.261 16.7668 103.224 16.6768 103.224 16.5701L103.224 16.4101C103.224 16.3035 103.261 16.2135 103.334 16.1401C103.407 16.0668 103.531 16.0301 103.704 16.0301ZM97.4078 12.8801C98.2145 12.8801 98.8145 13.1801 99.2078 13.7801C99.5945 14.3868 99.7878 15.2901 99.7878 16.4901C99.7878 17.6901 99.5945 18.5901 99.2078 19.1901C98.8145 19.7968 98.2145 20.1001 97.4078 20.1001C96.6011 20.1001 96.0045 19.7968 95.6178 19.1901C95.2245 18.5901 95.0278 17.6901 95.0278 16.4901C95.0278 15.2901 95.2245 14.3868 95.6178 13.7801C96.0045 13.1801 96.6011 12.8801 97.4078 12.8801ZM97.4078 13.4001C96.8078 13.4001 96.3678 13.6268 96.0878 14.0801C95.8078 14.5401 95.6678 15.1868 95.6678 16.0201L95.6678 16.9601C95.6678 17.7868 95.8078 18.4301 96.0878 18.8901C96.3678 19.3501 96.8078 19.5801 97.4078 19.5801C98.0078 19.5801 98.4478 19.3501 98.7278 18.8901C99.0078 18.4301 99.1478 17.7868 99.1478 16.9601L99.1478 16.0201C99.1478 15.1868 99.0078 14.5401 98.7278 14.0801C98.4478 13.6268 98.0078 13.4001 97.4078 13.4001ZM97.4078 16.0301C97.5811 16.0301 97.7045 16.0668 97.7778 16.1401C97.8511 16.2135 97.8878 16.3035 97.8878 16.4101L97.8878 16.5701C97.8878 16.6768 97.8511 16.7668 97.7778 16.8401C97.7045 16.9135 97.5811 16.9501 97.4078 16.9501C97.2345 16.9501 97.1111 16.9135 97.0378 16.8401C96.9645 16.7668 96.9278 16.6768 96.9278 16.5701L96.9278 16.4101C96.9278 16.3035 96.9645 16.2135 97.0378 16.1401C97.1111 16.0668 97.2345 16.0301 97.4078 16.0301Z" fill="#505050" fill-opacity="0.5"/>
<path d="M169.26 16.9201C168.767 16.9201 168.383 17.0368 168.11 17.2701C167.837 17.5101 167.7 17.8201 167.7 18.2001L167.7 18.3301C167.7 18.7301 167.833 19.0368 168.1 19.2501C168.36 19.4701 168.7 19.5801 169.12 19.5801C169.533 19.5801 169.863 19.4935 170.11 19.3201C170.357 19.1535 170.553 18.9301 170.7 18.6501L171.15 18.9701C171.07 19.1168 170.97 19.2568 170.85 19.3901C170.723 19.5301 170.58 19.6535 170.42 19.7601C170.253 19.8668 170.063 19.9501 169.85 20.0101C169.63 20.0701 169.383 20.1001 169.11 20.1001C168.817 20.1001 168.547 20.0601 168.3 19.9801C168.047 19.9001 167.83 19.7835 167.65 19.6301C167.47 19.4835 167.33 19.3001 167.23 19.0801C167.123 18.8668 167.07 18.6235 167.07 18.3501C167.07 18.1168 167.107 17.9068 167.18 17.7201C167.247 17.5335 167.343 17.3735 167.47 17.2401C167.59 17.1068 167.737 16.9935 167.91 16.9001C168.077 16.8135 168.257 16.7468 168.45 16.7001L168.45 16.6601C168.243 16.6268 168.047 16.5635 167.86 16.4701C167.673 16.3835 167.513 16.2668 167.38 16.1201C167.24 15.9735 167.13 15.7968 167.05 15.5901C166.97 15.3835 166.93 15.1501 166.93 14.8901C166.93 14.5901 166.983 14.3135 167.09 14.0601C167.197 13.8135 167.35 13.6035 167.55 13.4301C167.75 13.2568 167.99 13.1201 168.27 13.0201C168.55 12.9268 168.863 12.8801 169.21 12.8801C169.49 12.8801 169.743 12.9101 169.97 12.9701C170.197 13.0235 170.4 13.1001 170.58 13.2001C170.76 13.3068 170.92 13.4301 171.06 13.5701C171.2 13.7101 171.323 13.8601 171.43 14.0201L170.98 14.3601C170.787 14.0601 170.553 13.8235 170.28 13.6501C170.007 13.4835 169.65 13.4001 169.21 13.4001C168.697 13.4001 168.293 13.5268 168 13.7801C167.707 14.0401 167.56 14.3901 167.56 14.8301L167.56 14.9901C167.56 15.4301 167.703 15.7735 167.99 16.0201C168.27 16.2735 168.68 16.4001 169.22 16.4001L170.1 16.4001L170.1 16.9201L169.26 16.9201ZM160.774 19.4601L163.934 19.4601L164.154 16.5301L164.094 16.5201C163.914 16.7668 163.707 16.9501 163.474 17.0701C163.234 17.1968 162.927 17.2601 162.554 17.2601C162.247 17.2601 161.967 17.2101 161.714 17.1101C161.454 17.0168 161.234 16.8768 161.054 16.6901C160.874 16.5101 160.734 16.2868 160.634 16.0201C160.534 15.7601 160.484 15.4635 160.484 15.1301C160.484 14.7901 160.537 14.4801 160.644 14.2001C160.744 13.9268 160.894 13.6901 161.094 13.4901C161.287 13.2968 161.524 13.1468 161.804 13.0401C162.084 12.9335 162.397 12.8801 162.744 12.8801C163.017 12.8801 163.267 12.9101 163.494 12.9701C163.714 13.0235 163.914 13.1001 164.094 13.2001C164.267 13.3068 164.424 13.4301 164.564 13.5701C164.704 13.7101 164.827 13.8601 164.934 14.0201L164.474 14.3601C164.281 14.0601 164.054 13.8235 163.794 13.6501C163.527 13.4835 163.174 13.4001 162.734 13.4001C162.214 13.4001 161.814 13.5468 161.534 13.8401C161.247 14.1335 161.104 14.5201 161.104 15.0001L161.104 15.1601C161.104 15.6468 161.244 16.0335 161.524 16.3201C161.797 16.6068 162.194 16.7501 162.714 16.7501C162.901 16.7501 163.064 16.7335 163.204 16.7001C163.344 16.6735 163.471 16.6301 163.584 16.5701C163.691 16.5168 163.791 16.4501 163.884 16.3701C163.977 16.2968 164.067 16.2101 164.154 16.1101L164.674 16.1901L164.424 19.9801L160.774 19.9801L160.774 19.4601ZM156.408 12.8801C157.214 12.8801 157.814 13.1801 158.208 13.7801C158.594 14.3868 158.788 15.2901 158.788 16.4901C158.788 17.6901 158.594 18.5901 158.208 19.1901C157.814 19.7968 157.214 20.1001 156.408 20.1001C155.601 20.1001 155.004 19.7968 154.618 19.1901C154.224 18.5901 154.028 17.6901 154.028 16.4901C154.028 15.2901 154.224 14.3868 154.618 13.7801C155.004 13.1801 155.601 12.8801 156.408 12.8801ZM156.408 13.4001C155.808 13.4001 155.368 13.6268 155.088 14.0801C154.808 14.5401 154.668 15.1868 154.668 16.0201L154.668 16.9601C154.668 17.7868 154.808 18.4301 155.088 18.8901C155.368 19.3501 155.808 19.5801 156.408 19.5801C157.008 19.5801 157.448 19.3501 157.728 18.8901C158.008 18.4301 158.148 17.7868 158.148 16.9601L158.148 16.0201C158.148 15.1868 158.008 14.5401 157.728 14.0801C157.448 13.6268 157.008 13.4001 156.408 13.4001ZM156.408 16.0301C156.581 16.0301 156.704 16.0668 156.778 16.1401C156.851 16.2135 156.888 16.3035 156.888 16.4101L156.888 16.5701C156.888 16.6768 156.851 16.7668 156.778 16.8401C156.704 16.9135 156.581 16.9501 156.408 16.9501C156.234 16.9501 156.111 16.9135 156.038 16.8401C155.964 16.7668 155.928 16.6768 155.928 16.5701L155.928 16.4101C155.928 16.3035 155.964 16.2135 156.038 16.1401C156.111 16.0668 156.234 16.0301 156.408 16.0301Z" fill="#505050" fill-opacity="0.5"/>
<path d="M227.09 13.0001L227.09 14.4601L230.61 14.4601L230.61 14.9901L227.36 19.9801L226.52 19.9801L226.52 14.9501L225.43 14.9501L225.43 14.4601L226.52 14.4601L226.52 13.0001L227.09 13.0001ZM230.07 14.9501L227.09 14.9501L227.09 19.4701L227.12 19.4701L230.07 14.9501ZM221.704 12.8801C222.511 12.8801 223.111 13.1801 223.504 13.7801C223.891 14.3868 224.084 15.2901 224.084 16.4901C224.084 17.6901 223.891 18.5901 223.504 19.1901C223.111 19.7968 222.511 20.1001 221.704 20.1001C220.897 20.1001 220.301 19.7968 219.914 19.1901C219.521 18.5901 219.324 17.6901 219.324 16.4901C219.324 15.2901 219.521 14.3868 219.914 13.7801C220.301 13.1801 220.897 12.8801 221.704 12.8801ZM221.704 13.4001C221.104 13.4001 220.664 13.6268 220.384 14.0801C220.104 14.5401 219.964 15.1868 219.964 16.0201L219.964 16.9601C219.964 17.7868 220.104 18.4301 220.384 18.8901C220.664 19.3501 221.104 19.5801 221.704 19.5801C222.304 19.5801 222.744 19.3501 223.024 18.8901C223.304 18.4301 223.444 17.7868 223.444 16.9601L223.444 16.0201C223.444 15.1868 223.304 14.5401 223.024 14.0801C222.744 13.6268 222.304 13.4001 221.704 13.4001ZM221.704 16.0301C221.877 16.0301 222.001 16.0668 222.074 16.1401C222.147 16.2135 222.184 16.3035 222.184 16.4101L222.184 16.5701C222.184 16.6768 222.147 16.7668 222.074 16.8401C222.001 16.9135 221.877 16.9501 221.704 16.9501C221.531 16.9501 221.407 16.9135 221.334 16.8401C221.261 16.7668 221.224 16.6768 221.224 16.5701L221.224 16.4101C221.224 16.3035 221.261 16.2135 221.334 16.1401C221.407 16.0668 221.531 16.0301 221.704 16.0301ZM215.408 12.8801C216.214 12.8801 216.814 13.1801 217.208 13.7801C217.594 14.3868 217.788 15.2901 217.788 16.4901C217.788 17.6901 217.594 18.5901 217.208 19.1901C216.814 19.7968 216.214 20.1001 215.408 20.1001C214.601 20.1001 214.004 19.7968 213.618 19.1901C213.224 18.5901 213.028 17.6901 213.028 16.4901C213.028 15.2901 213.224 14.3868 213.618 13.7801C214.004 13.1801 214.601 12.8801 215.408 12.8801ZM215.408 13.4001C214.808 13.4001 214.368 13.6268 214.088 14.0801C213.808 14.5401 213.668 15.1868 213.668 16.0201L213.668 16.9601C213.668 17.7868 213.808 18.4301 214.088 18.8901C214.368 19.3501 214.808 19.5801 215.408 19.5801C216.008 19.5801 216.448 19.3501 216.728 18.8901C217.008 18.4301 217.148 17.7868 217.148 16.9601L217.148 16.0201C217.148 15.1868 217.008 14.5401 216.728 14.0801C216.448 13.6268 216.008 13.4001 215.408 13.4001ZM215.408 16.0301C215.581 16.0301 215.704 16.0668 215.778 16.1401C215.851 16.2135 215.888 16.3035 215.888 16.4101L215.888 16.5701C215.888 16.6768 215.851 16.7668 215.778 16.8401C215.704 16.9135 215.581 16.9501 215.408 16.9501C215.234 16.9501 215.111 16.9135 215.038 16.8401C214.964 16.7668 214.928 16.6768 214.928 16.5701L214.928 16.4101C214.928 16.3035 214.964 16.2135 215.038 16.1401C215.111 16.0668 215.234 16.0301 215.408 16.0301Z" fill="#505050" fill-opacity="0.5"/>
<path d="M286.09 13.0001L286.09 14.4601L289.61 14.4601L289.61 14.9901L286.36 19.9801L285.52 19.9801L285.52 14.9501L284.43 14.9501L284.43 14.4601L285.52 14.4601L285.52 13.0001L286.09 13.0001ZM289.07 14.9501L286.09 14.9501L286.09 19.4701L286.12 19.4701L289.07 14.9501ZM278.774 19.4601L281.934 19.4601L282.154 16.5301L282.094 16.5201C281.914 16.7668 281.707 16.9501 281.474 17.0701C281.234 17.1968 280.927 17.2601 280.554 17.2601C280.247 17.2601 279.967 17.2101 279.714 17.1101C279.454 17.0168 279.234 16.8768 279.054 16.6901C278.874 16.5101 278.734 16.2868 278.634 16.0201C278.534 15.7601 278.484 15.4635 278.484 15.1301C278.484 14.7901 278.537 14.4801 278.644 14.2001C278.744 13.9268 278.894 13.6901 279.094 13.4901C279.287 13.2968 279.524 13.1468 279.804 13.0401C280.084 12.9335 280.397 12.8801 280.744 12.8801C281.017 12.8801 281.267 12.9101 281.494 12.9701C281.714 13.0235 281.914 13.1001 282.094 13.2001C282.267 13.3068 282.424 13.4301 282.564 13.5701C282.704 13.7101 282.827 13.8601 282.934 14.0201L282.474 14.3601C282.281 14.0601 282.054 13.8235 281.794 13.6501C281.527 13.4835 281.174 13.4001 280.734 13.4001C280.214 13.4001 279.814 13.5468 279.534 13.8401C279.247 14.1335 279.104 14.5201 279.104 15.0001L279.104 15.1601C279.104 15.6468 279.244 16.0335 279.524 16.3201C279.797 16.6068 280.194 16.7501 280.714 16.7501C280.901 16.7501 281.064 16.7335 281.204 16.7001C281.344 16.6735 281.471 16.6301 281.584 16.5701C281.691 16.5168 281.791 16.4501 281.884 16.3701C281.977 16.2968 282.067 16.2101 282.154 16.1101L282.674 16.1901L282.424 19.9801L278.774 19.9801L278.774 19.4601ZM274.408 12.8801C275.214 12.8801 275.814 13.1801 276.208 13.7801C276.594 14.3868 276.788 15.2901 276.788 16.4901C276.788 17.6901 276.594 18.5901 276.208 19.1901C275.814 19.7968 275.214 20.1001 274.408 20.1001C273.601 20.1001 273.004 19.7968 272.618 19.1901C272.224 18.5901 272.028 17.6901 272.028 16.4901C272.028 15.2901 272.224 14.3868 272.618 13.7801C273.004 13.1801 273.601 12.8801 274.408 12.8801ZM274.408 13.4001C273.808 13.4001 273.368 13.6268 273.088 14.0801C272.808 14.5401 272.668 15.1868 272.668 16.0201L272.668 16.9601C272.668 17.7868 272.808 18.4301 273.088 18.8901C273.368 19.3501 273.808 19.5801 274.408 19.5801C275.008 19.5801 275.448 19.3501 275.728 18.8901C276.008 18.4301 276.148 17.7868 276.148 16.9601L276.148 16.0201C276.148 15.1868 276.008 14.5401 275.728 14.0801C275.448 13.6268 275.008 13.4001 274.408 13.4001ZM274.408 16.0301C274.581 16.0301 274.704 16.0668 274.778 16.1401C274.851 16.2135 274.888 16.3035 274.888 16.4101L274.888 16.5701C274.888 16.6768 274.851 16.7668 274.778 16.8401C274.704 16.9135 274.581 16.9501 274.408 16.9501C274.234 16.9501 274.111 16.9135 274.038 16.8401C273.964 16.7668 273.928 16.6768 273.928 16.5701L273.928 16.4101C273.928 16.3035 273.964 16.2135 274.038 16.1401C274.111 16.0668 274.234 16.0301 274.408 16.0301Z" fill="#505050" fill-opacity="0.5"/>
<path d="M344.07 19.4601L347.23 19.4601L347.45 16.5301L347.39 16.5201C347.21 16.7668 347.003 16.9501 346.77 17.0701C346.53 17.1968 346.223 17.2601 345.85 17.2601C345.543 17.2601 345.263 17.2101 345.01 17.1101C344.75 17.0168 344.53 16.8768 344.35 16.6901C344.17 16.5101 344.03 16.2868 343.93 16.0201C343.83 15.7601 343.78 15.4635 343.78 15.1301C343.78 14.7901 343.833 14.4801 343.94 14.2001C344.04 13.9268 344.19 13.6901 344.39 13.4901C344.583 13.2968 344.82 13.1468 345.1 13.0401C345.38 12.9335 345.693 12.8801 346.04 12.8801C346.313 12.8801 346.563 12.9101 346.79 12.9701C347.01 13.0235 347.21 13.1001 347.39 13.2001C347.563 13.3068 347.72 13.4301 347.86 13.5701C348 13.7101 348.123 13.8601 348.23 14.0201L347.77 14.3601C347.577 14.0601 347.35 13.8235 347.09 13.6501C346.823 13.4835 346.47 13.4001 346.03 13.4001C345.51 13.4001 345.11 13.5468 344.83 13.8401C344.543 14.1335 344.4 14.5201 344.4 15.0001L344.4 15.1601C344.4 15.6468 344.54 16.0335 344.82 16.3201C345.093 16.6068 345.49 16.7501 346.01 16.7501C346.197 16.7501 346.36 16.7335 346.5 16.7001C346.64 16.6735 346.767 16.6301 346.88 16.5701C346.987 16.5168 347.087 16.4501 347.18 16.3701C347.273 16.2968 347.363 16.2101 347.45 16.1101L347.97 16.1901L347.72 19.9801L344.07 19.9801L344.07 19.4601ZM339.704 12.8801C340.511 12.8801 341.111 13.1801 341.504 13.7801C341.891 14.3868 342.084 15.2901 342.084 16.4901C342.084 17.6901 341.891 18.5901 341.504 19.1901C341.111 19.7968 340.511 20.1001 339.704 20.1001C338.897 20.1001 338.301 19.7968 337.914 19.1901C337.521 18.5901 337.324 17.6901 337.324 16.4901C337.324 15.2901 337.521 14.3868 337.914 13.7801C338.301 13.1801 338.897 12.8801 339.704 12.8801ZM339.704 13.4001C339.104 13.4001 338.664 13.6268 338.384 14.0801C338.104 14.5401 337.964 15.1868 337.964 16.0201L337.964 16.9601C337.964 17.7868 338.104 18.4301 338.384 18.8901C338.664 19.3501 339.104 19.5801 339.704 19.5801C340.304 19.5801 340.744 19.3501 341.024 18.8901C341.304 18.4301 341.444 17.7868 341.444 16.9601L341.444 16.0201C341.444 15.1868 341.304 14.5401 341.024 14.0801C340.744 13.6268 340.304 13.4001 339.704 13.4001ZM339.704 16.0301C339.877 16.0301 340.001 16.0668 340.074 16.1401C340.147 16.2135 340.184 16.3035 340.184 16.4101L340.184 16.5701C340.184 16.6768 340.147 16.7668 340.074 16.8401C340.001 16.9135 339.877 16.9501 339.704 16.9501C339.531 16.9501 339.407 16.9135 339.334 16.8401C339.261 16.7668 339.224 16.6768 339.224 16.5701L339.224 16.4101C339.224 16.3035 339.261 16.2135 339.334 16.1401C339.407 16.0668 339.531 16.0301 339.704 16.0301ZM333.408 12.8801C334.214 12.8801 334.814 13.1801 335.208 13.7801C335.594 14.3868 335.788 15.2901 335.788 16.4901C335.788 17.6901 335.594 18.5901 335.208 19.1901C334.814 19.7968 334.214 20.1001 333.408 20.1001C332.601 20.1001 332.004 19.7968 331.618 19.1901C331.224 18.5901 331.028 17.6901 331.028 16.4901C331.028 15.2901 331.224 14.3868 331.618 13.7801C332.004 13.1801 332.601 12.8801 333.408 12.8801ZM333.408 13.4001C332.808 13.4001 332.368 13.6268 332.088 14.0801C331.808 14.5401 331.668 15.1868 331.668 16.0201L331.668 16.9601C331.668 17.7868 331.808 18.4301 332.088 18.8901C332.368 19.3501 332.808 19.5801 333.408 19.5801C334.008 19.5801 334.448 19.3501 334.728 18.8901C335.008 18.4301 335.148 17.7868 335.148 16.9601L335.148 16.0201C335.148 15.1868 335.008 14.5401 334.728 14.0801C334.448 13.6268 334.008 13.4001 333.408 13.4001ZM333.408 16.0301C333.581 16.0301 333.704 16.0668 333.778 16.1401C333.851 16.2135 333.888 16.3035 333.888 16.4101L333.888 16.5701C333.888 16.6768 333.851 16.7668 333.778 16.8401C333.704 16.9135 333.581 16.9501 333.408 16.9501C333.234 16.9501 333.111 16.9135 333.038 16.8401C332.964 16.7668 332.928 16.6768 332.928 16.5701L332.928 16.4101C332.928 16.3035 332.964 16.2135 333.038 16.1401C333.111 16.0668 333.234 16.0301 333.408 16.0301Z" fill="#505050" fill-opacity="0.5"/>
<path d="M403.07 19.4601L406.23 19.4601L406.45 16.5301L406.39 16.5201C406.21 16.7668 406.003 16.9501 405.77 17.0701C405.53 17.1968 405.223 17.2601 404.85 17.2601C404.543 17.2601 404.263 17.2101 404.01 17.1101C403.75 17.0168 403.53 16.8768 403.35 16.6901C403.17 16.5101 403.03 16.2868 402.93 16.0201C402.83 15.7601 402.78 15.4635 402.78 15.1301C402.78 14.7901 402.833 14.4801 402.94 14.2001C403.04 13.9268 403.19 13.6901 403.39 13.4901C403.583 13.2968 403.82 13.1468 404.1 13.0401C404.38 12.9335 404.693 12.8801 405.04 12.8801C405.313 12.8801 405.563 12.9101 405.79 12.9701C406.01 13.0235 406.21 13.1001 406.39 13.2001C406.563 13.3068 406.72 13.4301 406.86 13.5701C407 13.7101 407.123 13.8601 407.23 14.0201L406.77 14.3601C406.577 14.0601 406.35 13.8235 406.09 13.6501C405.823 13.4835 405.47 13.4001 405.03 13.4001C404.51 13.4001 404.11 13.5468 403.83 13.8401C403.543 14.1335 403.4 14.5201 403.4 15.0001L403.4 15.1601C403.4 15.6468 403.54 16.0335 403.82 16.3201C404.093 16.6068 404.49 16.7501 405.01 16.7501C405.197 16.7501 405.36 16.7335 405.5 16.7001C405.64 16.6735 405.767 16.6301 405.88 16.5701C405.987 16.5168 406.087 16.4501 406.18 16.3701C406.273 16.2968 406.363 16.2101 406.45 16.1101L406.97 16.1901L406.72 19.9801L403.07 19.9801L403.07 19.4601ZM396.774 19.4601L399.934 19.4601L400.154 16.5301L400.094 16.5201C399.914 16.7668 399.707 16.9501 399.474 17.0701C399.234 17.1968 398.927 17.2601 398.554 17.2601C398.247 17.2601 397.967 17.2101 397.714 17.1101C397.454 17.0168 397.234 16.8768 397.054 16.6901C396.874 16.5101 396.734 16.2868 396.634 16.0201C396.534 15.7601 396.484 15.4635 396.484 15.1301C396.484 14.7901 396.537 14.4801 396.644 14.2001C396.744 13.9268 396.894 13.6901 397.094 13.4901C397.287 13.2968 397.524 13.1468 397.804 13.0401C398.084 12.9335 398.397 12.8801 398.744 12.8801C399.017 12.8801 399.267 12.9101 399.494 12.9701C399.714 13.0235 399.914 13.1001 400.094 13.2001C400.267 13.3068 400.424 13.4301 400.564 13.5701C400.704 13.7101 400.827 13.8601 400.934 14.0201L400.474 14.3601C400.281 14.0601 400.054 13.8235 399.794 13.6501C399.527 13.4835 399.174 13.4001 398.734 13.4001C398.214 13.4001 397.814 13.5468 397.534 13.8401C397.247 14.1335 397.104 14.5201 397.104 15.0001L397.104 15.1601C397.104 15.6468 397.244 16.0335 397.524 16.3201C397.797 16.6068 398.194 16.7501 398.714 16.7501C398.901 16.7501 399.064 16.7335 399.204 16.7001C399.344 16.6735 399.471 16.6301 399.584 16.5701C399.691 16.5168 399.791 16.4501 399.884 16.3701C399.977 16.2968 400.067 16.2101 400.154 16.1101L400.674 16.1901L400.424 19.9801L396.774 19.9801L396.774 19.4601ZM392.408 12.8801C393.214 12.8801 393.814 13.1801 394.208 13.7801C394.594 14.3868 394.788 15.2901 394.788 16.4901C394.788 17.6901 394.594 18.5901 394.208 19.1901C393.814 19.7968 393.214 20.1001 392.408 20.1001C391.601 20.1001 391.004 19.7968 390.618 19.1901C390.224 18.5901 390.028 17.6901 390.028 16.4901C390.028 15.2901 390.224 14.3868 390.618 13.7801C391.004 13.1801 391.601 12.8801 392.408 12.8801ZM392.408 13.4001C391.808 13.4001 391.368 13.6268 391.088 14.0801C390.808 14.5401 390.668 15.1868 390.668 16.0201L390.668 16.9601C390.668 17.7868 390.808 18.4301 391.088 18.8901C391.368 19.3501 391.808 19.5801 392.408 19.5801C393.008 19.5801 393.448 19.3501 393.728 18.8901C394.008 18.4301 394.148 17.7868 394.148 16.9601L394.148 16.0201C394.148 15.1868 394.008 14.5401 393.728 14.0801C393.448 13.6268 393.008 13.4001 392.408 13.4001ZM392.408 16.0301C392.581 16.0301 392.704 16.0668 392.778 16.1401C392.851 16.2135 392.888 16.3035 392.888 16.4101L392.888 16.5701C392.888 16.6768 392.851 16.7668 392.778 16.8401C392.704 16.9135 392.581 16.9501 392.408 16.9501C392.234 16.9501 392.111 16.9135 392.038 16.8401C391.964 16.7668 391.928 16.6768 391.928 16.5701L391.928 16.4101C391.928 16.3035 391.964 16.2135 392.038 16.1401C392.111 16.0668 392.234 16.0301 392.408 16.0301Z" fill="#505050" fill-opacity="0.5"/>
<line x1="44.25" y1="8.00012" x2="44.25" y2="0.000122081" stroke="#505050" stroke-opacity="0.2" stroke-width="0.5"/>
<line x1="103.25" y1="8.00012" x2="103.25" y2="0.000122081" stroke="#505050" stroke-opacity="0.2" stroke-width="0.5"/>
<line x1="162.25" y1="8.00012" x2="162.25" y2="0.000122081" stroke="#505050" stroke-opacity="0.2" stroke-width="0.5"/>
<line x1="221.25" y1="8.00012" x2="221.25" y2="0.000122081" stroke="#505050" stroke-opacity="0.2" stroke-width="0.5"/>
<line x1="280.25" y1="8.00012" x2="280.25" y2="0.000122081" stroke="#505050" stroke-opacity="0.2" stroke-width="0.5"/>
<line x1="339.25" y1="8.00012" x2="339.25" y2="0.000122081" stroke="#505050" stroke-opacity="0.2" stroke-width="0.5"/>
<line x1="398.25" y1="8.00012" x2="398.25" y2="0.000122081" stroke="#505050" stroke-opacity="0.2" stroke-width="0.5"/>
</svg>
