<svg width="28" height="32" viewBox="0 0 28 32" fill="none" xmlns="http://www.w3.org/2000/svg">
<path d="M6.12752 19.2578C5.76676 20.2554 5.4605 21.1782 5.18655 22.1101C6.6787 20.9955 8.45513 20.288 10.503 20.0246C14.4125 19.5221 17.8852 16.8669 19.6434 13.5312L17.3788 11.2035L19.5764 8.93996C20.0954 8.40536 20.6144 7.87112 21.1335 7.33726C21.8013 6.65028 22.5556 5.37888 23.3534 3.54913C14.6529 4.93621 9.32531 10.4156 6.12752 19.2578ZM21.7778 11.2011L23.3333 12.8C21.7778 17.6 17.1111 22.4 10.8889 23.2C6.73783 23.7338 4.14433 26.667 3.10837 32H0C1.55556 22.4 4.66667 0 28 0C26.4458 4.79573 24.8917 7.9943 23.3375 9.59572C22.8141 10.1341 22.2959 10.6674 21.7778 11.2011Z" fill="#F2832B"/>
</svg>
